<?xml version="1.0" encoding="UTF-8" standalone="no"?>
<!DOCTYPE svg PUBLIC "-//W3C//DTD SVG 1.1//EN"
 "http://www.w3.org/Graphics/SVG/1.1/DTD/svg11.dtd">
<!-- Generated by graphviz version 2.38.0 (20140413.2041)
 -->
<!-- Title: oeng::engine::AActor Pages: 1 -->
<svg width="459pt" height="180pt"
 viewBox="0.00 0.00 459.00 180.00" xmlns="http://www.w3.org/2000/svg" xmlns:xlink="http://www.w3.org/1999/xlink">
<g id="graph0" class="graph" transform="scale(1 1) rotate(0) translate(4 176)">
<title>oeng::engine::AActor</title>
<polygon fill="white" stroke="none" points="-4,4 -4,-176 455,-176 455,4 -4,4"/>
<!-- Node1 -->
<g id="node1" class="node"><title>Node1</title>
<g id="a_node1"><a xlink:title=" ">
<polygon fill="#bfbfbf" stroke="black" points="165,-76.5 165,-95.5 273,-95.5 273,-76.5 165,-76.5"/>
<text text-anchor="middle" x="219" y="-83.5" font-family="Helvetica,sans-Serif" font-size="10.00">oeng::engine::AActor</text>
</a>
</g>
</g>
<!-- Node3 -->
<g id="node3" class="node"><title>Node3</title>
<g id="a_node3"><a xlink:href="../../d0/d4e/classoeng_1_1engine_1_1_a_camera_actor.html" target="_top" xlink:title=" ">
<polygon fill="white" stroke="black" points="309,-152.5 309,-171.5 451,-171.5 451,-152.5 309,-152.5"/>
<text text-anchor="middle" x="380" y="-159.5" font-family="Helvetica,sans-Serif" font-size="10.00">oeng::engine::ACameraActor</text>
</a>
</g>
</g>
<!-- Node1&#45;&gt;Node3 -->
<g id="edge2" class="edge"><title>Node1&#45;&gt;Node3</title>
<path fill="none" stroke="midnightblue" d="M240.54,-101.736C257.95,-114.422 284.003,-131.917 309,-143 317.404,-146.726 326.706,-149.872 335.712,-152.466"/>
<polygon fill="midnightblue" stroke="midnightblue" points="242.391,-98.7504 232.276,-95.5993 238.218,-104.371 242.391,-98.7504"/>
</g>
<!-- Node4 -->
<g id="node4" class="node"><title>Node4</title>
<g id="a_node4"><a xlink:href="../../d5/dde/classoeng_1_1engine_1_1_a_dir_light.html" target="_top" xlink:title=" ">
<polygon fill="white" stroke="black" points="321,-114.5 321,-133.5 439,-133.5 439,-114.5 321,-114.5"/>
<text text-anchor="middle" x="380" y="-121.5" font-family="Helvetica,sans-Serif" font-size="10.00">oeng::engine::ADirLight</text>
</a>
</g>
</g>
<!-- Node1&#45;&gt;Node4 -->
<g id="edge3" class="edge"><title>Node1&#45;&gt;Node4</title>
<path fill="none" stroke="midnightblue" d="M270.077,-97.968C292.358,-103.293 318.229,-109.476 339.166,-114.48"/>
<polygon fill="midnightblue" stroke="midnightblue" points="270.662,-94.5094 260.122,-95.589 269.035,-101.318 270.662,-94.5094"/>
</g>
<!-- Node5 -->
<g id="node5" class="node"><title>Node5</title>
<g id="a_node5"><a xlink:href="../../da/d9c/classoeng_1_1engine_1_1_a_mesh_actor.html" target="_top" xlink:title=" ">
<polygon fill="white" stroke="black" points="314,-76.5 314,-95.5 446,-95.5 446,-76.5 314,-76.5"/>
<text text-anchor="middle" x="380" y="-83.5" font-family="Helvetica,sans-Serif" font-size="10.00">oeng::engine::AMeshActor</text>
</a>
</g>
</g>
<!-- Node1&#45;&gt;Node5 -->
<g id="edge4" class="edge"><title>Node1&#45;&gt;Node5</title>
<path fill="none" stroke="midnightblue" d="M283.616,-86C293.579,-86 303.888,-86 313.884,-86"/>
<polygon fill="midnightblue" stroke="midnightblue" points="283.387,-82.5001 273.387,-86 283.387,-89.5001 283.387,-82.5001"/>
</g>
<!-- Node6 -->
<g id="node6" class="node"><title>Node6</title>
<g id="a_node6"><a xlink:href="../../d0/d53/classoeng_1_1engine_1_1_a_point_light.html" target="_top" xlink:title=" ">
<polygon fill="white" stroke="black" points="316,-38.5 316,-57.5 444,-57.5 444,-38.5 316,-38.5"/>
<text text-anchor="middle" x="380" y="-45.5" font-family="Helvetica,sans-Serif" font-size="10.00">oeng::engine::APointLight</text>
</a>
</g>
</g>
<!-- Node1&#45;&gt;Node6 -->
<g id="edge5" class="edge"><title>Node1&#45;&gt;Node6</title>
<path fill="none" stroke="midnightblue" d="M270.077,-74.032C292.358,-68.7069 318.229,-62.5238 339.166,-57.5201"/>
<polygon fill="midnightblue" stroke="midnightblue" points="269.035,-70.6823 260.122,-76.411 270.662,-77.4906 269.035,-70.6823"/>
</g>
<!-- Node7 -->
<g id="node7" class="node"><title>Node7</title>
<g id="a_node7"><a xlink:href="../../df/da8/classoeng_1_1engine_1_1_a_sky_light.html" target="_top" xlink:title=" ">
<polygon fill="white" stroke="black" points="318.5,-0.5 318.5,-19.5 441.5,-19.5 441.5,-0.5 318.5,-0.5"/>
<text text-anchor="middle" x="380" y="-7.5" font-family="Helvetica,sans-Serif" font-size="10.00">oeng::engine::ASkyLight</text>
</a>
</g>
</g>
<!-- Node1&#45;&gt;Node7 -->
<g id="edge6" class="edge"><title>Node1&#45;&gt;Node7</title>
<path fill="none" stroke="midnightblue" d="M240.54,-70.2645C257.95,-57.5782 284.003,-40.0832 309,-29 317.404,-25.274 326.706,-22.128 335.712,-19.5343"/>
<polygon fill="midnightblue" stroke="midnightblue" points="238.218,-67.6293 232.276,-76.4007 242.391,-73.2496 238.218,-67.6293"/>
</g>
<!-- Node2 -->
<g id="node2" class="node"><title>Node2</title>
<g id="a_node2"><a xlink:href="../../d3/dfa/classoeng_1_1core_1_1_enable_shared_from_this.html" target="_top" xlink:title=" ">
<polygon fill="white" stroke="black" points="0,-71 0,-101 129,-101 129,-71 0,-71"/>
<text text-anchor="start" x="8" y="-89" font-family="Helvetica,sans-Serif" font-size="10.00">oeng::core::EnableShared</text>
<text text-anchor="middle" x="64.5" y="-78" font-family="Helvetica,sans-Serif" font-size="10.00">FromThis&lt; AActor &gt;</text>
</a>
</g>
</g>
<!-- Node2&#45;&gt;Node1 -->
<g id="edge1" class="edge"><title>Node2&#45;&gt;Node1</title>
<path fill="none" stroke="midnightblue" d="M139.556,-86C148.01,-86 156.5,-86 164.609,-86"/>
<polygon fill="midnightblue" stroke="midnightblue" points="139.29,-82.5001 129.29,-86 139.29,-89.5001 139.29,-82.5001"/>
</g>
</g>
</svg>
