<?xml version="1.0" encoding="UTF-8" standalone="no"?>
<!DOCTYPE svg PUBLIC "-//W3C//DTD SVG 1.1//EN"
 "http://www.w3.org/Graphics/SVG/1.1/DTD/svg11.dtd">
<!-- Generated by graphviz version 2.38.0 (20140413.2041)
 -->
<!-- Title: oeng::engine::SkyLightComponent Pages: 1 -->
<svg width="306pt" height="207pt"
 viewBox="0.00 0.00 306.00 207.00" xmlns="http://www.w3.org/2000/svg" xmlns:xlink="http://www.w3.org/1999/xlink">
<g id="graph0" class="graph" transform="scale(1 1) rotate(0) translate(4 203)">
<title>oeng::engine::SkyLightComponent</title>
<polygon fill="white" stroke="none" points="-4,4 -4,-203 302,-203 302,4 -4,4"/>
<!-- Node1 -->
<g id="node1" class="node"><title>Node1</title>
<g id="a_node1"><a xlink:title=" ">
<polygon fill="#bfbfbf" stroke="black" points="73.5,-0.5 73.5,-19.5 239.5,-19.5 239.5,-0.5 73.5,-0.5"/>
<text text-anchor="middle" x="156.5" y="-7.5" font-family="Helvetica,sans-Serif" font-size="10.00">oeng::engine::SkyLightComponent</text>
</a>
</g>
</g>
<!-- Node2 -->
<g id="node2" class="node"><title>Node2</title>
<g id="a_node2"><a xlink:href="../../db/d79/classoeng_1_1engine_1_1_scene_component.html" target="_top" xlink:title=" ">
<polygon fill="white" stroke="black" points="0,-56.5 0,-75.5 155,-75.5 155,-56.5 0,-56.5"/>
<text text-anchor="middle" x="77.5" y="-63.5" font-family="Helvetica,sans-Serif" font-size="10.00">oeng::engine::SceneComponent</text>
</a>
</g>
</g>
<!-- Node2&#45;&gt;Node1 -->
<g id="edge1" class="edge"><title>Node2&#45;&gt;Node1</title>
<path fill="none" stroke="midnightblue" d="M98.5343,-50.6221C112.966,-40.7574 131.641,-27.9919 143.839,-19.6545"/>
<polygon fill="midnightblue" stroke="midnightblue" points="96.4733,-47.7914 90.1927,-56.324 100.423,-53.5703 96.4733,-47.7914"/>
</g>
<!-- Node3 -->
<g id="node3" class="node"><title>Node3</title>
<g id="a_node3"><a xlink:href="../../d3/dbf/classoeng_1_1engine_1_1_actor_component.html" target="_top" xlink:title=" ">
<polygon fill="white" stroke="black" points="2,-112.5 2,-131.5 153,-131.5 153,-112.5 2,-112.5"/>
<text text-anchor="middle" x="77.5" y="-119.5" font-family="Helvetica,sans-Serif" font-size="10.00">oeng::engine::ActorComponent</text>
</a>
</g>
</g>
<!-- Node3&#45;&gt;Node2 -->
<g id="edge2" class="edge"><title>Node3&#45;&gt;Node2</title>
<path fill="none" stroke="midnightblue" d="M77.5,-101.805C77.5,-92.9102 77.5,-82.7798 77.5,-75.7511"/>
<polygon fill="midnightblue" stroke="midnightblue" points="74.0001,-102.083 77.5,-112.083 81.0001,-102.083 74.0001,-102.083"/>
</g>
<!-- Node4 -->
<g id="node4" class="node"><title>Node4</title>
<g id="a_node4"><a xlink:href="../../d3/dfa/classoeng_1_1core_1_1_enable_shared_from_this.html" target="_top" xlink:title=" ">
<polygon fill="white" stroke="black" points="3.5,-168.5 3.5,-198.5 151.5,-198.5 151.5,-168.5 3.5,-168.5"/>
<text text-anchor="start" x="11.5" y="-186.5" font-family="Helvetica,sans-Serif" font-size="10.00">oeng::core::EnableShared</text>
<text text-anchor="middle" x="77.5" y="-175.5" font-family="Helvetica,sans-Serif" font-size="10.00">FromThis&lt; ActorComponent &gt;</text>
</a>
</g>
</g>
<!-- Node4&#45;&gt;Node3 -->
<g id="edge3" class="edge"><title>Node4&#45;&gt;Node3</title>
<path fill="none" stroke="midnightblue" d="M77.5,-158.289C77.5,-148.857 77.5,-138.655 77.5,-131.658"/>
<polygon fill="midnightblue" stroke="midnightblue" points="74.0001,-158.399 77.5,-168.399 81.0001,-158.399 74.0001,-158.399"/>
</g>
<!-- Node5 -->
<g id="node5" class="node"><title>Node5</title>
<g id="a_node5"><a xlink:href="../../d5/d63/classoeng_1_1renderer_1_1_i_sky_light.html" target="_top" xlink:title=" ">
<polygon fill="white" stroke="black" points="173,-56.5 173,-75.5 298,-75.5 298,-56.5 173,-56.5"/>
<text text-anchor="middle" x="235.5" y="-63.5" font-family="Helvetica,sans-Serif" font-size="10.00">oeng::renderer::ISkyLight</text>
</a>
</g>
</g>
<!-- Node5&#45;&gt;Node1 -->
<g id="edge4" class="edge"><title>Node5&#45;&gt;Node1</title>
<path fill="none" stroke="midnightblue" d="M214.466,-50.6221C200.034,-40.7574 181.359,-27.9919 169.161,-19.6545"/>
<polygon fill="midnightblue" stroke="midnightblue" points="212.577,-53.5703 222.807,-56.324 216.527,-47.7914 212.577,-53.5703"/>
</g>
</g>
</svg>
