<?xml version="1.0" encoding="UTF-8" standalone="no"?>
<!DOCTYPE svg PUBLIC "-//W3C//DTD SVG 1.1//EN"
 "http://www.w3.org/Graphics/SVG/1.1/DTD/svg11.dtd">
<!-- Generated by graphviz version 2.38.0 (20140413.2041)
 -->
<!-- Title: oeng::engine::AMeshActor Pages: 1 -->
<svg width="140pt" height="151pt"
 viewBox="0.00 0.00 140.00 151.00" xmlns="http://www.w3.org/2000/svg" xmlns:xlink="http://www.w3.org/1999/xlink">
<g id="graph0" class="graph" transform="scale(1 1) rotate(0) translate(4 147)">
<title>oeng::engine::AMeshActor</title>
<polygon fill="white" stroke="none" points="-4,4 -4,-147 136,-147 136,4 -4,4"/>
<!-- Node1 -->
<g id="node1" class="node"><title>Node1</title>
<g id="a_node1"><a xlink:title=" ">
<polygon fill="#bfbfbf" stroke="black" points="0,-0.5 0,-19.5 132,-19.5 132,-0.5 0,-0.5"/>
<text text-anchor="middle" x="66" y="-7.5" font-family="Helvetica,sans-Serif" font-size="10.00">oeng::engine::AMeshActor</text>
</a>
</g>
</g>
<!-- Node2 -->
<g id="node2" class="node"><title>Node2</title>
<g id="a_node2"><a xlink:href="../../dd/d7a/classoeng_1_1engine_1_1_a_actor.html" target="_top" xlink:title=" ">
<polygon fill="white" stroke="black" points="12,-56.5 12,-75.5 120,-75.5 120,-56.5 12,-56.5"/>
<text text-anchor="middle" x="66" y="-63.5" font-family="Helvetica,sans-Serif" font-size="10.00">oeng::engine::AActor</text>
</a>
</g>
</g>
<!-- Node2&#45;&gt;Node1 -->
<g id="edge1" class="edge"><title>Node2&#45;&gt;Node1</title>
<path fill="none" stroke="midnightblue" d="M66,-45.8045C66,-36.9102 66,-26.7798 66,-19.7511"/>
<polygon fill="midnightblue" stroke="midnightblue" points="62.5001,-46.083 66,-56.083 69.5001,-46.083 62.5001,-46.083"/>
</g>
<!-- Node3 -->
<g id="node3" class="node"><title>Node3</title>
<g id="a_node3"><a xlink:href="../../d3/dfa/classoeng_1_1core_1_1_enable_shared_from_this.html" target="_top" xlink:title=" ">
<polygon fill="white" stroke="black" points="1.5,-112.5 1.5,-142.5 130.5,-142.5 130.5,-112.5 1.5,-112.5"/>
<text text-anchor="start" x="9.5" y="-130.5" font-family="Helvetica,sans-Serif" font-size="10.00">oeng::core::EnableShared</text>
<text text-anchor="middle" x="66" y="-119.5" font-family="Helvetica,sans-Serif" font-size="10.00">FromThis&lt; AActor &gt;</text>
</a>
</g>
</g>
<!-- Node3&#45;&gt;Node2 -->
<g id="edge2" class="edge"><title>Node3&#45;&gt;Node2</title>
<path fill="none" stroke="midnightblue" d="M66,-102.289C66,-92.857 66,-82.6548 66,-75.6578"/>
<polygon fill="midnightblue" stroke="midnightblue" points="62.5001,-102.399 66,-112.399 69.5001,-102.399 62.5001,-102.399"/>
</g>
</g>
</svg>
