<?xml version="1.0" encoding="UTF-8" standalone="no"?>
<!DOCTYPE svg PUBLIC "-//W3C//DTD SVG 1.1//EN"
 "http://www.w3.org/Graphics/SVG/1.1/DTD/svg11.dtd">
<!-- Generated by graphviz version 2.38.0 (20140413.2041)
 -->
<!-- Title: oeng::engine::SceneComponent Pages: 1 -->
<svg width="739pt" height="268pt"
 viewBox="0.00 0.00 739.00 268.00" xmlns="http://www.w3.org/2000/svg" xmlns:xlink="http://www.w3.org/1999/xlink">
<g id="graph0" class="graph" transform="scale(1 1) rotate(0) translate(4 264)">
<title>oeng::engine::SceneComponent</title>
<polygon fill="white" stroke="none" points="-4,4 -4,-264 735,-264 735,4 -4,4"/>
<!-- Node1 -->
<g id="node1" class="node"><title>Node1</title>
<g id="a_node1"><a xlink:title=" ">
<polygon fill="#bfbfbf" stroke="black" points="371,-120.5 371,-139.5 526,-139.5 526,-120.5 371,-120.5"/>
<text text-anchor="middle" x="448.5" y="-127.5" font-family="Helvetica,sans-Serif" font-size="10.00">oeng::engine::SceneComponent</text>
</a>
</g>
</g>
<!-- Node4 -->
<g id="node4" class="node"><title>Node4</title>
<g id="a_node4"><a xlink:href="../../da/d36/classoeng_1_1engine_1_1_camera_component.html" target="_top" xlink:title=" ">
<polygon fill="white" stroke="black" points="566,-240.5 566,-259.5 727,-259.5 727,-240.5 566,-240.5"/>
<text text-anchor="middle" x="646.5" y="-247.5" font-family="Helvetica,sans-Serif" font-size="10.00">oeng::engine::CameraComponent</text>
</a>
</g>
</g>
<!-- Node1&#45;&gt;Node4 -->
<g id="edge3" class="edge"><title>Node1&#45;&gt;Node4</title>
<path fill="none" stroke="midnightblue" d="M463.717,-147.371C483.37,-170.183 521.075,-209.816 562,-231 569.526,-234.896 577.84,-237.998 586.218,-240.468"/>
<polygon fill="midnightblue" stroke="midnightblue" points="466.223,-144.913 457.1,-139.525 460.872,-149.426 466.223,-144.913"/>
</g>
<!-- Node5 -->
<g id="node5" class="node"><title>Node5</title>
<g id="a_node5"><a xlink:href="../../d1/d50/classoeng_1_1engine_1_1_dir_light_component.html" target="_top" xlink:title=" ">
<polygon fill="white" stroke="black" points="566,-202.5 566,-221.5 727,-221.5 727,-202.5 566,-202.5"/>
<text text-anchor="middle" x="646.5" y="-209.5" font-family="Helvetica,sans-Serif" font-size="10.00">oeng::engine::DirLightComponent</text>
</a>
</g>
</g>
<!-- Node1&#45;&gt;Node5 -->
<g id="edge4" class="edge"><title>Node1&#45;&gt;Node5</title>
<path fill="none" stroke="midnightblue" d="M472.033,-145.183C494.094,-159.416 529.092,-180.346 562,-193 571.714,-196.735 582.358,-199.848 592.698,-202.4"/>
<polygon fill="midnightblue" stroke="midnightblue" points="473.697,-142.089 463.414,-139.537 469.861,-147.944 473.697,-142.089"/>
</g>
<!-- Node6 -->
<g id="node6" class="node"><title>Node6</title>
<g id="a_node6"><a xlink:href="../../d8/d1e/classoeng_1_1engine_1_1_mesh_component.html" target="_top" xlink:title=" ">
<polygon fill="white" stroke="black" points="570.5,-164.5 570.5,-183.5 722.5,-183.5 722.5,-164.5 570.5,-164.5"/>
<text text-anchor="middle" x="646.5" y="-171.5" font-family="Helvetica,sans-Serif" font-size="10.00">oeng::engine::MeshComponent</text>
</a>
</g>
</g>
<!-- Node1&#45;&gt;Node6 -->
<g id="edge5" class="edge"><title>Node1&#45;&gt;Node6</title>
<path fill="none" stroke="midnightblue" d="M501.993,-141.784C533.633,-148.887 573.408,-157.816 603.054,-164.471"/>
<polygon fill="midnightblue" stroke="midnightblue" points="502.553,-138.323 492.029,-139.547 501.02,-145.153 502.553,-138.323"/>
</g>
<!-- Node7 -->
<g id="node7" class="node"><title>Node7</title>
<g id="a_node7"><a xlink:href="../../d7/da1/classoeng_1_1engine_1_1_point_light_component.html" target="_top" xlink:title=" ">
<polygon fill="white" stroke="black" points="585.5,-115 585.5,-145 707.5,-145 707.5,-115 585.5,-115"/>
<text text-anchor="start" x="593.5" y="-133" font-family="Helvetica,sans-Serif" font-size="10.00">oeng::engine::PointLight</text>
<text text-anchor="middle" x="646.5" y="-122" font-family="Helvetica,sans-Serif" font-size="10.00">Component</text>
</a>
</g>
</g>
<!-- Node1&#45;&gt;Node7 -->
<g id="edge6" class="edge"><title>Node1&#45;&gt;Node7</title>
<path fill="none" stroke="midnightblue" d="M536.342,-130C552.874,-130 569.835,-130 585.31,-130"/>
<polygon fill="midnightblue" stroke="midnightblue" points="536.121,-126.5 526.121,-130 536.121,-133.5 536.121,-126.5"/>
</g>
<!-- Node8 -->
<g id="node8" class="node"><title>Node8</title>
<g id="a_node8"><a xlink:href="../../d7/d7c/classoeng_1_1engine_1_1_sky_light_component.html" target="_top" xlink:title=" ">
<polygon fill="white" stroke="black" points="563.5,-76.5 563.5,-95.5 729.5,-95.5 729.5,-76.5 563.5,-76.5"/>
<text text-anchor="middle" x="646.5" y="-83.5" font-family="Helvetica,sans-Serif" font-size="10.00">oeng::engine::SkyLightComponent</text>
</a>
</g>
</g>
<!-- Node1&#45;&gt;Node8 -->
<g id="edge7" class="edge"><title>Node1&#45;&gt;Node8</title>
<path fill="none" stroke="midnightblue" d="M501.993,-118.216C533.633,-111.113 573.408,-102.184 603.054,-95.5287"/>
<polygon fill="midnightblue" stroke="midnightblue" points="501.02,-114.847 492.029,-120.453 502.553,-121.677 501.02,-114.847"/>
</g>
<!-- Node9 -->
<g id="node9" class="node"><title>Node9</title>
<g id="a_node9"><a xlink:href="../../dd/d8c/classoeng_1_1engine_1_1_spot_light_component.html" target="_top" xlink:title=" ">
<polygon fill="white" stroke="black" points="562,-38.5 562,-57.5 731,-57.5 731,-38.5 562,-38.5"/>
<text text-anchor="middle" x="646.5" y="-45.5" font-family="Helvetica,sans-Serif" font-size="10.00">oeng::engine::SpotLightComponent</text>
</a>
</g>
</g>
<!-- Node1&#45;&gt;Node9 -->
<g id="edge8" class="edge"><title>Node1&#45;&gt;Node9</title>
<path fill="none" stroke="midnightblue" d="M472.033,-114.817C494.094,-100.584 529.092,-79.6544 562,-67 571.714,-63.2647 582.358,-60.1516 592.698,-57.5996"/>
<polygon fill="midnightblue" stroke="midnightblue" points="469.861,-112.056 463.414,-120.463 473.697,-117.911 469.861,-112.056"/>
</g>
<!-- Node10 -->
<g id="node10" class="node"><title>Node10</title>
<g id="a_node10"><a xlink:href="../../d9/dee/classoeng_1_1engine_1_1_sprite_component.html" target="_top" xlink:title=" ">
<polygon fill="white" stroke="black" points="570,-0.5 570,-19.5 723,-19.5 723,-0.5 570,-0.5"/>
<text text-anchor="middle" x="646.5" y="-7.5" font-family="Helvetica,sans-Serif" font-size="10.00">oeng::engine::SpriteComponent</text>
</a>
</g>
</g>
<!-- Node1&#45;&gt;Node10 -->
<g id="edge9" class="edge"><title>Node1&#45;&gt;Node10</title>
<path fill="none" stroke="midnightblue" d="M463.717,-112.629C483.37,-89.8169 521.075,-50.1845 562,-29 569.526,-25.1044 577.84,-22.0016 586.218,-19.5317"/>
<polygon fill="midnightblue" stroke="midnightblue" points="460.872,-110.574 457.1,-120.475 466.223,-115.087 460.872,-110.574"/>
</g>
<!-- Node2 -->
<g id="node2" class="node"><title>Node2</title>
<g id="a_node2"><a xlink:href="../../d3/dbf/classoeng_1_1engine_1_1_actor_component.html" target="_top" xlink:title=" ">
<polygon fill="white" stroke="black" points="184,-120.5 184,-139.5 335,-139.5 335,-120.5 184,-120.5"/>
<text text-anchor="middle" x="259.5" y="-127.5" font-family="Helvetica,sans-Serif" font-size="10.00">oeng::engine::ActorComponent</text>
</a>
</g>
</g>
<!-- Node2&#45;&gt;Node1 -->
<g id="edge1" class="edge"><title>Node2&#45;&gt;Node1</title>
<path fill="none" stroke="midnightblue" d="M345.443,-130C353.882,-130 362.416,-130 370.765,-130"/>
<polygon fill="midnightblue" stroke="midnightblue" points="345.214,-126.5 335.214,-130 345.214,-133.5 345.214,-126.5"/>
</g>
<!-- Node3 -->
<g id="node3" class="node"><title>Node3</title>
<g id="a_node3"><a xlink:href="../../d3/dfa/classoeng_1_1core_1_1_enable_shared_from_this.html" target="_top" xlink:title=" ">
<polygon fill="white" stroke="black" points="0,-115 0,-145 148,-145 148,-115 0,-115"/>
<text text-anchor="start" x="8" y="-133" font-family="Helvetica,sans-Serif" font-size="10.00">oeng::core::EnableShared</text>
<text text-anchor="middle" x="74" y="-122" font-family="Helvetica,sans-Serif" font-size="10.00">FromThis&lt; ActorComponent &gt;</text>
</a>
</g>
</g>
<!-- Node3&#45;&gt;Node2 -->
<g id="edge2" class="edge"><title>Node3&#45;&gt;Node2</title>
<path fill="none" stroke="midnightblue" d="M158.086,-130C166.69,-130 175.396,-130 183.899,-130"/>
<polygon fill="midnightblue" stroke="midnightblue" points="158.051,-126.5 148.051,-130 158.051,-133.5 158.051,-126.5"/>
</g>
</g>
</svg>
