<?xml version="1.0" encoding="UTF-8" standalone="no"?>
<!DOCTYPE svg PUBLIC "-//W3C//DTD SVG 1.1//EN"
 "http://www.w3.org/Graphics/SVG/1.1/DTD/svg11.dtd">
<!-- Generated by graphviz version 2.38.0 (20140413.2041)
 -->
<!-- Title: oeng::engine::ActorComponent Pages: 1 -->
<svg width="756pt" height="300pt"
 viewBox="0.00 0.00 756.00 300.00" xmlns="http://www.w3.org/2000/svg" xmlns:xlink="http://www.w3.org/1999/xlink">
<g id="graph0" class="graph" transform="scale(1 1) rotate(0) translate(4 296)">
<title>oeng::engine::ActorComponent</title>
<polygon fill="white" stroke="none" points="-4,4 -4,-296 752,-296 752,4 -4,4"/>
<!-- Node1 -->
<g id="node1" class="node"><title>Node1</title>
<g id="a_node1"><a xlink:title=" ">
<polygon fill="#bfbfbf" stroke="black" points="184,-196.5 184,-215.5 335,-215.5 335,-196.5 184,-196.5"/>
<text text-anchor="middle" x="259.5" y="-203.5" font-family="Helvetica,sans-Serif" font-size="10.00">oeng::engine::ActorComponent</text>
</a>
</g>
</g>
<!-- Node3 -->
<g id="node3" class="node"><title>Node3</title>
<g id="a_node3"><a xlink:href="../../db/d71/classoeng_1_1engine_1_1_a_i_component.html" target="_top" xlink:title=" ">
<polygon fill="white" stroke="black" points="388.5,-272.5 388.5,-291.5 525.5,-291.5 525.5,-272.5 388.5,-272.5"/>
<text text-anchor="middle" x="457" y="-279.5" font-family="Helvetica,sans-Serif" font-size="10.00">oeng::engine::AIComponent</text>
</a>
</g>
</g>
<!-- Node1&#45;&gt;Node3 -->
<g id="edge2" class="edge"><title>Node1&#45;&gt;Node3</title>
<path fill="none" stroke="midnightblue" d="M284.639,-220.754C306.493,-233.546 339.929,-251.726 371,-263 381.234,-266.714 392.435,-269.841 403.25,-272.419"/>
<polygon fill="midnightblue" stroke="midnightblue" points="286.407,-217.734 276.022,-215.638 282.834,-223.753 286.407,-217.734"/>
</g>
<!-- Node4 -->
<g id="node4" class="node"><title>Node4</title>
<g id="a_node4"><a xlink:href="../../d5/db0/classoeng_1_1engine_1_1_circle_component.html" target="_top" xlink:title=" ">
<polygon fill="white" stroke="black" points="381,-234.5 381,-253.5 533,-253.5 533,-234.5 381,-234.5"/>
<text text-anchor="middle" x="457" y="-241.5" font-family="Helvetica,sans-Serif" font-size="10.00">oeng::engine::CircleComponent</text>
</a>
</g>
</g>
<!-- Node1&#45;&gt;Node4 -->
<g id="edge3" class="edge"><title>Node1&#45;&gt;Node4</title>
<path fill="none" stroke="midnightblue" d="M319.61,-217.489C347.504,-222.911 380.402,-229.306 406.899,-234.456"/>
<polygon fill="midnightblue" stroke="midnightblue" points="320.065,-214.012 309.581,-215.54 318.729,-220.884 320.065,-214.012"/>
</g>
<!-- Node5 -->
<g id="node5" class="node"><title>Node5</title>
<g id="a_node5"><a xlink:href="../../da/df5/classoeng_1_1engine_1_1_input_component.html" target="_top" xlink:title=" ">
<polygon fill="white" stroke="black" points="382.5,-196.5 382.5,-215.5 531.5,-215.5 531.5,-196.5 382.5,-196.5"/>
<text text-anchor="middle" x="457" y="-203.5" font-family="Helvetica,sans-Serif" font-size="10.00">oeng::engine::InputComponent</text>
</a>
</g>
</g>
<!-- Node1&#45;&gt;Node5 -->
<g id="edge4" class="edge"><title>Node1&#45;&gt;Node5</title>
<path fill="none" stroke="midnightblue" d="M345.462,-206C357.719,-206 370.249,-206 382.263,-206"/>
<polygon fill="midnightblue" stroke="midnightblue" points="345.247,-202.5 335.247,-206 345.247,-209.5 345.247,-202.5"/>
</g>
<!-- Node6 -->
<g id="node6" class="node"><title>Node6</title>
<g id="a_node6"><a xlink:href="../../d8/d5b/classoeng_1_1engine_1_1_movement_component.html" target="_top" xlink:title=" ">
<polygon fill="white" stroke="black" points="371,-158.5 371,-177.5 543,-177.5 543,-158.5 371,-158.5"/>
<text text-anchor="middle" x="457" y="-165.5" font-family="Helvetica,sans-Serif" font-size="10.00">oeng::engine::MovementComponent</text>
</a>
</g>
</g>
<!-- Node1&#45;&gt;Node6 -->
<g id="edge5" class="edge"><title>Node1&#45;&gt;Node6</title>
<path fill="none" stroke="midnightblue" d="M319.61,-194.511C347.504,-189.089 380.402,-182.694 406.899,-177.544"/>
<polygon fill="midnightblue" stroke="midnightblue" points="318.729,-191.116 309.581,-196.46 320.065,-197.988 318.729,-191.116"/>
</g>
<!-- Node7 -->
<g id="node7" class="node"><title>Node7</title>
<g id="a_node7"><a xlink:href="../../db/d79/classoeng_1_1engine_1_1_scene_component.html" target="_top" xlink:title=" ">
<polygon fill="white" stroke="black" points="379.5,-120.5 379.5,-139.5 534.5,-139.5 534.5,-120.5 379.5,-120.5"/>
<text text-anchor="middle" x="457" y="-127.5" font-family="Helvetica,sans-Serif" font-size="10.00">oeng::engine::SceneComponent</text>
</a>
</g>
</g>
<!-- Node1&#45;&gt;Node7 -->
<g id="edge6" class="edge"><title>Node1&#45;&gt;Node7</title>
<path fill="none" stroke="midnightblue" d="M284.639,-191.246C306.493,-178.454 339.929,-160.274 371,-149 381.234,-145.286 392.435,-142.159 403.25,-139.581"/>
<polygon fill="midnightblue" stroke="midnightblue" points="282.834,-188.247 276.022,-196.362 286.407,-194.266 282.834,-188.247"/>
</g>
<!-- Node2 -->
<g id="node2" class="node"><title>Node2</title>
<g id="a_node2"><a xlink:href="../../d3/dfa/classoeng_1_1core_1_1_enable_shared_from_this.html" target="_top" xlink:title=" ">
<polygon fill="white" stroke="black" points="0,-191 0,-221 148,-221 148,-191 0,-191"/>
<text text-anchor="start" x="8" y="-209" font-family="Helvetica,sans-Serif" font-size="10.00">oeng::core::EnableShared</text>
<text text-anchor="middle" x="74" y="-198" font-family="Helvetica,sans-Serif" font-size="10.00">FromThis&lt; ActorComponent &gt;</text>
</a>
</g>
</g>
<!-- Node2&#45;&gt;Node1 -->
<g id="edge1" class="edge"><title>Node2&#45;&gt;Node1</title>
<path fill="none" stroke="midnightblue" d="M158.086,-206C166.69,-206 175.396,-206 183.899,-206"/>
<polygon fill="midnightblue" stroke="midnightblue" points="158.051,-202.5 148.051,-206 158.051,-209.5 158.051,-202.5"/>
</g>
<!-- Node8 -->
<g id="node8" class="node"><title>Node8</title>
<g id="a_node8"><a xlink:href="../../da/d36/classoeng_1_1engine_1_1_camera_component.html" target="_top" xlink:title=" ">
<polygon fill="white" stroke="black" points="583,-240.5 583,-259.5 744,-259.5 744,-240.5 583,-240.5"/>
<text text-anchor="middle" x="663.5" y="-247.5" font-family="Helvetica,sans-Serif" font-size="10.00">oeng::engine::CameraComponent</text>
</a>
</g>
</g>
<!-- Node7&#45;&gt;Node8 -->
<g id="edge7" class="edge"><title>Node7&#45;&gt;Node8</title>
<path fill="none" stroke="midnightblue" d="M536.542,-144.368C538.795,-145.778 540.957,-147.319 543,-149 573.735,-174.29 548.314,-205.652 579,-231 583.585,-234.787 588.776,-237.855 594.271,-240.335"/>
<polygon fill="midnightblue" stroke="midnightblue" points="537.922,-141.138 527.448,-139.545 534.643,-147.322 537.922,-141.138"/>
</g>
<!-- Node9 -->
<g id="node9" class="node"><title>Node9</title>
<g id="a_node9"><a xlink:href="../../d1/d50/classoeng_1_1engine_1_1_dir_light_component.html" target="_top" xlink:title=" ">
<polygon fill="white" stroke="black" points="583,-202.5 583,-221.5 744,-221.5 744,-202.5 583,-202.5"/>
<text text-anchor="middle" x="663.5" y="-209.5" font-family="Helvetica,sans-Serif" font-size="10.00">oeng::engine::DirLightComponent</text>
</a>
</g>
</g>
<!-- Node7&#45;&gt;Node9 -->
<g id="edge8" class="edge"><title>Node7&#45;&gt;Node9</title>
<path fill="none" stroke="midnightblue" d="M532.106,-143.305C535.892,-144.984 539.551,-146.873 543,-149 564.508,-162.26 557.518,-179.699 579,-193 585.32,-196.913 592.357,-200.023 599.589,-202.493"/>
<polygon fill="midnightblue" stroke="midnightblue" points="533.067,-139.923 522.479,-139.551 530.524,-146.445 533.067,-139.923"/>
</g>
<!-- Node10 -->
<g id="node10" class="node"><title>Node10</title>
<g id="a_node10"><a xlink:href="../../d8/d1e/classoeng_1_1engine_1_1_mesh_component.html" target="_top" xlink:title=" ">
<polygon fill="white" stroke="black" points="587.5,-164.5 587.5,-183.5 739.5,-183.5 739.5,-164.5 587.5,-164.5"/>
<text text-anchor="middle" x="663.5" y="-171.5" font-family="Helvetica,sans-Serif" font-size="10.00">oeng::engine::MeshComponent</text>
</a>
</g>
</g>
<!-- Node7&#45;&gt;Node10 -->
<g id="edge9" class="edge"><title>Node7&#45;&gt;Node10</title>
<path fill="none" stroke="midnightblue" d="M512.341,-141.692C545.422,-148.81 587.147,-157.787 618.213,-164.471"/>
<polygon fill="midnightblue" stroke="midnightblue" points="512.886,-138.229 502.373,-139.547 511.413,-145.073 512.886,-138.229"/>
</g>
<!-- Node11 -->
<g id="node11" class="node"><title>Node11</title>
<g id="a_node11"><a xlink:href="../../d7/da1/classoeng_1_1engine_1_1_point_light_component.html" target="_top" xlink:title=" ">
<polygon fill="white" stroke="black" points="602.5,-115 602.5,-145 724.5,-145 724.5,-115 602.5,-115"/>
<text text-anchor="start" x="610.5" y="-133" font-family="Helvetica,sans-Serif" font-size="10.00">oeng::engine::PointLight</text>
<text text-anchor="middle" x="663.5" y="-122" font-family="Helvetica,sans-Serif" font-size="10.00">Component</text>
</a>
</g>
</g>
<!-- Node7&#45;&gt;Node11 -->
<g id="edge10" class="edge"><title>Node7&#45;&gt;Node11</title>
<path fill="none" stroke="midnightblue" d="M544.772,-130C564.136,-130 584.259,-130 602.274,-130"/>
<polygon fill="midnightblue" stroke="midnightblue" points="544.73,-126.5 534.73,-130 544.73,-133.5 544.73,-126.5"/>
</g>
<!-- Node12 -->
<g id="node12" class="node"><title>Node12</title>
<g id="a_node12"><a xlink:href="../../d7/d7c/classoeng_1_1engine_1_1_sky_light_component.html" target="_top" xlink:title=" ">
<polygon fill="white" stroke="black" points="580.5,-76.5 580.5,-95.5 746.5,-95.5 746.5,-76.5 580.5,-76.5"/>
<text text-anchor="middle" x="663.5" y="-83.5" font-family="Helvetica,sans-Serif" font-size="10.00">oeng::engine::SkyLightComponent</text>
</a>
</g>
</g>
<!-- Node7&#45;&gt;Node12 -->
<g id="edge11" class="edge"><title>Node7&#45;&gt;Node12</title>
<path fill="none" stroke="midnightblue" d="M512.341,-118.308C545.422,-111.19 587.147,-102.213 618.213,-95.5287"/>
<polygon fill="midnightblue" stroke="midnightblue" points="511.413,-114.927 502.373,-120.453 512.886,-121.771 511.413,-114.927"/>
</g>
<!-- Node13 -->
<g id="node13" class="node"><title>Node13</title>
<g id="a_node13"><a xlink:href="../../dd/d8c/classoeng_1_1engine_1_1_spot_light_component.html" target="_top" xlink:title=" ">
<polygon fill="white" stroke="black" points="579,-38.5 579,-57.5 748,-57.5 748,-38.5 579,-38.5"/>
<text text-anchor="middle" x="663.5" y="-45.5" font-family="Helvetica,sans-Serif" font-size="10.00">oeng::engine::SpotLightComponent</text>
</a>
</g>
</g>
<!-- Node7&#45;&gt;Node13 -->
<g id="edge12" class="edge"><title>Node7&#45;&gt;Node13</title>
<path fill="none" stroke="midnightblue" d="M482.166,-115.048C506.003,-100.879 543.867,-79.8996 579,-67 589.188,-63.2593 600.355,-60.107 611.115,-57.5117"/>
<polygon fill="midnightblue" stroke="midnightblue" points="480.214,-112.138 473.454,-120.296 483.826,-118.134 480.214,-112.138"/>
</g>
<!-- Node14 -->
<g id="node14" class="node"><title>Node14</title>
<g id="a_node14"><a xlink:href="../../d9/dee/classoeng_1_1engine_1_1_sprite_component.html" target="_top" xlink:title=" ">
<polygon fill="white" stroke="black" points="587,-0.5 587,-19.5 740,-19.5 740,-0.5 587,-0.5"/>
<text text-anchor="middle" x="663.5" y="-7.5" font-family="Helvetica,sans-Serif" font-size="10.00">oeng::engine::SpriteComponent</text>
</a>
</g>
</g>
<!-- Node7&#45;&gt;Node14 -->
<g id="edge13" class="edge"><title>Node7&#45;&gt;Node14</title>
<path fill="none" stroke="midnightblue" d="M473.294,-112.967C494.673,-90.2466 535.754,-50.4067 579,-29 586.861,-25.1087 595.534,-22.0018 604.227,-19.5245"/>
<polygon fill="midnightblue" stroke="midnightblue" points="470.553,-110.776 466.341,-120.497 475.697,-115.524 470.553,-110.776"/>
</g>
</g>
</svg>
