<?xml version="1.0" encoding="UTF-8" standalone="no"?>
<!DOCTYPE svg PUBLIC "-//W3C//DTD SVG 1.1//EN"
 "http://www.w3.org/Graphics/SVG/1.1/DTD/svg11.dtd">
<!-- Generated by graphviz version 2.38.0 (20140413.2041)
 -->
<!-- Title: oeng::engine::Engine Pages: 1 -->
<svg width="365pt" height="140pt"
 viewBox="0.00 0.00 365.00 140.00" xmlns="http://www.w3.org/2000/svg" xmlns:xlink="http://www.w3.org/1999/xlink">
<g id="graph0" class="graph" transform="scale(1 1) rotate(0) translate(4 136)">
<title>oeng::engine::Engine</title>
<polygon fill="white" stroke="none" points="-4,4 -4,-136 361,-136 361,4 -4,4"/>
<!-- Node1 -->
<g id="node1" class="node"><title>Node1</title>
<g id="a_node1"><a xlink:title=" ">
<polygon fill="#bfbfbf" stroke="black" points="172.5,-0.5 172.5,-19.5 280.5,-19.5 280.5,-0.5 172.5,-0.5"/>
<text text-anchor="middle" x="226.5" y="-7.5" font-family="Helvetica,sans-Serif" font-size="10.00">oeng::engine::Engine</text>
</a>
</g>
</g>
<!-- Node2 -->
<g id="node2" class="node"><title>Node2</title>
<g id="a_node2"><a xlink:href="../../dd/dc5/classoeng_1_1core_1_1_engine_base.html" target="_top" xlink:title=" ">
<polygon fill="white" stroke="black" points="97,-56.5 97,-75.5 218,-75.5 218,-56.5 97,-56.5"/>
<text text-anchor="middle" x="157.5" y="-63.5" font-family="Helvetica,sans-Serif" font-size="10.00">oeng::core::EngineBase</text>
</a>
</g>
</g>
<!-- Node2&#45;&gt;Node1 -->
<g id="edge1" class="edge"><title>Node2&#45;&gt;Node1</title>
<path fill="none" stroke="midnightblue" d="M176.538,-50.1008C188.956,-40.3824 204.743,-28.0269 215.212,-19.8339"/>
<polygon fill="midnightblue" stroke="midnightblue" points="174.304,-47.4046 168.586,-56.324 178.618,-52.9171 174.304,-47.4046"/>
</g>
<!-- Node3 -->
<g id="node3" class="node"><title>Node3</title>
<g id="a_node3"><a xlink:href="../../d0/dd1/classoeng_1_1core_1_1_register_engine_base.html" target="_top" xlink:title=" ">
<polygon fill="white" stroke="black" points="0,-112.5 0,-131.5 157,-131.5 157,-112.5 0,-112.5"/>
<text text-anchor="middle" x="78.5" y="-119.5" font-family="Helvetica,sans-Serif" font-size="10.00">oeng::core::RegisterEngineBase</text>
</a>
</g>
</g>
<!-- Node3&#45;&gt;Node2 -->
<g id="edge2" class="edge"><title>Node3&#45;&gt;Node2</title>
<path fill="none" stroke="#8b1a1a" d="M99.5343,-106.622C113.966,-96.7574 132.641,-83.9919 144.839,-75.6545"/>
<polygon fill="#8b1a1a" stroke="#8b1a1a" points="97.4733,-103.791 91.1927,-112.324 101.423,-109.57 97.4733,-103.791"/>
</g>
<!-- Node4 -->
<g id="node4" class="node"><title>Node4</title>
<g id="a_node4"><a xlink:href="../../da/d39/classoeng_1_1core_1_1_core_system.html" target="_top" xlink:title=" ">
<polygon fill="white" stroke="black" points="175.5,-112.5 175.5,-131.5 297.5,-131.5 297.5,-112.5 175.5,-112.5"/>
<text text-anchor="middle" x="236.5" y="-119.5" font-family="Helvetica,sans-Serif" font-size="10.00">oeng::core::CoreSystem</text>
</a>
</g>
</g>
<!-- Node4&#45;&gt;Node2 -->
<g id="edge3" class="edge"><title>Node4&#45;&gt;Node2</title>
<path fill="none" stroke="midnightblue" d="M215.466,-106.622C201.034,-96.7574 182.359,-83.9919 170.161,-75.6545"/>
<polygon fill="midnightblue" stroke="midnightblue" points="213.577,-109.57 223.807,-112.324 217.527,-103.791 213.577,-109.57"/>
</g>
<!-- Node5 -->
<g id="node5" class="node"><title>Node5</title>
<g id="a_node5"><a xlink:href="../../dc/d2f/classoeng_1_1engine_1_1_init_engine.html" target="_top" xlink:title=" ">
<polygon fill="white" stroke="black" points="236,-56.5 236,-75.5 357,-75.5 357,-56.5 236,-56.5"/>
<text text-anchor="middle" x="296.5" y="-63.5" font-family="Helvetica,sans-Serif" font-size="10.00">oeng::engine::InitEngine</text>
</a>
</g>
</g>
<!-- Node5&#45;&gt;Node1 -->
<g id="edge4" class="edge"><title>Node5&#45;&gt;Node1</title>
<path fill="none" stroke="#8b1a1a" d="M277.186,-50.1008C264.588,-40.3824 248.572,-28.0269 237.951,-19.8339"/>
<polygon fill="#8b1a1a" stroke="#8b1a1a" points="275.198,-52.9871 285.253,-56.324 279.473,-47.4446 275.198,-52.9871"/>
</g>
</g>
</svg>
