<?xml version="1.0" encoding="UTF-8" standalone="no"?>
<!DOCTYPE svg PUBLIC "-//W3C//DTD SVG 1.1//EN"
 "http://www.w3.org/Graphics/SVG/1.1/DTD/svg11.dtd">
<!-- Generated by graphviz version 2.38.0 (20140413.2041)
 -->
<!-- Title: otm::detail::MatrixBase&lt; T, R, C &gt; Pages: 1 -->
<svg width="230pt" height="95pt"
 viewBox="0.00 0.00 230.00 95.00" xmlns="http://www.w3.org/2000/svg" xmlns:xlink="http://www.w3.org/1999/xlink">
<g id="graph0" class="graph" transform="scale(1 1) rotate(0) translate(4 91)">
<title>otm::detail::MatrixBase&lt; T, R, C &gt;</title>
<polygon fill="white" stroke="none" points="-4,4 -4,-91 226,-91 226,4 -4,4"/>
<!-- Node1 -->
<g id="node1" class="node"><title>Node1</title>
<g id="a_node1"><a xlink:title=" ">
<polygon fill="#bfbfbf" stroke="black" points="45.5,-56.5 45.5,-86.5 163.5,-86.5 163.5,-56.5 45.5,-56.5"/>
<text text-anchor="start" x="53.5" y="-74.5" font-family="Helvetica,sans-Serif" font-size="10.00">otm::detail::MatrixBase</text>
<text text-anchor="middle" x="104.5" y="-63.5" font-family="Helvetica,sans-Serif" font-size="10.00">&lt; T, R, C &gt;</text>
</a>
</g>
</g>
<!-- Node2 -->
<g id="node2" class="node"><title>Node2</title>
<g id="a_node2"><a xlink:href="../../d5/d15/structotm_1_1_matrix.html" target="_top" xlink:title=" ">
<polygon fill="white" stroke="black" points="0,-0.5 0,-19.5 89,-19.5 89,-0.5 0,-0.5"/>
<text text-anchor="middle" x="44.5" y="-7.5" font-family="Helvetica,sans-Serif" font-size="10.00">Matrix&lt; T, L, L &gt;</text>
</a>
</g>
</g>
<!-- Node1&#45;&gt;Node2 -->
<g id="edge1" class="edge"><title>Node1&#45;&gt;Node2</title>
<path fill="none" stroke="midnightblue" d="M83.122,-49.3002C72.8242,-39.0881 61.0451,-27.4072 53.2305,-19.6578"/>
<polygon fill="midnightblue" stroke="midnightblue" points="80.7157,-51.8431 90.2808,-56.3993 85.6447,-46.8727 80.7157,-51.8431"/>
</g>
<!-- Node3 -->
<g id="node3" class="node"><title>Node3</title>
<g id="a_node3"><a xlink:href="../../d5/d15/structotm_1_1_matrix.html" target="_top" xlink:title=" ">
<polygon fill="white" stroke="black" points="107,-0.5 107,-19.5 222,-19.5 222,-0.5 107,-0.5"/>
<text text-anchor="middle" x="164.5" y="-7.5" font-family="Helvetica,sans-Serif" font-size="10.00">otm::Matrix&lt; T, R, C &gt;</text>
</a>
</g>
</g>
<!-- Node1&#45;&gt;Node3 -->
<g id="edge2" class="edge"><title>Node1&#45;&gt;Node3</title>
<path fill="none" stroke="midnightblue" d="M125.878,-49.3002C136.176,-39.0881 147.955,-27.4072 155.769,-19.6578"/>
<polygon fill="midnightblue" stroke="midnightblue" points="123.355,-46.8727 118.719,-56.3993 128.284,-51.8431 123.355,-46.8727"/>
</g>
</g>
</svg>
