<?xml version="1.0" encoding="UTF-8" standalone="no"?>
<!DOCTYPE svg PUBLIC "-//W3C//DTD SVG 1.1//EN"
 "http://www.w3.org/Graphics/SVG/1.1/DTD/svg11.dtd">
<!-- Generated by graphviz version 2.38.0 (20140413.2041)
 -->
<!-- Title: Graphical Class Hierarchy Pages: 1 -->
<svg width="756pt" height="458pt"
 viewBox="0.00 0.00 756.00 457.50" xmlns="http://www.w3.org/2000/svg" xmlns:xlink="http://www.w3.org/1999/xlink">
<g id="graph0" class="graph" transform="scale(1 1) rotate(0) translate(4 453.5)">
<title>Graphical Class Hierarchy</title>
<polygon fill="white" stroke="none" points="-4,4 -4,-453.5 752,-453.5 752,4 -4,4"/>
<!-- Node105 -->
<g id="node1" class="node"><title>Node105</title>
<g id="a_node1"><a xlink:href="classoeng_1_1core_1_1_enable_shared_from_this.html" target="_top" xlink:title=" ">
<polygon fill="white" stroke="black" points="0,-234.5 0,-264.5 148,-264.5 148,-234.5 0,-234.5"/>
<text text-anchor="start" x="8" y="-252.5" font-family="Helvetica,sans-Serif" font-size="10.00">oeng::core::EnableShared</text>
<text text-anchor="middle" x="74" y="-241.5" font-family="Helvetica,sans-Serif" font-size="10.00">FromThis&lt; ActorComponent &gt;</text>
</a>
</g>
</g>
<!-- Node106 -->
<g id="node2" class="node"><title>Node106</title>
<g id="a_node2"><a xlink:href="classoeng_1_1engine_1_1_actor_component.html" target="_top" xlink:title=" ">
<polygon fill="white" stroke="black" points="184,-240 184,-259 335,-259 335,-240 184,-240"/>
<text text-anchor="middle" x="259.5" y="-247" font-family="Helvetica,sans-Serif" font-size="10.00">oeng::engine::ActorComponent</text>
</a>
</g>
</g>
<!-- Node105&#45;&gt;Node106 -->
<g id="edge1" class="edge"><title>Node105&#45;&gt;Node106</title>
<path fill="none" stroke="midnightblue" d="M158.086,-249.5C166.69,-249.5 175.396,-249.5 183.899,-249.5"/>
<polygon fill="midnightblue" stroke="midnightblue" points="158.051,-246 148.051,-249.5 158.051,-253 158.051,-246"/>
</g>
<!-- Node107 -->
<g id="node3" class="node"><title>Node107</title>
<g id="a_node3"><a xlink:href="classoeng_1_1engine_1_1_a_i_component.html" target="_top" xlink:title=" ">
<polygon fill="white" stroke="black" points="388.5,-430 388.5,-449 525.5,-449 525.5,-430 388.5,-430"/>
<text text-anchor="middle" x="457" y="-437" font-family="Helvetica,sans-Serif" font-size="10.00">oeng::engine::AIComponent</text>
</a>
</g>
</g>
<!-- Node106&#45;&gt;Node107 -->
<g id="edge2" class="edge"><title>Node106&#45;&gt;Node107</title>
<path fill="none" stroke="midnightblue" d="M267.298,-268.875C280.957,-304.815 315.28,-381.68 371,-420.5 376.583,-424.39 382.83,-427.499 389.334,-429.982"/>
<polygon fill="midnightblue" stroke="midnightblue" points="270.451,-267.305 263.722,-259.122 263.879,-269.716 270.451,-267.305"/>
</g>
<!-- Node108 -->
<g id="node4" class="node"><title>Node108</title>
<g id="a_node4"><a xlink:href="classoeng_1_1engine_1_1_circle_component.html" target="_top" xlink:title=" ">
<polygon fill="white" stroke="black" points="381,-316 381,-335 533,-335 533,-316 381,-316"/>
<text text-anchor="middle" x="457" y="-323" font-family="Helvetica,sans-Serif" font-size="10.00">oeng::engine::CircleComponent</text>
</a>
</g>
</g>
<!-- Node106&#45;&gt;Node108 -->
<g id="edge3" class="edge"><title>Node106&#45;&gt;Node108</title>
<path fill="none" stroke="midnightblue" d="M284.639,-264.254C306.493,-277.046 339.929,-295.226 371,-306.5 381.234,-310.214 392.435,-313.341 403.25,-315.919"/>
<polygon fill="midnightblue" stroke="midnightblue" points="286.407,-261.234 276.022,-259.138 282.834,-267.253 286.407,-261.234"/>
</g>
<!-- Node109 -->
<g id="node5" class="node"><title>Node109</title>
<g id="a_node5"><a xlink:href="classoeng_1_1engine_1_1_input_component.html" target="_top" xlink:title=" ">
<polygon fill="white" stroke="black" points="382.5,-240 382.5,-259 531.5,-259 531.5,-240 382.5,-240"/>
<text text-anchor="middle" x="457" y="-247" font-family="Helvetica,sans-Serif" font-size="10.00">oeng::engine::InputComponent</text>
</a>
</g>
</g>
<!-- Node106&#45;&gt;Node109 -->
<g id="edge4" class="edge"><title>Node106&#45;&gt;Node109</title>
<path fill="none" stroke="midnightblue" d="M345.462,-249.5C357.719,-249.5 370.249,-249.5 382.263,-249.5"/>
<polygon fill="midnightblue" stroke="midnightblue" points="345.247,-246 335.247,-249.5 345.247,-253 345.247,-246"/>
</g>
<!-- Node110 -->
<g id="node6" class="node"><title>Node110</title>
<g id="a_node6"><a xlink:href="classoeng_1_1engine_1_1_movement_component.html" target="_top" xlink:title=" ">
<polygon fill="white" stroke="black" points="371,-164 371,-183 543,-183 543,-164 371,-164"/>
<text text-anchor="middle" x="457" y="-171" font-family="Helvetica,sans-Serif" font-size="10.00">oeng::engine::MovementComponent</text>
</a>
</g>
</g>
<!-- Node106&#45;&gt;Node110 -->
<g id="edge5" class="edge"><title>Node106&#45;&gt;Node110</title>
<path fill="none" stroke="midnightblue" d="M284.639,-234.746C306.493,-221.954 339.929,-203.774 371,-192.5 381.234,-188.786 392.435,-185.659 403.25,-183.081"/>
<polygon fill="midnightblue" stroke="midnightblue" points="282.834,-231.747 276.022,-239.862 286.407,-237.766 282.834,-231.747"/>
</g>
<!-- Node111 -->
<g id="node7" class="node"><title>Node111</title>
<g id="a_node7"><a xlink:href="classoeng_1_1engine_1_1_scene_component.html" target="_top" xlink:title=" ">
<polygon fill="white" stroke="black" points="379.5,-126 379.5,-145 534.5,-145 534.5,-126 379.5,-126"/>
<text text-anchor="middle" x="457" y="-133" font-family="Helvetica,sans-Serif" font-size="10.00">oeng::engine::SceneComponent</text>
</a>
</g>
</g>
<!-- Node106&#45;&gt;Node111 -->
<g id="edge6" class="edge"><title>Node106&#45;&gt;Node111</title>
<path fill="none" stroke="midnightblue" d="M275.467,-232.218C295.157,-210.625 331.873,-174.13 371,-154.5 378.704,-150.635 387.191,-147.549 395.731,-145.087"/>
<polygon fill="midnightblue" stroke="midnightblue" points="272.609,-230.164 268.561,-239.955 277.831,-234.826 272.609,-230.164"/>
</g>
<!-- Node95 -->
<g id="node8" class="node"><title>Node95</title>
<g id="a_node8"><a xlink:href="classoeng_1_1engine_1_1_camera_component.html" target="_top" xlink:title=" ">
<polygon fill="white" stroke="black" points="583,-306 583,-325 744,-325 744,-306 583,-306"/>
<text text-anchor="middle" x="663.5" y="-313" font-family="Helvetica,sans-Serif" font-size="10.00">oeng::engine::CameraComponent</text>
</a>
</g>
</g>
<!-- Node111&#45;&gt;Node95 -->
<g id="edge7" class="edge"><title>Node111&#45;&gt;Node95</title>
<path fill="none" stroke="midnightblue" d="M538.369,-150.524C539.986,-151.756 541.534,-153.08 543,-154.5 589.145,-199.202 533.451,-249.192 579,-294.5 583.769,-299.244 589.441,-302.969 595.552,-305.886"/>
<polygon fill="midnightblue" stroke="midnightblue" points="540.09,-147.471 529.767,-145.087 536.35,-153.388 540.09,-147.471"/>
</g>
<!-- Node92 -->
<g id="node9" class="node"><title>Node92</title>
<g id="a_node9"><a xlink:href="classoeng_1_1engine_1_1_dir_light_component.html" target="_top" xlink:title=" ">
<polygon fill="white" stroke="black" points="583,-266 583,-285 744,-285 744,-266 583,-266"/>
<text text-anchor="middle" x="663.5" y="-273" font-family="Helvetica,sans-Serif" font-size="10.00">oeng::engine::DirLightComponent</text>
</a>
</g>
</g>
<!-- Node111&#45;&gt;Node92 -->
<g id="edge8" class="edge"><title>Node111&#45;&gt;Node92</title>
<path fill="none" stroke="midnightblue" d="M537.465,-150.219C539.395,-151.535 541.247,-152.959 543,-154.5 578.169,-185.406 544.42,-221.937 579,-253.5 584.758,-258.755 591.621,-262.783 598.904,-265.866"/>
<polygon fill="midnightblue" stroke="midnightblue" points="538.965,-147.045 528.548,-145.117 535.489,-153.121 538.965,-147.045"/>
</g>
<!-- Node89 -->
<g id="node10" class="node"><title>Node89</title>
<g id="a_node10"><a xlink:href="classoeng_1_1engine_1_1_mesh_component.html" target="_top" xlink:title=" ">
<polygon fill="white" stroke="black" points="587.5,-225 587.5,-244 739.5,-244 739.5,-225 587.5,-225"/>
<text text-anchor="middle" x="663.5" y="-232" font-family="Helvetica,sans-Serif" font-size="10.00">oeng::engine::MeshComponent</text>
</a>
</g>
</g>
<!-- Node111&#45;&gt;Node89 -->
<g id="edge9" class="edge"><title>Node111&#45;&gt;Node89</title>
<path fill="none" stroke="midnightblue" d="M533.833,-149.167C537.024,-150.757 540.098,-152.528 543,-154.5 566.55,-170.509 556.218,-190.416 579,-207.5 589.483,-215.361 602.345,-220.987 614.806,-224.993"/>
<polygon fill="midnightblue" stroke="midnightblue" points="535.142,-145.919 524.575,-145.149 532.355,-152.341 535.142,-145.919"/>
</g>
<!-- Node84 -->
<g id="node11" class="node"><title>Node84</title>
<g id="a_node11"><a xlink:href="classoeng_1_1engine_1_1_point_light_component.html" target="_top" xlink:title=" ">
<polygon fill="white" stroke="black" points="602.5,-168.5 602.5,-198.5 724.5,-198.5 724.5,-168.5 602.5,-168.5"/>
<text text-anchor="start" x="610.5" y="-186.5" font-family="Helvetica,sans-Serif" font-size="10.00">oeng::engine::PointLight</text>
<text text-anchor="middle" x="663.5" y="-175.5" font-family="Helvetica,sans-Serif" font-size="10.00">Component</text>
</a>
</g>
</g>
<!-- Node111&#45;&gt;Node84 -->
<g id="edge10" class="edge"><title>Node111&#45;&gt;Node84</title>
<path fill="none" stroke="midnightblue" d="M511.212,-147.239C521.754,-149.608 532.733,-152.107 543,-154.5 562.336,-159.007 583.394,-164.066 602.371,-168.682"/>
<polygon fill="midnightblue" stroke="midnightblue" points="511.799,-143.784 501.276,-145.014 510.27,-150.614 511.799,-143.784"/>
</g>
<!-- Node81 -->
<g id="node12" class="node"><title>Node81</title>
<g id="a_node12"><a xlink:href="classoeng_1_1engine_1_1_sky_light_component.html" target="_top" xlink:title=" ">
<polygon fill="white" stroke="black" points="580.5,-50 580.5,-69 746.5,-69 746.5,-50 580.5,-50"/>
<text text-anchor="middle" x="663.5" y="-57" font-family="Helvetica,sans-Serif" font-size="10.00">oeng::engine::SkyLightComponent</text>
</a>
</g>
</g>
<!-- Node111&#45;&gt;Node81 -->
<g id="edge11" class="edge"><title>Node111&#45;&gt;Node81</title>
<path fill="none" stroke="midnightblue" d="M530.52,-122.467C534.849,-120.722 539.046,-118.744 543,-116.5 563.234,-105.018 558.788,-90.0208 579,-78.5 585.846,-74.598 593.436,-71.4972 601.168,-69.0333"/>
<polygon fill="midnightblue" stroke="midnightblue" points="529.107,-119.256 520.876,-125.926 531.47,-125.845 529.107,-119.256"/>
</g>
<!-- Node79 -->
<g id="node13" class="node"><title>Node79</title>
<g id="a_node13"><a xlink:href="classoeng_1_1engine_1_1_spot_light_component.html" target="_top" xlink:title=" ">
<polygon fill="white" stroke="black" points="579,-126 579,-145 748,-145 748,-126 579,-126"/>
<text text-anchor="middle" x="663.5" y="-133" font-family="Helvetica,sans-Serif" font-size="10.00">oeng::engine::SpotLightComponent</text>
</a>
</g>
</g>
<!-- Node111&#45;&gt;Node79 -->
<g id="edge12" class="edge"><title>Node111&#45;&gt;Node79</title>
<path fill="none" stroke="midnightblue" d="M544.953,-135.5C556.18,-135.5 567.658,-135.5 578.83,-135.5"/>
<polygon fill="midnightblue" stroke="midnightblue" points="544.73,-132 534.73,-135.5 544.73,-139 544.73,-132"/>
</g>
<!-- Node1 -->
<g id="node14" class="node"><title>Node1</title>
<g id="a_node14"><a xlink:href="classoeng_1_1engine_1_1_sprite_component.html" target="_top" xlink:title=" ">
<polygon fill="white" stroke="black" points="587,-88 587,-107 740,-107 740,-88 587,-88"/>
<text text-anchor="middle" x="663.5" y="-95" font-family="Helvetica,sans-Serif" font-size="10.00">oeng::engine::SpriteComponent</text>
</a>
</g>
</g>
<!-- Node111&#45;&gt;Node1 -->
<g id="edge13" class="edge"><title>Node111&#45;&gt;Node1</title>
<path fill="none" stroke="midnightblue" d="M519.448,-124.082C548.708,-118.645 583.301,-112.217 611.139,-107.044"/>
<polygon fill="midnightblue" stroke="midnightblue" points="518.532,-120.692 509.34,-125.96 519.811,-127.574 518.532,-120.692"/>
</g>
<!-- Node94 -->
<g id="node15" class="node"><title>Node94</title>
<g id="a_node15"><a xlink:href="classoeng_1_1renderer_1_1_i_camera.html" target="_top" xlink:title=" ">
<polygon fill="white" stroke="black" points="396.5,-392 396.5,-411 517.5,-411 517.5,-392 396.5,-392"/>
<text text-anchor="middle" x="457" y="-399" font-family="Helvetica,sans-Serif" font-size="10.00">oeng::renderer::ICamera</text>
</a>
</g>
</g>
<!-- Node94&#45;&gt;Node95 -->
<g id="edge14" class="edge"><title>Node94&#45;&gt;Node95</title>
<path fill="none" stroke="midnightblue" d="M527.214,-390.437C532.759,-388.247 538.102,-385.629 543,-382.5 565.173,-368.333 556.935,-349.834 579,-335.5 585.75,-331.115 593.368,-327.69 601.187,-325.015"/>
<polygon fill="midnightblue" stroke="midnightblue" points="526.032,-387.142 517.736,-393.732 528.331,-393.754 526.032,-387.142"/>
</g>
<!-- Node96 -->
<g id="node16" class="node"><title>Node96</title>
<g id="a_node16"><a xlink:href="classoeng_1_1renderer_1_1_default_camera.html" target="_top" xlink:title=" ">
<polygon fill="white" stroke="black" points="589,-395 589,-414 738,-414 738,-395 589,-395"/>
<text text-anchor="middle" x="663.5" y="-402" font-family="Helvetica,sans-Serif" font-size="10.00">oeng::renderer::DefaultCamera</text>
</a>
</g>
</g>
<!-- Node94&#45;&gt;Node96 -->
<g id="edge15" class="edge"><title>Node94&#45;&gt;Node96</title>
<path fill="none" stroke="midnightblue" d="M527.821,-402.524C547.522,-402.813 569.015,-403.129 588.929,-403.421"/>
<polygon fill="midnightblue" stroke="midnightblue" points="527.75,-399.023 517.7,-402.376 527.647,-406.022 527.75,-399.023"/>
</g>
<!-- Node91 -->
<g id="node17" class="node"><title>Node91</title>
<g id="a_node17"><a xlink:href="classoeng_1_1renderer_1_1_i_dir_light.html" target="_top" xlink:title=" ">
<polygon fill="white" stroke="black" points="397,-354 397,-373 517,-373 517,-354 397,-354"/>
<text text-anchor="middle" x="457" y="-361" font-family="Helvetica,sans-Serif" font-size="10.00">oeng::renderer::IDirLight</text>
</a>
</g>
</g>
<!-- Node91&#45;&gt;Node92 -->
<g id="edge16" class="edge"><title>Node91&#45;&gt;Node92</title>
<path fill="none" stroke="midnightblue" d="M526.972,-352.6C532.608,-350.377 538.037,-347.707 543,-344.5 565.399,-330.029 556.795,-311.266 579,-296.5 586.219,-291.699 594.453,-287.996 602.872,-285.139"/>
<polygon fill="midnightblue" stroke="midnightblue" points="525.641,-349.357 517.336,-355.935 527.931,-355.972 525.641,-349.357"/>
</g>
<!-- Node93 -->
<g id="node18" class="node"><title>Node93</title>
<g id="a_node18"><a xlink:href="classoeng_1_1renderer_1_1_default_dir_light.html" target="_top" xlink:title=" ">
<polygon fill="white" stroke="black" points="600,-345.5 600,-375.5 727,-375.5 727,-345.5 600,-345.5"/>
<text text-anchor="start" x="608" y="-363.5" font-family="Helvetica,sans-Serif" font-size="10.00">oeng::renderer::DefaultDir</text>
<text text-anchor="middle" x="663.5" y="-352.5" font-family="Helvetica,sans-Serif" font-size="10.00">Light</text>
</a>
</g>
</g>
<!-- Node91&#45;&gt;Node93 -->
<g id="edge17" class="edge"><title>Node91&#45;&gt;Node93</title>
<path fill="none" stroke="midnightblue" d="M527.393,-362.482C550.892,-362.137 576.982,-361.755 599.919,-361.418"/>
<polygon fill="midnightblue" stroke="midnightblue" points="527.097,-358.986 517.15,-362.632 527.2,-365.985 527.097,-358.986"/>
</g>
<!-- Node88 -->
<g id="node19" class="node"><title>Node88</title>
<g id="a_node19"><a xlink:href="classoeng_1_1renderer_1_1_i_mesh_component.html" target="_top" xlink:title=" ">
<polygon fill="white" stroke="black" points="376.5,-278 376.5,-297 537.5,-297 537.5,-278 376.5,-278"/>
<text text-anchor="middle" x="457" y="-285" font-family="Helvetica,sans-Serif" font-size="10.00">oeng::renderer::IMeshComponent</text>
</a>
</g>
</g>
<!-- Node88&#45;&gt;Node89 -->
<g id="edge18" class="edge"><title>Node88&#45;&gt;Node89</title>
<path fill="none" stroke="midnightblue" d="M514.4,-275.741C523.985,-273.5 533.808,-271.052 543,-268.5 559.251,-263.988 562.837,-261.318 579,-256.5 593.654,-252.132 609.886,-247.752 624.113,-244.064"/>
<polygon fill="midnightblue" stroke="midnightblue" points="513.502,-272.355 504.533,-277.996 515.062,-279.179 513.502,-272.355"/>
</g>
<!-- Node83 -->
<g id="node20" class="node"><title>Node83</title>
<g id="a_node20"><a xlink:href="classoeng_1_1renderer_1_1_i_point_light.html" target="_top" xlink:title=" ">
<polygon fill="white" stroke="black" points="391.5,-202 391.5,-221 522.5,-221 522.5,-202 391.5,-202"/>
<text text-anchor="middle" x="457" y="-209" font-family="Helvetica,sans-Serif" font-size="10.00">oeng::renderer::IPointLight</text>
</a>
</g>
</g>
<!-- Node83&#45;&gt;Node84 -->
<g id="edge19" class="edge"><title>Node83&#45;&gt;Node84</title>
<path fill="none" stroke="midnightblue" d="M532.734,-201.267C555.657,-198.129 580.573,-194.717 602.387,-191.731"/>
<polygon fill="midnightblue" stroke="midnightblue" points="532.138,-197.816 522.705,-202.641 533.087,-204.752 532.138,-197.816"/>
</g>
<!-- Node80 -->
<g id="node21" class="node"><title>Node80</title>
<g id="a_node21"><a xlink:href="classoeng_1_1renderer_1_1_i_sky_light.html" target="_top" xlink:title=" ">
<polygon fill="white" stroke="black" points="394.5,-9 394.5,-28 519.5,-28 519.5,-9 394.5,-9"/>
<text text-anchor="middle" x="457" y="-16" font-family="Helvetica,sans-Serif" font-size="10.00">oeng::renderer::ISkyLight</text>
</a>
</g>
</g>
<!-- Node80&#45;&gt;Node81 -->
<g id="edge20" class="edge"><title>Node80&#45;&gt;Node81</title>
<path fill="none" stroke="midnightblue" d="M515.363,-30.0006C546.779,-36.2993 585.249,-44.0121 614.973,-49.9714"/>
<polygon fill="midnightblue" stroke="midnightblue" points="515.923,-26.5434 505.43,-28.0093 514.547,-33.4068 515.923,-26.5434"/>
</g>
<!-- Node82 -->
<g id="node22" class="node"><title>Node82</title>
<g id="a_node22"><a xlink:href="classoeng_1_1renderer_1_1_default_sky_light.html" target="_top" xlink:title=" ">
<polygon fill="white" stroke="black" points="597.5,-0.5 597.5,-30.5 729.5,-30.5 729.5,-0.5 597.5,-0.5"/>
<text text-anchor="start" x="605.5" y="-18.5" font-family="Helvetica,sans-Serif" font-size="10.00">oeng::renderer::DefaultSky</text>
<text text-anchor="middle" x="663.5" y="-7.5" font-family="Helvetica,sans-Serif" font-size="10.00">Light</text>
</a>
</g>
</g>
<!-- Node80&#45;&gt;Node82 -->
<g id="edge21" class="edge"><title>Node80&#45;&gt;Node82</title>
<path fill="none" stroke="midnightblue" d="M529.907,-17.4451C551.893,-17.1226 575.937,-16.7699 597.441,-16.4544"/>
<polygon fill="midnightblue" stroke="midnightblue" points="529.582,-13.9494 519.634,-17.5958 529.684,-20.9487 529.582,-13.9494"/>
</g>
<!-- Node78 -->
<g id="node23" class="node"><title>Node78</title>
<g id="a_node23"><a xlink:href="classoeng_1_1renderer_1_1_i_spot_light.html" target="_top" xlink:title=" ">
<polygon fill="white" stroke="black" points="393,-88 393,-107 521,-107 521,-88 393,-88"/>
<text text-anchor="middle" x="457" y="-95" font-family="Helvetica,sans-Serif" font-size="10.00">oeng::renderer::ISpotLight</text>
</a>
</g>
</g>
<!-- Node78&#45;&gt;Node79 -->
<g id="edge22" class="edge"><title>Node78&#45;&gt;Node79</title>
<path fill="none" stroke="midnightblue" d="M519.448,-108.918C548.708,-114.355 583.301,-120.783 611.139,-125.956"/>
<polygon fill="midnightblue" stroke="midnightblue" points="519.811,-105.426 509.34,-107.04 518.532,-112.308 519.811,-105.426"/>
</g>
<!-- Node0 -->
<g id="node24" class="node"><title>Node0</title>
<g id="a_node24"><a xlink:href="classoeng_1_1renderer_1_1_i_sprite_component.html" target="_top" xlink:title=" ">
<polygon fill="white" stroke="black" points="376,-50 376,-69 538,-69 538,-50 376,-50"/>
<text text-anchor="middle" x="457" y="-57" font-family="Helvetica,sans-Serif" font-size="10.00">oeng::renderer::ISpriteComponent</text>
</a>
</g>
</g>
<!-- Node0&#45;&gt;Node1 -->
<g id="edge23" class="edge"><title>Node0&#45;&gt;Node1</title>
<path fill="none" stroke="midnightblue" d="M519.448,-70.9181C548.708,-76.3552 583.301,-82.7832 611.139,-87.9561"/>
<polygon fill="midnightblue" stroke="midnightblue" points="519.811,-67.4259 509.34,-69.04 518.532,-74.308 519.811,-67.4259"/>
</g>
</g>
</svg>
