<?xml version="1.0" encoding="UTF-8" standalone="no"?>
<!DOCTYPE svg PUBLIC "-//W3C//DTD SVG 1.1//EN"
 "http://www.w3.org/Graphics/SVG/1.1/DTD/svg11.dtd">
<!-- Generated by graphviz version 2.38.0 (20140413.2041)
 -->
<!-- Title: Graphical Class Hierarchy Pages: 1 -->
<svg width="261pt" height="66pt"
 viewBox="0.00 0.00 261.00 66.00" xmlns="http://www.w3.org/2000/svg" xmlns:xlink="http://www.w3.org/1999/xlink">
<g id="graph0" class="graph" transform="scale(1 1) rotate(0) translate(4 62)">
<title>Graphical Class Hierarchy</title>
<polygon fill="white" stroke="none" points="-4,4 -4,-62 257,-62 257,4 -4,4"/>
<!-- Node90 -->
<g id="node1" class="node"><title>Node90</title>
<g id="a_node1"><a xlink:href="classoeng_1_1core_1_1_i_engine.html" target="_top" xlink:title=" ">
<polygon fill="white" stroke="black" points="4,-38.5 4,-57.5 105,-57.5 105,-38.5 4,-38.5"/>
<text text-anchor="middle" x="54.5" y="-45.5" font-family="Helvetica,sans-Serif" font-size="10.00">oeng::core::IEngine</text>
</a>
</g>
</g>
<!-- Node1 -->
<g id="node2" class="node"><title>Node1</title>
<g id="a_node2"><a xlink:href="classoeng_1_1engine_1_1_engine.html" target="_top" xlink:title=" ">
<polygon fill="white" stroke="black" points="145,-19.5 145,-38.5 253,-38.5 253,-19.5 145,-19.5"/>
<text text-anchor="middle" x="199" y="-26.5" font-family="Helvetica,sans-Serif" font-size="10.00">oeng::engine::Engine</text>
</a>
</g>
</g>
<!-- Node90&#45;&gt;Node1 -->
<g id="edge1" class="edge"><title>Node90&#45;&gt;Node1</title>
<path fill="none" stroke="midnightblue" d="M115.315,-40.0246C125.019,-38.7308 135.013,-37.3983 144.552,-36.1264"/>
<polygon fill="midnightblue" stroke="midnightblue" points="114.789,-36.5637 105.34,-41.3547 115.714,-43.5023 114.789,-36.5637"/>
</g>
<!-- Node0 -->
<g id="node3" class="node"><title>Node0</title>
<g id="a_node3"><a xlink:href="classoeng_1_1engine_1_1_sdl_raii.html" target="_top" xlink:title=" ">
<polygon fill="white" stroke="black" points="0,-0.5 0,-19.5 109,-19.5 109,-0.5 0,-0.5"/>
<text text-anchor="middle" x="54.5" y="-7.5" font-family="Helvetica,sans-Serif" font-size="10.00">oeng::engine::SdlRaii</text>
</a>
</g>
</g>
<!-- Node0&#45;&gt;Node1 -->
<g id="edge2" class="edge"><title>Node0&#45;&gt;Node1</title>
<path fill="none" stroke="#8b1a1a" d="M119.342,-18.5123C127.916,-19.6555 136.635,-20.8181 144.995,-21.9327"/>
<polygon fill="#8b1a1a" stroke="#8b1a1a" points="119.748,-15.0355 109.373,-17.1831 118.823,-21.9741 119.748,-15.0355"/>
</g>
</g>
</svg>
