<?xml version="1.0" encoding="UTF-8" standalone="no"?>
<!DOCTYPE svg PUBLIC "-//W3C//DTD SVG 1.1//EN"
 "http://www.w3.org/Graphics/SVG/1.1/DTD/svg11.dtd">
<!-- Generated by graphviz version 2.38.0 (20140413.2041)
 -->
<!-- Title: oeng::core::detail::SharedObjInline&lt; T, Alloc, ThreadSafe &gt; Pages: 1 -->
<svg width="166pt" height="117pt"
 viewBox="0.00 0.00 166.00 117.00" xmlns="http://www.w3.org/2000/svg" xmlns:xlink="http://www.w3.org/1999/xlink">
<g id="graph0" class="graph" transform="scale(1 1) rotate(0) translate(4 113)">
<title>oeng::core::detail::SharedObjInline&lt; T, Alloc, ThreadSafe &gt;</title>
<polygon fill="white" stroke="none" points="-4,4 -4,-113 162,-113 162,4 -4,4"/>
<!-- Node1 -->
<g id="node1" class="node"><title>Node1</title>
<g id="a_node1"><a xlink:title=" ">
<polygon fill="#bfbfbf" stroke="black" points="25,-0.5 25,-41.5 133,-41.5 133,-0.5 25,-0.5"/>
<text text-anchor="start" x="33" y="-29.5" font-family="Helvetica,sans-Serif" font-size="10.00">oeng::core::detail</text>
<text text-anchor="start" x="33" y="-18.5" font-family="Helvetica,sans-Serif" font-size="10.00">::SharedObjInline&lt; T,</text>
<text text-anchor="middle" x="79" y="-7.5" font-family="Helvetica,sans-Serif" font-size="10.00"> Alloc, ThreadSafe &gt;</text>
</a>
</g>
</g>
<!-- Node2 -->
<g id="node2" class="node"><title>Node2</title>
<g id="a_node2"><a xlink:href="structoeng_1_1core_1_1detail_1_1_shared_obj_base.html" target="_top" xlink:title=" ">
<polygon fill="white" stroke="black" points="0,-78.5 0,-108.5 158,-108.5 158,-78.5 0,-78.5"/>
<text text-anchor="start" x="8" y="-96.5" font-family="Helvetica,sans-Serif" font-size="10.00">oeng::core::detail</text>
<text text-anchor="middle" x="79" y="-85.5" font-family="Helvetica,sans-Serif" font-size="10.00">::SharedObjBase&lt; ThreadSafe &gt;</text>
</a>
</g>
</g>
<!-- Node2&#45;&gt;Node1 -->
<g id="edge1" class="edge"><title>Node2&#45;&gt;Node1</title>
<path fill="none" stroke="midnightblue" d="M79,-67.9815C79,-59.3468 79,-49.7625 79,-41.5884"/>
<polygon fill="midnightblue" stroke="midnightblue" points="75.5001,-68.2332 79,-78.2333 82.5001,-68.2333 75.5001,-68.2332"/>
</g>
</g>
</svg>
