<?xml version="1.0" encoding="UTF-8" standalone="no"?>
<!DOCTYPE svg PUBLIC "-//W3C//DTD SVG 1.1//EN"
 "http://www.w3.org/Graphics/SVG/1.1/DTD/svg11.dtd">
<!-- Generated by graphviz version 2.38.0 (20140413.2041)
 -->
<!-- Title: oeng::engine::ActorComponent Pages: 1 -->
<svg width="756pt" height="306pt"
 viewBox="0.00 0.00 756.00 306.00" xmlns="http://www.w3.org/2000/svg" xmlns:xlink="http://www.w3.org/1999/xlink">
<g id="graph0" class="graph" transform="scale(1 1) rotate(0) translate(4 302)">
<title>oeng::engine::ActorComponent</title>
<polygon fill="white" stroke="none" points="-4,4 -4,-302 752,-302 752,4 -4,4"/>
<!-- Node1 -->
<g id="node1" class="node"><title>Node1</title>
<g id="a_node1"><a xlink:title=" ">
<polygon fill="#bfbfbf" stroke="black" points="184,-193.5 184,-212.5 335,-212.5 335,-193.5 184,-193.5"/>
<text text-anchor="middle" x="259.5" y="-200.5" font-family="Helvetica,sans-Serif" font-size="10.00">oeng::engine::ActorComponent</text>
</a>
</g>
</g>
<!-- Node3 -->
<g id="node3" class="node"><title>Node3</title>
<g id="a_node3"><a xlink:href="classoeng_1_1engine_1_1_a_i_component.html" target="_top" xlink:title=" ">
<polygon fill="white" stroke="black" points="388.5,-250.5 388.5,-269.5 525.5,-269.5 525.5,-250.5 388.5,-250.5"/>
<text text-anchor="middle" x="457" y="-257.5" font-family="Helvetica,sans-Serif" font-size="10.00">oeng::engine::AIComponent</text>
</a>
</g>
</g>
<!-- Node1&#45;&gt;Node3 -->
<g id="edge2" class="edge"><title>Node1&#45;&gt;Node3</title>
<path fill="none" stroke="midnightblue" d="M295.116,-216.015C316.74,-223.866 345.268,-233.724 371,-241 383.223,-244.456 396.576,-247.69 409.001,-250.475"/>
<polygon fill="midnightblue" stroke="midnightblue" points="296.295,-212.719 285.702,-212.565 293.887,-219.292 296.295,-212.719"/>
</g>
<!-- Node4 -->
<g id="node4" class="node"><title>Node4</title>
<g id="a_node4"><a xlink:href="classoeng_1_1engine_1_1_input_component.html" target="_top" xlink:title=" ">
<polygon fill="white" stroke="black" points="382.5,-212.5 382.5,-231.5 531.5,-231.5 531.5,-212.5 382.5,-212.5"/>
<text text-anchor="middle" x="457" y="-219.5" font-family="Helvetica,sans-Serif" font-size="10.00">oeng::engine::InputComponent</text>
</a>
</g>
</g>
<!-- Node1&#45;&gt;Node4 -->
<g id="edge3" class="edge"><title>Node1&#45;&gt;Node4</title>
<path fill="none" stroke="midnightblue" d="M345.462,-211.257C357.719,-212.448 370.249,-213.666 382.263,-214.834"/>
<polygon fill="midnightblue" stroke="midnightblue" points="345.539,-207.748 335.247,-210.264 344.862,-214.715 345.539,-207.748"/>
</g>
<!-- Node5 -->
<g id="node5" class="node"><title>Node5</title>
<g id="a_node5"><a xlink:href="classoeng_1_1engine_1_1_movement_component.html" target="_top" xlink:title=" ">
<polygon fill="white" stroke="black" points="371,-174.5 371,-193.5 543,-193.5 543,-174.5 371,-174.5"/>
<text text-anchor="middle" x="457" y="-181.5" font-family="Helvetica,sans-Serif" font-size="10.00">oeng::engine::MovementComponent</text>
</a>
</g>
</g>
<!-- Node1&#45;&gt;Node5 -->
<g id="edge4" class="edge"><title>Node1&#45;&gt;Node5</title>
<path fill="none" stroke="midnightblue" d="M345.441,-194.745C353.865,-193.926 362.418,-193.095 370.844,-192.276"/>
<polygon fill="midnightblue" stroke="midnightblue" points="344.862,-191.285 335.247,-195.736 345.539,-198.252 344.862,-191.285"/>
</g>
<!-- Node6 -->
<g id="node6" class="node"><title>Node6</title>
<g id="a_node6"><a xlink:href="classoeng_1_1engine_1_1_scene_component.html" target="_top" xlink:title=" ">
<polygon fill="white" stroke="black" points="379.5,-136.5 379.5,-155.5 534.5,-155.5 534.5,-136.5 379.5,-136.5"/>
<text text-anchor="middle" x="457" y="-143.5" font-family="Helvetica,sans-Serif" font-size="10.00">oeng::engine::SceneComponent</text>
</a>
</g>
</g>
<!-- Node1&#45;&gt;Node6 -->
<g id="edge5" class="edge"><title>Node1&#45;&gt;Node6</title>
<path fill="none" stroke="midnightblue" d="M295.116,-189.985C316.74,-182.134 345.268,-172.276 371,-165 383.223,-161.544 396.576,-158.31 409.001,-155.525"/>
<polygon fill="midnightblue" stroke="midnightblue" points="293.887,-186.708 285.702,-193.435 296.295,-193.281 293.887,-186.708"/>
</g>
<!-- Node2 -->
<g id="node2" class="node"><title>Node2</title>
<g id="a_node2"><a xlink:href="classoeng_1_1core_1_1_enable_shared_from_this.html" target="_top" xlink:title=" ">
<polygon fill="white" stroke="black" points="0,-188 0,-218 148,-218 148,-188 0,-188"/>
<text text-anchor="start" x="8" y="-206" font-family="Helvetica,sans-Serif" font-size="10.00">oeng::core::EnableShared</text>
<text text-anchor="middle" x="74" y="-195" font-family="Helvetica,sans-Serif" font-size="10.00">FromThis&lt; ActorComponent &gt;</text>
</a>
</g>
</g>
<!-- Node2&#45;&gt;Node1 -->
<g id="edge1" class="edge"><title>Node2&#45;&gt;Node1</title>
<path fill="none" stroke="midnightblue" d="M158.086,-203C166.69,-203 175.396,-203 183.899,-203"/>
<polygon fill="midnightblue" stroke="midnightblue" points="158.051,-199.5 148.051,-203 158.051,-206.5 158.051,-199.5"/>
</g>
<!-- Node7 -->
<g id="node7" class="node"><title>Node7</title>
<g id="a_node7"><a xlink:href="classoeng_1_1engine_1_1_camera_component.html" target="_top" xlink:title=" ">
<polygon fill="white" stroke="black" points="583,-278.5 583,-297.5 744,-297.5 744,-278.5 583,-278.5"/>
<text text-anchor="middle" x="663.5" y="-285.5" font-family="Helvetica,sans-Serif" font-size="10.00">oeng::engine::CameraComponent</text>
</a>
</g>
</g>
<!-- Node6&#45;&gt;Node7 -->
<g id="edge6" class="edge"><title>Node6&#45;&gt;Node7</title>
<path fill="none" stroke="midnightblue" d="M537.497,-160.683C539.418,-162.009 541.259,-163.446 543,-165 579.49,-197.572 542.572,-236.358 579,-269 583.207,-272.77 588.006,-275.84 593.126,-278.334"/>
<polygon fill="midnightblue" stroke="midnightblue" points="539.021,-157.521 528.612,-155.544 535.516,-163.581 539.021,-157.521"/>
</g>
<!-- Node8 -->
<g id="node8" class="node"><title>Node8</title>
<g id="a_node8"><a xlink:href="classoeng_1_1engine_1_1_dir_light_component.html" target="_top" xlink:title=" ">
<polygon fill="white" stroke="black" points="583,-240.5 583,-259.5 744,-259.5 744,-240.5 583,-240.5"/>
<text text-anchor="middle" x="663.5" y="-247.5" font-family="Helvetica,sans-Serif" font-size="10.00">oeng::engine::DirLightComponent</text>
</a>
</g>
</g>
<!-- Node6&#45;&gt;Node8 -->
<g id="edge7" class="edge"><title>Node6&#45;&gt;Node8</title>
<path fill="none" stroke="midnightblue" d="M535.491,-160.101C538.108,-161.58 540.622,-163.209 543,-165 569.687,-185.106 552.352,-210.843 579,-231 584.099,-234.857 589.84,-237.954 595.865,-240.438"/>
<polygon fill="midnightblue" stroke="midnightblue" points="536.779,-156.835 526.253,-155.622 533.725,-163.134 536.779,-156.835"/>
</g>
<!-- Node9 -->
<g id="node9" class="node"><title>Node9</title>
<g id="a_node9"><a xlink:href="classoeng_1_1engine_1_1_mesh_component.html" target="_top" xlink:title=" ">
<polygon fill="white" stroke="black" points="587.5,-202.5 587.5,-221.5 739.5,-221.5 739.5,-202.5 587.5,-202.5"/>
<text text-anchor="middle" x="663.5" y="-209.5" font-family="Helvetica,sans-Serif" font-size="10.00">oeng::engine::MeshComponent</text>
</a>
</g>
</g>
<!-- Node6&#45;&gt;Node9 -->
<g id="edge8" class="edge"><title>Node6&#45;&gt;Node9</title>
<path fill="none" stroke="midnightblue" d="M526.102,-158.481C531.924,-160.367 537.633,-162.528 543,-165 561.165,-173.368 560.899,-183.494 579,-192 588.174,-196.311 598.366,-199.743 608.387,-202.459"/>
<polygon fill="midnightblue" stroke="midnightblue" points="526.821,-155.044 516.239,-155.56 524.833,-161.756 526.821,-155.044"/>
</g>
<!-- Node10 -->
<g id="node10" class="node"><title>Node10</title>
<g id="a_node10"><a xlink:href="classoeng_1_1engine_1_1_point_light_component.html" target="_top" xlink:title=" ">
<polygon fill="white" stroke="black" points="602.5,-153 602.5,-183 724.5,-183 724.5,-153 602.5,-153"/>
<text text-anchor="start" x="610.5" y="-171" font-family="Helvetica,sans-Serif" font-size="10.00">oeng::engine::PointLight</text>
<text text-anchor="middle" x="663.5" y="-160" font-family="Helvetica,sans-Serif" font-size="10.00">Component</text>
</a>
</g>
</g>
<!-- Node6&#45;&gt;Node10 -->
<g id="edge9" class="edge"><title>Node6&#45;&gt;Node10</title>
<path fill="none" stroke="midnightblue" d="M544.772,-155.335C564.136,-157.418 584.259,-159.583 602.274,-161.521"/>
<polygon fill="midnightblue" stroke="midnightblue" points="545.047,-151.844 534.73,-154.255 544.298,-158.804 545.047,-151.844"/>
</g>
<!-- Node11 -->
<g id="node11" class="node"><title>Node11</title>
<g id="a_node11"><a xlink:href="classoeng_1_1engine_1_1_sky_light_component.html" target="_top" xlink:title=" ">
<polygon fill="white" stroke="black" points="580.5,-114.5 580.5,-133.5 746.5,-133.5 746.5,-114.5 580.5,-114.5"/>
<text text-anchor="middle" x="663.5" y="-121.5" font-family="Helvetica,sans-Serif" font-size="10.00">oeng::engine::SkyLightComponent</text>
</a>
</g>
</g>
<!-- Node6&#45;&gt;Node11 -->
<g id="edge10" class="edge"><title>Node6&#45;&gt;Node11</title>
<path fill="none" stroke="midnightblue" d="M544.924,-136.649C556.621,-135.39 568.593,-134.102 580.207,-132.853"/>
<polygon fill="midnightblue" stroke="midnightblue" points="544.298,-133.196 534.73,-137.745 545.047,-140.156 544.298,-133.196"/>
</g>
<!-- Node12 -->
<g id="node12" class="node"><title>Node12</title>
<g id="a_node12"><a xlink:href="classoeng_1_1engine_1_1_sphere_component.html" target="_top" xlink:title="Simple sphere collision component.">
<polygon fill="white" stroke="black" points="584.5,-76.5 584.5,-95.5 742.5,-95.5 742.5,-76.5 584.5,-76.5"/>
<text text-anchor="middle" x="663.5" y="-83.5" font-family="Helvetica,sans-Serif" font-size="10.00">oeng::engine::SphereComponent</text>
</a>
</g>
</g>
<!-- Node6&#45;&gt;Node12 -->
<g id="edge11" class="edge"><title>Node6&#45;&gt;Node12</title>
<path fill="none" stroke="midnightblue" d="M493.436,-132.917C517.397,-124.338 549.864,-113.228 579,-105 591.161,-101.566 604.452,-98.3175 616.782,-95.5102"/>
<polygon fill="midnightblue" stroke="midnightblue" points="491.94,-129.736 483.722,-136.424 494.316,-136.321 491.94,-129.736"/>
</g>
<!-- Node13 -->
<g id="node13" class="node"><title>Node13</title>
<g id="a_node13"><a xlink:href="classoeng_1_1engine_1_1_spot_light_component.html" target="_top" xlink:title=" ">
<polygon fill="white" stroke="black" points="579,-38.5 579,-57.5 748,-57.5 748,-38.5 579,-38.5"/>
<text text-anchor="middle" x="663.5" y="-45.5" font-family="Helvetica,sans-Serif" font-size="10.00">oeng::engine::SpotLightComponent</text>
</a>
</g>
</g>
<!-- Node6&#45;&gt;Node13 -->
<g id="edge12" class="edge"><title>Node6&#45;&gt;Node13</title>
<path fill="none" stroke="midnightblue" d="M477.477,-130.115C500.408,-112.194 540.292,-83.4144 579,-67 588.034,-63.1692 597.959,-60.0508 607.717,-57.5321"/>
<polygon fill="midnightblue" stroke="midnightblue" points="475.212,-127.444 469.556,-136.403 479.564,-132.926 475.212,-127.444"/>
</g>
<!-- Node14 -->
<g id="node14" class="node"><title>Node14</title>
<g id="a_node14"><a xlink:href="classoeng_1_1engine_1_1_sprite_component.html" target="_top" xlink:title=" ">
<polygon fill="white" stroke="black" points="587,-0.5 587,-19.5 740,-19.5 740,-0.5 587,-0.5"/>
<text text-anchor="middle" x="663.5" y="-7.5" font-family="Helvetica,sans-Serif" font-size="10.00">oeng::engine::SpriteComponent</text>
</a>
</g>
</g>
<!-- Node6&#45;&gt;Node14 -->
<g id="edge13" class="edge"><title>Node6&#45;&gt;Node14</title>
<path fill="none" stroke="midnightblue" d="M471.197,-128.109C491.398,-102.079 532.565,-54.1365 579,-29 586.191,-25.1073 594.146,-22.0103 602.205,-19.5467"/>
<polygon fill="midnightblue" stroke="midnightblue" points="468.214,-126.25 464.951,-136.33 473.788,-130.484 468.214,-126.25"/>
</g>
</g>
</svg>
