<?xml version="1.0" encoding="UTF-8" standalone="no"?>
<!DOCTYPE svg PUBLIC "-//W3C//DTD SVG 1.1//EN"
 "http://www.w3.org/Graphics/SVG/1.1/DTD/svg11.dtd">
<!-- Generated by graphviz version 2.38.0 (20140413.2041)
 -->
<!-- Title: oeng::engine::DirLightComponent Pages: 1 -->
<svg width="177pt" height="386pt"
 viewBox="0.00 0.00 177.00 386.00" xmlns="http://www.w3.org/2000/svg" xmlns:xlink="http://www.w3.org/1999/xlink">
<g id="graph0" class="graph" transform="scale(1 1) rotate(0) translate(4 382)">
<title>oeng::engine::DirLightComponent</title>
<polygon fill="white" stroke="none" points="-4,4 -4,-382 173,-382 173,4 -4,4"/>
<!-- Node1 -->
<g id="node1" class="node"><title>Node1</title>
<g id="a_node1"><a xlink:title=" ">
<polygon fill="#bfbfbf" stroke="black" points="4,-123.5 4,-142.5 165,-142.5 165,-123.5 4,-123.5"/>
<text text-anchor="middle" x="84.5" y="-130.5" font-family="Helvetica,sans-Serif" font-size="10.00">oeng::engine::DirLightComponent</text>
</a>
</g>
</g>
<!-- Node6 -->
<g id="node6" class="node"><title>Node6</title>
<g id="a_node6"><a xlink:href="classoeng_1_1engine_1_1_point_light_component.html" target="_top" xlink:title=" ">
<polygon fill="white" stroke="black" points="23.5,-56.5 23.5,-86.5 145.5,-86.5 145.5,-56.5 23.5,-56.5"/>
<text text-anchor="start" x="31.5" y="-74.5" font-family="Helvetica,sans-Serif" font-size="10.00">oeng::engine::PointLight</text>
<text text-anchor="middle" x="84.5" y="-63.5" font-family="Helvetica,sans-Serif" font-size="10.00">Component</text>
</a>
</g>
</g>
<!-- Node1&#45;&gt;Node6 -->
<g id="edge5" class="edge"><title>Node1&#45;&gt;Node6</title>
<path fill="none" stroke="midnightblue" d="M84.5,-113.235C84.5,-104.586 84.5,-94.4969 84.5,-86.523"/>
<polygon fill="midnightblue" stroke="midnightblue" points="81.0001,-113.475 84.5,-123.475 88.0001,-113.475 81.0001,-113.475"/>
</g>
<!-- Node2 -->
<g id="node2" class="node"><title>Node2</title>
<g id="a_node2"><a xlink:href="classoeng_1_1engine_1_1_scene_component.html" target="_top" xlink:title=" ">
<polygon fill="white" stroke="black" points="7,-179.5 7,-198.5 162,-198.5 162,-179.5 7,-179.5"/>
<text text-anchor="middle" x="84.5" y="-186.5" font-family="Helvetica,sans-Serif" font-size="10.00">oeng::engine::SceneComponent</text>
</a>
</g>
</g>
<!-- Node2&#45;&gt;Node1 -->
<g id="edge1" class="edge"><title>Node2&#45;&gt;Node1</title>
<path fill="none" stroke="midnightblue" d="M84.5,-168.805C84.5,-159.91 84.5,-149.78 84.5,-142.751"/>
<polygon fill="midnightblue" stroke="midnightblue" points="81.0001,-169.083 84.5,-179.083 88.0001,-169.083 81.0001,-169.083"/>
</g>
<!-- Node3 -->
<g id="node3" class="node"><title>Node3</title>
<g id="a_node3"><a xlink:href="classoeng_1_1engine_1_1_actor_component.html" target="_top" xlink:title=" ">
<polygon fill="white" stroke="black" points="9,-235.5 9,-254.5 160,-254.5 160,-235.5 9,-235.5"/>
<text text-anchor="middle" x="84.5" y="-242.5" font-family="Helvetica,sans-Serif" font-size="10.00">oeng::engine::ActorComponent</text>
</a>
</g>
</g>
<!-- Node3&#45;&gt;Node2 -->
<g id="edge2" class="edge"><title>Node3&#45;&gt;Node2</title>
<path fill="none" stroke="midnightblue" d="M84.5,-224.805C84.5,-215.91 84.5,-205.78 84.5,-198.751"/>
<polygon fill="midnightblue" stroke="midnightblue" points="81.0001,-225.083 84.5,-235.083 88.0001,-225.083 81.0001,-225.083"/>
</g>
<!-- Node4 -->
<g id="node4" class="node"><title>Node4</title>
<g id="a_node4"><a xlink:href="classoeng_1_1core_1_1_object.html" target="_top" xlink:title=" ">
<polygon fill="white" stroke="black" points="36,-291.5 36,-310.5 133,-310.5 133,-291.5 36,-291.5"/>
<text text-anchor="middle" x="84.5" y="-298.5" font-family="Helvetica,sans-Serif" font-size="10.00">oeng::core::Object</text>
</a>
</g>
</g>
<!-- Node4&#45;&gt;Node3 -->
<g id="edge3" class="edge"><title>Node4&#45;&gt;Node3</title>
<path fill="none" stroke="midnightblue" d="M84.5,-280.805C84.5,-271.91 84.5,-261.78 84.5,-254.751"/>
<polygon fill="midnightblue" stroke="midnightblue" points="81.0001,-281.083 84.5,-291.083 88.0001,-281.083 81.0001,-281.083"/>
</g>
<!-- Node5 -->
<g id="node5" class="node"><title>Node5</title>
<g id="a_node5"><a xlink:href="classoeng_1_1core_1_1_enable_shared_from_this.html" target="_top" xlink:title=" ">
<polygon fill="white" stroke="black" points="20,-347.5 20,-377.5 149,-377.5 149,-347.5 20,-347.5"/>
<text text-anchor="start" x="28" y="-365.5" font-family="Helvetica,sans-Serif" font-size="10.00">oeng::core::EnableShared</text>
<text text-anchor="middle" x="84.5" y="-354.5" font-family="Helvetica,sans-Serif" font-size="10.00">FromThis&lt; Object &gt;</text>
</a>
</g>
</g>
<!-- Node5&#45;&gt;Node4 -->
<g id="edge4" class="edge"><title>Node5&#45;&gt;Node4</title>
<path fill="none" stroke="midnightblue" d="M84.5,-337.289C84.5,-327.857 84.5,-317.655 84.5,-310.658"/>
<polygon fill="midnightblue" stroke="midnightblue" points="81.0001,-337.399 84.5,-347.399 88.0001,-337.399 81.0001,-337.399"/>
</g>
<!-- Node7 -->
<g id="node7" class="node"><title>Node7</title>
<g id="a_node7"><a xlink:href="classoeng_1_1engine_1_1_spot_light_component.html" target="_top" xlink:title=" ">
<polygon fill="white" stroke="black" points="0,-0.5 0,-19.5 169,-19.5 169,-0.5 0,-0.5"/>
<text text-anchor="middle" x="84.5" y="-7.5" font-family="Helvetica,sans-Serif" font-size="10.00">oeng::engine::SpotLightComponent</text>
</a>
</g>
</g>
<!-- Node6&#45;&gt;Node7 -->
<g id="edge6" class="edge"><title>Node6&#45;&gt;Node7</title>
<path fill="none" stroke="midnightblue" d="M84.5,-46.2892C84.5,-36.857 84.5,-26.6548 84.5,-19.6578"/>
<polygon fill="midnightblue" stroke="midnightblue" points="81.0001,-46.3993 84.5,-56.3993 88.0001,-46.3994 81.0001,-46.3993"/>
</g>
</g>
</svg>
