<?xml version="1.0" encoding="UTF-8" standalone="no"?>
<!DOCTYPE svg PUBLIC "-//W3C//DTD SVG 1.1//EN"
 "http://www.w3.org/Graphics/SVG/1.1/DTD/svg11.dtd">
<!-- Generated by graphviz version 2.38.0 (20140413.2041)
 -->
<!-- Title: oeng::engine::MovementComponent Pages: 1 -->
<svg width="180pt" height="151pt"
 viewBox="0.00 0.00 180.00 151.00" xmlns="http://www.w3.org/2000/svg" xmlns:xlink="http://www.w3.org/1999/xlink">
<g id="graph0" class="graph" transform="scale(1 1) rotate(0) translate(4 147)">
<title>oeng::engine::MovementComponent</title>
<polygon fill="white" stroke="none" points="-4,4 -4,-147 176,-147 176,4 -4,4"/>
<!-- Node1 -->
<g id="node1" class="node"><title>Node1</title>
<g id="a_node1"><a xlink:title=" ">
<polygon fill="#bfbfbf" stroke="black" points="0,-0.5 0,-19.5 172,-19.5 172,-0.5 0,-0.5"/>
<text text-anchor="middle" x="86" y="-7.5" font-family="Helvetica,sans-Serif" font-size="10.00">oeng::engine::MovementComponent</text>
</a>
</g>
</g>
<!-- Node2 -->
<g id="node2" class="node"><title>Node2</title>
<g id="a_node2"><a xlink:href="classoeng_1_1engine_1_1_actor_component.html" target="_top" xlink:title=" ">
<polygon fill="white" stroke="black" points="10.5,-56.5 10.5,-75.5 161.5,-75.5 161.5,-56.5 10.5,-56.5"/>
<text text-anchor="middle" x="86" y="-63.5" font-family="Helvetica,sans-Serif" font-size="10.00">oeng::engine::ActorComponent</text>
</a>
</g>
</g>
<!-- Node2&#45;&gt;Node1 -->
<g id="edge1" class="edge"><title>Node2&#45;&gt;Node1</title>
<path fill="none" stroke="midnightblue" d="M86,-45.8045C86,-36.9102 86,-26.7798 86,-19.7511"/>
<polygon fill="midnightblue" stroke="midnightblue" points="82.5001,-46.083 86,-56.083 89.5001,-46.083 82.5001,-46.083"/>
</g>
<!-- Node3 -->
<g id="node3" class="node"><title>Node3</title>
<g id="a_node3"><a xlink:title=" ">
<polygon fill="white" stroke="#bfbfbf" points="27,-112.5 27,-142.5 145,-142.5 145,-112.5 27,-112.5"/>
<text text-anchor="start" x="35" y="-130.5" font-family="Helvetica,sans-Serif" font-size="10.00">EnableSharedFromThis</text>
<text text-anchor="middle" x="86" y="-119.5" font-family="Helvetica,sans-Serif" font-size="10.00">&lt; ActorComponent &gt;</text>
</a>
</g>
</g>
<!-- Node3&#45;&gt;Node2 -->
<g id="edge2" class="edge"><title>Node3&#45;&gt;Node2</title>
<path fill="none" stroke="midnightblue" d="M86,-102.289C86,-92.857 86,-82.6548 86,-75.6578"/>
<polygon fill="midnightblue" stroke="midnightblue" points="82.5001,-102.399 86,-112.399 89.5001,-102.399 82.5001,-102.399"/>
</g>
</g>
</svg>
