<?xml version="1.0" encoding="UTF-8" standalone="no"?>
<!DOCTYPE svg PUBLIC "-//W3C//DTD SVG 1.1//EN"
 "http://www.w3.org/Graphics/SVG/1.1/DTD/svg11.dtd">
<!-- Generated by graphviz version 2.38.0 (20140413.2041)
 -->
<!-- Title: oeng::core::EngineBase Pages: 1 -->
<svg width="306pt" height="84pt"
 viewBox="0.00 0.00 305.50 84.00" xmlns="http://www.w3.org/2000/svg" xmlns:xlink="http://www.w3.org/1999/xlink">
<g id="graph0" class="graph" transform="scale(1 1) rotate(0) translate(4 80)">
<title>oeng::core::EngineBase</title>
<polygon fill="white" stroke="none" points="-4,4 -4,-80 301.5,-80 301.5,4 -4,4"/>
<!-- Node1 -->
<g id="node1" class="node"><title>Node1</title>
<g id="a_node1"><a xlink:title=" ">
<polygon fill="#bfbfbf" stroke="black" points="97,-0.5 97,-19.5 218,-19.5 218,-0.5 97,-0.5"/>
<text text-anchor="middle" x="157.5" y="-7.5" font-family="Helvetica,sans-Serif" font-size="10.00">oeng::core::EngineBase</text>
</a>
</g>
</g>
<!-- Node2 -->
<g id="node2" class="node"><title>Node2</title>
<g id="a_node2"><a xlink:href="classoeng_1_1core_1_1_register_engine_base.html" target="_top" xlink:title=" ">
<polygon fill="white" stroke="black" points="0,-56.5 0,-75.5 157,-75.5 157,-56.5 0,-56.5"/>
<text text-anchor="middle" x="78.5" y="-63.5" font-family="Helvetica,sans-Serif" font-size="10.00">oeng::core::RegisterEngineBase</text>
</a>
</g>
</g>
<!-- Node2&#45;&gt;Node1 -->
<g id="edge1" class="edge"><title>Node2&#45;&gt;Node1</title>
<path fill="none" stroke="#8b1a1a" d="M99.5343,-50.6221C113.966,-40.7574 132.641,-27.9919 144.839,-19.6545"/>
<polygon fill="#8b1a1a" stroke="#8b1a1a" points="97.4733,-47.7914 91.1927,-56.324 101.423,-53.5703 97.4733,-47.7914"/>
</g>
<!-- Node3 -->
<g id="node3" class="node"><title>Node3</title>
<g id="a_node3"><a xlink:href="classoeng_1_1core_1_1_core_system.html" target="_top" xlink:title=" ">
<polygon fill="white" stroke="black" points="175.5,-56.5 175.5,-75.5 297.5,-75.5 297.5,-56.5 175.5,-56.5"/>
<text text-anchor="middle" x="236.5" y="-63.5" font-family="Helvetica,sans-Serif" font-size="10.00">oeng::core::CoreSystem</text>
</a>
</g>
</g>
<!-- Node3&#45;&gt;Node1 -->
<g id="edge2" class="edge"><title>Node3&#45;&gt;Node1</title>
<path fill="none" stroke="midnightblue" d="M215.466,-50.6221C201.034,-40.7574 182.359,-27.9919 170.161,-19.6545"/>
<polygon fill="midnightblue" stroke="midnightblue" points="213.577,-53.5703 223.807,-56.324 217.527,-47.7914 213.577,-53.5703"/>
</g>
</g>
</svg>
