<?xml version="1.0" encoding="UTF-8" standalone="no"?>
<!DOCTYPE svg PUBLIC "-//W3C//DTD SVG 1.1//EN"
 "http://www.w3.org/Graphics/SVG/1.1/DTD/svg11.dtd">
<!-- Generated by graphviz version 2.38.0 (20140413.2041)
 -->
<!-- Title: oeng::engine::SceneComponent Pages: 1 -->
<svg width="709pt" height="306pt"
 viewBox="0.00 0.00 709.00 306.00" xmlns="http://www.w3.org/2000/svg" xmlns:xlink="http://www.w3.org/1999/xlink">
<g id="graph0" class="graph" transform="scale(1 1) rotate(0) translate(4 302)">
<title>oeng::engine::SceneComponent</title>
<polygon fill="white" stroke="none" points="-4,4 -4,-302 705,-302 705,4 -4,4"/>
<!-- Node1 -->
<g id="node1" class="node"><title>Node1</title>
<g id="a_node1"><a xlink:title=" ">
<polygon fill="#bfbfbf" stroke="black" points="341,-136.5 341,-155.5 496,-155.5 496,-136.5 341,-136.5"/>
<text text-anchor="middle" x="418.5" y="-143.5" font-family="Helvetica,sans-Serif" font-size="10.00">oeng::engine::SceneComponent</text>
</a>
</g>
</g>
<!-- Node4 -->
<g id="node4" class="node"><title>Node4</title>
<g id="a_node4"><a xlink:href="classoeng_1_1engine_1_1_camera_component.html" target="_top" xlink:title=" ">
<polygon fill="white" stroke="black" points="536,-278.5 536,-297.5 697,-297.5 697,-278.5 536,-278.5"/>
<text text-anchor="middle" x="616.5" y="-285.5" font-family="Helvetica,sans-Serif" font-size="10.00">oeng::engine::CameraComponent</text>
</a>
</g>
</g>
<!-- Node1&#45;&gt;Node4 -->
<g id="edge3" class="edge"><title>Node1&#45;&gt;Node4</title>
<path fill="none" stroke="midnightblue" d="M430.975,-164.437C448.988,-191.751 486.576,-242.577 532,-269 538.683,-272.887 546.096,-275.979 553.666,-278.438"/>
<polygon fill="midnightblue" stroke="midnightblue" points="433.795,-162.35 425.44,-155.835 427.908,-166.138 433.795,-162.35"/>
</g>
<!-- Node5 -->
<g id="node5" class="node"><title>Node5</title>
<g id="a_node5"><a xlink:href="classoeng_1_1engine_1_1_dir_light_component.html" target="_top" xlink:title=" ">
<polygon fill="white" stroke="black" points="536,-240.5 536,-259.5 697,-259.5 697,-240.5 536,-240.5"/>
<text text-anchor="middle" x="616.5" y="-247.5" font-family="Helvetica,sans-Serif" font-size="10.00">oeng::engine::DirLightComponent</text>
</a>
</g>
</g>
<!-- Node1&#45;&gt;Node5 -->
<g id="edge4" class="edge"><title>Node1&#45;&gt;Node5</title>
<path fill="none" stroke="midnightblue" d="M436.467,-162.561C457.257,-181.911 494.379,-213.5 532,-231 540.223,-234.825 549.268,-237.906 558.277,-240.38"/>
<polygon fill="midnightblue" stroke="midnightblue" points="438.752,-159.905 429.088,-155.564 433.936,-164.985 438.752,-159.905"/>
</g>
<!-- Node6 -->
<g id="node6" class="node"><title>Node6</title>
<g id="a_node6"><a xlink:href="classoeng_1_1engine_1_1_mesh_component.html" target="_top" xlink:title=" ">
<polygon fill="white" stroke="black" points="540.5,-202.5 540.5,-221.5 692.5,-221.5 692.5,-202.5 540.5,-202.5"/>
<text text-anchor="middle" x="616.5" y="-209.5" font-family="Helvetica,sans-Serif" font-size="10.00">oeng::engine::MeshComponent</text>
</a>
</g>
</g>
<!-- Node1&#45;&gt;Node6 -->
<g id="edge5" class="edge"><title>Node1&#45;&gt;Node6</title>
<path fill="none" stroke="midnightblue" d="M448.714,-159.839C471.122,-170.051 503.024,-183.727 532,-193 543.186,-196.58 555.42,-199.76 566.99,-202.446"/>
<polygon fill="midnightblue" stroke="midnightblue" points="449.977,-156.567 439.43,-155.559 447.046,-162.924 449.977,-156.567"/>
</g>
<!-- Node7 -->
<g id="node7" class="node"><title>Node7</title>
<g id="a_node7"><a xlink:href="classoeng_1_1engine_1_1_point_light_component.html" target="_top" xlink:title=" ">
<polygon fill="white" stroke="black" points="555.5,-153 555.5,-183 677.5,-183 677.5,-153 555.5,-153"/>
<text text-anchor="start" x="563.5" y="-171" font-family="Helvetica,sans-Serif" font-size="10.00">oeng::engine::PointLight</text>
<text text-anchor="middle" x="616.5" y="-160" font-family="Helvetica,sans-Serif" font-size="10.00">Component</text>
</a>
</g>
</g>
<!-- Node1&#45;&gt;Node7 -->
<g id="edge6" class="edge"><title>Node1&#45;&gt;Node7</title>
<path fill="none" stroke="midnightblue" d="M506.342,-155.748C522.874,-157.603 539.835,-159.507 555.31,-161.244"/>
<polygon fill="midnightblue" stroke="midnightblue" points="506.449,-152.238 496.121,-154.6 505.668,-159.194 506.449,-152.238"/>
</g>
<!-- Node8 -->
<g id="node8" class="node"><title>Node8</title>
<g id="a_node8"><a xlink:href="classoeng_1_1engine_1_1_sky_light_component.html" target="_top" xlink:title=" ">
<polygon fill="white" stroke="black" points="533.5,-114.5 533.5,-133.5 699.5,-133.5 699.5,-114.5 533.5,-114.5"/>
<text text-anchor="middle" x="616.5" y="-121.5" font-family="Helvetica,sans-Serif" font-size="10.00">oeng::engine::SkyLightComponent</text>
</a>
</g>
</g>
<!-- Node1&#45;&gt;Node8 -->
<g id="edge7" class="edge"><title>Node1&#45;&gt;Node8</title>
<path fill="none" stroke="midnightblue" d="M506.25,-136.263C515.284,-135.249 524.448,-134.22 533.429,-133.212"/>
<polygon fill="midnightblue" stroke="midnightblue" points="505.668,-132.806 496.121,-137.4 506.449,-139.762 505.668,-132.806"/>
</g>
<!-- Node9 -->
<g id="node9" class="node"><title>Node9</title>
<g id="a_node9"><a xlink:href="classoeng_1_1engine_1_1_sphere_component.html" target="_top" xlink:title="Simple sphere collision component.">
<polygon fill="white" stroke="black" points="537.5,-76.5 537.5,-95.5 695.5,-95.5 695.5,-76.5 537.5,-76.5"/>
<text text-anchor="middle" x="616.5" y="-83.5" font-family="Helvetica,sans-Serif" font-size="10.00">oeng::engine::SphereComponent</text>
</a>
</g>
</g>
<!-- Node1&#45;&gt;Node9 -->
<g id="edge8" class="edge"><title>Node1&#45;&gt;Node9</title>
<path fill="none" stroke="midnightblue" d="M452.235,-132.832C474.489,-124.188 504.73,-113.037 532,-105 543.836,-101.512 556.775,-98.2879 568.857,-95.524"/>
<polygon fill="midnightblue" stroke="midnightblue" points="450.947,-129.578 442.915,-136.487 453.503,-136.095 450.947,-129.578"/>
</g>
<!-- Node10 -->
<g id="node10" class="node"><title>Node10</title>
<g id="a_node10"><a xlink:href="classoeng_1_1engine_1_1_spot_light_component.html" target="_top" xlink:title=" ">
<polygon fill="white" stroke="black" points="532,-38.5 532,-57.5 701,-57.5 701,-38.5 532,-38.5"/>
<text text-anchor="middle" x="616.5" y="-45.5" font-family="Helvetica,sans-Serif" font-size="10.00">oeng::engine::SpotLightComponent</text>
</a>
</g>
</g>
<!-- Node1&#45;&gt;Node10 -->
<g id="edge9" class="edge"><title>Node1&#45;&gt;Node10</title>
<path fill="none" stroke="midnightblue" d="M437.687,-129.812C458.864,-111.816 495.608,-83.1636 532,-67 540.696,-63.1378 550.262,-60.0192 559.721,-57.5138"/>
<polygon fill="midnightblue" stroke="midnightblue" points="435.388,-127.173 430.113,-136.361 439.967,-132.468 435.388,-127.173"/>
</g>
<!-- Node11 -->
<g id="node11" class="node"><title>Node11</title>
<g id="a_node11"><a xlink:href="classoeng_1_1engine_1_1_sprite_component.html" target="_top" xlink:title=" ">
<polygon fill="white" stroke="black" points="540,-0.5 540,-19.5 693,-19.5 693,-0.5 540,-0.5"/>
<text text-anchor="middle" x="616.5" y="-7.5" font-family="Helvetica,sans-Serif" font-size="10.00">oeng::engine::SpriteComponent</text>
</a>
</g>
</g>
<!-- Node1&#45;&gt;Node11 -->
<g id="edge10" class="edge"><title>Node1&#45;&gt;Node11</title>
<path fill="none" stroke="midnightblue" d="M431.711,-127.745C450.201,-101.61 487.864,-53.9418 532,-29 538.86,-25.1234 546.458,-22.0375 554.196,-19.5812"/>
<polygon fill="midnightblue" stroke="midnightblue" points="428.594,-126.1 425.79,-136.317 434.353,-130.078 428.594,-126.1"/>
</g>
<!-- Node2 -->
<g id="node2" class="node"><title>Node2</title>
<g id="a_node2"><a xlink:href="classoeng_1_1engine_1_1_actor_component.html" target="_top" xlink:title=" ">
<polygon fill="white" stroke="black" points="154,-136.5 154,-155.5 305,-155.5 305,-136.5 154,-136.5"/>
<text text-anchor="middle" x="229.5" y="-143.5" font-family="Helvetica,sans-Serif" font-size="10.00">oeng::engine::ActorComponent</text>
</a>
</g>
</g>
<!-- Node2&#45;&gt;Node1 -->
<g id="edge1" class="edge"><title>Node2&#45;&gt;Node1</title>
<path fill="none" stroke="midnightblue" d="M315.443,-146C323.882,-146 332.416,-146 340.765,-146"/>
<polygon fill="midnightblue" stroke="midnightblue" points="315.214,-142.5 305.214,-146 315.214,-149.5 315.214,-142.5"/>
</g>
<!-- Node3 -->
<g id="node3" class="node"><title>Node3</title>
<g id="a_node3"><a xlink:title=" ">
<polygon fill="white" stroke="#bfbfbf" points="0,-131 0,-161 118,-161 118,-131 0,-131"/>
<text text-anchor="start" x="8" y="-149" font-family="Helvetica,sans-Serif" font-size="10.00">EnableSharedFromThis</text>
<text text-anchor="middle" x="59" y="-138" font-family="Helvetica,sans-Serif" font-size="10.00">&lt; ActorComponent &gt;</text>
</a>
</g>
</g>
<!-- Node3&#45;&gt;Node2 -->
<g id="edge2" class="edge"><title>Node3&#45;&gt;Node2</title>
<path fill="none" stroke="midnightblue" d="M128.504,-146C136.843,-146 145.396,-146 153.819,-146"/>
<polygon fill="midnightblue" stroke="midnightblue" points="128.46,-142.5 118.46,-146 128.46,-149.5 128.46,-142.5"/>
</g>
</g>
</svg>
