<?xml version="1.0" encoding="UTF-8" standalone="no"?>
<!DOCTYPE svg PUBLIC "-//W3C//DTD SVG 1.1//EN"
 "http://www.w3.org/Graphics/SVG/1.1/DTD/svg11.dtd">
<!-- Generated by graphviz version 2.38.0 (20140413.2041)
 -->
<!-- Title: oeng::engine::SphereComponent Pages: 1 -->
<svg width="166pt" height="263pt"
 viewBox="0.00 0.00 166.00 263.00" xmlns="http://www.w3.org/2000/svg" xmlns:xlink="http://www.w3.org/1999/xlink">
<g id="graph0" class="graph" transform="scale(1 1) rotate(0) translate(4 259)">
<title>oeng::engine::SphereComponent</title>
<polygon fill="white" stroke="none" points="-4,4 -4,-259 162,-259 162,4 -4,4"/>
<!-- Node1 -->
<g id="node1" class="node"><title>Node1</title>
<g id="a_node1"><a xlink:title=" ">
<polygon fill="#bfbfbf" stroke="black" points="0,-0.5 0,-19.5 158,-19.5 158,-0.5 0,-0.5"/>
<text text-anchor="middle" x="79" y="-7.5" font-family="Helvetica,sans-Serif" font-size="10.00">oeng::engine::SphereComponent</text>
</a>
</g>
</g>
<!-- Node2 -->
<g id="node2" class="node"><title>Node2</title>
<g id="a_node2"><a xlink:href="classoeng_1_1engine_1_1_scene_component.html" target="_top" xlink:title=" ">
<polygon fill="white" stroke="black" points="1.5,-56.5 1.5,-75.5 156.5,-75.5 156.5,-56.5 1.5,-56.5"/>
<text text-anchor="middle" x="79" y="-63.5" font-family="Helvetica,sans-Serif" font-size="10.00">oeng::engine::SceneComponent</text>
</a>
</g>
</g>
<!-- Node2&#45;&gt;Node1 -->
<g id="edge1" class="edge"><title>Node2&#45;&gt;Node1</title>
<path fill="none" stroke="midnightblue" d="M79,-45.8045C79,-36.9102 79,-26.7798 79,-19.7511"/>
<polygon fill="midnightblue" stroke="midnightblue" points="75.5001,-46.083 79,-56.083 82.5001,-46.083 75.5001,-46.083"/>
</g>
<!-- Node3 -->
<g id="node3" class="node"><title>Node3</title>
<g id="a_node3"><a xlink:href="classoeng_1_1engine_1_1_actor_component.html" target="_top" xlink:title=" ">
<polygon fill="white" stroke="black" points="3.5,-112.5 3.5,-131.5 154.5,-131.5 154.5,-112.5 3.5,-112.5"/>
<text text-anchor="middle" x="79" y="-119.5" font-family="Helvetica,sans-Serif" font-size="10.00">oeng::engine::ActorComponent</text>
</a>
</g>
</g>
<!-- Node3&#45;&gt;Node2 -->
<g id="edge2" class="edge"><title>Node3&#45;&gt;Node2</title>
<path fill="none" stroke="midnightblue" d="M79,-101.805C79,-92.9102 79,-82.7798 79,-75.7511"/>
<polygon fill="midnightblue" stroke="midnightblue" points="75.5001,-102.083 79,-112.083 82.5001,-102.083 75.5001,-102.083"/>
</g>
<!-- Node4 -->
<g id="node4" class="node"><title>Node4</title>
<g id="a_node4"><a xlink:href="classoeng_1_1core_1_1_object.html" target="_top" xlink:title=" ">
<polygon fill="white" stroke="black" points="30.5,-168.5 30.5,-187.5 127.5,-187.5 127.5,-168.5 30.5,-168.5"/>
<text text-anchor="middle" x="79" y="-175.5" font-family="Helvetica,sans-Serif" font-size="10.00">oeng::core::Object</text>
</a>
</g>
</g>
<!-- Node4&#45;&gt;Node3 -->
<g id="edge3" class="edge"><title>Node4&#45;&gt;Node3</title>
<path fill="none" stroke="midnightblue" d="M79,-157.805C79,-148.91 79,-138.78 79,-131.751"/>
<polygon fill="midnightblue" stroke="midnightblue" points="75.5001,-158.083 79,-168.083 82.5001,-158.083 75.5001,-158.083"/>
</g>
<!-- Node5 -->
<g id="node5" class="node"><title>Node5</title>
<g id="a_node5"><a xlink:href="classoeng_1_1core_1_1_enable_shared_from_this.html" target="_top" xlink:title=" ">
<polygon fill="white" stroke="black" points="14.5,-224.5 14.5,-254.5 143.5,-254.5 143.5,-224.5 14.5,-224.5"/>
<text text-anchor="start" x="22.5" y="-242.5" font-family="Helvetica,sans-Serif" font-size="10.00">oeng::core::EnableShared</text>
<text text-anchor="middle" x="79" y="-231.5" font-family="Helvetica,sans-Serif" font-size="10.00">FromThis&lt; Object &gt;</text>
</a>
</g>
</g>
<!-- Node5&#45;&gt;Node4 -->
<g id="edge4" class="edge"><title>Node5&#45;&gt;Node4</title>
<path fill="none" stroke="midnightblue" d="M79,-214.289C79,-204.857 79,-194.655 79,-187.658"/>
<polygon fill="midnightblue" stroke="midnightblue" points="75.5001,-214.399 79,-224.399 82.5001,-214.399 75.5001,-214.399"/>
</g>
</g>
</svg>
