<?xml version="1.0" encoding="UTF-8" standalone="no"?>
<!DOCTYPE svg PUBLIC "-//W3C//DTD SVG 1.1//EN"
 "http://www.w3.org/Graphics/SVG/1.1/DTD/svg11.dtd">
<!-- Generated by graphviz version 2.38.0 (20140413.2041)
 -->
<!-- Title: oeng::engine::Engine Pages: 1 -->
<svg width="236pt" height="84pt"
 viewBox="0.00 0.00 236.00 84.00" xmlns="http://www.w3.org/2000/svg" xmlns:xlink="http://www.w3.org/1999/xlink">
<g id="graph0" class="graph" transform="scale(1 1) rotate(0) translate(4 80)">
<title>oeng::engine::Engine</title>
<polygon fill="white" stroke="none" points="-4,4 -4,-80 232,-80 232,4 -4,4"/>
<!-- Node1 -->
<g id="node1" class="node"><title>Node1</title>
<g id="a_node1"><a xlink:title=" ">
<polygon fill="#bfbfbf" stroke="black" points="57.5,-0.5 57.5,-19.5 165.5,-19.5 165.5,-0.5 57.5,-0.5"/>
<text text-anchor="middle" x="111.5" y="-7.5" font-family="Helvetica,sans-Serif" font-size="10.00">oeng::engine::Engine</text>
</a>
</g>
</g>
<!-- Node2 -->
<g id="node2" class="node"><title>Node2</title>
<g id="a_node2"><a xlink:href="classoeng_1_1core_1_1_i_engine.html" target="_top" xlink:title=" ">
<polygon fill="white" stroke="black" points="0,-56.5 0,-75.5 101,-75.5 101,-56.5 0,-56.5"/>
<text text-anchor="middle" x="50.5" y="-63.5" font-family="Helvetica,sans-Serif" font-size="10.00">oeng::core::IEngine</text>
</a>
</g>
</g>
<!-- Node2&#45;&gt;Node1 -->
<g id="edge1" class="edge"><title>Node2&#45;&gt;Node1</title>
<path fill="none" stroke="midnightblue" d="M67.9672,-49.5372C78.8438,-39.9087 92.4439,-27.8694 101.521,-19.8339"/>
<polygon fill="midnightblue" stroke="midnightblue" points="65.4684,-47.0749 60.3007,-56.324 70.1083,-52.3162 65.4684,-47.0749"/>
</g>
<!-- Node3 -->
<g id="node3" class="node"><title>Node3</title>
<g id="a_node3"><a xlink:href="classoeng_1_1engine_1_1_sdl_raii.html" target="_top" xlink:title=" ">
<polygon fill="white" stroke="black" points="119,-56.5 119,-75.5 228,-75.5 228,-56.5 119,-56.5"/>
<text text-anchor="middle" x="173.5" y="-63.5" font-family="Helvetica,sans-Serif" font-size="10.00">oeng::engine::SdlRaii</text>
</a>
</g>
</g>
<!-- Node3&#45;&gt;Node1 -->
<g id="edge2" class="edge"><title>Node3&#45;&gt;Node1</title>
<path fill="none" stroke="#8b1a1a" d="M155.746,-49.5372C144.692,-39.9087 130.869,-27.8694 121.643,-19.8339"/>
<polygon fill="#8b1a1a" stroke="#8b1a1a" points="153.699,-52.3954 163.539,-56.324 158.297,-47.1168 153.699,-52.3954"/>
</g>
</g>
</svg>
