<?xml version="1.0" encoding="UTF-8" standalone="no"?>
<!DOCTYPE svg PUBLIC "-//W3C//DTD SVG 1.1//EN"
 "http://www.w3.org/Graphics/SVG/1.1/DTD/svg11.dtd">
<!-- Generated by graphviz version 2.38.0 (20140413.2041)
 -->
<!-- Title: oeng::engine::SceneComponent Pages: 1 -->
<svg width="1213pt" height="218pt"
 viewBox="0.00 0.00 1213.00 218.00" xmlns="http://www.w3.org/2000/svg" xmlns:xlink="http://www.w3.org/1999/xlink">
<g id="graph0" class="graph" transform="scale(1 1) rotate(0) translate(4 214)">
<title>oeng::engine::SceneComponent</title>
<polygon fill="white" stroke="none" points="-4,4 -4,-214 1209,-214 1209,4 -4,4"/>
<!-- Node1 -->
<g id="node1" class="node"><title>Node1</title>
<g id="a_node1"><a xlink:title=" ">
<polygon fill="#bfbfbf" stroke="black" points="485,-95.5 485,-114.5 640,-114.5 640,-95.5 485,-95.5"/>
<text text-anchor="middle" x="562.5" y="-102.5" font-family="Helvetica,sans-Serif" font-size="10.00">oeng::engine::SceneComponent</text>
</a>
</g>
</g>
<!-- Node5 -->
<g id="node5" class="node"><title>Node5</title>
<g id="a_node5"><a xlink:href="classoeng_1_1engine_1_1_camera_component.html" target="_top" xlink:title=" ">
<polygon fill="white" stroke="black" points="678.5,-190.5 678.5,-209.5 839.5,-209.5 839.5,-190.5 678.5,-190.5"/>
<text text-anchor="middle" x="759" y="-197.5" font-family="Helvetica,sans-Serif" font-size="10.00">oeng::engine::CameraComponent</text>
</a>
</g>
</g>
<!-- Node1&#45;&gt;Node5 -->
<g id="edge4" class="edge"><title>Node1&#45;&gt;Node5</title>
<path fill="none" stroke="midnightblue" d="M582.776,-121.297C604.202,-138.595 640.486,-165.526 676,-181 684.708,-184.794 694.28,-187.887 703.717,-190.389"/>
<polygon fill="midnightblue" stroke="midnightblue" points="584.755,-118.393 574.806,-114.75 580.312,-123.802 584.755,-118.393"/>
</g>
<!-- Node6 -->
<g id="node6" class="node"><title>Node6</title>
<g id="a_node6"><a xlink:href="classoeng_1_1engine_1_1_dir_light_component.html" target="_top" xlink:title=" ">
<polygon fill="white" stroke="black" points="678.5,-152.5 678.5,-171.5 839.5,-171.5 839.5,-152.5 678.5,-152.5"/>
<text text-anchor="middle" x="759" y="-159.5" font-family="Helvetica,sans-Serif" font-size="10.00">oeng::engine::DirLightComponent</text>
</a>
</g>
</g>
<!-- Node1&#45;&gt;Node6 -->
<g id="edge5" class="edge"><title>Node1&#45;&gt;Node6</title>
<path fill="none" stroke="midnightblue" d="M599.219,-118.065C621.195,-125.853 650.032,-135.625 676,-143 687.949,-146.393 701.003,-149.628 713.111,-152.435"/>
<polygon fill="midnightblue" stroke="midnightblue" points="600.234,-114.711 589.639,-114.642 597.879,-121.303 600.234,-114.711"/>
</g>
<!-- Node9 -->
<g id="node9" class="node"><title>Node9</title>
<g id="a_node9"><a xlink:href="classoeng_1_1engine_1_1_mesh_component.html" target="_top" xlink:title=" ">
<polygon fill="white" stroke="black" points="683,-114.5 683,-133.5 835,-133.5 835,-114.5 683,-114.5"/>
<text text-anchor="middle" x="759" y="-121.5" font-family="Helvetica,sans-Serif" font-size="10.00">oeng::engine::MeshComponent</text>
</a>
</g>
</g>
<!-- Node1&#45;&gt;Node9 -->
<g id="edge8" class="edge"><title>Node1&#45;&gt;Node9</title>
<path fill="none" stroke="midnightblue" d="M650.376,-113.487C661.175,-114.542 672.147,-115.613 682.751,-116.649"/>
<polygon fill="midnightblue" stroke="midnightblue" points="650.385,-109.971 640.092,-112.482 649.705,-116.938 650.385,-109.971"/>
</g>
<!-- Node10 -->
<g id="node10" class="node"><title>Node10</title>
<g id="a_node10"><a xlink:href="classoeng_1_1engine_1_1_sky_light_component.html" target="_top" xlink:title=" ">
<polygon fill="white" stroke="black" points="676,-76.5 676,-95.5 842,-95.5 842,-76.5 676,-76.5"/>
<text text-anchor="middle" x="759" y="-83.5" font-family="Helvetica,sans-Serif" font-size="10.00">oeng::engine::SkyLightComponent</text>
</a>
</g>
</g>
<!-- Node1&#45;&gt;Node10 -->
<g id="edge9" class="edge"><title>Node1&#45;&gt;Node10</title>
<path fill="none" stroke="midnightblue" d="M650.32,-96.5188C658.763,-95.6941 667.311,-94.8591 675.707,-94.0389"/>
<polygon fill="midnightblue" stroke="midnightblue" points="649.705,-93.0622 640.092,-97.518 650.385,-100.029 649.705,-93.0622"/>
</g>
<!-- Node11 -->
<g id="node11" class="node"><title>Node11</title>
<g id="a_node11"><a xlink:href="classoeng_1_1engine_1_1_sphere_component.html" target="_top" xlink:title=" ">
<polygon fill="white" stroke="black" points="680,-38.5 680,-57.5 838,-57.5 838,-38.5 680,-38.5"/>
<text text-anchor="middle" x="759" y="-45.5" font-family="Helvetica,sans-Serif" font-size="10.00">oeng::engine::SphereComponent</text>
</a>
</g>
</g>
<!-- Node1&#45;&gt;Node11 -->
<g id="edge10" class="edge"><title>Node1&#45;&gt;Node11</title>
<path fill="none" stroke="midnightblue" d="M599.219,-91.9353C621.195,-84.1475 650.032,-74.375 676,-67 687.949,-63.6065 701.003,-60.3719 713.111,-57.5647"/>
<polygon fill="midnightblue" stroke="midnightblue" points="597.879,-88.6974 589.639,-95.3581 600.234,-95.2893 597.879,-88.6974"/>
</g>
<!-- Node12 -->
<g id="node12" class="node"><title>Node12</title>
<g id="a_node12"><a xlink:href="classoeng_1_1engine_1_1_sprite_component.html" target="_top" xlink:title=" ">
<polygon fill="white" stroke="black" points="682.5,-0.5 682.5,-19.5 835.5,-19.5 835.5,-0.5 682.5,-0.5"/>
<text text-anchor="middle" x="759" y="-7.5" font-family="Helvetica,sans-Serif" font-size="10.00">oeng::engine::SpriteComponent</text>
</a>
</g>
</g>
<!-- Node1&#45;&gt;Node12 -->
<g id="edge11" class="edge"><title>Node1&#45;&gt;Node12</title>
<path fill="none" stroke="midnightblue" d="M582.776,-88.7034C604.202,-71.4049 640.486,-44.4741 676,-29 684.708,-25.2058 694.28,-22.1135 703.717,-19.6112"/>
<polygon fill="midnightblue" stroke="midnightblue" points="580.312,-86.1978 574.806,-95.2498 584.755,-91.6069 580.312,-86.1978"/>
</g>
<!-- Node2 -->
<g id="node2" class="node"><title>Node2</title>
<g id="a_node2"><a xlink:href="classoeng_1_1engine_1_1_actor_component.html" target="_top" xlink:title=" ">
<polygon fill="white" stroke="black" points="298,-95.5 298,-114.5 449,-114.5 449,-95.5 298,-95.5"/>
<text text-anchor="middle" x="373.5" y="-102.5" font-family="Helvetica,sans-Serif" font-size="10.00">oeng::engine::ActorComponent</text>
</a>
</g>
</g>
<!-- Node2&#45;&gt;Node1 -->
<g id="edge1" class="edge"><title>Node2&#45;&gt;Node1</title>
<path fill="none" stroke="midnightblue" d="M459.443,-105C467.882,-105 476.416,-105 484.765,-105"/>
<polygon fill="midnightblue" stroke="midnightblue" points="459.214,-101.5 449.214,-105 459.214,-108.5 459.214,-101.5"/>
</g>
<!-- Node3 -->
<g id="node3" class="node"><title>Node3</title>
<g id="a_node3"><a xlink:href="classoeng_1_1core_1_1_object.html" target="_top" xlink:title=" ">
<polygon fill="white" stroke="black" points="165,-95.5 165,-114.5 262,-114.5 262,-95.5 165,-95.5"/>
<text text-anchor="middle" x="213.5" y="-102.5" font-family="Helvetica,sans-Serif" font-size="10.00">oeng::core::Object</text>
</a>
</g>
</g>
<!-- Node3&#45;&gt;Node2 -->
<g id="edge2" class="edge"><title>Node3&#45;&gt;Node2</title>
<path fill="none" stroke="midnightblue" d="M272.601,-105C280.869,-105 289.466,-105 297.993,-105"/>
<polygon fill="midnightblue" stroke="midnightblue" points="272.334,-101.5 262.334,-105 272.334,-108.5 272.334,-101.5"/>
</g>
<!-- Node4 -->
<g id="node4" class="node"><title>Node4</title>
<g id="a_node4"><a xlink:href="classoeng_1_1core_1_1_enable_shared_from_this.html" target="_top" xlink:title=" ">
<polygon fill="white" stroke="black" points="0,-90 0,-120 129,-120 129,-90 0,-90"/>
<text text-anchor="start" x="8" y="-108" font-family="Helvetica,sans-Serif" font-size="10.00">oeng::core::EnableShared</text>
<text text-anchor="middle" x="64.5" y="-97" font-family="Helvetica,sans-Serif" font-size="10.00">FromThis&lt; Object &gt;</text>
</a>
</g>
</g>
<!-- Node4&#45;&gt;Node3 -->
<g id="edge3" class="edge"><title>Node4&#45;&gt;Node3</title>
<path fill="none" stroke="midnightblue" d="M139.259,-105C147.918,-105 156.572,-105 164.74,-105"/>
<polygon fill="midnightblue" stroke="midnightblue" points="139.121,-101.5 129.121,-105 139.121,-108.5 139.121,-101.5"/>
</g>
<!-- Node7 -->
<g id="node7" class="node"><title>Node7</title>
<g id="a_node7"><a xlink:href="classoeng_1_1engine_1_1_point_light_component.html" target="_top" xlink:title=" ">
<polygon fill="white" stroke="black" points="878,-147 878,-177 1000,-177 1000,-147 878,-147"/>
<text text-anchor="start" x="886" y="-165" font-family="Helvetica,sans-Serif" font-size="10.00">oeng::engine::PointLight</text>
<text text-anchor="middle" x="939" y="-154" font-family="Helvetica,sans-Serif" font-size="10.00">Component</text>
</a>
</g>
</g>
<!-- Node6&#45;&gt;Node7 -->
<g id="edge6" class="edge"><title>Node6&#45;&gt;Node7</title>
<path fill="none" stroke="midnightblue" d="M849.917,-162C859.413,-162 868.894,-162 877.929,-162"/>
<polygon fill="midnightblue" stroke="midnightblue" points="849.629,-158.5 839.629,-162 849.629,-165.5 849.629,-158.5"/>
</g>
<!-- Node8 -->
<g id="node8" class="node"><title>Node8</title>
<g id="a_node8"><a xlink:href="classoeng_1_1engine_1_1_spot_light_component.html" target="_top" xlink:title=" ">
<polygon fill="white" stroke="black" points="1036,-152.5 1036,-171.5 1205,-171.5 1205,-152.5 1036,-152.5"/>
<text text-anchor="middle" x="1120.5" y="-159.5" font-family="Helvetica,sans-Serif" font-size="10.00">oeng::engine::SpotLightComponent</text>
</a>
</g>
</g>
<!-- Node7&#45;&gt;Node8 -->
<g id="edge7" class="edge"><title>Node7&#45;&gt;Node8</title>
<path fill="none" stroke="midnightblue" d="M1010.32,-162C1018.67,-162 1027.26,-162 1035.78,-162"/>
<polygon fill="midnightblue" stroke="midnightblue" points="1010.27,-158.5 1000.27,-162 1010.27,-165.5 1010.27,-158.5"/>
</g>
</g>
</svg>
