<?xml version="1.0" encoding="UTF-8" standalone="no"?>
<!DOCTYPE svg PUBLIC "-//W3C//DTD SVG 1.1//EN"
 "http://www.w3.org/Graphics/SVG/1.1/DTD/svg11.dtd">
<!-- Generated by graphviz version 2.38.0 (20140413.2041)
 -->
<!-- Title: oeng::engine::ActorComponent Pages: 1 -->
<svg width="726pt" height="306pt"
 viewBox="0.00 0.00 726.00 306.00" xmlns="http://www.w3.org/2000/svg" xmlns:xlink="http://www.w3.org/1999/xlink">
<g id="graph0" class="graph" transform="scale(1 1) rotate(0) translate(4 302)">
<title>oeng::engine::ActorComponent</title>
<polygon fill="white" stroke="none" points="-4,4 -4,-302 722,-302 722,4 -4,4"/>
<!-- Node1 -->
<g id="node1" class="node"><title>Node1</title>
<g id="a_node1"><a xlink:title=" ">
<polygon fill="#bfbfbf" stroke="black" points="154,-193.5 154,-212.5 305,-212.5 305,-193.5 154,-193.5"/>
<text text-anchor="middle" x="229.5" y="-200.5" font-family="Helvetica,sans-Serif" font-size="10.00">oeng::engine::ActorComponent</text>
</a>
</g>
</g>
<!-- Node3 -->
<g id="node3" class="node"><title>Node3</title>
<g id="a_node3"><a xlink:href="classoeng_1_1engine_1_1_a_i_component.html" target="_top" xlink:title=" ">
<polygon fill="white" stroke="black" points="358.5,-250.5 358.5,-269.5 495.5,-269.5 495.5,-250.5 358.5,-250.5"/>
<text text-anchor="middle" x="427" y="-257.5" font-family="Helvetica,sans-Serif" font-size="10.00">oeng::engine::AIComponent</text>
</a>
</g>
</g>
<!-- Node1&#45;&gt;Node3 -->
<g id="edge2" class="edge"><title>Node1&#45;&gt;Node3</title>
<path fill="none" stroke="midnightblue" d="M265.116,-216.015C286.74,-223.866 315.268,-233.724 341,-241 353.223,-244.456 366.576,-247.69 379.001,-250.475"/>
<polygon fill="midnightblue" stroke="midnightblue" points="266.295,-212.719 255.702,-212.565 263.887,-219.292 266.295,-212.719"/>
</g>
<!-- Node4 -->
<g id="node4" class="node"><title>Node4</title>
<g id="a_node4"><a xlink:href="classoeng_1_1engine_1_1_input_component.html" target="_top" xlink:title=" ">
<polygon fill="white" stroke="black" points="352.5,-212.5 352.5,-231.5 501.5,-231.5 501.5,-212.5 352.5,-212.5"/>
<text text-anchor="middle" x="427" y="-219.5" font-family="Helvetica,sans-Serif" font-size="10.00">oeng::engine::InputComponent</text>
</a>
</g>
</g>
<!-- Node1&#45;&gt;Node4 -->
<g id="edge3" class="edge"><title>Node1&#45;&gt;Node4</title>
<path fill="none" stroke="midnightblue" d="M315.462,-211.257C327.719,-212.448 340.249,-213.666 352.263,-214.834"/>
<polygon fill="midnightblue" stroke="midnightblue" points="315.539,-207.748 305.247,-210.264 314.862,-214.715 315.539,-207.748"/>
</g>
<!-- Node5 -->
<g id="node5" class="node"><title>Node5</title>
<g id="a_node5"><a xlink:href="classoeng_1_1engine_1_1_movement_component.html" target="_top" xlink:title=" ">
<polygon fill="white" stroke="black" points="341,-174.5 341,-193.5 513,-193.5 513,-174.5 341,-174.5"/>
<text text-anchor="middle" x="427" y="-181.5" font-family="Helvetica,sans-Serif" font-size="10.00">oeng::engine::MovementComponent</text>
</a>
</g>
</g>
<!-- Node1&#45;&gt;Node5 -->
<g id="edge4" class="edge"><title>Node1&#45;&gt;Node5</title>
<path fill="none" stroke="midnightblue" d="M315.441,-194.745C323.865,-193.926 332.418,-193.095 340.844,-192.276"/>
<polygon fill="midnightblue" stroke="midnightblue" points="314.862,-191.285 305.247,-195.736 315.539,-198.252 314.862,-191.285"/>
</g>
<!-- Node6 -->
<g id="node6" class="node"><title>Node6</title>
<g id="a_node6"><a xlink:href="classoeng_1_1engine_1_1_scene_component.html" target="_top" xlink:title=" ">
<polygon fill="white" stroke="black" points="349.5,-136.5 349.5,-155.5 504.5,-155.5 504.5,-136.5 349.5,-136.5"/>
<text text-anchor="middle" x="427" y="-143.5" font-family="Helvetica,sans-Serif" font-size="10.00">oeng::engine::SceneComponent</text>
</a>
</g>
</g>
<!-- Node1&#45;&gt;Node6 -->
<g id="edge5" class="edge"><title>Node1&#45;&gt;Node6</title>
<path fill="none" stroke="midnightblue" d="M265.116,-189.985C286.74,-182.134 315.268,-172.276 341,-165 353.223,-161.544 366.576,-158.31 379.001,-155.525"/>
<polygon fill="midnightblue" stroke="midnightblue" points="263.887,-186.708 255.702,-193.435 266.295,-193.281 263.887,-186.708"/>
</g>
<!-- Node2 -->
<g id="node2" class="node"><title>Node2</title>
<g id="a_node2"><a xlink:title=" ">
<polygon fill="white" stroke="#bfbfbf" points="0,-188 0,-218 118,-218 118,-188 0,-188"/>
<text text-anchor="start" x="8" y="-206" font-family="Helvetica,sans-Serif" font-size="10.00">EnableSharedFromThis</text>
<text text-anchor="middle" x="59" y="-195" font-family="Helvetica,sans-Serif" font-size="10.00">&lt; ActorComponent &gt;</text>
</a>
</g>
</g>
<!-- Node2&#45;&gt;Node1 -->
<g id="edge1" class="edge"><title>Node2&#45;&gt;Node1</title>
<path fill="none" stroke="midnightblue" d="M128.504,-203C136.843,-203 145.396,-203 153.819,-203"/>
<polygon fill="midnightblue" stroke="midnightblue" points="128.46,-199.5 118.46,-203 128.46,-206.5 128.46,-199.5"/>
</g>
<!-- Node7 -->
<g id="node7" class="node"><title>Node7</title>
<g id="a_node7"><a xlink:href="classoeng_1_1engine_1_1_camera_component.html" target="_top" xlink:title=" ">
<polygon fill="white" stroke="black" points="553,-278.5 553,-297.5 714,-297.5 714,-278.5 553,-278.5"/>
<text text-anchor="middle" x="633.5" y="-285.5" font-family="Helvetica,sans-Serif" font-size="10.00">oeng::engine::CameraComponent</text>
</a>
</g>
</g>
<!-- Node6&#45;&gt;Node7 -->
<g id="edge6" class="edge"><title>Node6&#45;&gt;Node7</title>
<path fill="none" stroke="midnightblue" d="M507.497,-160.683C509.418,-162.009 511.259,-163.446 513,-165 549.49,-197.572 512.572,-236.358 549,-269 553.207,-272.77 558.006,-275.84 563.126,-278.334"/>
<polygon fill="midnightblue" stroke="midnightblue" points="509.021,-157.521 498.612,-155.544 505.516,-163.581 509.021,-157.521"/>
</g>
<!-- Node8 -->
<g id="node8" class="node"><title>Node8</title>
<g id="a_node8"><a xlink:href="classoeng_1_1engine_1_1_dir_light_component.html" target="_top" xlink:title=" ">
<polygon fill="white" stroke="black" points="553,-240.5 553,-259.5 714,-259.5 714,-240.5 553,-240.5"/>
<text text-anchor="middle" x="633.5" y="-247.5" font-family="Helvetica,sans-Serif" font-size="10.00">oeng::engine::DirLightComponent</text>
</a>
</g>
</g>
<!-- Node6&#45;&gt;Node8 -->
<g id="edge7" class="edge"><title>Node6&#45;&gt;Node8</title>
<path fill="none" stroke="midnightblue" d="M505.491,-160.101C508.108,-161.58 510.622,-163.209 513,-165 539.687,-185.106 522.352,-210.843 549,-231 554.099,-234.857 559.84,-237.954 565.865,-240.438"/>
<polygon fill="midnightblue" stroke="midnightblue" points="506.779,-156.835 496.253,-155.622 503.725,-163.134 506.779,-156.835"/>
</g>
<!-- Node9 -->
<g id="node9" class="node"><title>Node9</title>
<g id="a_node9"><a xlink:href="classoeng_1_1engine_1_1_mesh_component.html" target="_top" xlink:title=" ">
<polygon fill="white" stroke="black" points="557.5,-202.5 557.5,-221.5 709.5,-221.5 709.5,-202.5 557.5,-202.5"/>
<text text-anchor="middle" x="633.5" y="-209.5" font-family="Helvetica,sans-Serif" font-size="10.00">oeng::engine::MeshComponent</text>
</a>
</g>
</g>
<!-- Node6&#45;&gt;Node9 -->
<g id="edge8" class="edge"><title>Node6&#45;&gt;Node9</title>
<path fill="none" stroke="midnightblue" d="M496.102,-158.481C501.924,-160.367 507.633,-162.528 513,-165 531.165,-173.368 530.899,-183.494 549,-192 558.174,-196.311 568.366,-199.743 578.387,-202.459"/>
<polygon fill="midnightblue" stroke="midnightblue" points="496.821,-155.044 486.239,-155.56 494.833,-161.756 496.821,-155.044"/>
</g>
<!-- Node10 -->
<g id="node10" class="node"><title>Node10</title>
<g id="a_node10"><a xlink:href="classoeng_1_1engine_1_1_point_light_component.html" target="_top" xlink:title=" ">
<polygon fill="white" stroke="black" points="572.5,-153 572.5,-183 694.5,-183 694.5,-153 572.5,-153"/>
<text text-anchor="start" x="580.5" y="-171" font-family="Helvetica,sans-Serif" font-size="10.00">oeng::engine::PointLight</text>
<text text-anchor="middle" x="633.5" y="-160" font-family="Helvetica,sans-Serif" font-size="10.00">Component</text>
</a>
</g>
</g>
<!-- Node6&#45;&gt;Node10 -->
<g id="edge9" class="edge"><title>Node6&#45;&gt;Node10</title>
<path fill="none" stroke="midnightblue" d="M514.772,-155.335C534.136,-157.418 554.259,-159.583 572.274,-161.521"/>
<polygon fill="midnightblue" stroke="midnightblue" points="515.047,-151.844 504.73,-154.255 514.298,-158.804 515.047,-151.844"/>
</g>
<!-- Node11 -->
<g id="node11" class="node"><title>Node11</title>
<g id="a_node11"><a xlink:href="classoeng_1_1engine_1_1_sky_light_component.html" target="_top" xlink:title=" ">
<polygon fill="white" stroke="black" points="550.5,-114.5 550.5,-133.5 716.5,-133.5 716.5,-114.5 550.5,-114.5"/>
<text text-anchor="middle" x="633.5" y="-121.5" font-family="Helvetica,sans-Serif" font-size="10.00">oeng::engine::SkyLightComponent</text>
</a>
</g>
</g>
<!-- Node6&#45;&gt;Node11 -->
<g id="edge10" class="edge"><title>Node6&#45;&gt;Node11</title>
<path fill="none" stroke="midnightblue" d="M514.924,-136.649C526.621,-135.39 538.593,-134.102 550.207,-132.853"/>
<polygon fill="midnightblue" stroke="midnightblue" points="514.298,-133.196 504.73,-137.745 515.047,-140.156 514.298,-133.196"/>
</g>
<!-- Node12 -->
<g id="node12" class="node"><title>Node12</title>
<g id="a_node12"><a xlink:href="classoeng_1_1engine_1_1_sphere_component.html" target="_top" xlink:title="Simple sphere collision component.">
<polygon fill="white" stroke="black" points="554.5,-76.5 554.5,-95.5 712.5,-95.5 712.5,-76.5 554.5,-76.5"/>
<text text-anchor="middle" x="633.5" y="-83.5" font-family="Helvetica,sans-Serif" font-size="10.00">oeng::engine::SphereComponent</text>
</a>
</g>
</g>
<!-- Node6&#45;&gt;Node12 -->
<g id="edge11" class="edge"><title>Node6&#45;&gt;Node12</title>
<path fill="none" stroke="midnightblue" d="M463.436,-132.917C487.397,-124.338 519.864,-113.228 549,-105 561.161,-101.566 574.452,-98.3175 586.782,-95.5102"/>
<polygon fill="midnightblue" stroke="midnightblue" points="461.94,-129.736 453.722,-136.424 464.316,-136.321 461.94,-129.736"/>
</g>
<!-- Node13 -->
<g id="node13" class="node"><title>Node13</title>
<g id="a_node13"><a xlink:href="classoeng_1_1engine_1_1_spot_light_component.html" target="_top" xlink:title=" ">
<polygon fill="white" stroke="black" points="549,-38.5 549,-57.5 718,-57.5 718,-38.5 549,-38.5"/>
<text text-anchor="middle" x="633.5" y="-45.5" font-family="Helvetica,sans-Serif" font-size="10.00">oeng::engine::SpotLightComponent</text>
</a>
</g>
</g>
<!-- Node6&#45;&gt;Node13 -->
<g id="edge12" class="edge"><title>Node6&#45;&gt;Node13</title>
<path fill="none" stroke="midnightblue" d="M447.477,-130.115C470.408,-112.194 510.292,-83.4144 549,-67 558.034,-63.1692 567.959,-60.0508 577.717,-57.5321"/>
<polygon fill="midnightblue" stroke="midnightblue" points="445.212,-127.444 439.556,-136.403 449.564,-132.926 445.212,-127.444"/>
</g>
<!-- Node14 -->
<g id="node14" class="node"><title>Node14</title>
<g id="a_node14"><a xlink:href="classoeng_1_1engine_1_1_sprite_component.html" target="_top" xlink:title=" ">
<polygon fill="white" stroke="black" points="557,-0.5 557,-19.5 710,-19.5 710,-0.5 557,-0.5"/>
<text text-anchor="middle" x="633.5" y="-7.5" font-family="Helvetica,sans-Serif" font-size="10.00">oeng::engine::SpriteComponent</text>
</a>
</g>
</g>
<!-- Node6&#45;&gt;Node14 -->
<g id="edge13" class="edge"><title>Node6&#45;&gt;Node14</title>
<path fill="none" stroke="midnightblue" d="M441.197,-128.109C461.398,-102.079 502.565,-54.1365 549,-29 556.191,-25.1073 564.146,-22.0103 572.205,-19.5467"/>
<polygon fill="midnightblue" stroke="midnightblue" points="438.214,-126.25 434.951,-136.33 443.788,-130.484 438.214,-126.25"/>
</g>
</g>
</svg>
