<?xml version="1.0" encoding="UTF-8" standalone="no"?>
<!DOCTYPE svg PUBLIC "-//W3C//DTD SVG 1.1//EN"
 "http://www.w3.org/Graphics/SVG/1.1/DTD/svg11.dtd">
<!-- Generated by graphviz version 2.38.0 (20140413.2041)
 -->
<!-- Title: oeng::engine::AActor Pages: 1 -->
<svg width="798pt" height="344pt"
 viewBox="0.00 0.00 798.00 344.00" xmlns="http://www.w3.org/2000/svg" xmlns:xlink="http://www.w3.org/1999/xlink">
<g id="graph0" class="graph" transform="scale(1 1) rotate(0) translate(4 340)">
<title>oeng::engine::AActor</title>
<polygon fill="white" stroke="none" points="-4,4 -4,-340 794,-340 794,4 -4,4"/>
<!-- Node1 -->
<g id="node1" class="node"><title>Node1</title>
<g id="a_node1"><a xlink:title=" ">
<polygon fill="#bfbfbf" stroke="black" points="298,-164.5 298,-183.5 406,-183.5 406,-164.5 298,-164.5"/>
<text text-anchor="middle" x="352" y="-171.5" font-family="Helvetica,sans-Serif" font-size="10.00">oeng::engine::AActor</text>
</a>
</g>
</g>
<!-- Node4 -->
<g id="node4" class="node"><title>Node4</title>
<g id="a_node4"><a xlink:href="classoeng_1_1engine_1_1_a_camera_actor.html" target="_top" xlink:title=" ">
<polygon fill="white" stroke="black" points="450,-316.5 450,-335.5 592,-335.5 592,-316.5 450,-316.5"/>
<text text-anchor="middle" x="521" y="-323.5" font-family="Helvetica,sans-Serif" font-size="10.00">oeng::engine::ACameraActor</text>
</a>
</g>
</g>
<!-- Node1&#45;&gt;Node4 -->
<g id="edge3" class="edge"><title>Node1&#45;&gt;Node4</title>
<path fill="none" stroke="midnightblue" d="M360.503,-193.374C372.881,-222.681 400.422,-277.941 442,-307 447.598,-310.912 453.91,-314.023 460.459,-316.496"/>
<polygon fill="midnightblue" stroke="midnightblue" points="363.639,-191.794 356.631,-183.848 357.154,-194.429 363.639,-191.794"/>
</g>
<!-- Node5 -->
<g id="node5" class="node"><title>Node5</title>
<g id="a_node5"><a xlink:href="classoeng_1_1engine_1_1_a_controller.html" target="_top" xlink:title=" ">
<polygon fill="white" stroke="black" points="458,-278.5 458,-297.5 584,-297.5 584,-278.5 458,-278.5"/>
<text text-anchor="middle" x="521" y="-285.5" font-family="Helvetica,sans-Serif" font-size="10.00">oeng::engine::AController</text>
</a>
</g>
</g>
<!-- Node1&#45;&gt;Node5 -->
<g id="edge4" class="edge"><title>Node1&#45;&gt;Node5</title>
<path fill="none" stroke="midnightblue" d="M364.748,-191.831C379.961,-213.463 408.528,-249.457 442,-269 448.62,-272.865 455.996,-275.946 463.497,-278.402"/>
<polygon fill="midnightblue" stroke="midnightblue" points="367.605,-189.808 359.071,-183.529 361.827,-193.759 367.605,-189.808"/>
</g>
<!-- Node7 -->
<g id="node7" class="node"><title>Node7</title>
<g id="a_node7"><a xlink:href="classoeng_1_1engine_1_1_a_dir_light.html" target="_top" xlink:title=" ">
<polygon fill="white" stroke="black" points="462,-240.5 462,-259.5 580,-259.5 580,-240.5 462,-240.5"/>
<text text-anchor="middle" x="521" y="-247.5" font-family="Helvetica,sans-Serif" font-size="10.00">oeng::engine::ADirLight</text>
</a>
</g>
</g>
<!-- Node1&#45;&gt;Node7 -->
<g id="edge6" class="edge"><title>Node1&#45;&gt;Node7</title>
<path fill="none" stroke="midnightblue" d="M373.466,-189.907C390.83,-202.695 416.861,-220.244 442,-231 450.842,-234.783 460.584,-237.907 470.098,-240.452"/>
<polygon fill="midnightblue" stroke="midnightblue" points="375.322,-186.924 365.225,-183.715 371.117,-192.52 375.322,-186.924"/>
</g>
<!-- Node8 -->
<g id="node8" class="node"><title>Node8</title>
<g id="a_node8"><a xlink:href="classoeng_1_1engine_1_1_a_game_mode_base.html" target="_top" xlink:title=" ">
<polygon fill="white" stroke="black" points="442,-202.5 442,-221.5 600,-221.5 600,-202.5 442,-202.5"/>
<text text-anchor="middle" x="521" y="-209.5" font-family="Helvetica,sans-Serif" font-size="10.00">oeng::engine::AGameModeBase</text>
</a>
</g>
</g>
<!-- Node1&#45;&gt;Node8 -->
<g id="edge7" class="edge"><title>Node1&#45;&gt;Node8</title>
<path fill="none" stroke="midnightblue" d="M404.965,-185.824C428.509,-191.182 455.974,-197.431 478.162,-202.48"/>
<polygon fill="midnightblue" stroke="midnightblue" points="405.668,-182.395 395.141,-183.589 404.115,-189.221 405.668,-182.395"/>
</g>
<!-- Node9 -->
<g id="node9" class="node"><title>Node9</title>
<g id="a_node9"><a xlink:href="classoeng_1_1engine_1_1_a_mesh_actor.html" target="_top" xlink:title=" ">
<polygon fill="white" stroke="black" points="455,-164.5 455,-183.5 587,-183.5 587,-164.5 455,-164.5"/>
<text text-anchor="middle" x="521" y="-171.5" font-family="Helvetica,sans-Serif" font-size="10.00">oeng::engine::AMeshActor</text>
</a>
</g>
</g>
<!-- Node1&#45;&gt;Node9 -->
<g id="edge8" class="edge"><title>Node1&#45;&gt;Node9</title>
<path fill="none" stroke="midnightblue" d="M416.65,-174C429.181,-174 442.346,-174 454.923,-174"/>
<polygon fill="midnightblue" stroke="midnightblue" points="416.299,-170.5 406.299,-174 416.299,-177.5 416.299,-170.5"/>
</g>
<!-- Node10 -->
<g id="node10" class="node"><title>Node10</title>
<g id="a_node10"><a xlink:href="classoeng_1_1engine_1_1_a_pawn.html" target="_top" xlink:title=" ">
<polygon fill="white" stroke="black" points="466.5,-126.5 466.5,-145.5 575.5,-145.5 575.5,-126.5 466.5,-126.5"/>
<text text-anchor="middle" x="521" y="-133.5" font-family="Helvetica,sans-Serif" font-size="10.00">oeng::engine::APawn</text>
</a>
</g>
</g>
<!-- Node1&#45;&gt;Node10 -->
<g id="edge9" class="edge"><title>Node1&#45;&gt;Node10</title>
<path fill="none" stroke="midnightblue" d="M404.965,-162.176C428.509,-156.818 455.974,-150.569 478.162,-145.52"/>
<polygon fill="midnightblue" stroke="midnightblue" points="404.115,-158.779 395.141,-164.411 405.668,-165.605 404.115,-158.779"/>
</g>
<!-- Node11 -->
<g id="node11" class="node"><title>Node11</title>
<g id="a_node11"><a xlink:href="classoeng_1_1engine_1_1_a_player_camera_manager.html" target="_top" xlink:title=" ">
<polygon fill="white" stroke="black" points="448,-77 448,-107 594,-107 594,-77 448,-77"/>
<text text-anchor="start" x="456" y="-95" font-family="Helvetica,sans-Serif" font-size="10.00">oeng::engine::APlayerCamera</text>
<text text-anchor="middle" x="521" y="-84" font-family="Helvetica,sans-Serif" font-size="10.00">Manager</text>
</a>
</g>
</g>
<!-- Node1&#45;&gt;Node11 -->
<g id="edge10" class="edge"><title>Node1&#45;&gt;Node11</title>
<path fill="none" stroke="midnightblue" d="M373.975,-158.343C391.462,-145.849 417.401,-128.578 442,-117 449.72,-113.367 458.106,-110.063 466.421,-107.134"/>
<polygon fill="midnightblue" stroke="midnightblue" points="371.688,-155.679 365.653,-164.387 375.801,-161.343 371.688,-155.679"/>
</g>
<!-- Node12 -->
<g id="node12" class="node"><title>Node12</title>
<g id="a_node12"><a xlink:href="classoeng_1_1engine_1_1_a_point_light.html" target="_top" xlink:title=" ">
<polygon fill="white" stroke="black" points="457,-38.5 457,-57.5 585,-57.5 585,-38.5 457,-38.5"/>
<text text-anchor="middle" x="521" y="-45.5" font-family="Helvetica,sans-Serif" font-size="10.00">oeng::engine::APointLight</text>
</a>
</g>
</g>
<!-- Node1&#45;&gt;Node12 -->
<g id="edge11" class="edge"><title>Node1&#45;&gt;Node12</title>
<path fill="none" stroke="midnightblue" d="M363.342,-155.326C377.742,-131.122 406.149,-89.3752 442,-67 448.267,-63.089 455.282,-59.9829 462.467,-57.5163"/>
<polygon fill="midnightblue" stroke="midnightblue" points="360.168,-153.823 358.205,-164.235 366.233,-157.32 360.168,-153.823"/>
</g>
<!-- Node13 -->
<g id="node13" class="node"><title>Node13</title>
<g id="a_node13"><a xlink:href="classoeng_1_1engine_1_1_a_sky_light.html" target="_top" xlink:title=" ">
<polygon fill="white" stroke="black" points="459.5,-0.5 459.5,-19.5 582.5,-19.5 582.5,-0.5 459.5,-0.5"/>
<text text-anchor="middle" x="521" y="-7.5" font-family="Helvetica,sans-Serif" font-size="10.00">oeng::engine::ASkyLight</text>
</a>
</g>
</g>
<!-- Node1&#45;&gt;Node13 -->
<g id="edge12" class="edge"><title>Node1&#45;&gt;Node13</title>
<path fill="none" stroke="midnightblue" d="M359.352,-154.693C370.715,-123.278 397.58,-61.3612 442,-29 447.295,-25.1427 453.274,-22.0614 459.509,-19.601"/>
<polygon fill="midnightblue" stroke="midnightblue" points="355.944,-153.839 355.976,-164.434 362.558,-156.132 355.944,-153.839"/>
</g>
<!-- Node2 -->
<g id="node2" class="node"><title>Node2</title>
<g id="a_node2"><a xlink:href="classoeng_1_1core_1_1_object.html" target="_top" xlink:title=" ">
<polygon fill="white" stroke="black" points="165,-164.5 165,-183.5 262,-183.5 262,-164.5 165,-164.5"/>
<text text-anchor="middle" x="213.5" y="-171.5" font-family="Helvetica,sans-Serif" font-size="10.00">oeng::core::Object</text>
</a>
</g>
</g>
<!-- Node2&#45;&gt;Node1 -->
<g id="edge1" class="edge"><title>Node2&#45;&gt;Node1</title>
<path fill="none" stroke="midnightblue" d="M272.421,-174C280.885,-174 289.566,-174 297.926,-174"/>
<polygon fill="midnightblue" stroke="midnightblue" points="272.241,-170.5 262.241,-174 272.241,-177.5 272.241,-170.5"/>
</g>
<!-- Node3 -->
<g id="node3" class="node"><title>Node3</title>
<g id="a_node3"><a xlink:href="classoeng_1_1core_1_1_enable_shared_from_this.html" target="_top" xlink:title=" ">
<polygon fill="white" stroke="black" points="0,-159 0,-189 129,-189 129,-159 0,-159"/>
<text text-anchor="start" x="8" y="-177" font-family="Helvetica,sans-Serif" font-size="10.00">oeng::core::EnableShared</text>
<text text-anchor="middle" x="64.5" y="-166" font-family="Helvetica,sans-Serif" font-size="10.00">FromThis&lt; Object &gt;</text>
</a>
</g>
</g>
<!-- Node3&#45;&gt;Node2 -->
<g id="edge2" class="edge"><title>Node3&#45;&gt;Node2</title>
<path fill="none" stroke="midnightblue" d="M139.259,-174C147.918,-174 156.572,-174 164.74,-174"/>
<polygon fill="midnightblue" stroke="midnightblue" points="139.121,-170.5 129.121,-174 139.121,-177.5 139.121,-170.5"/>
</g>
<!-- Node6 -->
<g id="node6" class="node"><title>Node6</title>
<g id="a_node6"><a xlink:href="classoeng_1_1engine_1_1_a_player_controller.html" target="_top" xlink:title=" ">
<polygon fill="white" stroke="black" points="636,-278.5 636,-297.5 790,-297.5 790,-278.5 636,-278.5"/>
<text text-anchor="middle" x="713" y="-285.5" font-family="Helvetica,sans-Serif" font-size="10.00">oeng::engine::APlayerController</text>
</a>
</g>
</g>
<!-- Node5&#45;&gt;Node6 -->
<g id="edge5" class="edge"><title>Node5&#45;&gt;Node6</title>
<path fill="none" stroke="midnightblue" d="M594.403,-288C607.919,-288 622.083,-288 635.712,-288"/>
<polygon fill="midnightblue" stroke="midnightblue" points="594.213,-284.5 584.213,-288 594.213,-291.5 594.213,-284.5"/>
</g>
</g>
</svg>
