<?xml version="1.0" encoding="UTF-8" standalone="no"?>
<!DOCTYPE svg PUBLIC "-//W3C//DTD SVG 1.1//EN"
 "http://www.w3.org/Graphics/SVG/1.1/DTD/svg11.dtd">
<!-- Generated by graphviz version 2.38.0 (20140413.2041)
 -->
<!-- Title: oeng::engine::SceneComponent Pages: 1 -->
<svg width="739pt" height="306pt"
 viewBox="0.00 0.00 739.00 306.00" xmlns="http://www.w3.org/2000/svg" xmlns:xlink="http://www.w3.org/1999/xlink">
<g id="graph0" class="graph" transform="scale(1 1) rotate(0) translate(4 302)">
<title>oeng::engine::SceneComponent</title>
<polygon fill="white" stroke="none" points="-4,4 -4,-302 735,-302 735,4 -4,4"/>
<!-- Node1 -->
<g id="node1" class="node"><title>Node1</title>
<g id="a_node1"><a xlink:title=" ">
<polygon fill="#bfbfbf" stroke="black" points="371,-136.5 371,-155.5 526,-155.5 526,-136.5 371,-136.5"/>
<text text-anchor="middle" x="448.5" y="-143.5" font-family="Helvetica,sans-Serif" font-size="10.00">oeng::engine::SceneComponent</text>
</a>
</g>
</g>
<!-- Node4 -->
<g id="node4" class="node"><title>Node4</title>
<g id="a_node4"><a xlink:href="classoeng_1_1engine_1_1_camera_component.html" target="_top" xlink:title=" ">
<polygon fill="white" stroke="black" points="566,-278.5 566,-297.5 727,-297.5 727,-278.5 566,-278.5"/>
<text text-anchor="middle" x="646.5" y="-285.5" font-family="Helvetica,sans-Serif" font-size="10.00">oeng::engine::CameraComponent</text>
</a>
</g>
</g>
<!-- Node1&#45;&gt;Node4 -->
<g id="edge3" class="edge"><title>Node1&#45;&gt;Node4</title>
<path fill="none" stroke="midnightblue" d="M460.975,-164.437C478.988,-191.751 516.576,-242.577 562,-269 568.683,-272.887 576.096,-275.979 583.666,-278.438"/>
<polygon fill="midnightblue" stroke="midnightblue" points="463.795,-162.35 455.44,-155.835 457.908,-166.138 463.795,-162.35"/>
</g>
<!-- Node5 -->
<g id="node5" class="node"><title>Node5</title>
<g id="a_node5"><a xlink:href="classoeng_1_1engine_1_1_dir_light_component.html" target="_top" xlink:title=" ">
<polygon fill="white" stroke="black" points="566,-240.5 566,-259.5 727,-259.5 727,-240.5 566,-240.5"/>
<text text-anchor="middle" x="646.5" y="-247.5" font-family="Helvetica,sans-Serif" font-size="10.00">oeng::engine::DirLightComponent</text>
</a>
</g>
</g>
<!-- Node1&#45;&gt;Node5 -->
<g id="edge4" class="edge"><title>Node1&#45;&gt;Node5</title>
<path fill="none" stroke="midnightblue" d="M466.467,-162.561C487.257,-181.911 524.379,-213.5 562,-231 570.223,-234.825 579.268,-237.906 588.277,-240.38"/>
<polygon fill="midnightblue" stroke="midnightblue" points="468.752,-159.905 459.088,-155.564 463.936,-164.985 468.752,-159.905"/>
</g>
<!-- Node6 -->
<g id="node6" class="node"><title>Node6</title>
<g id="a_node6"><a xlink:href="classoeng_1_1engine_1_1_mesh_component.html" target="_top" xlink:title=" ">
<polygon fill="white" stroke="black" points="570.5,-202.5 570.5,-221.5 722.5,-221.5 722.5,-202.5 570.5,-202.5"/>
<text text-anchor="middle" x="646.5" y="-209.5" font-family="Helvetica,sans-Serif" font-size="10.00">oeng::engine::MeshComponent</text>
</a>
</g>
</g>
<!-- Node1&#45;&gt;Node6 -->
<g id="edge5" class="edge"><title>Node1&#45;&gt;Node6</title>
<path fill="none" stroke="midnightblue" d="M478.714,-159.839C501.122,-170.051 533.024,-183.727 562,-193 573.186,-196.58 585.42,-199.76 596.99,-202.446"/>
<polygon fill="midnightblue" stroke="midnightblue" points="479.977,-156.567 469.43,-155.559 477.046,-162.924 479.977,-156.567"/>
</g>
<!-- Node7 -->
<g id="node7" class="node"><title>Node7</title>
<g id="a_node7"><a xlink:href="classoeng_1_1engine_1_1_point_light_component.html" target="_top" xlink:title=" ">
<polygon fill="white" stroke="black" points="585.5,-153 585.5,-183 707.5,-183 707.5,-153 585.5,-153"/>
<text text-anchor="start" x="593.5" y="-171" font-family="Helvetica,sans-Serif" font-size="10.00">oeng::engine::PointLight</text>
<text text-anchor="middle" x="646.5" y="-160" font-family="Helvetica,sans-Serif" font-size="10.00">Component</text>
</a>
</g>
</g>
<!-- Node1&#45;&gt;Node7 -->
<g id="edge6" class="edge"><title>Node1&#45;&gt;Node7</title>
<path fill="none" stroke="midnightblue" d="M536.342,-155.748C552.874,-157.603 569.835,-159.507 585.31,-161.244"/>
<polygon fill="midnightblue" stroke="midnightblue" points="536.449,-152.238 526.121,-154.6 535.668,-159.194 536.449,-152.238"/>
</g>
<!-- Node8 -->
<g id="node8" class="node"><title>Node8</title>
<g id="a_node8"><a xlink:href="classoeng_1_1engine_1_1_sky_light_component.html" target="_top" xlink:title=" ">
<polygon fill="white" stroke="black" points="563.5,-114.5 563.5,-133.5 729.5,-133.5 729.5,-114.5 563.5,-114.5"/>
<text text-anchor="middle" x="646.5" y="-121.5" font-family="Helvetica,sans-Serif" font-size="10.00">oeng::engine::SkyLightComponent</text>
</a>
</g>
</g>
<!-- Node1&#45;&gt;Node8 -->
<g id="edge7" class="edge"><title>Node1&#45;&gt;Node8</title>
<path fill="none" stroke="midnightblue" d="M536.25,-136.263C545.284,-135.249 554.448,-134.22 563.429,-133.212"/>
<polygon fill="midnightblue" stroke="midnightblue" points="535.668,-132.806 526.121,-137.4 536.449,-139.762 535.668,-132.806"/>
</g>
<!-- Node9 -->
<g id="node9" class="node"><title>Node9</title>
<g id="a_node9"><a xlink:href="classoeng_1_1engine_1_1_sphere_component.html" target="_top" xlink:title="Simple sphere collision component.">
<polygon fill="white" stroke="black" points="567.5,-76.5 567.5,-95.5 725.5,-95.5 725.5,-76.5 567.5,-76.5"/>
<text text-anchor="middle" x="646.5" y="-83.5" font-family="Helvetica,sans-Serif" font-size="10.00">oeng::engine::SphereComponent</text>
</a>
</g>
</g>
<!-- Node1&#45;&gt;Node9 -->
<g id="edge8" class="edge"><title>Node1&#45;&gt;Node9</title>
<path fill="none" stroke="midnightblue" d="M482.235,-132.832C504.489,-124.188 534.73,-113.037 562,-105 573.836,-101.512 586.775,-98.2879 598.857,-95.524"/>
<polygon fill="midnightblue" stroke="midnightblue" points="480.947,-129.578 472.915,-136.487 483.503,-136.095 480.947,-129.578"/>
</g>
<!-- Node10 -->
<g id="node10" class="node"><title>Node10</title>
<g id="a_node10"><a xlink:href="classoeng_1_1engine_1_1_spot_light_component.html" target="_top" xlink:title=" ">
<polygon fill="white" stroke="black" points="562,-38.5 562,-57.5 731,-57.5 731,-38.5 562,-38.5"/>
<text text-anchor="middle" x="646.5" y="-45.5" font-family="Helvetica,sans-Serif" font-size="10.00">oeng::engine::SpotLightComponent</text>
</a>
</g>
</g>
<!-- Node1&#45;&gt;Node10 -->
<g id="edge9" class="edge"><title>Node1&#45;&gt;Node10</title>
<path fill="none" stroke="midnightblue" d="M467.687,-129.812C488.864,-111.816 525.608,-83.1636 562,-67 570.696,-63.1378 580.262,-60.0192 589.721,-57.5138"/>
<polygon fill="midnightblue" stroke="midnightblue" points="465.388,-127.173 460.113,-136.361 469.967,-132.468 465.388,-127.173"/>
</g>
<!-- Node11 -->
<g id="node11" class="node"><title>Node11</title>
<g id="a_node11"><a xlink:href="classoeng_1_1engine_1_1_sprite_component.html" target="_top" xlink:title=" ">
<polygon fill="white" stroke="black" points="570,-0.5 570,-19.5 723,-19.5 723,-0.5 570,-0.5"/>
<text text-anchor="middle" x="646.5" y="-7.5" font-family="Helvetica,sans-Serif" font-size="10.00">oeng::engine::SpriteComponent</text>
</a>
</g>
</g>
<!-- Node1&#45;&gt;Node11 -->
<g id="edge10" class="edge"><title>Node1&#45;&gt;Node11</title>
<path fill="none" stroke="midnightblue" d="M461.711,-127.745C480.201,-101.61 517.864,-53.9418 562,-29 568.86,-25.1234 576.458,-22.0375 584.196,-19.5812"/>
<polygon fill="midnightblue" stroke="midnightblue" points="458.594,-126.1 455.79,-136.317 464.353,-130.078 458.594,-126.1"/>
</g>
<!-- Node2 -->
<g id="node2" class="node"><title>Node2</title>
<g id="a_node2"><a xlink:href="classoeng_1_1engine_1_1_actor_component.html" target="_top" xlink:title=" ">
<polygon fill="white" stroke="black" points="184,-136.5 184,-155.5 335,-155.5 335,-136.5 184,-136.5"/>
<text text-anchor="middle" x="259.5" y="-143.5" font-family="Helvetica,sans-Serif" font-size="10.00">oeng::engine::ActorComponent</text>
</a>
</g>
</g>
<!-- Node2&#45;&gt;Node1 -->
<g id="edge1" class="edge"><title>Node2&#45;&gt;Node1</title>
<path fill="none" stroke="midnightblue" d="M345.443,-146C353.882,-146 362.416,-146 370.765,-146"/>
<polygon fill="midnightblue" stroke="midnightblue" points="345.214,-142.5 335.214,-146 345.214,-149.5 345.214,-142.5"/>
</g>
<!-- Node3 -->
<g id="node3" class="node"><title>Node3</title>
<g id="a_node3"><a xlink:href="classoeng_1_1core_1_1_enable_shared_from_this.html" target="_top" xlink:title=" ">
<polygon fill="white" stroke="black" points="0,-131 0,-161 148,-161 148,-131 0,-131"/>
<text text-anchor="start" x="8" y="-149" font-family="Helvetica,sans-Serif" font-size="10.00">oeng::core::EnableShared</text>
<text text-anchor="middle" x="74" y="-138" font-family="Helvetica,sans-Serif" font-size="10.00">FromThis&lt; ActorComponent &gt;</text>
</a>
</g>
</g>
<!-- Node3&#45;&gt;Node2 -->
<g id="edge2" class="edge"><title>Node3&#45;&gt;Node2</title>
<path fill="none" stroke="midnightblue" d="M158.086,-146C166.69,-146 175.396,-146 183.899,-146"/>
<polygon fill="midnightblue" stroke="midnightblue" points="158.051,-142.5 148.051,-146 158.051,-149.5 158.051,-142.5"/>
</g>
</g>
</svg>
