<?xml version="1.0" encoding="UTF-8" standalone="no"?>
<!DOCTYPE svg PUBLIC "-//W3C//DTD SVG 1.1//EN"
 "http://www.w3.org/Graphics/SVG/1.1/DTD/svg11.dtd">
<!-- Generated by graphviz version 2.38.0 (20140413.2041)
 -->
<!-- Title: oeng::engine::AActor Pages: 1 -->
<svg width="448pt" height="180pt"
 viewBox="0.00 0.00 448.00 180.00" xmlns="http://www.w3.org/2000/svg" xmlns:xlink="http://www.w3.org/1999/xlink">
<g id="graph0" class="graph" transform="scale(1 1) rotate(0) translate(4 176)">
<title>oeng::engine::AActor</title>
<polygon fill="white" stroke="none" points="-4,4 -4,-176 444,-176 444,4 -4,4"/>
<!-- Node1 -->
<g id="node1" class="node"><title>Node1</title>
<g id="a_node1"><a xlink:title=" ">
<polygon fill="#bfbfbf" stroke="black" points="154,-76.5 154,-95.5 262,-95.5 262,-76.5 154,-76.5"/>
<text text-anchor="middle" x="208" y="-83.5" font-family="Helvetica,sans-Serif" font-size="10.00">oeng::engine::AActor</text>
</a>
</g>
</g>
<!-- Node3 -->
<g id="node3" class="node"><title>Node3</title>
<g id="a_node3"><a xlink:href="classoeng_1_1engine_1_1_a_camera_actor.html" target="_top" xlink:title=" ">
<polygon fill="white" stroke="black" points="298,-152.5 298,-171.5 440,-171.5 440,-152.5 298,-152.5"/>
<text text-anchor="middle" x="369" y="-159.5" font-family="Helvetica,sans-Serif" font-size="10.00">oeng::engine::ACameraActor</text>
</a>
</g>
</g>
<!-- Node1&#45;&gt;Node3 -->
<g id="edge2" class="edge"><title>Node1&#45;&gt;Node3</title>
<path fill="none" stroke="midnightblue" d="M229.54,-101.736C246.95,-114.422 273.003,-131.917 298,-143 306.404,-146.726 315.706,-149.872 324.712,-152.466"/>
<polygon fill="midnightblue" stroke="midnightblue" points="231.391,-98.7504 221.276,-95.5993 227.218,-104.371 231.391,-98.7504"/>
</g>
<!-- Node4 -->
<g id="node4" class="node"><title>Node4</title>
<g id="a_node4"><a xlink:href="classoeng_1_1engine_1_1_a_dir_light.html" target="_top" xlink:title=" ">
<polygon fill="white" stroke="black" points="310,-114.5 310,-133.5 428,-133.5 428,-114.5 310,-114.5"/>
<text text-anchor="middle" x="369" y="-121.5" font-family="Helvetica,sans-Serif" font-size="10.00">oeng::engine::ADirLight</text>
</a>
</g>
</g>
<!-- Node1&#45;&gt;Node4 -->
<g id="edge3" class="edge"><title>Node1&#45;&gt;Node4</title>
<path fill="none" stroke="midnightblue" d="M259.077,-97.968C281.358,-103.293 307.229,-109.476 328.166,-114.48"/>
<polygon fill="midnightblue" stroke="midnightblue" points="259.662,-94.5094 249.122,-95.589 258.035,-101.318 259.662,-94.5094"/>
</g>
<!-- Node5 -->
<g id="node5" class="node"><title>Node5</title>
<g id="a_node5"><a xlink:href="classoeng_1_1engine_1_1_a_mesh_actor.html" target="_top" xlink:title=" ">
<polygon fill="white" stroke="black" points="303,-76.5 303,-95.5 435,-95.5 435,-76.5 303,-76.5"/>
<text text-anchor="middle" x="369" y="-83.5" font-family="Helvetica,sans-Serif" font-size="10.00">oeng::engine::AMeshActor</text>
</a>
</g>
</g>
<!-- Node1&#45;&gt;Node5 -->
<g id="edge4" class="edge"><title>Node1&#45;&gt;Node5</title>
<path fill="none" stroke="midnightblue" d="M272.616,-86C282.579,-86 292.888,-86 302.884,-86"/>
<polygon fill="midnightblue" stroke="midnightblue" points="272.387,-82.5001 262.387,-86 272.387,-89.5001 272.387,-82.5001"/>
</g>
<!-- Node6 -->
<g id="node6" class="node"><title>Node6</title>
<g id="a_node6"><a xlink:href="classoeng_1_1engine_1_1_a_point_light.html" target="_top" xlink:title=" ">
<polygon fill="white" stroke="black" points="305,-38.5 305,-57.5 433,-57.5 433,-38.5 305,-38.5"/>
<text text-anchor="middle" x="369" y="-45.5" font-family="Helvetica,sans-Serif" font-size="10.00">oeng::engine::APointLight</text>
</a>
</g>
</g>
<!-- Node1&#45;&gt;Node6 -->
<g id="edge5" class="edge"><title>Node1&#45;&gt;Node6</title>
<path fill="none" stroke="midnightblue" d="M259.077,-74.032C281.358,-68.7069 307.229,-62.5238 328.166,-57.5201"/>
<polygon fill="midnightblue" stroke="midnightblue" points="258.035,-70.6823 249.122,-76.411 259.662,-77.4906 258.035,-70.6823"/>
</g>
<!-- Node7 -->
<g id="node7" class="node"><title>Node7</title>
<g id="a_node7"><a xlink:href="classoeng_1_1engine_1_1_a_sky_light.html" target="_top" xlink:title=" ">
<polygon fill="white" stroke="black" points="307.5,-0.5 307.5,-19.5 430.5,-19.5 430.5,-0.5 307.5,-0.5"/>
<text text-anchor="middle" x="369" y="-7.5" font-family="Helvetica,sans-Serif" font-size="10.00">oeng::engine::ASkyLight</text>
</a>
</g>
</g>
<!-- Node1&#45;&gt;Node7 -->
<g id="edge6" class="edge"><title>Node1&#45;&gt;Node7</title>
<path fill="none" stroke="midnightblue" d="M229.54,-70.2645C246.95,-57.5782 273.003,-40.0832 298,-29 306.404,-25.274 315.706,-22.128 324.712,-19.5343"/>
<polygon fill="midnightblue" stroke="midnightblue" points="227.218,-67.6293 221.276,-76.4007 231.391,-73.2496 227.218,-67.6293"/>
</g>
<!-- Node2 -->
<g id="node2" class="node"><title>Node2</title>
<g id="a_node2"><a xlink:title=" ">
<polygon fill="white" stroke="#bfbfbf" points="0,-71 0,-101 118,-101 118,-71 0,-71"/>
<text text-anchor="start" x="8" y="-89" font-family="Helvetica,sans-Serif" font-size="10.00">EnableSharedFromThis</text>
<text text-anchor="middle" x="59" y="-78" font-family="Helvetica,sans-Serif" font-size="10.00">&lt; AActor &gt;</text>
</a>
</g>
</g>
<!-- Node2&#45;&gt;Node1 -->
<g id="edge1" class="edge"><title>Node2&#45;&gt;Node1</title>
<path fill="none" stroke="midnightblue" d="M128.365,-86C136.845,-86 145.416,-86 153.624,-86"/>
<polygon fill="midnightblue" stroke="midnightblue" points="128.098,-82.5001 118.098,-86 128.098,-89.5001 128.098,-82.5001"/>
</g>
</g>
</svg>
