<?xml version="1.0" encoding="UTF-8" standalone="no"?>
<!DOCTYPE svg PUBLIC "-//W3C//DTD SVG 1.1//EN"
 "http://www.w3.org/Graphics/SVG/1.1/DTD/svg11.dtd">
<!-- Generated by graphviz version 2.38.0 (20140413.2041)
 -->
<!-- Title: oeng::engine::ActorComponent Pages: 1 -->
<svg width="1230pt" height="218pt"
 viewBox="0.00 0.00 1230.00 218.00" xmlns="http://www.w3.org/2000/svg" xmlns:xlink="http://www.w3.org/1999/xlink">
<g id="graph0" class="graph" transform="scale(1 1) rotate(0) translate(4 214)">
<title>oeng::engine::ActorComponent</title>
<polygon fill="white" stroke="none" points="-4,4 -4,-214 1226,-214 1226,4 -4,4"/>
<!-- Node1 -->
<g id="node1" class="node"><title>Node1</title>
<g id="a_node1"><a xlink:title=" ">
<polygon fill="#bfbfbf" stroke="black" points="298,-133.5 298,-152.5 449,-152.5 449,-133.5 298,-133.5"/>
<text text-anchor="middle" x="373.5" y="-140.5" font-family="Helvetica,sans-Serif" font-size="10.00">oeng::engine::ActorComponent</text>
</a>
</g>
</g>
<!-- Node4 -->
<g id="node4" class="node"><title>Node4</title>
<g id="a_node4"><a xlink:href="classoeng_1_1engine_1_1_input_component.html" target="_top" xlink:title=" ">
<polygon fill="white" stroke="black" points="496.5,-171.5 496.5,-190.5 645.5,-190.5 645.5,-171.5 496.5,-171.5"/>
<text text-anchor="middle" x="571" y="-178.5" font-family="Helvetica,sans-Serif" font-size="10.00">oeng::engine::InputComponent</text>
</a>
</g>
</g>
<!-- Node1&#45;&gt;Node4 -->
<g id="edge3" class="edge"><title>Node1&#45;&gt;Node4</title>
<path fill="none" stroke="midnightblue" d="M433.61,-154.489C461.504,-159.911 494.402,-166.306 520.899,-171.456"/>
<polygon fill="midnightblue" stroke="midnightblue" points="434.065,-151.012 423.581,-152.54 432.729,-157.884 434.065,-151.012"/>
</g>
<!-- Node5 -->
<g id="node5" class="node"><title>Node5</title>
<g id="a_node5"><a xlink:href="classoeng_1_1engine_1_1_movement_component.html" target="_top" xlink:title=" ">
<polygon fill="white" stroke="black" points="485,-133.5 485,-152.5 657,-152.5 657,-133.5 485,-133.5"/>
<text text-anchor="middle" x="571" y="-140.5" font-family="Helvetica,sans-Serif" font-size="10.00">oeng::engine::MovementComponent</text>
</a>
</g>
</g>
<!-- Node1&#45;&gt;Node5 -->
<g id="edge4" class="edge"><title>Node1&#45;&gt;Node5</title>
<path fill="none" stroke="midnightblue" d="M459.441,-143C467.865,-143 476.418,-143 484.844,-143"/>
<polygon fill="midnightblue" stroke="midnightblue" points="459.247,-139.5 449.247,-143 459.247,-146.5 459.247,-139.5"/>
</g>
<!-- Node6 -->
<g id="node6" class="node"><title>Node6</title>
<g id="a_node6"><a xlink:href="classoeng_1_1engine_1_1_scene_component.html" target="_top" xlink:title=" ">
<polygon fill="white" stroke="black" points="493.5,-95.5 493.5,-114.5 648.5,-114.5 648.5,-95.5 493.5,-95.5"/>
<text text-anchor="middle" x="571" y="-102.5" font-family="Helvetica,sans-Serif" font-size="10.00">oeng::engine::SceneComponent</text>
</a>
</g>
</g>
<!-- Node1&#45;&gt;Node6 -->
<g id="edge5" class="edge"><title>Node1&#45;&gt;Node6</title>
<path fill="none" stroke="midnightblue" d="M433.61,-131.511C461.504,-126.089 494.402,-119.694 520.899,-114.544"/>
<polygon fill="midnightblue" stroke="midnightblue" points="432.729,-128.116 423.581,-133.46 434.065,-134.988 432.729,-128.116"/>
</g>
<!-- Node2 -->
<g id="node2" class="node"><title>Node2</title>
<g id="a_node2"><a xlink:href="classoeng_1_1core_1_1_object.html" target="_top" xlink:title=" ">
<polygon fill="white" stroke="black" points="165,-133.5 165,-152.5 262,-152.5 262,-133.5 165,-133.5"/>
<text text-anchor="middle" x="213.5" y="-140.5" font-family="Helvetica,sans-Serif" font-size="10.00">oeng::core::Object</text>
</a>
</g>
</g>
<!-- Node2&#45;&gt;Node1 -->
<g id="edge1" class="edge"><title>Node2&#45;&gt;Node1</title>
<path fill="none" stroke="midnightblue" d="M272.601,-143C280.869,-143 289.466,-143 297.993,-143"/>
<polygon fill="midnightblue" stroke="midnightblue" points="272.334,-139.5 262.334,-143 272.334,-146.5 272.334,-139.5"/>
</g>
<!-- Node3 -->
<g id="node3" class="node"><title>Node3</title>
<g id="a_node3"><a xlink:href="classoeng_1_1core_1_1_enable_shared_from_this.html" target="_top" xlink:title=" ">
<polygon fill="white" stroke="black" points="0,-128 0,-158 129,-158 129,-128 0,-128"/>
<text text-anchor="start" x="8" y="-146" font-family="Helvetica,sans-Serif" font-size="10.00">oeng::core::EnableShared</text>
<text text-anchor="middle" x="64.5" y="-135" font-family="Helvetica,sans-Serif" font-size="10.00">FromThis&lt; Object &gt;</text>
</a>
</g>
</g>
<!-- Node3&#45;&gt;Node2 -->
<g id="edge2" class="edge"><title>Node3&#45;&gt;Node2</title>
<path fill="none" stroke="midnightblue" d="M139.259,-143C147.918,-143 156.572,-143 164.74,-143"/>
<polygon fill="midnightblue" stroke="midnightblue" points="139.121,-139.5 129.121,-143 139.121,-146.5 139.121,-139.5"/>
</g>
<!-- Node7 -->
<g id="node7" class="node"><title>Node7</title>
<g id="a_node7"><a xlink:href="classoeng_1_1engine_1_1_camera_component.html" target="_top" xlink:title=" ">
<polygon fill="white" stroke="black" points="695.5,-190.5 695.5,-209.5 856.5,-209.5 856.5,-190.5 695.5,-190.5"/>
<text text-anchor="middle" x="776" y="-197.5" font-family="Helvetica,sans-Serif" font-size="10.00">oeng::engine::CameraComponent</text>
</a>
</g>
</g>
<!-- Node6&#45;&gt;Node7 -->
<g id="edge6" class="edge"><title>Node6&#45;&gt;Node7</title>
<path fill="none" stroke="midnightblue" d="M648.408,-118.801C651.4,-120.357 654.28,-122.084 657,-124 681.495,-141.255 668.572,-163.649 693,-181 698.48,-184.893 704.639,-188 711.055,-190.478"/>
<polygon fill="midnightblue" stroke="midnightblue" points="649.695,-115.542 639.14,-114.626 646.82,-121.925 649.695,-115.542"/>
</g>
<!-- Node8 -->
<g id="node8" class="node"><title>Node8</title>
<g id="a_node8"><a xlink:href="classoeng_1_1engine_1_1_dir_light_component.html" target="_top" xlink:title=" ">
<polygon fill="white" stroke="black" points="695.5,-152.5 695.5,-171.5 856.5,-171.5 856.5,-152.5 695.5,-152.5"/>
<text text-anchor="middle" x="776" y="-159.5" font-family="Helvetica,sans-Serif" font-size="10.00">oeng::engine::DirLightComponent</text>
</a>
</g>
</g>
<!-- Node6&#45;&gt;Node8 -->
<g id="edge7" class="edge"><title>Node6&#45;&gt;Node8</title>
<path fill="none" stroke="midnightblue" d="M634.472,-116.958C642.15,-119.013 649.816,-121.355 657,-124 673.978,-130.251 676.047,-136.683 693,-143 702.996,-146.725 713.959,-149.87 724.525,-152.464"/>
<polygon fill="midnightblue" stroke="midnightblue" points="635.33,-113.565 624.777,-114.507 633.614,-120.351 635.33,-113.565"/>
</g>
<!-- Node11 -->
<g id="node11" class="node"><title>Node11</title>
<g id="a_node11"><a xlink:href="classoeng_1_1engine_1_1_mesh_component.html" target="_top" xlink:title=" ">
<polygon fill="white" stroke="black" points="700,-114.5 700,-133.5 852,-133.5 852,-114.5 700,-114.5"/>
<text text-anchor="middle" x="776" y="-121.5" font-family="Helvetica,sans-Serif" font-size="10.00">oeng::engine::MeshComponent</text>
</a>
</g>
</g>
<!-- Node6&#45;&gt;Node11 -->
<g id="edge10" class="edge"><title>Node6&#45;&gt;Node11</title>
<path fill="none" stroke="midnightblue" d="M659.042,-113.147C672.617,-114.417 686.545,-115.721 699.827,-116.964"/>
<polygon fill="midnightblue" stroke="midnightblue" points="659.028,-109.63 648.746,-112.183 658.376,-116.6 659.028,-109.63"/>
</g>
<!-- Node12 -->
<g id="node12" class="node"><title>Node12</title>
<g id="a_node12"><a xlink:href="classoeng_1_1engine_1_1_sky_light_component.html" target="_top" xlink:title=" ">
<polygon fill="white" stroke="black" points="693,-76.5 693,-95.5 859,-95.5 859,-76.5 693,-76.5"/>
<text text-anchor="middle" x="776" y="-83.5" font-family="Helvetica,sans-Serif" font-size="10.00">oeng::engine::SkyLightComponent</text>
</a>
</g>
</g>
<!-- Node6&#45;&gt;Node12 -->
<g id="edge11" class="edge"><title>Node6&#45;&gt;Node12</title>
<path fill="none" stroke="midnightblue" d="M658.951,-96.8618C670.154,-95.8131 681.599,-94.7419 692.725,-93.7006"/>
<polygon fill="midnightblue" stroke="midnightblue" points="658.376,-93.4002 648.746,-97.8169 659.028,-100.37 658.376,-93.4002"/>
</g>
<!-- Node13 -->
<g id="node13" class="node"><title>Node13</title>
<g id="a_node13"><a xlink:href="classoeng_1_1engine_1_1_sphere_component.html" target="_top" xlink:title=" ">
<polygon fill="white" stroke="black" points="697,-38.5 697,-57.5 855,-57.5 855,-38.5 697,-38.5"/>
<text text-anchor="middle" x="776" y="-45.5" font-family="Helvetica,sans-Serif" font-size="10.00">oeng::engine::SphereComponent</text>
</a>
</g>
</g>
<!-- Node6&#45;&gt;Node13 -->
<g id="edge12" class="edge"><title>Node6&#45;&gt;Node13</title>
<path fill="none" stroke="midnightblue" d="M609.86,-92.2899C633.605,-84.523 664.931,-74.6473 693,-67 705.266,-63.658 718.666,-60.3932 731.012,-57.539"/>
<polygon fill="midnightblue" stroke="midnightblue" points="608.583,-89.0253 600.179,-95.4768 610.772,-95.6743 608.583,-89.0253"/>
</g>
<!-- Node14 -->
<g id="node14" class="node"><title>Node14</title>
<g id="a_node14"><a xlink:href="classoeng_1_1engine_1_1_sprite_component.html" target="_top" xlink:title=" ">
<polygon fill="white" stroke="black" points="699.5,-0.5 699.5,-19.5 852.5,-19.5 852.5,-0.5 699.5,-0.5"/>
<text text-anchor="middle" x="776" y="-7.5" font-family="Helvetica,sans-Serif" font-size="10.00">oeng::engine::SpriteComponent</text>
</a>
</g>
</g>
<!-- Node6&#45;&gt;Node14 -->
<g id="edge13" class="edge"><title>Node6&#45;&gt;Node14</title>
<path fill="none" stroke="midnightblue" d="M592.329,-89.2327C615.478,-72.0175 655.022,-44.8005 693,-29 702.175,-25.183 712.261,-22.0532 722.127,-19.5148"/>
<polygon fill="midnightblue" stroke="midnightblue" points="590.17,-86.4775 584.298,-95.2962 594.388,-92.0642 590.17,-86.4775"/>
</g>
<!-- Node9 -->
<g id="node9" class="node"><title>Node9</title>
<g id="a_node9"><a xlink:href="classoeng_1_1engine_1_1_point_light_component.html" target="_top" xlink:title=" ">
<polygon fill="white" stroke="black" points="895,-147 895,-177 1017,-177 1017,-147 895,-147"/>
<text text-anchor="start" x="903" y="-165" font-family="Helvetica,sans-Serif" font-size="10.00">oeng::engine::PointLight</text>
<text text-anchor="middle" x="956" y="-154" font-family="Helvetica,sans-Serif" font-size="10.00">Component</text>
</a>
</g>
</g>
<!-- Node8&#45;&gt;Node9 -->
<g id="edge8" class="edge"><title>Node8&#45;&gt;Node9</title>
<path fill="none" stroke="midnightblue" d="M866.917,-162C876.413,-162 885.894,-162 894.929,-162"/>
<polygon fill="midnightblue" stroke="midnightblue" points="866.629,-158.5 856.629,-162 866.629,-165.5 866.629,-158.5"/>
</g>
<!-- Node10 -->
<g id="node10" class="node"><title>Node10</title>
<g id="a_node10"><a xlink:href="classoeng_1_1engine_1_1_spot_light_component.html" target="_top" xlink:title=" ">
<polygon fill="white" stroke="black" points="1053,-152.5 1053,-171.5 1222,-171.5 1222,-152.5 1053,-152.5"/>
<text text-anchor="middle" x="1137.5" y="-159.5" font-family="Helvetica,sans-Serif" font-size="10.00">oeng::engine::SpotLightComponent</text>
</a>
</g>
</g>
<!-- Node9&#45;&gt;Node10 -->
<g id="edge9" class="edge"><title>Node9&#45;&gt;Node10</title>
<path fill="none" stroke="midnightblue" d="M1027.32,-162C1035.67,-162 1044.26,-162 1052.78,-162"/>
<polygon fill="midnightblue" stroke="midnightblue" points="1027.27,-158.5 1017.27,-162 1027.27,-165.5 1027.27,-158.5"/>
</g>
</g>
</svg>
