<?xml version="1.0" encoding="UTF-8" standalone="no"?>
<!DOCTYPE svg PUBLIC "-//W3C//DTD SVG 1.1//EN"
 "http://www.w3.org/Graphics/SVG/1.1/DTD/svg11.dtd">
<!-- Generated by graphviz version 2.38.0 (20140413.2041)
 -->
<!-- Title: oeng::engine::IMaterial Pages: 1 -->
<svg width="288pt" height="207pt"
 viewBox="0.00 0.00 288.00 207.00" xmlns="http://www.w3.org/2000/svg" xmlns:xlink="http://www.w3.org/1999/xlink">
<g id="graph0" class="graph" transform="scale(1 1) rotate(0) translate(4 203)">
<title>oeng::engine::IMaterial</title>
<polygon fill="white" stroke="none" points="-4,4 -4,-203 284,-203 284,4 -4,4"/>
<!-- Node1 -->
<g id="node1" class="node"><title>Node1</title>
<g id="a_node1"><a xlink:title=" ">
<polygon fill="#bfbfbf" stroke="black" points="73,-56.5 73,-75.5 188,-75.5 188,-56.5 73,-56.5"/>
<text text-anchor="middle" x="130.5" y="-63.5" font-family="Helvetica,sans-Serif" font-size="10.00">oeng::engine::IMaterial</text>
</a>
</g>
</g>
<!-- Node4 -->
<g id="node4" class="node"><title>Node4</title>
<g id="a_node4"><a xlink:href="classoeng_1_1engine_1_1_material.html" target="_top" xlink:title=" ">
<polygon fill="white" stroke="black" points="0,-0.5 0,-19.5 113,-19.5 113,-0.5 0,-0.5"/>
<text text-anchor="middle" x="56.5" y="-7.5" font-family="Helvetica,sans-Serif" font-size="10.00">oeng::engine::Material</text>
</a>
</g>
</g>
<!-- Node1&#45;&gt;Node4 -->
<g id="edge3" class="edge"><title>Node1&#45;&gt;Node4</title>
<path fill="none" stroke="midnightblue" d="M110.466,-50.3804C97.0909,-40.6204 79.9412,-28.1057 68.6057,-19.8339"/>
<polygon fill="midnightblue" stroke="midnightblue" points="108.47,-53.2565 118.611,-56.324 112.596,-47.602 108.47,-53.2565"/>
</g>
<!-- Node5 -->
<g id="node5" class="node"><title>Node5</title>
<g id="a_node5"><a xlink:href="classoeng_1_1engine_1_1_material_instance.html" target="_top" xlink:title=" ">
<polygon fill="white" stroke="black" points="131,-0.5 131,-19.5 280,-19.5 280,-0.5 131,-0.5"/>
<text text-anchor="middle" x="205.5" y="-7.5" font-family="Helvetica,sans-Serif" font-size="10.00">oeng::engine::MaterialInstance</text>
</a>
</g>
</g>
<!-- Node1&#45;&gt;Node5 -->
<g id="edge4" class="edge"><title>Node1&#45;&gt;Node5</title>
<path fill="none" stroke="midnightblue" d="M150.805,-50.3804C164.361,-40.6204 181.742,-28.1057 193.231,-19.8339"/>
<polygon fill="midnightblue" stroke="midnightblue" points="148.62,-47.6405 142.55,-56.324 152.71,-53.3213 148.62,-47.6405"/>
</g>
<!-- Node2 -->
<g id="node2" class="node"><title>Node2</title>
<g id="a_node2"><a xlink:href="classoeng_1_1core_1_1_object.html" target="_top" xlink:title=" ">
<polygon fill="white" stroke="black" points="82,-112.5 82,-131.5 179,-131.5 179,-112.5 82,-112.5"/>
<text text-anchor="middle" x="130.5" y="-119.5" font-family="Helvetica,sans-Serif" font-size="10.00">oeng::core::Object</text>
</a>
</g>
</g>
<!-- Node2&#45;&gt;Node1 -->
<g id="edge1" class="edge"><title>Node2&#45;&gt;Node1</title>
<path fill="none" stroke="midnightblue" d="M130.5,-101.805C130.5,-92.9102 130.5,-82.7798 130.5,-75.7511"/>
<polygon fill="midnightblue" stroke="midnightblue" points="127,-102.083 130.5,-112.083 134,-102.083 127,-102.083"/>
</g>
<!-- Node3 -->
<g id="node3" class="node"><title>Node3</title>
<g id="a_node3"><a xlink:href="classoeng_1_1core_1_1_enable_shared_from_this.html" target="_top" xlink:title=" ">
<polygon fill="white" stroke="black" points="66,-168.5 66,-198.5 195,-198.5 195,-168.5 66,-168.5"/>
<text text-anchor="start" x="74" y="-186.5" font-family="Helvetica,sans-Serif" font-size="10.00">oeng::core::EnableShared</text>
<text text-anchor="middle" x="130.5" y="-175.5" font-family="Helvetica,sans-Serif" font-size="10.00">FromThis&lt; Object &gt;</text>
</a>
</g>
</g>
<!-- Node3&#45;&gt;Node2 -->
<g id="edge2" class="edge"><title>Node3&#45;&gt;Node2</title>
<path fill="none" stroke="midnightblue" d="M130.5,-158.289C130.5,-148.857 130.5,-138.655 130.5,-131.658"/>
<polygon fill="midnightblue" stroke="midnightblue" points="127,-158.399 130.5,-168.399 134,-158.399 127,-158.399"/>
</g>
</g>
</svg>
