<?xml version="1.0" encoding="UTF-8" standalone="no"?>
<!DOCTYPE svg PUBLIC "-//W3C//DTD SVG 1.1//EN"
 "http://www.w3.org/Graphics/SVG/1.1/DTD/svg11.dtd">
<!-- Generated by graphviz version 2.38.0 (20140413.2041)
 -->
<!-- Title: oeng::core::RegisterEngineBase Pages: 1 -->
<svg width="165pt" height="140pt"
 viewBox="0.00 0.00 165.00 140.00" xmlns="http://www.w3.org/2000/svg" xmlns:xlink="http://www.w3.org/1999/xlink">
<g id="graph0" class="graph" transform="scale(1 1) rotate(0) translate(4 136)">
<title>oeng::core::RegisterEngineBase</title>
<polygon fill="white" stroke="none" points="-4,4 -4,-136 161,-136 161,4 -4,4"/>
<!-- Node1 -->
<g id="node1" class="node"><title>Node1</title>
<g id="a_node1"><a xlink:title=" ">
<polygon fill="#bfbfbf" stroke="black" points="0,-112.5 0,-131.5 157,-131.5 157,-112.5 0,-112.5"/>
<text text-anchor="middle" x="78.5" y="-119.5" font-family="Helvetica,sans-Serif" font-size="10.00">oeng::core::RegisterEngineBase</text>
</a>
</g>
</g>
<!-- Node2 -->
<g id="node2" class="node"><title>Node2</title>
<g id="a_node2"><a xlink:href="classoeng_1_1core_1_1_engine_base.html" target="_top" xlink:title=" ">
<polygon fill="white" stroke="black" points="18,-56.5 18,-75.5 139,-75.5 139,-56.5 18,-56.5"/>
<text text-anchor="middle" x="78.5" y="-63.5" font-family="Helvetica,sans-Serif" font-size="10.00">oeng::core::EngineBase</text>
</a>
</g>
</g>
<!-- Node1&#45;&gt;Node2 -->
<g id="edge1" class="edge"><title>Node1&#45;&gt;Node2</title>
<path fill="none" stroke="#8b1a1a" d="M78.5,-101.805C78.5,-92.9102 78.5,-82.7798 78.5,-75.7511"/>
<polygon fill="#8b1a1a" stroke="#8b1a1a" points="75.0001,-102.083 78.5,-112.083 82.0001,-102.083 75.0001,-102.083"/>
</g>
<!-- Node3 -->
<g id="node3" class="node"><title>Node3</title>
<g id="a_node3"><a xlink:href="classoeng_1_1engine_1_1_engine.html" target="_top" xlink:title=" ">
<polygon fill="white" stroke="black" points="24.5,-0.5 24.5,-19.5 132.5,-19.5 132.5,-0.5 24.5,-0.5"/>
<text text-anchor="middle" x="78.5" y="-7.5" font-family="Helvetica,sans-Serif" font-size="10.00">oeng::engine::Engine</text>
</a>
</g>
</g>
<!-- Node2&#45;&gt;Node3 -->
<g id="edge2" class="edge"><title>Node2&#45;&gt;Node3</title>
<path fill="none" stroke="midnightblue" d="M78.5,-45.8045C78.5,-36.9102 78.5,-26.7798 78.5,-19.7511"/>
<polygon fill="midnightblue" stroke="midnightblue" points="75.0001,-46.083 78.5,-56.083 82.0001,-46.083 75.0001,-46.083"/>
</g>
</g>
</svg>
