<?xml version="1.0" encoding="UTF-8" standalone="no"?>
<!DOCTYPE svg PUBLIC "-//W3C//DTD SVG 1.1//EN"
 "http://www.w3.org/Graphics/SVG/1.1/DTD/svg11.dtd">
<!-- Generated by graphviz version 2.38.0 (20140413.2041)
 -->
<!-- Title: Source/Engine/Public/AI Pages: 1 -->
<svg width="119pt" height="223pt"
 viewBox="0.00 0.00 118.50 223.00" xmlns="http://www.w3.org/2000/svg" xmlns:xlink="http://www.w3.org/1999/xlink">
<g id="graph0" class="graph" transform="scale(1 1) rotate(0) translate(4 219)">
<title>Source/Engine/Public/AI</title>
<polygon fill="white" stroke="none" points="-4,4 -4,-219 114.5,-219 114.5,4 -4,4"/>
<g id="clust1" class="cluster"><title>clusterdir_3de029f943ea1b298b2a6155cdd0fce4</title>
<g id="a_clust1"><a xlink:href="dir_3de029f943ea1b298b2a6155cdd0fce4.html" target="_top" xlink:title="Public">
<polygon fill="#ddddee" stroke="black" points="8,-136 8,-207 78,-207 78,-136 8,-136"/>
<text text-anchor="middle" x="43" y="-195" font-family="Helvetica,sans-Serif" font-size="10.00">Public</text>
</a>
</g>
</g>
<!-- dir_e238f2a8f92a34fa26a84c35aac511b0 -->
<g id="node1" class="node"><title>dir_e238f2a8f92a34fa26a84c35aac511b0</title>
<g id="a_node1"><a xlink:href="dir_e238f2a8f92a34fa26a84c35aac511b0.html" target="_top" xlink:title="AI">
<polygon fill="#eeeeff" stroke="black" points="70,-180 16,-180 16,-144 70,-144 70,-180"/>
<text text-anchor="middle" x="43" y="-159.5" font-family="Helvetica,sans-Serif" font-size="10.00">AI</text>
</a>
</g>
</g>
<!-- dir_1ad6433457b0067ef8f54a4fa85f5c9a -->
<g id="node2" class="node"><title>dir_1ad6433457b0067ef8f54a4fa85f5c9a</title>
<g id="a_node2"><a xlink:href="dir_1ad6433457b0067ef8f54a4fa85f5c9a.html" target="_top" xlink:title="Core">
<polygon fill="white" stroke="red" points="70,-36 16,-36 16,-0 70,-0 70,-36"/>
<text text-anchor="middle" x="43" y="-15.5" font-family="Helvetica,sans-Serif" font-size="10.00">Core</text>
</a>
</g>
</g>
<!-- dir_e238f2a8f92a34fa26a84c35aac511b0&#45;&gt;dir_1ad6433457b0067ef8f54a4fa85f5c9a -->
<g id="edge1" class="edge"><title>dir_e238f2a8f92a34fa26a84c35aac511b0&#45;&gt;dir_1ad6433457b0067ef8f54a4fa85f5c9a</title>
<path fill="none" stroke="black" d="M37.5912,-143.529C34.705,-133.289 31.455,-120.039 30,-108 28.0804,-92.1156 28.0804,-87.8844 30,-72 31.023,-63.5349 32.9335,-54.4712 34.9809,-46.2761"/>
<polygon fill="black" stroke="black" points="38.4009,-47.0344 37.5912,-36.4705 31.6365,-45.2336 38.4009,-47.0344"/>
<g id="a_edge1&#45;headlabel"><a xlink:href="dir_000007_000001.html" target="_top" xlink:title="3">
<text text-anchor="middle" x="40.22" y="-48.7384" font-family="Helvetica,sans-Serif" font-size="10.00">3</text>
</a>
</g>
</g>
<!-- dir_47f61e9d19e7fe76e4335dbf861c17ec -->
<g id="node3" class="node"><title>dir_47f61e9d19e7fe76e4335dbf861c17ec</title>
<g id="a_node3"><a xlink:href="dir_47f61e9d19e7fe76e4335dbf861c17ec.html" target="_top" xlink:title="Components">
<polygon fill="none" stroke="black" points="110.5,-108 39.5,-108 39.5,-72 110.5,-72 110.5,-108"/>
<text text-anchor="middle" x="75" y="-87.5" font-family="Helvetica,sans-Serif" font-size="10.00">Components</text>
</a>
</g>
</g>
<!-- dir_e238f2a8f92a34fa26a84c35aac511b0&#45;&gt;dir_47f61e9d19e7fe76e4335dbf861c17ec -->
<g id="edge2" class="edge"><title>dir_e238f2a8f92a34fa26a84c35aac511b0&#45;&gt;dir_47f61e9d19e7fe76e4335dbf861c17ec</title>
<path fill="none" stroke="black" d="M50.9101,-143.697C54.5527,-135.728 58.9545,-126.1 62.9935,-117.264"/>
<polygon fill="black" stroke="black" points="66.2064,-118.654 67.1809,-108.104 59.8401,-115.744 66.2064,-118.654"/>
<g id="a_edge2&#45;headlabel"><a xlink:href="dir_000007_000009.html" target="_top" xlink:title="1">
<text text-anchor="middle" x="67.2942" y="-120.604" font-family="Helvetica,sans-Serif" font-size="10.00">1</text>
</a>
</g>
</g>
<!-- dir_47f61e9d19e7fe76e4335dbf861c17ec&#45;&gt;dir_1ad6433457b0067ef8f54a4fa85f5c9a -->
<g id="edge3" class="edge"><title>dir_47f61e9d19e7fe76e4335dbf861c17ec&#45;&gt;dir_1ad6433457b0067ef8f54a4fa85f5c9a</title>
<path fill="none" stroke="black" d="M67.0899,-71.6966C63.4473,-63.7284 59.0455,-54.0995 55.0065,-45.2641"/>
<polygon fill="black" stroke="black" points="58.1599,-43.7439 50.8191,-36.1043 51.7936,-46.6543 58.1599,-43.7439"/>
<g id="a_edge3&#45;headlabel"><a xlink:href="dir_000009_000001.html" target="_top" xlink:title="9">
<text text-anchor="middle" x="62.2366" y="-43.3327" font-family="Helvetica,sans-Serif" font-size="10.00">9</text>
</a>
</g>
</g>
</g>
</svg>
