<?xml version="1.0" encoding="UTF-8" standalone="no"?>
<!DOCTYPE svg PUBLIC "-//W3C//DTD SVG 1.1//EN"
 "http://www.w3.org/Graphics/SVG/1.1/DTD/svg11.dtd">
<!-- Generated by graphviz version 2.38.0 (20140413.2041)
 -->
<!-- Title: Source/Runtime Pages: 1 -->
<svg width="182pt" height="303pt"
 viewBox="0.00 0.00 182.00 303.00" xmlns="http://www.w3.org/2000/svg" xmlns:xlink="http://www.w3.org/1999/xlink">
<g id="graph0" class="graph" transform="scale(1 1) rotate(0) translate(4 299)">
<title>Source/Runtime</title>
<polygon fill="white" stroke="none" points="-4,4 -4,-299 178,-299 178,4 -4,4"/>
<g id="clust1" class="cluster"><title>clusterdir_74389ed8173ad57b461b9d623a1f3867</title>
<g id="a_clust1"><a xlink:href="dir_74389ed8173ad57b461b9d623a1f3867.html" target="_top" xlink:title="Source">
<polygon fill="#ddddee" stroke="black" points="8,-56 8,-287 166,-287 166,-56 8,-56"/>
<text text-anchor="middle" x="87" y="-275" font-family="Helvetica,sans-Serif" font-size="10.00">Source</text>
</a>
</g>
</g>
<g id="clust2" class="cluster"><title>clusterdir_7536b172fbd480bfd146a1b1acd6856b</title>
<g id="a_clust2"><a xlink:href="dir_7536b172fbd480bfd146a1b1acd6856b.html" target="_top">
<polygon fill="#eeeeff" stroke="black" points="16,-64 16,-260 158,-260 158,-64 16,-64"/>
</a>
</g>
</g>
<!-- dir_7536b172fbd480bfd146a1b1acd6856b -->
<g id="node1" class="node"><title>dir_7536b172fbd480bfd146a1b1acd6856b</title>
<text text-anchor="middle" x="123" y="-231.5" font-family="Helvetica,sans-Serif" font-size="10.00">Runtime</text>
</g>
<!-- dir_0e6cddcc9caa1238c7f3774224afaa45 -->
<g id="node2" class="node"><title>dir_0e6cddcc9caa1238c7f3774224afaa45</title>
<g id="a_node2"><a xlink:href="dir_0e6cddcc9caa1238c7f3774224afaa45.html" target="_top" xlink:title="Core">
<polygon fill="white" stroke="red" points="95,-108 41,-108 41,-72 95,-72 95,-108"/>
<text text-anchor="middle" x="68" y="-87.5" font-family="Helvetica,sans-Serif" font-size="10.00">Core</text>
</a>
</g>
</g>
<!-- dir_fd2244d5b8a70de183e6299f6cb7004e -->
<g id="node5" class="node"><title>dir_fd2244d5b8a70de183e6299f6cb7004e</title>
<g id="a_node5"><a xlink:href="dir_fd2244d5b8a70de183e6299f6cb7004e.html" target="_top" xlink:title="ThirdParty">
<polygon fill="white" stroke="red" points="98.5,-36 37.5,-36 37.5,-0 98.5,-0 98.5,-36"/>
<text text-anchor="middle" x="68" y="-15.5" font-family="Helvetica,sans-Serif" font-size="10.00">ThirdParty</text>
</a>
</g>
</g>
<!-- dir_0e6cddcc9caa1238c7f3774224afaa45&#45;&gt;dir_fd2244d5b8a70de183e6299f6cb7004e -->
<g id="edge1" class="edge"><title>dir_0e6cddcc9caa1238c7f3774224afaa45&#45;&gt;dir_fd2244d5b8a70de183e6299f6cb7004e</title>
<path fill="none" stroke="black" d="M68,-71.6966C68,-63.9827 68,-54.7125 68,-46.1124"/>
<polygon fill="black" stroke="black" points="71.5001,-46.1043 68,-36.1043 64.5001,-46.1044 71.5001,-46.1043"/>
<g id="a_edge1&#45;headlabel"><a xlink:href="dir_000002_000015.html" target="_top" xlink:title="5">
<text text-anchor="middle" x="74.3393" y="-47.199" font-family="Helvetica,sans-Serif" font-size="10.00">5</text>
</a>
</g>
</g>
<!-- dir_fdf6aa5c3cf3805bb958134448d60562 -->
<g id="node3" class="node"><title>dir_fdf6aa5c3cf3805bb958134448d60562</title>
<g id="a_node3"><a xlink:href="dir_fdf6aa5c3cf3805bb958134448d60562.html" target="_top" xlink:title="Engine">
<polygon fill="white" stroke="red" points="78,-252 24,-252 24,-216 78,-216 78,-252"/>
<text text-anchor="middle" x="51" y="-231.5" font-family="Helvetica,sans-Serif" font-size="10.00">Engine</text>
</a>
</g>
</g>
<!-- dir_fdf6aa5c3cf3805bb958134448d60562&#45;&gt;dir_0e6cddcc9caa1238c7f3774224afaa45 -->
<g id="edge3" class="edge"><title>dir_fdf6aa5c3cf3805bb958134448d60562&#45;&gt;dir_0e6cddcc9caa1238c7f3774224afaa45</title>
<path fill="none" stroke="black" d="M48.2658,-215.779C45.9009,-197.734 43.5058,-168.639 48,-144 49.6059,-135.196 52.5973,-125.954 55.7862,-117.698"/>
<polygon fill="black" stroke="black" points="59.1211,-118.791 59.6942,-108.212 52.6488,-116.125 59.1211,-118.791"/>
<g id="a_edge3&#45;headlabel"><a xlink:href="dir_000005_000002.html" target="_top" xlink:title="31">
<text text-anchor="middle" x="60.3771" y="-120.696" font-family="Helvetica,sans-Serif" font-size="10.00">31</text>
</a>
</g>
</g>
<!-- dir_e95efa631723cde707baa0220c731e18 -->
<g id="node4" class="node"><title>dir_e95efa631723cde707baa0220c731e18</title>
<g id="a_node4"><a xlink:href="dir_e95efa631723cde707baa0220c731e18.html" target="_top" xlink:title="Renderer">
<polygon fill="white" stroke="red" points="113,-180 57,-180 57,-144 113,-144 113,-180"/>
<text text-anchor="middle" x="85" y="-159.5" font-family="Helvetica,sans-Serif" font-size="10.00">Renderer</text>
</a>
</g>
</g>
<!-- dir_fdf6aa5c3cf3805bb958134448d60562&#45;&gt;dir_e95efa631723cde707baa0220c731e18 -->
<g id="edge4" class="edge"><title>dir_fdf6aa5c3cf3805bb958134448d60562&#45;&gt;dir_e95efa631723cde707baa0220c731e18</title>
<path fill="none" stroke="black" d="M59.4045,-215.697C63.2748,-207.728 67.9517,-198.1 72.2431,-189.264"/>
<polygon fill="black" stroke="black" points="75.4714,-190.629 76.6922,-180.104 69.1748,-187.57 75.4714,-190.629"/>
<g id="a_edge4&#45;headlabel"><a xlink:href="dir_000005_000011.html" target="_top" xlink:title="10">
<text text-anchor="middle" x="76.4549" y="-192.602" font-family="Helvetica,sans-Serif" font-size="10.00">10</text>
</a>
</g>
</g>
<!-- dir_e95efa631723cde707baa0220c731e18&#45;&gt;dir_0e6cddcc9caa1238c7f3774224afaa45 -->
<g id="edge2" class="edge"><title>dir_e95efa631723cde707baa0220c731e18&#45;&gt;dir_0e6cddcc9caa1238c7f3774224afaa45</title>
<path fill="none" stroke="black" d="M80.7978,-143.697C78.9038,-135.898 76.6235,-126.509 74.5157,-117.829"/>
<polygon fill="black" stroke="black" points="77.9151,-116.996 72.1539,-108.104 71.1128,-118.648 77.9151,-116.996"/>
<g id="a_edge2&#45;headlabel"><a xlink:href="dir_000011_000002.html" target="_top" xlink:title="22">
<text text-anchor="middle" x="81.5224" y="-117.319" font-family="Helvetica,sans-Serif" font-size="10.00">22</text>
</a>
</g>
</g>
</g>
</svg>
