<?xml version="1.0" encoding="UTF-8" standalone="no"?>
<!DOCTYPE svg PUBLIC "-//W3C//DTD SVG 1.1//EN"
 "http://www.w3.org/Graphics/SVG/1.1/DTD/svg11.dtd">
<!-- Generated by graphviz version 2.38.0 (20140413.2041)
 -->
<!-- Title: Source Pages: 1 -->
<svg width="166pt" height="220pt"
 viewBox="0.00 0.00 166.00 220.00" xmlns="http://www.w3.org/2000/svg" xmlns:xlink="http://www.w3.org/1999/xlink">
<g id="graph0" class="graph" transform="scale(1 1) rotate(0) translate(4 216)">
<title>Source</title>
<polygon fill="white" stroke="none" points="-4,4 -4,-216 162,-216 162,4 -4,4"/>
<g id="clust1" class="cluster"><title>clusterdir_74389ed8173ad57b461b9d623a1f3867</title>
<g id="a_clust1"><a xlink:href="dir_74389ed8173ad57b461b9d623a1f3867.html" target="_top">
<polygon fill="#eeeeff" stroke="black" points="8,-8 8,-204 150,-204 150,-8 8,-8"/>
</a>
</g>
</g>
<!-- dir_74389ed8173ad57b461b9d623a1f3867 -->
<g id="node1" class="node"><title>dir_74389ed8173ad57b461b9d623a1f3867</title>
<text text-anchor="middle" x="115" y="-175.5" font-family="Helvetica,sans-Serif" font-size="10.00">Source</text>
</g>
<!-- dir_1ad6433457b0067ef8f54a4fa85f5c9a -->
<g id="node2" class="node"><title>dir_1ad6433457b0067ef8f54a4fa85f5c9a</title>
<g id="a_node2"><a xlink:href="dir_1ad6433457b0067ef8f54a4fa85f5c9a.html" target="_top" xlink:title="Core">
<polygon fill="white" stroke="red" points="87,-52 33,-52 33,-16 87,-16 87,-52"/>
<text text-anchor="middle" x="60" y="-31.5" font-family="Helvetica,sans-Serif" font-size="10.00">Core</text>
</a>
</g>
</g>
<!-- dir_5405398c23c020946029b9f4e6e04094 -->
<g id="node3" class="node"><title>dir_5405398c23c020946029b9f4e6e04094</title>
<g id="a_node3"><a xlink:href="dir_5405398c23c020946029b9f4e6e04094.html" target="_top" xlink:title="Engine">
<polygon fill="white" stroke="red" points="70,-196 16,-196 16,-160 70,-160 70,-196"/>
<text text-anchor="middle" x="43" y="-175.5" font-family="Helvetica,sans-Serif" font-size="10.00">Engine</text>
</a>
</g>
</g>
<!-- dir_5405398c23c020946029b9f4e6e04094&#45;&gt;dir_1ad6433457b0067ef8f54a4fa85f5c9a -->
<g id="edge2" class="edge"><title>dir_5405398c23c020946029b9f4e6e04094&#45;&gt;dir_1ad6433457b0067ef8f54a4fa85f5c9a</title>
<path fill="none" stroke="black" d="M40.2658,-159.779C37.9009,-141.734 35.5058,-112.639 40,-88 41.6059,-79.1957 44.5973,-69.9537 47.7862,-61.6977"/>
<polygon fill="black" stroke="black" points="51.1211,-62.7912 51.6942,-52.2119 44.6488,-60.1248 51.1211,-62.7912"/>
<g id="a_edge2&#45;headlabel"><a xlink:href="dir_000004_000001.html" target="_top" xlink:title="31">
<text text-anchor="middle" x="52.3771" y="-64.6964" font-family="Helvetica,sans-Serif" font-size="10.00">31</text>
</a>
</g>
</g>
<!-- dir_4efb1cddb47a1770ad011373796c1afc -->
<g id="node4" class="node"><title>dir_4efb1cddb47a1770ad011373796c1afc</title>
<g id="a_node4"><a xlink:href="dir_4efb1cddb47a1770ad011373796c1afc.html" target="_top" xlink:title="Renderer">
<polygon fill="white" stroke="red" points="105,-124 49,-124 49,-88 105,-88 105,-124"/>
<text text-anchor="middle" x="77" y="-103.5" font-family="Helvetica,sans-Serif" font-size="10.00">Renderer</text>
</a>
</g>
</g>
<!-- dir_5405398c23c020946029b9f4e6e04094&#45;&gt;dir_4efb1cddb47a1770ad011373796c1afc -->
<g id="edge3" class="edge"><title>dir_5405398c23c020946029b9f4e6e04094&#45;&gt;dir_4efb1cddb47a1770ad011373796c1afc</title>
<path fill="none" stroke="black" d="M51.4045,-159.697C55.2748,-151.728 59.9517,-142.1 64.2431,-133.264"/>
<polygon fill="black" stroke="black" points="67.4714,-134.629 68.6922,-124.104 61.1748,-131.57 67.4714,-134.629"/>
<g id="a_edge3&#45;headlabel"><a xlink:href="dir_000004_000010.html" target="_top" xlink:title="10">
<text text-anchor="middle" x="68.4549" y="-136.602" font-family="Helvetica,sans-Serif" font-size="10.00">10</text>
</a>
</g>
</g>
<!-- dir_4efb1cddb47a1770ad011373796c1afc&#45;&gt;dir_1ad6433457b0067ef8f54a4fa85f5c9a -->
<g id="edge1" class="edge"><title>dir_4efb1cddb47a1770ad011373796c1afc&#45;&gt;dir_1ad6433457b0067ef8f54a4fa85f5c9a</title>
<path fill="none" stroke="black" d="M72.7978,-87.6966C70.9038,-79.8979 68.6235,-70.5085 66.5157,-61.8292"/>
<polygon fill="black" stroke="black" points="69.9151,-60.9959 64.1539,-52.1043 63.1128,-62.6479 69.9151,-60.9959"/>
<g id="a_edge1&#45;headlabel"><a xlink:href="dir_000010_000001.html" target="_top" xlink:title="22">
<text text-anchor="middle" x="73.5224" y="-61.3189" font-family="Helvetica,sans-Serif" font-size="10.00">22</text>
</a>
</g>
</g>
</g>
</svg>
