<?xml version="1.0" encoding="UTF-8" standalone="no"?>
<!DOCTYPE svg PUBLIC "-//W3C//DTD SVG 1.1//EN"
 "http://www.w3.org/Graphics/SVG/1.1/DTD/svg11.dtd">
<!-- Generated by graphviz version 2.38.0 (20140413.2041)
 -->
<!-- Title: Source/Runtime/Engine Pages: 1 -->
<svg width="182pt" height="231pt"
 viewBox="0.00 0.00 182.00 231.00" xmlns="http://www.w3.org/2000/svg" xmlns:xlink="http://www.w3.org/1999/xlink">
<g id="graph0" class="graph" transform="scale(1 1) rotate(0) translate(4 227)">
<title>Source/Runtime/Engine</title>
<polygon fill="white" stroke="none" points="-4,4 -4,-227 178,-227 178,4 -4,4"/>
<g id="clust1" class="cluster"><title>clusterdir_7536b172fbd480bfd146a1b1acd6856b</title>
<g id="a_clust1"><a xlink:href="dir_7536b172fbd480bfd146a1b1acd6856b.html" target="_top" xlink:title="Runtime">
<polygon fill="#ddddee" stroke="black" points="8,-128 8,-215 166,-215 166,-128 8,-128"/>
<text text-anchor="middle" x="87" y="-203" font-family="Helvetica,sans-Serif" font-size="10.00">Runtime</text>
</a>
</g>
</g>
<g id="clust2" class="cluster"><title>clusterdir_fdf6aa5c3cf3805bb958134448d60562</title>
<g id="a_clust2"><a xlink:href="dir_fdf6aa5c3cf3805bb958134448d60562.html" target="_top">
<polygon fill="#eeeeff" stroke="black" points="16,-136 16,-188 158,-188 158,-136 16,-136"/>
</a>
</g>
</g>
<!-- dir_fdf6aa5c3cf3805bb958134448d60562 -->
<g id="node1" class="node"><title>dir_fdf6aa5c3cf3805bb958134448d60562</title>
<text text-anchor="middle" x="123" y="-159.5" font-family="Helvetica,sans-Serif" font-size="10.00">Engine</text>
</g>
<!-- dir_1d06a51bfc871a6a1823440d0d72725c -->
<g id="node2" class="node"><title>dir_1d06a51bfc871a6a1823440d0d72725c</title>
<g id="a_node2"><a xlink:href="dir_1d06a51bfc871a6a1823440d0d72725c.html" target="_top" xlink:title="Public">
<polygon fill="white" stroke="red" points="78,-180 24,-180 24,-144 78,-144 78,-180"/>
<text text-anchor="middle" x="51" y="-159.5" font-family="Helvetica,sans-Serif" font-size="10.00">Public</text>
</a>
</g>
</g>
<!-- dir_0e6cddcc9caa1238c7f3774224afaa45 -->
<g id="node3" class="node"><title>dir_0e6cddcc9caa1238c7f3774224afaa45</title>
<g id="a_node3"><a xlink:href="dir_0e6cddcc9caa1238c7f3774224afaa45.html" target="_top" xlink:title="Core">
<polygon fill="white" stroke="red" points="78,-36 24,-36 24,-0 78,-0 78,-36"/>
<text text-anchor="middle" x="51" y="-15.5" font-family="Helvetica,sans-Serif" font-size="10.00">Core</text>
</a>
</g>
</g>
<!-- dir_1d06a51bfc871a6a1823440d0d72725c&#45;&gt;dir_0e6cddcc9caa1238c7f3774224afaa45 -->
<g id="edge2" class="edge"><title>dir_1d06a51bfc871a6a1823440d0d72725c&#45;&gt;dir_0e6cddcc9caa1238c7f3774224afaa45</title>
<path fill="none" stroke="black" d="M47.3462,-143.908C45.3242,-133.569 43.0192,-120.09 42,-108 40.6559,-92.0566 40.6559,-87.9434 42,-72 42.7166,-63.4991 44.0689,-54.3119 45.5116,-46.0122"/>
<polygon fill="black" stroke="black" points="48.9691,-46.5623 47.3462,-36.0925 42.0858,-45.2892 48.9691,-46.5623"/>
<g id="a_edge2&#45;headlabel"><a xlink:href="dir_000006_000002.html" target="_top" xlink:title="18">
<text text-anchor="middle" x="51.1074" y="-48.1133" font-family="Helvetica,sans-Serif" font-size="10.00">18</text>
</a>
</g>
</g>
<!-- dir_e95efa631723cde707baa0220c731e18 -->
<g id="node4" class="node"><title>dir_e95efa631723cde707baa0220c731e18</title>
<g id="a_node4"><a xlink:href="dir_e95efa631723cde707baa0220c731e18.html" target="_top" xlink:title="Renderer">
<polygon fill="white" stroke="red" points="107,-108 51,-108 51,-72 107,-72 107,-108"/>
<text text-anchor="middle" x="79" y="-87.5" font-family="Helvetica,sans-Serif" font-size="10.00">Renderer</text>
</a>
</g>
</g>
<!-- dir_1d06a51bfc871a6a1823440d0d72725c&#45;&gt;dir_e95efa631723cde707baa0220c731e18 -->
<g id="edge3" class="edge"><title>dir_1d06a51bfc871a6a1823440d0d72725c&#45;&gt;dir_e95efa631723cde707baa0220c731e18</title>
<path fill="none" stroke="black" d="M57.9214,-143.697C61.0747,-135.813 64.8783,-126.304 68.3814,-117.546"/>
<polygon fill="black" stroke="black" points="71.694,-118.689 72.1583,-108.104 65.1946,-116.089 71.694,-118.689"/>
<g id="a_edge3&#45;headlabel"><a xlink:href="dir_000006_000012.html" target="_top" xlink:title="8">
<text text-anchor="middle" x="72.9952" y="-120.581" font-family="Helvetica,sans-Serif" font-size="10.00">8</text>
</a>
</g>
</g>
<!-- dir_e95efa631723cde707baa0220c731e18&#45;&gt;dir_0e6cddcc9caa1238c7f3774224afaa45 -->
<g id="edge1" class="edge"><title>dir_e95efa631723cde707baa0220c731e18&#45;&gt;dir_0e6cddcc9caa1238c7f3774224afaa45</title>
<path fill="none" stroke="black" d="M72.0786,-71.6966C68.9253,-63.8132 65.1217,-54.3042 61.6186,-45.5464"/>
<polygon fill="black" stroke="black" points="64.8054,-44.0892 57.8417,-36.1043 58.306,-46.689 64.8054,-44.0892"/>
<g id="a_edge1&#45;headlabel"><a xlink:href="dir_000012_000002.html" target="_top" xlink:title="9">
<text text-anchor="middle" x="68.7765" y="-43.8723" font-family="Helvetica,sans-Serif" font-size="10.00">9</text>
</a>
</g>
</g>
</g>
</svg>
