<?xml version="1.0" encoding="UTF-8" standalone="no"?>
<!DOCTYPE svg PUBLIC "-//W3C//DTD SVG 1.1//EN"
 "http://www.w3.org/Graphics/SVG/1.1/DTD/svg11.dtd">
<!-- Generated by graphviz version 2.38.0 (20140413.2041)
 -->
<!-- Title: Source/Runtime/Engine/Public Pages: 1 -->
<svg width="326pt" height="303pt"
 viewBox="0.00 0.00 326.00 303.00" xmlns="http://www.w3.org/2000/svg" xmlns:xlink="http://www.w3.org/1999/xlink">
<g id="graph0" class="graph" transform="scale(1 1) rotate(0) translate(4 299)">
<title>Source/Runtime/Engine/Public</title>
<polygon fill="white" stroke="none" points="-4,4 -4,-299 322,-299 322,4 -4,4"/>
<g id="clust1" class="cluster"><title>clusterdir_fdf6aa5c3cf3805bb958134448d60562</title>
<g id="a_clust1"><a xlink:href="dir_fdf6aa5c3cf3805bb958134448d60562.html" target="_top" xlink:title="Engine">
<polygon fill="#ddddee" stroke="black" points="8,-128 8,-287 310,-287 310,-128 8,-128"/>
<text text-anchor="middle" x="159" y="-275" font-family="Helvetica,sans-Serif" font-size="10.00">Engine</text>
</a>
</g>
</g>
<g id="clust2" class="cluster"><title>clusterdir_1d06a51bfc871a6a1823440d0d72725c</title>
<g id="a_clust2"><a xlink:href="dir_1d06a51bfc871a6a1823440d0d72725c.html" target="_top">
<polygon fill="#eeeeff" stroke="black" points="16,-136 16,-260 302,-260 302,-136 16,-136"/>
</a>
</g>
</g>
<!-- dir_1d06a51bfc871a6a1823440d0d72725c -->
<g id="node1" class="node"><title>dir_1d06a51bfc871a6a1823440d0d72725c</title>
<text text-anchor="middle" x="267" y="-231.5" font-family="Helvetica,sans-Serif" font-size="10.00">Public</text>
</g>
<!-- dir_66475898a0df7aa270259e5286653f27 -->
<g id="node2" class="node"><title>dir_66475898a0df7aa270259e5286653f27</title>
<g id="a_node2"><a xlink:href="dir_66475898a0df7aa270259e5286653f27.html" target="_top" xlink:title="Actors">
<polygon fill="white" stroke="black" points="78,-180 24,-180 24,-144 78,-144 78,-180"/>
<text text-anchor="middle" x="51" y="-159.5" font-family="Helvetica,sans-Serif" font-size="10.00">Actors</text>
</a>
</g>
</g>
<!-- dir_0e6cddcc9caa1238c7f3774224afaa45 -->
<g id="node7" class="node"><title>dir_0e6cddcc9caa1238c7f3774224afaa45</title>
<g id="a_node7"><a xlink:href="dir_0e6cddcc9caa1238c7f3774224afaa45.html" target="_top" xlink:title="Core">
<polygon fill="white" stroke="red" points="205,-36 151,-36 151,-0 205,-0 205,-36"/>
<text text-anchor="middle" x="178" y="-15.5" font-family="Helvetica,sans-Serif" font-size="10.00">Core</text>
</a>
</g>
</g>
<!-- dir_66475898a0df7aa270259e5286653f27&#45;&gt;dir_0e6cddcc9caa1238c7f3774224afaa45 -->
<g id="edge8" class="edge"><title>dir_66475898a0df7aa270259e5286653f27&#45;&gt;dir_0e6cddcc9caa1238c7f3774224afaa45</title>
<path fill="none" stroke="black" d="M65.8194,-143.819C81.4116,-125.807 106.732,-96.7375 129,-72 137.43,-62.6354 146.797,-52.4511 155.064,-43.5355"/>
<polygon fill="black" stroke="black" points="157.75,-45.7869 161.995,-36.0797 152.623,-41.0208 157.75,-45.7869"/>
<g id="a_edge8&#45;headlabel"><a xlink:href="dir_000007_000002.html" target="_top" xlink:title="6">
<text text-anchor="middle" x="157.382" y="-47.8527" font-family="Helvetica,sans-Serif" font-size="10.00">6</text>
</a>
</g>
</g>
<!-- dir_e95efa631723cde707baa0220c731e18 -->
<g id="node8" class="node"><title>dir_e95efa631723cde707baa0220c731e18</title>
<g id="a_node8"><a xlink:href="dir_e95efa631723cde707baa0220c731e18.html" target="_top" xlink:title="Renderer">
<polygon fill="white" stroke="red" points="206,-108 150,-108 150,-72 206,-72 206,-108"/>
<text text-anchor="middle" x="178" y="-87.5" font-family="Helvetica,sans-Serif" font-size="10.00">Renderer</text>
</a>
</g>
</g>
<!-- dir_66475898a0df7aa270259e5286653f27&#45;&gt;dir_e95efa631723cde707baa0220c731e18 -->
<g id="edge9" class="edge"><title>dir_66475898a0df7aa270259e5286653f27&#45;&gt;dir_e95efa631723cde707baa0220c731e18</title>
<path fill="none" stroke="black" d="M67.188,-143.882C73.0568,-138.319 79.9782,-132.442 87,-128 103.385,-117.634 123.164,-109.178 140.091,-102.98"/>
<polygon fill="black" stroke="black" points="141.417,-106.224 149.681,-99.5939 139.086,-99.6231 141.417,-106.224"/>
<g id="a_edge9&#45;headlabel"><a xlink:href="dir_000007_000012.html" target="_top" xlink:title="1">
<text text-anchor="middle" x="138.972" y="-107.598" font-family="Helvetica,sans-Serif" font-size="10.00">1</text>
</a>
</g>
</g>
<!-- dir_d4b41d668f3c08be716939ad3f69f84c -->
<g id="node3" class="node"><title>dir_d4b41d668f3c08be716939ad3f69f84c</title>
<g id="a_node3"><a xlink:href="dir_d4b41d668f3c08be716939ad3f69f84c.html" target="_top" xlink:title="AI">
<polygon fill="white" stroke="black" points="150,-252 96,-252 96,-216 150,-216 150,-252"/>
<text text-anchor="middle" x="123" y="-231.5" font-family="Helvetica,sans-Serif" font-size="10.00">AI</text>
</a>
</g>
</g>
<!-- dir_a04ada2230b4cd8e8e6f82e38c1dc3a4 -->
<g id="node6" class="node"><title>dir_a04ada2230b4cd8e8e6f82e38c1dc3a4</title>
<g id="a_node6"><a xlink:href="dir_a04ada2230b4cd8e8e6f82e38c1dc3a4.html" target="_top" xlink:title="Components">
<polygon fill="white" stroke="black" points="167.5,-180 96.5,-180 96.5,-144 167.5,-144 167.5,-180"/>
<text text-anchor="middle" x="132" y="-159.5" font-family="Helvetica,sans-Serif" font-size="10.00">Components</text>
</a>
</g>
</g>
<!-- dir_d4b41d668f3c08be716939ad3f69f84c&#45;&gt;dir_a04ada2230b4cd8e8e6f82e38c1dc3a4 -->
<g id="edge7" class="edge"><title>dir_d4b41d668f3c08be716939ad3f69f84c&#45;&gt;dir_a04ada2230b4cd8e8e6f82e38c1dc3a4</title>
<path fill="none" stroke="black" d="M125.225,-215.697C126.217,-207.983 127.408,-198.712 128.514,-190.112"/>
<polygon fill="black" stroke="black" points="131.997,-190.469 129.801,-180.104 125.054,-189.576 131.997,-190.469"/>
<g id="a_edge7&#45;headlabel"><a xlink:href="dir_000008_000011.html" target="_top" xlink:title="1">
<text text-anchor="middle" x="134.355" y="-191.896" font-family="Helvetica,sans-Serif" font-size="10.00">1</text>
</a>
</g>
</g>
<!-- dir_d4b41d668f3c08be716939ad3f69f84c&#45;&gt;dir_0e6cddcc9caa1238c7f3774224afaa45 -->
<g id="edge6" class="edge"><title>dir_d4b41d668f3c08be716939ad3f69f84c&#45;&gt;dir_0e6cddcc9caa1238c7f3774224afaa45</title>
<path fill="none" stroke="black" d="M150.285,-219.33C165.852,-210.204 184.497,-196.799 196,-180 223.536,-139.787 229.623,-118.492 215,-72 211.901,-62.1483 206.249,-52.5302 200.279,-44.2511"/>
<polygon fill="black" stroke="black" points="202.914,-41.9371 194.037,-36.1544 197.371,-46.2111 202.914,-41.9371"/>
<g id="a_edge6&#45;headlabel"><a xlink:href="dir_000008_000002.html" target="_top" xlink:title="3">
<text text-anchor="middle" x="207.358" y="-40.5503" font-family="Helvetica,sans-Serif" font-size="10.00">3</text>
</a>
</g>
</g>
<!-- dir_30677d614c70ff3d3766f32fd17644d9 -->
<g id="node4" class="node"><title>dir_30677d614c70ff3d3766f32fd17644d9</title>
<g id="a_node4"><a xlink:href="dir_30677d614c70ff3d3766f32fd17644d9.html" target="_top" xlink:title="Audio">
<polygon fill="white" stroke="black" points="222,-252 168,-252 168,-216 222,-216 222,-252"/>
<text text-anchor="middle" x="195" y="-231.5" font-family="Helvetica,sans-Serif" font-size="10.00">Audio</text>
</a>
</g>
</g>
<!-- dir_30677d614c70ff3d3766f32fd17644d9&#45;&gt;dir_0e6cddcc9caa1238c7f3774224afaa45 -->
<g id="edge5" class="edge"><title>dir_30677d614c70ff3d3766f32fd17644d9&#45;&gt;dir_0e6cddcc9caa1238c7f3774224afaa45</title>
<path fill="none" stroke="black" d="M219.477,-215.768C230.404,-206.555 242.124,-194.186 248,-180 266.369,-135.654 269.368,-114.981 248,-72 240.652,-57.2202 226.997,-45.4613 213.684,-36.812"/>
<polygon fill="black" stroke="black" points="215.42,-33.7714 205.055,-31.5766 211.789,-39.7561 215.42,-33.7714"/>
<g id="a_edge5&#45;headlabel"><a xlink:href="dir_000009_000002.html" target="_top" xlink:title="2">
<text text-anchor="middle" x="219.966" y="-30.7085" font-family="Helvetica,sans-Serif" font-size="10.00">2</text>
</a>
</g>
</g>
<!-- dir_977df447a731c4d33c696d3a1f50b631 -->
<g id="node5" class="node"><title>dir_977df447a731c4d33c696d3a1f50b631</title>
<g id="a_node5"><a xlink:href="dir_977df447a731c4d33c696d3a1f50b631.html" target="_top" xlink:title="Camera">
<polygon fill="white" stroke="black" points="78,-252 24,-252 24,-216 78,-216 78,-252"/>
<text text-anchor="middle" x="51" y="-231.5" font-family="Helvetica,sans-Serif" font-size="10.00">Camera</text>
</a>
</g>
</g>
<!-- dir_977df447a731c4d33c696d3a1f50b631&#45;&gt;dir_66475898a0df7aa270259e5286653f27 -->
<g id="edge2" class="edge"><title>dir_977df447a731c4d33c696d3a1f50b631&#45;&gt;dir_66475898a0df7aa270259e5286653f27</title>
<path fill="none" stroke="black" d="M51,-215.697C51,-207.983 51,-198.712 51,-190.112"/>
<polygon fill="black" stroke="black" points="54.5001,-190.104 51,-180.104 47.5001,-190.104 54.5001,-190.104"/>
<g id="a_edge2&#45;headlabel"><a xlink:href="dir_000010_000007.html" target="_top" xlink:title="1">
<text text-anchor="middle" x="57.3393" y="-191.199" font-family="Helvetica,sans-Serif" font-size="10.00">1</text>
</a>
</g>
</g>
<!-- dir_977df447a731c4d33c696d3a1f50b631&#45;&gt;dir_a04ada2230b4cd8e8e6f82e38c1dc3a4 -->
<g id="edge3" class="edge"><title>dir_977df447a731c4d33c696d3a1f50b631&#45;&gt;dir_a04ada2230b4cd8e8e6f82e38c1dc3a4</title>
<path fill="none" stroke="black" d="M71.0225,-215.697C81.1256,-206.965 93.536,-196.24 104.518,-186.75"/>
<polygon fill="black" stroke="black" points="106.93,-189.291 112.208,-180.104 102.353,-183.995 106.93,-189.291"/>
<g id="a_edge3&#45;headlabel"><a xlink:href="dir_000010_000011.html" target="_top" xlink:title="1">
<text text-anchor="middle" x="106.067" y="-191.29" font-family="Helvetica,sans-Serif" font-size="10.00">1</text>
</a>
</g>
</g>
<!-- dir_977df447a731c4d33c696d3a1f50b631&#45;&gt;dir_e95efa631723cde707baa0220c731e18 -->
<g id="edge1" class="edge"><title>dir_977df447a731c4d33c696d3a1f50b631&#45;&gt;dir_e95efa631723cde707baa0220c731e18</title>
<path fill="none" stroke="black" d="M78.0513,-220.024C81.0595,-218.641 84.0876,-217.275 87,-216 126.085,-198.883 151.751,-215.109 176,-180 188.376,-162.081 187.734,-136.925 184.655,-117.927"/>
<polygon fill="black" stroke="black" points="188.089,-117.249 182.761,-108.091 181.216,-118.572 188.089,-117.249"/>
<g id="a_edge1&#45;headlabel"><a xlink:href="dir_000010_000012.html" target="_top" xlink:title="1">
<text text-anchor="middle" x="191.557" y="-117.742" font-family="Helvetica,sans-Serif" font-size="10.00">1</text>
</a>
</g>
</g>
<!-- dir_a04ada2230b4cd8e8e6f82e38c1dc3a4&#45;&gt;dir_0e6cddcc9caa1238c7f3774224afaa45 -->
<g id="edge10" class="edge"><title>dir_a04ada2230b4cd8e8e6f82e38c1dc3a4&#45;&gt;dir_0e6cddcc9caa1238c7f3774224afaa45</title>
<path fill="none" stroke="black" d="M131.215,-143.694C130.956,-125.326 132.198,-95.7347 141,-72 144.591,-62.3168 150.382,-52.7462 156.327,-44.4586"/>
<polygon fill="black" stroke="black" points="159.234,-46.4171 162.492,-36.3356 153.658,-42.185 159.234,-46.4171"/>
<g id="a_edge10&#45;headlabel"><a xlink:href="dir_000011_000002.html" target="_top" xlink:title="10">
<text text-anchor="middle" x="159.323" y="-48.4969" font-family="Helvetica,sans-Serif" font-size="10.00">10</text>
</a>
</g>
</g>
<!-- dir_a04ada2230b4cd8e8e6f82e38c1dc3a4&#45;&gt;dir_e95efa631723cde707baa0220c731e18 -->
<g id="edge11" class="edge"><title>dir_a04ada2230b4cd8e8e6f82e38c1dc3a4&#45;&gt;dir_e95efa631723cde707baa0220c731e18</title>
<path fill="none" stroke="black" d="M143.371,-143.697C148.718,-135.559 155.204,-125.689 161.111,-116.701"/>
<polygon fill="black" stroke="black" points="164.193,-118.384 166.76,-108.104 158.343,-114.539 164.193,-118.384"/>
<g id="a_edge11&#45;headlabel"><a xlink:href="dir_000011_000012.html" target="_top" xlink:title="7">
<text text-anchor="middle" x="164.592" y="-120.447" font-family="Helvetica,sans-Serif" font-size="10.00">7</text>
</a>
</g>
</g>
<!-- dir_e95efa631723cde707baa0220c731e18&#45;&gt;dir_0e6cddcc9caa1238c7f3774224afaa45 -->
<g id="edge4" class="edge"><title>dir_e95efa631723cde707baa0220c731e18&#45;&gt;dir_0e6cddcc9caa1238c7f3774224afaa45</title>
<path fill="none" stroke="black" d="M178,-71.6966C178,-63.9827 178,-54.7125 178,-46.1124"/>
<polygon fill="black" stroke="black" points="181.5,-46.1043 178,-36.1043 174.5,-46.1044 181.5,-46.1043"/>
<g id="a_edge4&#45;headlabel"><a xlink:href="dir_000012_000002.html" target="_top" xlink:title="24">
<text text-anchor="middle" x="184.339" y="-47.199" font-family="Helvetica,sans-Serif" font-size="10.00">24</text>
</a>
</g>
</g>
</g>
</svg>
