<?xml version="1.0" encoding="UTF-8" standalone="no"?>
<!DOCTYPE svg PUBLIC "-//W3C//DTD SVG 1.1//EN"
 "http://www.w3.org/Graphics/SVG/1.1/DTD/svg11.dtd">
<!-- Generated by graphviz version 2.38.0 (20140413.2041)
 -->
<!-- Title: Source/Renderer/Private Pages: 1 -->
<svg width="105pt" height="223pt"
 viewBox="0.00 0.00 105.00 223.00" xmlns="http://www.w3.org/2000/svg" xmlns:xlink="http://www.w3.org/1999/xlink">
<g id="graph0" class="graph" transform="scale(1 1) rotate(0) translate(4 219)">
<title>Source/Renderer/Private</title>
<polygon fill="white" stroke="none" points="-4,4 -4,-219 101,-219 101,4 -4,4"/>
<g id="clust1" class="cluster"><title>clusterdir_4efb1cddb47a1770ad011373796c1afc</title>
<g id="a_clust1"><a xlink:href="dir_4efb1cddb47a1770ad011373796c1afc.html" target="_top" xlink:title="Renderer">
<polygon fill="#ddddee" stroke="black" points="19,-136 19,-207 89,-207 89,-136 19,-136"/>
<text text-anchor="middle" x="54" y="-195" font-family="Helvetica,sans-Serif" font-size="10.00">Renderer</text>
</a>
</g>
</g>
<!-- dir_fff2b31faf5dc49587ac2a7b95139967 -->
<g id="node1" class="node"><title>dir_fff2b31faf5dc49587ac2a7b95139967</title>
<g id="a_node1"><a xlink:href="dir_fff2b31faf5dc49587ac2a7b95139967.html" target="_top" xlink:title="Private">
<polygon fill="#eeeeff" stroke="black" points="81,-180 27,-180 27,-144 81,-144 81,-180"/>
<text text-anchor="middle" x="54" y="-159.5" font-family="Helvetica,sans-Serif" font-size="10.00">Private</text>
</a>
</g>
</g>
<!-- dir_6236b8d6339d35bbb2b0515cb7701223 -->
<g id="node2" class="node"><title>dir_6236b8d6339d35bbb2b0515cb7701223</title>
<g id="a_node2"><a xlink:href="dir_6236b8d6339d35bbb2b0515cb7701223.html" target="_top" xlink:title="Public">
<polygon fill="white" stroke="red" points="54,-108 0,-108 0,-72 54,-72 54,-108"/>
<text text-anchor="middle" x="27" y="-87.5" font-family="Helvetica,sans-Serif" font-size="10.00">Public</text>
</a>
</g>
</g>
<!-- dir_fff2b31faf5dc49587ac2a7b95139967&#45;&gt;dir_6236b8d6339d35bbb2b0515cb7701223 -->
<g id="edge2" class="edge"><title>dir_fff2b31faf5dc49587ac2a7b95139967&#45;&gt;dir_6236b8d6339d35bbb2b0515cb7701223</title>
<path fill="none" stroke="black" d="M47.3258,-143.697C44.2851,-135.813 40.6173,-126.304 37.2393,-117.546"/>
<polygon fill="black" stroke="black" points="40.4617,-116.175 33.5974,-108.104 33.9307,-118.694 40.4617,-116.175"/>
<g id="a_edge2&#45;headlabel"><a xlink:href="dir_000011_000012.html" target="_top" xlink:title="2">
<text text-anchor="middle" x="44.4043" y="-116.007" font-family="Helvetica,sans-Serif" font-size="10.00">2</text>
</a>
</g>
</g>
<!-- dir_1ad6433457b0067ef8f54a4fa85f5c9a -->
<g id="node3" class="node"><title>dir_1ad6433457b0067ef8f54a4fa85f5c9a</title>
<g id="a_node3"><a xlink:href="dir_1ad6433457b0067ef8f54a4fa85f5c9a.html" target="_top" xlink:title="Core">
<polygon fill="white" stroke="red" points="81,-36 27,-36 27,-0 81,-0 81,-36"/>
<text text-anchor="middle" x="54" y="-15.5" font-family="Helvetica,sans-Serif" font-size="10.00">Core</text>
</a>
</g>
</g>
<!-- dir_fff2b31faf5dc49587ac2a7b95139967&#45;&gt;dir_1ad6433457b0067ef8f54a4fa85f5c9a -->
<g id="edge3" class="edge"><title>dir_fff2b31faf5dc49587ac2a7b95139967&#45;&gt;dir_1ad6433457b0067ef8f54a4fa85f5c9a</title>
<path fill="none" stroke="black" d="M57.6538,-143.908C59.6758,-133.569 61.9808,-120.09 63,-108 64.3441,-92.0566 64.3441,-87.9434 63,-72 62.2834,-63.4991 60.9311,-54.3119 59.4884,-46.0122"/>
<polygon fill="black" stroke="black" points="62.9142,-45.2892 57.6538,-36.0925 56.0309,-46.5623 62.9142,-45.2892"/>
<g id="a_edge3&#45;headlabel"><a xlink:href="dir_000011_000001.html" target="_top" xlink:title="8">
<text text-anchor="middle" x="66.3597" y="-45.8075" font-family="Helvetica,sans-Serif" font-size="10.00">8</text>
</a>
</g>
</g>
<!-- dir_6236b8d6339d35bbb2b0515cb7701223&#45;&gt;dir_1ad6433457b0067ef8f54a4fa85f5c9a -->
<g id="edge1" class="edge"><title>dir_6236b8d6339d35bbb2b0515cb7701223&#45;&gt;dir_1ad6433457b0067ef8f54a4fa85f5c9a</title>
<path fill="none" stroke="black" d="M33.6742,-71.6966C36.7149,-63.8132 40.3827,-54.3042 43.7607,-45.5464"/>
<polygon fill="black" stroke="black" points="47.0693,-46.6939 47.4026,-36.1043 40.5383,-44.1748 47.0693,-46.6939"/>
<g id="a_edge1&#45;headlabel"><a xlink:href="dir_000012_000001.html" target="_top" xlink:title="14">
<text text-anchor="middle" x="48.4248" y="-48.5695" font-family="Helvetica,sans-Serif" font-size="10.00">14</text>
</a>
</g>
</g>
</g>
</svg>
