<?xml version="1.0" encoding="UTF-8" standalone="no"?>
<!DOCTYPE svg PUBLIC "-//W3C//DTD SVG 1.1//EN"
 "http://www.w3.org/Graphics/SVG/1.1/DTD/svg11.dtd">
<!-- Generated by graphviz version 2.38.0 (20140413.2041)
 -->
<!-- Title: Source/Runtime/Core/Public Pages: 1 -->
<svg width="180pt" height="183pt"
 viewBox="0.00 0.00 179.50 183.00" xmlns="http://www.w3.org/2000/svg" xmlns:xlink="http://www.w3.org/1999/xlink">
<g id="graph0" class="graph" transform="scale(1 1) rotate(0) translate(4 179)">
<title>Source/Runtime/Core/Public</title>
<polygon fill="white" stroke="none" points="-4,4 -4,-179 175.5,-179 175.5,4 -4,4"/>
<g id="clust1" class="cluster"><title>clusterdir_0e6cddcc9caa1238c7f3774224afaa45</title>
<g id="a_clust1"><a xlink:href="dir_0e6cddcc9caa1238c7f3774224afaa45.html" target="_top" xlink:title="Core">
<polygon fill="#ddddee" stroke="black" points="8,-8 8,-167 102,-167 102,-8 8,-8"/>
<text text-anchor="middle" x="55" y="-155" font-family="Helvetica,sans-Serif" font-size="10.00">Core</text>
</a>
</g>
</g>
<g id="clust2" class="cluster"><title>clusterdir_ba49309ee78fabe0452662bc1a7ef37d</title>
<g id="a_clust2"><a xlink:href="dir_ba49309ee78fabe0452662bc1a7ef37d.html" target="_top">
<polygon fill="#eeeeff" stroke="black" points="16,-16 16,-140 94,-140 94,-16 16,-16"/>
</a>
</g>
</g>
<!-- dir_ba49309ee78fabe0452662bc1a7ef37d -->
<g id="node1" class="node"><title>dir_ba49309ee78fabe0452662bc1a7ef37d</title>
<text text-anchor="middle" x="57" y="-111.5" font-family="Helvetica,sans-Serif" font-size="10.00">Public</text>
</g>
<!-- dir_d923b29e5793e4ca6ecf89bd6d2fe94d -->
<g id="node2" class="node"><title>dir_d923b29e5793e4ca6ecf89bd6d2fe94d</title>
<g id="a_node2"><a xlink:href="dir_d923b29e5793e4ca6ecf89bd6d2fe94d.html" target="_top" xlink:title="Templates">
<polygon fill="white" stroke="black" points="86,-60 24,-60 24,-24 86,-24 86,-60"/>
<text text-anchor="middle" x="55" y="-39.5" font-family="Helvetica,sans-Serif" font-size="10.00">Templates</text>
</a>
</g>
</g>
<!-- dir_ba49309ee78fabe0452662bc1a7ef37d&#45;&gt;dir_d923b29e5793e4ca6ecf89bd6d2fe94d -->
<g id="edge2" class="edge"><title>dir_ba49309ee78fabe0452662bc1a7ef37d&#45;&gt;dir_d923b29e5793e4ca6ecf89bd6d2fe94d</title>
<path fill="none" stroke="black" d="M56.5056,-95.6966C56.2852,-87.9827 56.0204,-78.7125 55.7746,-70.1124"/>
<polygon fill="black" stroke="black" points="59.273,-70.0003 55.4887,-60.1043 52.2758,-70.2002 59.273,-70.0003"/>
<g id="a_edge2&#45;headlabel"><a xlink:href="dir_000003_000004.html" target="_top" xlink:title="13">
<text text-anchor="middle" x="62.2136" y="-71.0124" font-family="Helvetica,sans-Serif" font-size="10.00">13</text>
</a>
</g>
</g>
<!-- dir_fd2244d5b8a70de183e6299f6cb7004e -->
<g id="node3" class="node"><title>dir_fd2244d5b8a70de183e6299f6cb7004e</title>
<g id="a_node3"><a xlink:href="dir_fd2244d5b8a70de183e6299f6cb7004e.html" target="_top" xlink:title="ThirdParty">
<polygon fill="white" stroke="red" points="171.5,-60 110.5,-60 110.5,-24 171.5,-24 171.5,-60"/>
<text text-anchor="middle" x="141" y="-39.5" font-family="Helvetica,sans-Serif" font-size="10.00">ThirdParty</text>
</a>
</g>
</g>
<!-- dir_ba49309ee78fabe0452662bc1a7ef37d&#45;&gt;dir_fd2244d5b8a70de183e6299f6cb7004e -->
<g id="edge1" class="edge"><title>dir_ba49309ee78fabe0452662bc1a7ef37d&#45;&gt;dir_fd2244d5b8a70de183e6299f6cb7004e</title>
<path fill="none" stroke="black" d="M77.7641,-95.6966C88.2414,-86.9655 101.111,-76.2405 112.5,-66.7503"/>
<polygon fill="black" stroke="black" points="115.033,-69.195 120.475,-60.1043 110.552,-63.8174 115.033,-69.195"/>
<g id="a_edge1&#45;headlabel"><a xlink:href="dir_000003_000015.html" target="_top" xlink:title="5">
<text text-anchor="middle" x="114.089" y="-71.1774" font-family="Helvetica,sans-Serif" font-size="10.00">5</text>
</a>
</g>
</g>
</g>
</svg>
