<?xml version="1.0" encoding="UTF-8" standalone="no"?>
<!DOCTYPE svg PUBLIC "-//W3C//DTD SVG 1.1//EN"
 "http://www.w3.org/Graphics/SVG/1.1/DTD/svg11.dtd">
<!-- Generated by graphviz version 2.38.0 (20140413.2041)
 -->
<!-- Title: Source/Runtime/Renderer Pages: 1 -->
<svg width="184pt" height="231pt"
 viewBox="0.00 0.00 184.00 231.00" xmlns="http://www.w3.org/2000/svg" xmlns:xlink="http://www.w3.org/1999/xlink">
<g id="graph0" class="graph" transform="scale(1 1) rotate(0) translate(4 227)">
<title>Source/Runtime/Renderer</title>
<polygon fill="white" stroke="none" points="-4,4 -4,-227 180,-227 180,4 -4,4"/>
<g id="clust1" class="cluster"><title>clusterdir_7536b172fbd480bfd146a1b1acd6856b</title>
<g id="a_clust1"><a xlink:href="dir_7536b172fbd480bfd146a1b1acd6856b.html" target="_top" xlink:title="Runtime">
<polygon fill="#ddddee" stroke="black" points="8,-56 8,-215 168,-215 168,-56 8,-56"/>
<text text-anchor="middle" x="88" y="-203" font-family="Helvetica,sans-Serif" font-size="10.00">Runtime</text>
</a>
</g>
</g>
<g id="clust2" class="cluster"><title>clusterdir_e95efa631723cde707baa0220c731e18</title>
<g id="a_clust2"><a xlink:href="dir_e95efa631723cde707baa0220c731e18.html" target="_top">
<polygon fill="#eeeeff" stroke="black" points="16,-64 16,-188 160,-188 160,-64 16,-64"/>
</a>
</g>
</g>
<!-- dir_e95efa631723cde707baa0220c731e18 -->
<g id="node1" class="node"><title>dir_e95efa631723cde707baa0220c731e18</title>
<text text-anchor="middle" x="124" y="-159.5" font-family="Helvetica,sans-Serif" font-size="10.00">Renderer</text>
</g>
<!-- dir_03f5d4632ca54d404b62bcda1872fb09 -->
<g id="node2" class="node"><title>dir_03f5d4632ca54d404b62bcda1872fb09</title>
<g id="a_node2"><a xlink:href="dir_03f5d4632ca54d404b62bcda1872fb09.html" target="_top" xlink:title="Private">
<polygon fill="white" stroke="black" points="78,-180 24,-180 24,-144 78,-144 78,-180"/>
<text text-anchor="middle" x="51" y="-159.5" font-family="Helvetica,sans-Serif" font-size="10.00">Private</text>
</a>
</g>
</g>
<!-- dir_66d0fce27eec5ed1ad883580e48797e0 -->
<g id="node3" class="node"><title>dir_66d0fce27eec5ed1ad883580e48797e0</title>
<g id="a_node3"><a xlink:href="dir_66d0fce27eec5ed1ad883580e48797e0.html" target="_top" xlink:title="Public">
<polygon fill="white" stroke="red" points="78,-108 24,-108 24,-72 78,-72 78,-108"/>
<text text-anchor="middle" x="51" y="-87.5" font-family="Helvetica,sans-Serif" font-size="10.00">Public</text>
</a>
</g>
</g>
<!-- dir_03f5d4632ca54d404b62bcda1872fb09&#45;&gt;dir_66d0fce27eec5ed1ad883580e48797e0 -->
<g id="edge2" class="edge"><title>dir_03f5d4632ca54d404b62bcda1872fb09&#45;&gt;dir_66d0fce27eec5ed1ad883580e48797e0</title>
<path fill="none" stroke="black" d="M51,-143.697C51,-135.983 51,-126.712 51,-118.112"/>
<polygon fill="black" stroke="black" points="54.5001,-118.104 51,-108.104 47.5001,-118.104 54.5001,-118.104"/>
<g id="a_edge2&#45;headlabel"><a xlink:href="dir_000016_000015.html" target="_top" xlink:title="1">
<text text-anchor="middle" x="57.3393" y="-119.199" font-family="Helvetica,sans-Serif" font-size="10.00">1</text>
</a>
</g>
</g>
<!-- dir_0e6cddcc9caa1238c7f3774224afaa45 -->
<g id="node4" class="node"><title>dir_0e6cddcc9caa1238c7f3774224afaa45</title>
<g id="a_node4"><a xlink:href="dir_0e6cddcc9caa1238c7f3774224afaa45.html" target="_top" xlink:title="Core">
<polygon fill="white" stroke="red" points="105,-36 51,-36 51,-0 105,-0 105,-36"/>
<text text-anchor="middle" x="78" y="-15.5" font-family="Helvetica,sans-Serif" font-size="10.00">Core</text>
</a>
</g>
</g>
<!-- dir_03f5d4632ca54d404b62bcda1872fb09&#45;&gt;dir_0e6cddcc9caa1238c7f3774224afaa45 -->
<g id="edge1" class="edge"><title>dir_03f5d4632ca54d404b62bcda1872fb09&#45;&gt;dir_0e6cddcc9caa1238c7f3774224afaa45</title>
<path fill="none" stroke="black" d="M66.6099,-143.774C74.3729,-134.03 82.9459,-121.184 87,-108 93.2198,-87.7736 90.2688,-63.865 86.1475,-45.9241"/>
<polygon fill="black" stroke="black" points="89.5104,-44.9471 83.6461,-36.1232 82.7278,-46.6782 89.5104,-44.9471"/>
<g id="a_edge1&#45;headlabel"><a xlink:href="dir_000016_000002.html" target="_top" xlink:title="4">
<text text-anchor="middle" x="93.1503" y="-45.228" font-family="Helvetica,sans-Serif" font-size="10.00">4</text>
</a>
</g>
</g>
<!-- dir_66d0fce27eec5ed1ad883580e48797e0&#45;&gt;dir_0e6cddcc9caa1238c7f3774224afaa45 -->
<g id="edge3" class="edge"><title>dir_66d0fce27eec5ed1ad883580e48797e0&#45;&gt;dir_0e6cddcc9caa1238c7f3774224afaa45</title>
<path fill="none" stroke="black" d="M57.6742,-71.6966C60.7149,-63.8132 64.3827,-54.3042 67.7607,-45.5464"/>
<polygon fill="black" stroke="black" points="71.0693,-46.6939 71.4026,-36.1043 64.5383,-44.1748 71.0693,-46.6939"/>
<g id="a_edge3&#45;headlabel"><a xlink:href="dir_000015_000002.html" target="_top" xlink:title="5">
<text text-anchor="middle" x="72.4248" y="-48.5695" font-family="Helvetica,sans-Serif" font-size="10.00">5</text>
</a>
</g>
</g>
</g>
</svg>
