<?xml version="1.0" encoding="UTF-8" standalone="no"?>
<!DOCTYPE svg PUBLIC "-//W3C//DTD SVG 1.1//EN"
 "http://www.w3.org/Graphics/SVG/1.1/DTD/svg11.dtd">
<!-- Generated by graphviz version 2.38.0 (20140413.2041)
 -->
<!-- Title: Source/Runtime/Engine/Public Pages: 1 -->
<svg width="285pt" height="303pt"
 viewBox="0.00 0.00 284.59 303.00" xmlns="http://www.w3.org/2000/svg" xmlns:xlink="http://www.w3.org/1999/xlink">
<g id="graph0" class="graph" transform="scale(1 1) rotate(0) translate(4 299)">
<title>Source/Runtime/Engine/Public</title>
<polygon fill="white" stroke="none" points="-4,4 -4,-299 280.594,-299 280.594,4 -4,4"/>
<g id="clust1" class="cluster"><title>clusterdir_fdf6aa5c3cf3805bb958134448d60562</title>
<g id="a_clust1"><a xlink:href="dir_fdf6aa5c3cf3805bb958134448d60562.html" target="_top" xlink:title="Engine">
<polygon fill="#ddddee" stroke="black" points="8,-128 8,-287 256,-287 256,-128 8,-128"/>
<text text-anchor="middle" x="132" y="-275" font-family="Helvetica,sans-Serif" font-size="10.00">Engine</text>
</a>
</g>
</g>
<g id="clust2" class="cluster"><title>clusterdir_1d06a51bfc871a6a1823440d0d72725c</title>
<g id="a_clust2"><a xlink:href="dir_1d06a51bfc871a6a1823440d0d72725c.html" target="_top">
<polygon fill="#eeeeff" stroke="black" points="16,-136 16,-260 248,-260 248,-136 16,-136"/>
</a>
</g>
</g>
<!-- dir_1d06a51bfc871a6a1823440d0d72725c -->
<g id="node1" class="node"><title>dir_1d06a51bfc871a6a1823440d0d72725c</title>
<text text-anchor="middle" x="213" y="-231.5" font-family="Helvetica,sans-Serif" font-size="10.00">Public</text>
</g>
<!-- dir_30677d614c70ff3d3766f32fd17644d9 -->
<g id="node4" class="node"><title>dir_30677d614c70ff3d3766f32fd17644d9</title>
<g id="a_node4"><a xlink:href="dir_30677d614c70ff3d3766f32fd17644d9.html" target="_top" xlink:title="Audio">
<polygon fill="white" stroke="black" points="240,-180 186,-180 186,-144 240,-144 240,-180"/>
<text text-anchor="middle" x="213" y="-159.5" font-family="Helvetica,sans-Serif" font-size="10.00">Audio</text>
</a>
</g>
</g>
<!-- dir_1d06a51bfc871a6a1823440d0d72725c&#45;&gt;dir_30677d614c70ff3d3766f32fd17644d9 -->
<g id="edge5" class="edge"><title>dir_1d06a51bfc871a6a1823440d0d72725c&#45;&gt;dir_30677d614c70ff3d3766f32fd17644d9</title>
<path fill="none" stroke="black" d="M213,-215.697C213,-207.983 213,-198.712 213,-190.112"/>
<polygon fill="black" stroke="black" points="216.5,-190.104 213,-180.104 209.5,-190.104 216.5,-190.104"/>
<g id="a_edge5&#45;headlabel"><a xlink:href="dir_000008_000011.html" target="_top" xlink:title="1">
<text text-anchor="middle" x="219.339" y="-191.199" font-family="Helvetica,sans-Serif" font-size="10.00">1</text>
</a>
</g>
</g>
<!-- dir_66475898a0df7aa270259e5286653f27 -->
<g id="node2" class="node"><title>dir_66475898a0df7aa270259e5286653f27</title>
<g id="a_node2"><a xlink:href="dir_66475898a0df7aa270259e5286653f27.html" target="_top" xlink:title="Actors">
<polygon fill="white" stroke="black" points="78,-180 24,-180 24,-144 78,-144 78,-180"/>
<text text-anchor="middle" x="51" y="-159.5" font-family="Helvetica,sans-Serif" font-size="10.00">Actors</text>
</a>
</g>
</g>
<!-- dir_0e6cddcc9caa1238c7f3774224afaa45 -->
<g id="node7" class="node"><title>dir_0e6cddcc9caa1238c7f3774224afaa45</title>
<g id="a_node7"><a xlink:href="dir_0e6cddcc9caa1238c7f3774224afaa45.html" target="_top" xlink:title="Core">
<polygon fill="white" stroke="red" points="187,-36 133,-36 133,-0 187,-0 187,-36"/>
<text text-anchor="middle" x="160" y="-15.5" font-family="Helvetica,sans-Serif" font-size="10.00">Core</text>
</a>
</g>
</g>
<!-- dir_66475898a0df7aa270259e5286653f27&#45;&gt;dir_0e6cddcc9caa1238c7f3774224afaa45 -->
<g id="edge8" class="edge"><title>dir_66475898a0df7aa270259e5286653f27&#45;&gt;dir_0e6cddcc9caa1238c7f3774224afaa45</title>
<path fill="none" stroke="black" d="M64.1479,-143.871C83.216,-119.031 118.667,-72.8464 140.701,-44.1415"/>
<polygon fill="black" stroke="black" points="143.493,-46.2529 146.805,-36.1893 137.94,-41.9906 143.493,-46.2529"/>
<g id="a_edge8&#45;headlabel"><a xlink:href="dir_000009_000002.html" target="_top" xlink:title="6">
<text text-anchor="middle" x="143.556" y="-48.3331" font-family="Helvetica,sans-Serif" font-size="10.00">6</text>
</a>
</g>
</g>
<!-- dir_d4b41d668f3c08be716939ad3f69f84c -->
<g id="node3" class="node"><title>dir_d4b41d668f3c08be716939ad3f69f84c</title>
<g id="a_node3"><a xlink:href="dir_d4b41d668f3c08be716939ad3f69f84c.html" target="_top" xlink:title="AI">
<polygon fill="white" stroke="black" points="168,-252 114,-252 114,-216 168,-216 168,-252"/>
<text text-anchor="middle" x="141" y="-231.5" font-family="Helvetica,sans-Serif" font-size="10.00">AI</text>
</a>
</g>
</g>
<!-- dir_a04ada2230b4cd8e8e6f82e38c1dc3a4 -->
<g id="node6" class="node"><title>dir_a04ada2230b4cd8e8e6f82e38c1dc3a4</title>
<g id="a_node6"><a xlink:href="dir_a04ada2230b4cd8e8e6f82e38c1dc3a4.html" target="_top" xlink:title="Components">
<polygon fill="white" stroke="black" points="167.5,-180 96.5,-180 96.5,-144 167.5,-144 167.5,-180"/>
<text text-anchor="middle" x="132" y="-159.5" font-family="Helvetica,sans-Serif" font-size="10.00">Components</text>
</a>
</g>
</g>
<!-- dir_d4b41d668f3c08be716939ad3f69f84c&#45;&gt;dir_a04ada2230b4cd8e8e6f82e38c1dc3a4 -->
<g id="edge7" class="edge"><title>dir_d4b41d668f3c08be716939ad3f69f84c&#45;&gt;dir_a04ada2230b4cd8e8e6f82e38c1dc3a4</title>
<path fill="none" stroke="black" d="M138.775,-215.697C137.783,-207.983 136.592,-198.712 135.486,-190.112"/>
<polygon fill="black" stroke="black" points="138.946,-189.576 134.199,-180.104 132.003,-190.469 138.946,-189.576"/>
<g id="a_edge7&#45;headlabel"><a xlink:href="dir_000010_000013.html" target="_top" xlink:title="1">
<text text-anchor="middle" x="142.22" y="-190.28" font-family="Helvetica,sans-Serif" font-size="10.00">1</text>
</a>
</g>
</g>
<!-- dir_d4b41d668f3c08be716939ad3f69f84c&#45;&gt;dir_0e6cddcc9caa1238c7f3774224afaa45 -->
<g id="edge6" class="edge"><title>dir_d4b41d668f3c08be716939ad3f69f84c&#45;&gt;dir_0e6cddcc9caa1238c7f3774224afaa45</title>
<path fill="none" stroke="black" d="M168.046,-220.013C171.055,-218.632 174.085,-217.27 177,-216 216.496,-198.794 242.847,-215.674 267,-180 300.074,-131.149 237.279,-73.4758 194.678,-42.1285"/>
<polygon fill="black" stroke="black" points="196.623,-39.2166 186.461,-36.2204 192.537,-44.9 196.623,-39.2166"/>
<g id="a_edge6&#45;headlabel"><a xlink:href="dir_000010_000002.html" target="_top" xlink:title="3">
<text text-anchor="middle" x="201.199" y="-36.5099" font-family="Helvetica,sans-Serif" font-size="10.00">3</text>
</a>
</g>
</g>
<!-- dir_977df447a731c4d33c696d3a1f50b631 -->
<g id="node5" class="node"><title>dir_977df447a731c4d33c696d3a1f50b631</title>
<g id="a_node5"><a xlink:href="dir_977df447a731c4d33c696d3a1f50b631.html" target="_top" xlink:title="Camera">
<polygon fill="white" stroke="black" points="96,-252 42,-252 42,-216 96,-216 96,-252"/>
<text text-anchor="middle" x="69" y="-231.5" font-family="Helvetica,sans-Serif" font-size="10.00">Camera</text>
</a>
</g>
</g>
<!-- dir_977df447a731c4d33c696d3a1f50b631&#45;&gt;dir_66475898a0df7aa270259e5286653f27 -->
<g id="edge2" class="edge"><title>dir_977df447a731c4d33c696d3a1f50b631&#45;&gt;dir_66475898a0df7aa270259e5286653f27</title>
<path fill="none" stroke="black" d="M64.5506,-215.697C62.5452,-207.898 60.1308,-198.509 57.8989,-189.829"/>
<polygon fill="black" stroke="black" points="61.2785,-188.918 55.3983,-180.104 54.499,-190.661 61.2785,-188.918"/>
<g id="a_edge2&#45;headlabel"><a xlink:href="dir_000012_000009.html" target="_top" xlink:title="1">
<text text-anchor="middle" x="64.9234" y="-189.192" font-family="Helvetica,sans-Serif" font-size="10.00">1</text>
</a>
</g>
</g>
<!-- dir_977df447a731c4d33c696d3a1f50b631&#45;&gt;dir_a04ada2230b4cd8e8e6f82e38c1dc3a4 -->
<g id="edge3" class="edge"><title>dir_977df447a731c4d33c696d3a1f50b631&#45;&gt;dir_a04ada2230b4cd8e8e6f82e38c1dc3a4</title>
<path fill="none" stroke="black" d="M84.573,-215.697C92.2022,-207.22 101.523,-196.864 109.876,-187.583"/>
<polygon fill="black" stroke="black" points="112.518,-189.879 116.606,-180.104 107.315,-185.196 112.518,-189.879"/>
<g id="a_edge3&#45;headlabel"><a xlink:href="dir_000012_000013.html" target="_top" xlink:title="1">
<text text-anchor="middle" x="112.224" y="-191.95" font-family="Helvetica,sans-Serif" font-size="10.00">1</text>
</a>
</g>
</g>
<!-- dir_e95efa631723cde707baa0220c731e18 -->
<g id="node8" class="node"><title>dir_e95efa631723cde707baa0220c731e18</title>
<g id="a_node8"><a xlink:href="dir_e95efa631723cde707baa0220c731e18.html" target="_top" xlink:title="Renderer">
<polygon fill="white" stroke="red" points="216,-108 160,-108 160,-72 216,-72 216,-108"/>
<text text-anchor="middle" x="188" y="-87.5" font-family="Helvetica,sans-Serif" font-size="10.00">Renderer</text>
</a>
</g>
</g>
<!-- dir_977df447a731c4d33c696d3a1f50b631&#45;&gt;dir_e95efa631723cde707baa0220c731e18 -->
<g id="edge1" class="edge"><title>dir_977df447a731c4d33c696d3a1f50b631&#45;&gt;dir_e95efa631723cde707baa0220c731e18</title>
<path fill="none" stroke="black" d="M96.2829,-219.439C99.1931,-218.197 102.136,-217.023 105,-216 167.125,-193.809 208.401,-231.998 249,-180 263.223,-161.784 260.338,-148.139 249,-128 243.612,-118.43 234.639,-111.051 225.211,-105.493"/>
<polygon fill="black" stroke="black" points="226.612,-102.276 216.134,-100.71 223.349,-108.468 226.612,-102.276"/>
<g id="a_edge1&#45;headlabel"><a xlink:href="dir_000012_000014.html" target="_top" xlink:title="1">
<text text-anchor="middle" x="231.116" y="-98.9394" font-family="Helvetica,sans-Serif" font-size="10.00">1</text>
</a>
</g>
</g>
<!-- dir_a04ada2230b4cd8e8e6f82e38c1dc3a4&#45;&gt;dir_0e6cddcc9caa1238c7f3774224afaa45 -->
<g id="edge9" class="edge"><title>dir_a04ada2230b4cd8e8e6f82e38c1dc3a4&#45;&gt;dir_0e6cddcc9caa1238c7f3774224afaa45</title>
<path fill="none" stroke="black" d="M135.377,-143.871C140.171,-119.564 148.993,-74.8187 154.673,-46.0132"/>
<polygon fill="black" stroke="black" points="158.11,-46.6775 156.611,-36.1893 151.242,-45.3232 158.11,-46.6775"/>
<g id="a_edge9&#45;headlabel"><a xlink:href="dir_000013_000002.html" target="_top" xlink:title="8">
<text text-anchor="middle" x="160.2" y="-48.2534" font-family="Helvetica,sans-Serif" font-size="10.00">8</text>
</a>
</g>
</g>
<!-- dir_a04ada2230b4cd8e8e6f82e38c1dc3a4&#45;&gt;dir_e95efa631723cde707baa0220c731e18 -->
<g id="edge10" class="edge"><title>dir_a04ada2230b4cd8e8e6f82e38c1dc3a4&#45;&gt;dir_e95efa631723cde707baa0220c731e18</title>
<path fill="none" stroke="black" d="M145.843,-143.697C152.489,-135.389 160.578,-125.277 167.887,-116.141"/>
<polygon fill="black" stroke="black" points="170.803,-118.099 174.317,-108.104 165.336,-113.727 170.803,-118.099"/>
<g id="a_edge10&#45;headlabel"><a xlink:href="dir_000013_000014.html" target="_top" xlink:title="6">
<text text-anchor="middle" x="170.774" y="-120.18" font-family="Helvetica,sans-Serif" font-size="10.00">6</text>
</a>
</g>
</g>
<!-- dir_e95efa631723cde707baa0220c731e18&#45;&gt;dir_0e6cddcc9caa1238c7f3774224afaa45 -->
<g id="edge4" class="edge"><title>dir_e95efa631723cde707baa0220c731e18&#45;&gt;dir_0e6cddcc9caa1238c7f3774224afaa45</title>
<path fill="none" stroke="black" d="M181.079,-71.6966C177.925,-63.8132 174.122,-54.3042 170.619,-45.5464"/>
<polygon fill="black" stroke="black" points="173.805,-44.0892 166.842,-36.1043 167.306,-46.689 173.805,-44.0892"/>
<g id="a_edge4&#45;headlabel"><a xlink:href="dir_000014_000002.html" target="_top" xlink:title="9">
<text text-anchor="middle" x="177.777" y="-43.8723" font-family="Helvetica,sans-Serif" font-size="10.00">9</text>
</a>
</g>
</g>
</g>
</svg>
