<?xml version="1.0" encoding="UTF-8" standalone="no"?>
<!DOCTYPE svg PUBLIC "-//W3C//DTD SVG 1.1//EN"
 "http://www.w3.org/Graphics/SVG/1.1/DTD/svg11.dtd">
<!-- Generated by graphviz version 2.38.0 (20140413.2041)
 -->
<!-- Title: Source/Runtime/Core/Public/Templates Pages: 1 -->
<svg width="102pt" height="151pt"
 viewBox="0.00 0.00 102.00 151.00" xmlns="http://www.w3.org/2000/svg" xmlns:xlink="http://www.w3.org/1999/xlink">
<g id="graph0" class="graph" transform="scale(1 1) rotate(0) translate(4 147)">
<title>Source/Runtime/Core/Public/Templates</title>
<polygon fill="white" stroke="none" points="-4,4 -4,-147 98,-147 98,4 -4,4"/>
<g id="clust1" class="cluster"><title>clusterdir_ba49309ee78fabe0452662bc1a7ef37d</title>
<g id="a_clust1"><a xlink:href="dir_ba49309ee78fabe0452662bc1a7ef37d.html" target="_top" xlink:title="Public">
<polygon fill="#ddddee" stroke="black" points="8,-64 8,-135 86,-135 86,-64 8,-64"/>
<text text-anchor="middle" x="47" y="-123" font-family="Helvetica,sans-Serif" font-size="10.00">Public</text>
</a>
</g>
</g>
<!-- dir_d923b29e5793e4ca6ecf89bd6d2fe94d -->
<g id="node1" class="node"><title>dir_d923b29e5793e4ca6ecf89bd6d2fe94d</title>
<g id="a_node1"><a xlink:href="dir_d923b29e5793e4ca6ecf89bd6d2fe94d.html" target="_top" xlink:title="Templates">
<polygon fill="#eeeeff" stroke="black" points="78,-108 16,-108 16,-72 78,-72 78,-108"/>
<text text-anchor="middle" x="47" y="-87.5" font-family="Helvetica,sans-Serif" font-size="10.00">Templates</text>
</a>
</g>
</g>
<!-- dir_fd2244d5b8a70de183e6299f6cb7004e -->
<g id="node2" class="node"><title>dir_fd2244d5b8a70de183e6299f6cb7004e</title>
<g id="a_node2"><a xlink:href="dir_fd2244d5b8a70de183e6299f6cb7004e.html" target="_top" xlink:title="ThirdParty">
<polygon fill="white" stroke="red" points="77.5,-36 16.5,-36 16.5,-0 77.5,-0 77.5,-36"/>
<text text-anchor="middle" x="47" y="-15.5" font-family="Helvetica,sans-Serif" font-size="10.00">ThirdParty</text>
</a>
</g>
</g>
<!-- dir_d923b29e5793e4ca6ecf89bd6d2fe94d&#45;&gt;dir_fd2244d5b8a70de183e6299f6cb7004e -->
<g id="edge1" class="edge"><title>dir_d923b29e5793e4ca6ecf89bd6d2fe94d&#45;&gt;dir_fd2244d5b8a70de183e6299f6cb7004e</title>
<path fill="none" stroke="black" d="M47,-71.6966C47,-63.9827 47,-54.7125 47,-46.1124"/>
<polygon fill="black" stroke="black" points="50.5001,-46.1043 47,-36.1043 43.5001,-46.1044 50.5001,-46.1043"/>
<g id="a_edge1&#45;headlabel"><a xlink:href="dir_000005_000016.html" target="_top" xlink:title="1">
<text text-anchor="middle" x="53.3393" y="-47.199" font-family="Helvetica,sans-Serif" font-size="10.00">1</text>
</a>
</g>
</g>
</g>
</svg>
