<?xml version="1.0" encoding="UTF-8" standalone="no"?>
<!DOCTYPE svg PUBLIC "-//W3C//DTD SVG 1.1//EN"
 "http://www.w3.org/Graphics/SVG/1.1/DTD/svg11.dtd">
<!-- Generated by graphviz version 2.38.0 (20140413.2041)
 -->
<!-- Title: Source/Runtime/Renderer/Public Pages: 1 -->
<svg width="116pt" height="231pt"
 viewBox="0.00 0.00 116.00 231.00" xmlns="http://www.w3.org/2000/svg" xmlns:xlink="http://www.w3.org/1999/xlink">
<g id="graph0" class="graph" transform="scale(1 1) rotate(0) translate(4 227)">
<title>Source/Runtime/Renderer/Public</title>
<polygon fill="white" stroke="none" points="-4,4 -4,-227 112,-227 112,4 -4,4"/>
<g id="clust1" class="cluster"><title>clusterdir_e95efa631723cde707baa0220c731e18</title>
<g id="a_clust1"><a xlink:href="dir_e95efa631723cde707baa0220c731e18.html" target="_top" xlink:title="Renderer">
<polygon fill="#ddddee" stroke="black" points="8,-56 8,-215 100,-215 100,-56 8,-56"/>
<text text-anchor="middle" x="54" y="-203" font-family="Helvetica,sans-Serif" font-size="10.00">Renderer</text>
</a>
</g>
</g>
<g id="clust2" class="cluster"><title>clusterdir_66d0fce27eec5ed1ad883580e48797e0</title>
<g id="a_clust2"><a xlink:href="dir_66d0fce27eec5ed1ad883580e48797e0.html" target="_top">
<polygon fill="#eeeeff" stroke="black" points="16,-64 16,-188 92,-188 92,-64 16,-64"/>
</a>
</g>
</g>
<!-- dir_66d0fce27eec5ed1ad883580e48797e0 -->
<g id="node1" class="node"><title>dir_66d0fce27eec5ed1ad883580e48797e0</title>
<text text-anchor="middle" x="54" y="-159.5" font-family="Helvetica,sans-Serif" font-size="10.00">Public</text>
</g>
<!-- dir_25adc572c9dd00dc10864ac016f72ce3 -->
<g id="node2" class="node"><title>dir_25adc572c9dd00dc10864ac016f72ce3</title>
<g id="a_node2"><a xlink:href="dir_25adc572c9dd00dc10864ac016f72ce3.html" target="_top" xlink:title="Interfaces">
<polygon fill="white" stroke="black" points="83.5,-108 24.5,-108 24.5,-72 83.5,-72 83.5,-108"/>
<text text-anchor="middle" x="54" y="-87.5" font-family="Helvetica,sans-Serif" font-size="10.00">Interfaces</text>
</a>
</g>
</g>
<!-- dir_66d0fce27eec5ed1ad883580e48797e0&#45;&gt;dir_25adc572c9dd00dc10864ac016f72ce3 -->
<g id="edge2" class="edge"><title>dir_66d0fce27eec5ed1ad883580e48797e0&#45;&gt;dir_25adc572c9dd00dc10864ac016f72ce3</title>
<path fill="none" stroke="black" d="M54,-143.697C54,-135.983 54,-126.712 54,-118.112"/>
<polygon fill="black" stroke="black" points="57.5001,-118.104 54,-108.104 50.5001,-118.104 57.5001,-118.104"/>
<g id="a_edge2&#45;headlabel"><a xlink:href="dir_000014_000015.html" target="_top" xlink:title="1">
<text text-anchor="middle" x="60.3393" y="-119.199" font-family="Helvetica,sans-Serif" font-size="10.00">1</text>
</a>
</g>
</g>
<!-- dir_0e6cddcc9caa1238c7f3774224afaa45 -->
<g id="node3" class="node"><title>dir_0e6cddcc9caa1238c7f3774224afaa45</title>
<g id="a_node3"><a xlink:href="dir_0e6cddcc9caa1238c7f3774224afaa45.html" target="_top" xlink:title="Core">
<polygon fill="white" stroke="red" points="81,-36 27,-36 27,-0 81,-0 81,-36"/>
<text text-anchor="middle" x="54" y="-15.5" font-family="Helvetica,sans-Serif" font-size="10.00">Core</text>
</a>
</g>
</g>
<!-- dir_25adc572c9dd00dc10864ac016f72ce3&#45;&gt;dir_0e6cddcc9caa1238c7f3774224afaa45 -->
<g id="edge1" class="edge"><title>dir_25adc572c9dd00dc10864ac016f72ce3&#45;&gt;dir_0e6cddcc9caa1238c7f3774224afaa45</title>
<path fill="none" stroke="black" d="M54,-71.6966C54,-63.9827 54,-54.7125 54,-46.1124"/>
<polygon fill="black" stroke="black" points="57.5001,-46.1043 54,-36.1043 50.5001,-46.1044 57.5001,-46.1043"/>
<g id="a_edge1&#45;headlabel"><a xlink:href="dir_000015_000002.html" target="_top" xlink:title="2">
<text text-anchor="middle" x="60.3393" y="-47.199" font-family="Helvetica,sans-Serif" font-size="10.00">2</text>
</a>
</g>
</g>
</g>
</svg>
