<?xml version="1.0" encoding="UTF-8" standalone="no"?>
<!DOCTYPE svg PUBLIC "-//W3C//DTD SVG 1.1//EN"
 "http://www.w3.org/Graphics/SVG/1.1/DTD/svg11.dtd">
<!-- Generated by graphviz version 2.38.0 (20140413.2041)
 -->
<!-- Title: Source Pages: 1 -->
<svg width="166pt" height="148pt"
 viewBox="0.00 0.00 166.00 148.00" xmlns="http://www.w3.org/2000/svg" xmlns:xlink="http://www.w3.org/1999/xlink">
<g id="graph0" class="graph" transform="scale(1 1) rotate(0) translate(4 144)">
<title>Source</title>
<polygon fill="white" stroke="none" points="-4,4 -4,-144 162,-144 162,4 -4,4"/>
<g id="clust1" class="cluster"><title>clusterdir_74389ed8173ad57b461b9d623a1f3867</title>
<g id="a_clust1"><a xlink:href="dir_74389ed8173ad57b461b9d623a1f3867.html" target="_top">
<polygon fill="#eeeeff" stroke="black" points="8,-8 8,-132 150,-132 150,-8 8,-8"/>
</a>
</g>
</g>
<!-- dir_74389ed8173ad57b461b9d623a1f3867 -->
<g id="node1" class="node"><title>dir_74389ed8173ad57b461b9d623a1f3867</title>
<text text-anchor="middle" x="115" y="-103.5" font-family="Helvetica,sans-Serif" font-size="10.00">Source</text>
</g>
<!-- dir_7536b172fbd480bfd146a1b1acd6856b -->
<g id="node2" class="node"><title>dir_7536b172fbd480bfd146a1b1acd6856b</title>
<g id="a_node2"><a xlink:href="dir_7536b172fbd480bfd146a1b1acd6856b.html" target="_top" xlink:title="Runtime">
<polygon fill="white" stroke="red" points="70,-124 16,-124 16,-88 70,-88 70,-124"/>
<text text-anchor="middle" x="43" y="-103.5" font-family="Helvetica,sans-Serif" font-size="10.00">Runtime</text>
</a>
</g>
</g>
<!-- dir_fd2244d5b8a70de183e6299f6cb7004e -->
<g id="node3" class="node"><title>dir_fd2244d5b8a70de183e6299f6cb7004e</title>
<g id="a_node3"><a xlink:href="dir_fd2244d5b8a70de183e6299f6cb7004e.html" target="_top" xlink:title="ThirdParty">
<polygon fill="white" stroke="red" points="77.5,-52 16.5,-52 16.5,-16 77.5,-16 77.5,-52"/>
<text text-anchor="middle" x="47" y="-31.5" font-family="Helvetica,sans-Serif" font-size="10.00">ThirdParty</text>
</a>
</g>
</g>
<!-- dir_7536b172fbd480bfd146a1b1acd6856b&#45;&gt;dir_fd2244d5b8a70de183e6299f6cb7004e -->
<g id="edge1" class="edge"><title>dir_7536b172fbd480bfd146a1b1acd6856b&#45;&gt;dir_fd2244d5b8a70de183e6299f6cb7004e</title>
<path fill="none" stroke="black" d="M43.9888,-87.6966C44.4296,-79.9827 44.9593,-70.7125 45.4507,-62.1124"/>
<polygon fill="black" stroke="black" points="48.9463,-62.2878 46.0226,-52.1043 41.9577,-61.8883 48.9463,-62.2878"/>
<g id="a_edge1&#45;headlabel"><a xlink:href="dir_000001_000016.html" target="_top" xlink:title="2">
<text text-anchor="middle" x="51.576" y="-63.5385" font-family="Helvetica,sans-Serif" font-size="10.00">2</text>
</a>
</g>
</g>
</g>
</svg>
