<?xml version="1.0" encoding="UTF-8" standalone="no"?>
<!DOCTYPE svg PUBLIC "-//W3C//DTD SVG 1.1//EN"
 "http://www.w3.org/Graphics/SVG/1.1/DTD/svg11.dtd">
<!-- Generated by graphviz version 2.38.0 (20140413.2041)
 -->
<!-- Title: Source/Runtime/Engine/Public/Camera Pages: 1 -->
<svg width="168pt" height="223pt"
 viewBox="0.00 0.00 167.50 223.00" xmlns="http://www.w3.org/2000/svg" xmlns:xlink="http://www.w3.org/1999/xlink">
<g id="graph0" class="graph" transform="scale(1 1) rotate(0) translate(4 219)">
<title>Source/Runtime/Engine/Public/Camera</title>
<polygon fill="white" stroke="none" points="-4,4 -4,-219 163.5,-219 163.5,4 -4,4"/>
<g id="clust1" class="cluster"><title>clusterdir_1d06a51bfc871a6a1823440d0d72725c</title>
<g id="a_clust1"><a xlink:href="dir_1d06a51bfc871a6a1823440d0d72725c.html" target="_top" xlink:title="Public">
<polygon fill="#ddddee" stroke="black" points="8,-136 8,-207 78,-207 78,-136 8,-136"/>
<text text-anchor="middle" x="43" y="-195" font-family="Helvetica,sans-Serif" font-size="10.00">Public</text>
</a>
</g>
</g>
<!-- dir_977df447a731c4d33c696d3a1f50b631 -->
<g id="node1" class="node"><title>dir_977df447a731c4d33c696d3a1f50b631</title>
<g id="a_node1"><a xlink:href="dir_977df447a731c4d33c696d3a1f50b631.html" target="_top" xlink:title="Camera">
<polygon fill="#eeeeff" stroke="black" points="70,-180 16,-180 16,-144 70,-144 70,-180"/>
<text text-anchor="middle" x="43" y="-159.5" font-family="Helvetica,sans-Serif" font-size="10.00">Camera</text>
</a>
</g>
</g>
<!-- dir_e95efa631723cde707baa0220c731e18 -->
<g id="node2" class="node"><title>dir_e95efa631723cde707baa0220c731e18</title>
<g id="a_node2"><a xlink:href="dir_e95efa631723cde707baa0220c731e18.html" target="_top" xlink:title="Renderer">
<polygon fill="white" stroke="red" points="71,-36 15,-36 15,-0 71,-0 71,-36"/>
<text text-anchor="middle" x="43" y="-15.5" font-family="Helvetica,sans-Serif" font-size="10.00">Renderer</text>
</a>
</g>
</g>
<!-- dir_977df447a731c4d33c696d3a1f50b631&#45;&gt;dir_e95efa631723cde707baa0220c731e18 -->
<g id="edge1" class="edge"><title>dir_977df447a731c4d33c696d3a1f50b631&#45;&gt;dir_e95efa631723cde707baa0220c731e18</title>
<path fill="none" stroke="black" d="M27.3901,-143.774C19.6271,-134.03 11.0541,-121.184 7,-108 2.29721,-92.7067 2.29721,-87.2933 7,-72 10.0089,-62.2153 15.507,-52.6161 21.3157,-44.3336"/>
<polygon fill="black" stroke="black" points="24.1948,-46.3279 27.3901,-36.2264 18.5928,-42.1306 24.1948,-46.3279"/>
<g id="a_edge1&#45;headlabel"><a xlink:href="dir_000010_000012.html" target="_top" xlink:title="1">
<text text-anchor="middle" x="24.3117" y="-48.4071" font-family="Helvetica,sans-Serif" font-size="10.00">1</text>
</a>
</g>
</g>
<!-- dir_66475898a0df7aa270259e5286653f27 -->
<g id="node3" class="node"><title>dir_66475898a0df7aa270259e5286653f27</title>
<g id="a_node3"><a xlink:href="dir_66475898a0df7aa270259e5286653f27.html" target="_top" xlink:title="Actors">
<polygon fill="none" stroke="black" points="70,-108 16,-108 16,-72 70,-72 70,-108"/>
<text text-anchor="middle" x="43" y="-87.5" font-family="Helvetica,sans-Serif" font-size="10.00">Actors</text>
</a>
</g>
</g>
<!-- dir_977df447a731c4d33c696d3a1f50b631&#45;&gt;dir_66475898a0df7aa270259e5286653f27 -->
<g id="edge2" class="edge"><title>dir_977df447a731c4d33c696d3a1f50b631&#45;&gt;dir_66475898a0df7aa270259e5286653f27</title>
<path fill="none" stroke="black" d="M43,-143.697C43,-135.983 43,-126.712 43,-118.112"/>
<polygon fill="black" stroke="black" points="46.5001,-118.104 43,-108.104 39.5001,-118.104 46.5001,-118.104"/>
<g id="a_edge2&#45;headlabel"><a xlink:href="dir_000010_000008.html" target="_top" xlink:title="1">
<text text-anchor="middle" x="49.3393" y="-119.199" font-family="Helvetica,sans-Serif" font-size="10.00">1</text>
</a>
</g>
</g>
<!-- dir_a04ada2230b4cd8e8e6f82e38c1dc3a4 -->
<g id="node4" class="node"><title>dir_a04ada2230b4cd8e8e6f82e38c1dc3a4</title>
<g id="a_node4"><a xlink:href="dir_a04ada2230b4cd8e8e6f82e38c1dc3a4.html" target="_top" xlink:title="Components">
<polygon fill="none" stroke="black" points="159.5,-108 88.5,-108 88.5,-72 159.5,-72 159.5,-108"/>
<text text-anchor="middle" x="124" y="-87.5" font-family="Helvetica,sans-Serif" font-size="10.00">Components</text>
</a>
</g>
</g>
<!-- dir_977df447a731c4d33c696d3a1f50b631&#45;&gt;dir_a04ada2230b4cd8e8e6f82e38c1dc3a4 -->
<g id="edge3" class="edge"><title>dir_977df447a731c4d33c696d3a1f50b631&#45;&gt;dir_a04ada2230b4cd8e8e6f82e38c1dc3a4</title>
<path fill="none" stroke="black" d="M63.0225,-143.697C73.1256,-134.965 85.536,-124.24 96.5175,-114.75"/>
<polygon fill="black" stroke="black" points="98.9302,-117.291 104.208,-108.104 94.3532,-111.995 98.9302,-117.291"/>
<g id="a_edge3&#45;headlabel"><a xlink:href="dir_000010_000011.html" target="_top" xlink:title="1">
<text text-anchor="middle" x="98.067" y="-119.29" font-family="Helvetica,sans-Serif" font-size="10.00">1</text>
</a>
</g>
</g>
<!-- dir_66475898a0df7aa270259e5286653f27&#45;&gt;dir_e95efa631723cde707baa0220c731e18 -->
<g id="edge4" class="edge"><title>dir_66475898a0df7aa270259e5286653f27&#45;&gt;dir_e95efa631723cde707baa0220c731e18</title>
<path fill="none" stroke="black" d="M43,-71.6966C43,-63.9827 43,-54.7125 43,-46.1124"/>
<polygon fill="black" stroke="black" points="46.5001,-46.1043 43,-36.1043 39.5001,-46.1044 46.5001,-46.1043"/>
<g id="a_edge4&#45;headlabel"><a xlink:href="dir_000008_000012.html" target="_top" xlink:title="1">
<text text-anchor="middle" x="49.3393" y="-47.199" font-family="Helvetica,sans-Serif" font-size="10.00">1</text>
</a>
</g>
</g>
<!-- dir_a04ada2230b4cd8e8e6f82e38c1dc3a4&#45;&gt;dir_e95efa631723cde707baa0220c731e18 -->
<g id="edge5" class="edge"><title>dir_a04ada2230b4cd8e8e6f82e38c1dc3a4&#45;&gt;dir_e95efa631723cde707baa0220c731e18</title>
<path fill="none" stroke="black" d="M103.978,-71.6966C93.8744,-62.9655 81.464,-52.2405 70.4825,-42.7503"/>
<polygon fill="black" stroke="black" points="72.6468,-39.9948 62.7922,-36.1043 68.0698,-45.2912 72.6468,-39.9948"/>
<g id="a_edge5&#45;headlabel"><a xlink:href="dir_000011_000012.html" target="_top" xlink:title="7">
<text text-anchor="middle" x="77.223" y="-37.697" font-family="Helvetica,sans-Serif" font-size="10.00">7</text>
</a>
</g>
</g>
</g>
</svg>
