<?xml version="1.0" encoding="UTF-8" standalone="no"?>
<!DOCTYPE svg PUBLIC "-//W3C//DTD SVG 1.1//EN"
 "http://www.w3.org/Graphics/SVG/1.1/DTD/svg11.dtd">
<!-- Generated by graphviz version 2.38.0 (20140413.2041)
 -->
<!-- Title: Source/Runtime/Core/Public Pages: 1 -->
<svg width="188pt" height="231pt"
 viewBox="0.00 0.00 188.00 231.00" xmlns="http://www.w3.org/2000/svg" xmlns:xlink="http://www.w3.org/1999/xlink">
<g id="graph0" class="graph" transform="scale(1 1) rotate(0) translate(4 227)">
<title>Source/Runtime/Core/Public</title>
<polygon fill="white" stroke="none" points="-4,4 -4,-227 184,-227 184,4 -4,4"/>
<g id="clust1" class="cluster"><title>clusterdir_0e6cddcc9caa1238c7f3774224afaa45</title>
<g id="a_clust1"><a xlink:href="dir_0e6cddcc9caa1238c7f3774224afaa45.html" target="_top" xlink:title="Core">
<polygon fill="#ddddee" stroke="black" points="8,-56 8,-215 172,-215 172,-56 8,-56"/>
<text text-anchor="middle" x="90" y="-203" font-family="Helvetica,sans-Serif" font-size="10.00">Core</text>
</a>
</g>
</g>
<g id="clust2" class="cluster"><title>clusterdir_ba49309ee78fabe0452662bc1a7ef37d</title>
<g id="a_clust2"><a xlink:href="dir_ba49309ee78fabe0452662bc1a7ef37d.html" target="_top">
<polygon fill="#eeeeff" stroke="black" points="16,-64 16,-188 164,-188 164,-64 16,-64"/>
</a>
</g>
</g>
<!-- dir_ba49309ee78fabe0452662bc1a7ef37d -->
<g id="node1" class="node"><title>dir_ba49309ee78fabe0452662bc1a7ef37d</title>
<text text-anchor="middle" x="129" y="-159.5" font-family="Helvetica,sans-Serif" font-size="10.00">Public</text>
</g>
<!-- dir_d923b29e5793e4ca6ecf89bd6d2fe94d -->
<g id="node3" class="node"><title>dir_d923b29e5793e4ca6ecf89bd6d2fe94d</title>
<g id="a_node3"><a xlink:href="dir_d923b29e5793e4ca6ecf89bd6d2fe94d.html" target="_top" xlink:title="Templates">
<polygon fill="white" stroke="black" points="128,-108 66,-108 66,-72 128,-72 128,-108"/>
<text text-anchor="middle" x="97" y="-87.5" font-family="Helvetica,sans-Serif" font-size="10.00">Templates</text>
</a>
</g>
</g>
<!-- dir_ba49309ee78fabe0452662bc1a7ef37d&#45;&gt;dir_d923b29e5793e4ca6ecf89bd6d2fe94d -->
<g id="edge2" class="edge"><title>dir_ba49309ee78fabe0452662bc1a7ef37d&#45;&gt;dir_d923b29e5793e4ca6ecf89bd6d2fe94d</title>
<path fill="none" stroke="black" d="M121.09,-143.697C117.447,-135.728 113.046,-126.1 109.006,-117.264"/>
<polygon fill="black" stroke="black" points="112.16,-115.744 104.819,-108.104 105.794,-118.654 112.16,-115.744"/>
<g id="a_edge2&#45;headlabel"><a xlink:href="dir_000003_000005.html" target="_top" xlink:title="6">
<text text-anchor="middle" x="116.237" y="-115.333" font-family="Helvetica,sans-Serif" font-size="10.00">6</text>
</a>
</g>
</g>
<!-- dir_fd2244d5b8a70de183e6299f6cb7004e -->
<g id="node4" class="node"><title>dir_fd2244d5b8a70de183e6299f6cb7004e</title>
<g id="a_node4"><a xlink:href="dir_fd2244d5b8a70de183e6299f6cb7004e.html" target="_top" xlink:title="ThirdParty">
<polygon fill="white" stroke="red" points="156.5,-36 95.5,-36 95.5,-0 156.5,-0 156.5,-36"/>
<text text-anchor="middle" x="126" y="-15.5" font-family="Helvetica,sans-Serif" font-size="10.00">ThirdParty</text>
</a>
</g>
</g>
<!-- dir_ba49309ee78fabe0452662bc1a7ef37d&#45;&gt;dir_fd2244d5b8a70de183e6299f6cb7004e -->
<g id="edge1" class="edge"><title>dir_ba49309ee78fabe0452662bc1a7ef37d&#45;&gt;dir_fd2244d5b8a70de183e6299f6cb7004e</title>
<path fill="none" stroke="black" d="M132.617,-143.825C136.479,-122.967 141.475,-86.7555 137,-56 136.518,-52.6842 135.804,-49.2522 134.968,-45.8758"/>
<polygon fill="black" stroke="black" points="138.289,-44.7569 132.201,-36.0857 131.553,-46.6607 138.289,-44.7569"/>
<g id="a_edge1&#45;headlabel"><a xlink:href="dir_000003_000016.html" target="_top" xlink:title="4">
<text text-anchor="middle" x="141.999" y="-44.9438" font-family="Helvetica,sans-Serif" font-size="10.00">4</text>
</a>
</g>
</g>
<!-- dir_12a79e13ed7a47b8dd476c938bba7bf2 -->
<g id="node2" class="node"><title>dir_12a79e13ed7a47b8dd476c938bba7bf2</title>
<g id="a_node2"><a xlink:href="dir_12a79e13ed7a47b8dd476c938bba7bf2.html" target="_top" xlink:title="Interfaces">
<polygon fill="white" stroke="black" points="83.5,-180 24.5,-180 24.5,-144 83.5,-144 83.5,-180"/>
<text text-anchor="middle" x="54" y="-159.5" font-family="Helvetica,sans-Serif" font-size="10.00">Interfaces</text>
</a>
</g>
</g>
<!-- dir_d923b29e5793e4ca6ecf89bd6d2fe94d&#45;&gt;dir_fd2244d5b8a70de183e6299f6cb7004e -->
<g id="edge3" class="edge"><title>dir_d923b29e5793e4ca6ecf89bd6d2fe94d&#45;&gt;dir_fd2244d5b8a70de183e6299f6cb7004e</title>
<path fill="none" stroke="black" d="M104.169,-71.6966C107.435,-63.8132 111.374,-54.3042 115.002,-45.5464"/>
<polygon fill="black" stroke="black" points="118.32,-46.6825 118.914,-36.1043 111.853,-44.0033 118.32,-46.6825"/>
<g id="a_edge3&#45;headlabel"><a xlink:href="dir_000005_000016.html" target="_top" xlink:title="1">
<text text-anchor="middle" x="119.567" y="-48.5901" font-family="Helvetica,sans-Serif" font-size="10.00">1</text>
</a>
</g>
</g>
</g>
</svg>
