<?xml version="1.0" encoding="UTF-8" standalone="no"?>
<!DOCTYPE svg PUBLIC "-//W3C//DTD SVG 1.1//EN"
 "http://www.w3.org/Graphics/SVG/1.1/DTD/svg11.dtd">
<!-- Generated by graphviz version 2.38.0 (20140413.2041)
 -->
<!-- Title: Source/Renderer/Public Pages: 1 -->
<svg width="116pt" height="231pt"
 viewBox="0.00 0.00 116.00 231.00" xmlns="http://www.w3.org/2000/svg" xmlns:xlink="http://www.w3.org/1999/xlink">
<g id="graph0" class="graph" transform="scale(1 1) rotate(0) translate(4 227)">
<title>Source/Renderer/Public</title>
<polygon fill="white" stroke="none" points="-4,4 -4,-227 112,-227 112,4 -4,4"/>
<g id="clust1" class="cluster"><title>clusterdir_4efb1cddb47a1770ad011373796c1afc</title>
<g id="a_clust1"><a xlink:href="dir_4efb1cddb47a1770ad011373796c1afc.html" target="_top" xlink:title="Renderer">
<polygon fill="#ddddee" stroke="black" points="8,-56 8,-215 100,-215 100,-56 8,-56"/>
<text text-anchor="middle" x="54" y="-203" font-family="Helvetica,sans-Serif" font-size="10.00">Renderer</text>
</a>
</g>
</g>
<g id="clust2" class="cluster"><title>clusterdir_6236b8d6339d35bbb2b0515cb7701223</title>
<g id="a_clust2"><a xlink:href="dir_6236b8d6339d35bbb2b0515cb7701223.html" target="_top">
<polygon fill="#eeeeff" stroke="black" points="16,-64 16,-188 92,-188 92,-64 16,-64"/>
</a>
</g>
</g>
<!-- dir_6236b8d6339d35bbb2b0515cb7701223 -->
<g id="node1" class="node"><title>dir_6236b8d6339d35bbb2b0515cb7701223</title>
<text text-anchor="middle" x="54" y="-159.5" font-family="Helvetica,sans-Serif" font-size="10.00">Public</text>
</g>
<!-- dir_fc78c9c18aba2f6d2789525c6f7f1d8e -->
<g id="node2" class="node"><title>dir_fc78c9c18aba2f6d2789525c6f7f1d8e</title>
<g id="a_node2"><a xlink:href="dir_fc78c9c18aba2f6d2789525c6f7f1d8e.html" target="_top" xlink:title="Interfaces">
<polygon fill="white" stroke="black" points="83.5,-108 24.5,-108 24.5,-72 83.5,-72 83.5,-108"/>
<text text-anchor="middle" x="54" y="-87.5" font-family="Helvetica,sans-Serif" font-size="10.00">Interfaces</text>
</a>
</g>
</g>
<!-- dir_6236b8d6339d35bbb2b0515cb7701223&#45;&gt;dir_fc78c9c18aba2f6d2789525c6f7f1d8e -->
<g id="edge2" class="edge"><title>dir_6236b8d6339d35bbb2b0515cb7701223&#45;&gt;dir_fc78c9c18aba2f6d2789525c6f7f1d8e</title>
<path fill="none" stroke="black" d="M54,-143.697C54,-135.983 54,-126.712 54,-118.112"/>
<polygon fill="black" stroke="black" points="57.5001,-118.104 54,-108.104 50.5001,-118.104 57.5001,-118.104"/>
<g id="a_edge2&#45;headlabel"><a xlink:href="dir_000012_000013.html" target="_top" xlink:title="1">
<text text-anchor="middle" x="60.3393" y="-119.199" font-family="Helvetica,sans-Serif" font-size="10.00">1</text>
</a>
</g>
</g>
<!-- dir_1ad6433457b0067ef8f54a4fa85f5c9a -->
<g id="node3" class="node"><title>dir_1ad6433457b0067ef8f54a4fa85f5c9a</title>
<g id="a_node3"><a xlink:href="dir_1ad6433457b0067ef8f54a4fa85f5c9a.html" target="_top" xlink:title="Core">
<polygon fill="white" stroke="red" points="81,-36 27,-36 27,-0 81,-0 81,-36"/>
<text text-anchor="middle" x="54" y="-15.5" font-family="Helvetica,sans-Serif" font-size="10.00">Core</text>
</a>
</g>
</g>
<!-- dir_fc78c9c18aba2f6d2789525c6f7f1d8e&#45;&gt;dir_1ad6433457b0067ef8f54a4fa85f5c9a -->
<g id="edge1" class="edge"><title>dir_fc78c9c18aba2f6d2789525c6f7f1d8e&#45;&gt;dir_1ad6433457b0067ef8f54a4fa85f5c9a</title>
<path fill="none" stroke="black" d="M54,-71.6966C54,-63.9827 54,-54.7125 54,-46.1124"/>
<polygon fill="black" stroke="black" points="57.5001,-46.1043 54,-36.1043 50.5001,-46.1044 57.5001,-46.1043"/>
<g id="a_edge1&#45;headlabel"><a xlink:href="dir_000013_000001.html" target="_top" xlink:title="2">
<text text-anchor="middle" x="60.3393" y="-47.199" font-family="Helvetica,sans-Serif" font-size="10.00">2</text>
</a>
</g>
</g>
</g>
</svg>
