<?xml version="1.0" encoding="UTF-8" standalone="no"?>
<!DOCTYPE svg PUBLIC "-//W3C//DTD SVG 1.1//EN"
 "http://www.w3.org/Graphics/SVG/1.1/DTD/svg11.dtd">
<!-- Generated by graphviz version 2.38.0 (20140413.2041)
 -->
<!-- Title: Source/Runtime/Core/Public Pages: 1 -->
<svg width="118pt" height="183pt"
 viewBox="0.00 0.00 118.00 183.00" xmlns="http://www.w3.org/2000/svg" xmlns:xlink="http://www.w3.org/1999/xlink">
<g id="graph0" class="graph" transform="scale(1 1) rotate(0) translate(4 179)">
<title>Source/Runtime/Core/Public</title>
<polygon fill="white" stroke="none" points="-4,4 -4,-179 114,-179 114,4 -4,4"/>
<g id="clust1" class="cluster"><title>clusterdir_0e6cddcc9caa1238c7f3774224afaa45</title>
<g id="a_clust1"><a xlink:href="dir_0e6cddcc9caa1238c7f3774224afaa45.html" target="_top" xlink:title="Core">
<polygon fill="#ddddee" stroke="black" points="8,-8 8,-167 102,-167 102,-8 8,-8"/>
<text text-anchor="middle" x="55" y="-155" font-family="Helvetica,sans-Serif" font-size="10.00">Core</text>
</a>
</g>
</g>
<g id="clust2" class="cluster"><title>clusterdir_ba49309ee78fabe0452662bc1a7ef37d</title>
<g id="a_clust2"><a xlink:href="dir_ba49309ee78fabe0452662bc1a7ef37d.html" target="_top">
<polygon fill="#eeeeff" stroke="black" points="16,-16 16,-140 94,-140 94,-16 16,-16"/>
</a>
</g>
</g>
<!-- dir_ba49309ee78fabe0452662bc1a7ef37d -->
<g id="node1" class="node"><title>dir_ba49309ee78fabe0452662bc1a7ef37d</title>
<text text-anchor="middle" x="55" y="-111.5" font-family="Helvetica,sans-Serif" font-size="10.00">Public</text>
</g>
<!-- dir_d923b29e5793e4ca6ecf89bd6d2fe94d -->
<g id="node2" class="node"><title>dir_d923b29e5793e4ca6ecf89bd6d2fe94d</title>
<g id="a_node2"><a xlink:href="dir_d923b29e5793e4ca6ecf89bd6d2fe94d.html" target="_top" xlink:title="Templates">
<polygon fill="white" stroke="black" points="86,-60 24,-60 24,-24 86,-24 86,-60"/>
<text text-anchor="middle" x="55" y="-39.5" font-family="Helvetica,sans-Serif" font-size="10.00">Templates</text>
</a>
</g>
</g>
<!-- dir_ba49309ee78fabe0452662bc1a7ef37d&#45;&gt;dir_d923b29e5793e4ca6ecf89bd6d2fe94d -->
<g id="edge1" class="edge"><title>dir_ba49309ee78fabe0452662bc1a7ef37d&#45;&gt;dir_d923b29e5793e4ca6ecf89bd6d2fe94d</title>
<path fill="none" stroke="black" d="M55,-95.6966C55,-87.9827 55,-78.7125 55,-70.1124"/>
<polygon fill="black" stroke="black" points="58.5001,-70.1043 55,-60.1043 51.5001,-70.1044 58.5001,-70.1043"/>
<g id="a_edge1&#45;headlabel"><a xlink:href="dir_000003_000004.html" target="_top" xlink:title="12">
<text text-anchor="middle" x="61.3393" y="-71.199" font-family="Helvetica,sans-Serif" font-size="10.00">12</text>
</a>
</g>
</g>
</g>
</svg>
