<?xml version="1.0" encoding="UTF-8" standalone="no"?>
<!DOCTYPE svg PUBLIC "-//W3C//DTD SVG 1.1//EN"
 "http://www.w3.org/Graphics/SVG/1.1/DTD/svg11.dtd">
<!-- Generated by graphviz version 2.38.0 (20140413.2041)
 -->
<!-- Title: Source/Runtime/Engine/Public/Components Pages: 1 -->
<svg width="116pt" height="223pt"
 viewBox="0.00 0.00 116.00 223.00" xmlns="http://www.w3.org/2000/svg" xmlns:xlink="http://www.w3.org/1999/xlink">
<g id="graph0" class="graph" transform="scale(1 1) rotate(0) translate(4 219)">
<title>Source/Runtime/Engine/Public/Components</title>
<polygon fill="white" stroke="none" points="-4,4 -4,-219 112,-219 112,4 -4,4"/>
<g id="clust1" class="cluster"><title>clusterdir_1d06a51bfc871a6a1823440d0d72725c</title>
<g id="a_clust1"><a xlink:href="dir_1d06a51bfc871a6a1823440d0d72725c.html" target="_top" xlink:title="Public">
<polygon fill="#ddddee" stroke="black" points="8,-136 8,-207 96,-207 96,-136 8,-136"/>
<text text-anchor="middle" x="52" y="-195" font-family="Helvetica,sans-Serif" font-size="10.00">Public</text>
</a>
</g>
</g>
<!-- dir_a04ada2230b4cd8e8e6f82e38c1dc3a4 -->
<g id="node1" class="node"><title>dir_a04ada2230b4cd8e8e6f82e38c1dc3a4</title>
<g id="a_node1"><a xlink:href="dir_a04ada2230b4cd8e8e6f82e38c1dc3a4.html" target="_top" xlink:title="Components">
<polygon fill="#eeeeff" stroke="black" points="87.5,-180 16.5,-180 16.5,-144 87.5,-144 87.5,-180"/>
<text text-anchor="middle" x="52" y="-159.5" font-family="Helvetica,sans-Serif" font-size="10.00">Components</text>
</a>
</g>
</g>
<!-- dir_0e6cddcc9caa1238c7f3774224afaa45 -->
<g id="node2" class="node"><title>dir_0e6cddcc9caa1238c7f3774224afaa45</title>
<g id="a_node2"><a xlink:href="dir_0e6cddcc9caa1238c7f3774224afaa45.html" target="_top" xlink:title="Core">
<polygon fill="white" stroke="red" points="79,-36 25,-36 25,-0 79,-0 79,-36"/>
<text text-anchor="middle" x="52" y="-15.5" font-family="Helvetica,sans-Serif" font-size="10.00">Core</text>
</a>
</g>
</g>
<!-- dir_a04ada2230b4cd8e8e6f82e38c1dc3a4&#45;&gt;dir_0e6cddcc9caa1238c7f3774224afaa45 -->
<g id="edge2" class="edge"><title>dir_a04ada2230b4cd8e8e6f82e38c1dc3a4&#45;&gt;dir_0e6cddcc9caa1238c7f3774224afaa45</title>
<path fill="none" stroke="black" d="M48.3462,-143.908C46.3242,-133.569 44.0192,-120.09 43,-108 41.6559,-92.0566 41.6559,-87.9434 43,-72 43.7166,-63.4991 45.0689,-54.3119 46.5116,-46.0122"/>
<polygon fill="black" stroke="black" points="49.9691,-46.5623 48.3462,-36.0925 43.0858,-45.2892 49.9691,-46.5623"/>
<g id="a_edge2&#45;headlabel"><a xlink:href="dir_000011_000002.html" target="_top" xlink:title="9">
<text text-anchor="middle" x="52.1074" y="-48.1133" font-family="Helvetica,sans-Serif" font-size="10.00">9</text>
</a>
</g>
</g>
<!-- dir_e95efa631723cde707baa0220c731e18 -->
<g id="node3" class="node"><title>dir_e95efa631723cde707baa0220c731e18</title>
<g id="a_node3"><a xlink:href="dir_e95efa631723cde707baa0220c731e18.html" target="_top" xlink:title="Renderer">
<polygon fill="white" stroke="red" points="108,-108 52,-108 52,-72 108,-72 108,-108"/>
<text text-anchor="middle" x="80" y="-87.5" font-family="Helvetica,sans-Serif" font-size="10.00">Renderer</text>
</a>
</g>
</g>
<!-- dir_a04ada2230b4cd8e8e6f82e38c1dc3a4&#45;&gt;dir_e95efa631723cde707baa0220c731e18 -->
<g id="edge3" class="edge"><title>dir_a04ada2230b4cd8e8e6f82e38c1dc3a4&#45;&gt;dir_e95efa631723cde707baa0220c731e18</title>
<path fill="none" stroke="black" d="M58.9214,-143.697C62.0747,-135.813 65.8783,-126.304 69.3814,-117.546"/>
<polygon fill="black" stroke="black" points="72.694,-118.689 73.1583,-108.104 66.1946,-116.089 72.694,-118.689"/>
<g id="a_edge3&#45;headlabel"><a xlink:href="dir_000011_000012.html" target="_top" xlink:title="7">
<text text-anchor="middle" x="73.9952" y="-120.581" font-family="Helvetica,sans-Serif" font-size="10.00">7</text>
</a>
</g>
</g>
<!-- dir_e95efa631723cde707baa0220c731e18&#45;&gt;dir_0e6cddcc9caa1238c7f3774224afaa45 -->
<g id="edge1" class="edge"><title>dir_e95efa631723cde707baa0220c731e18&#45;&gt;dir_0e6cddcc9caa1238c7f3774224afaa45</title>
<path fill="none" stroke="black" d="M73.0786,-71.6966C69.9253,-63.8132 66.1217,-54.3042 62.6186,-45.5464"/>
<polygon fill="black" stroke="black" points="65.8054,-44.0892 58.8417,-36.1043 59.306,-46.689 65.8054,-44.0892"/>
<g id="a_edge1&#45;headlabel"><a xlink:href="dir_000012_000002.html" target="_top" xlink:title="19">
<text text-anchor="middle" x="69.7765" y="-43.8723" font-family="Helvetica,sans-Serif" font-size="10.00">19</text>
</a>
</g>
</g>
</g>
</svg>
