<?xml version="1.0" encoding="UTF-8" standalone="no"?>
<!DOCTYPE svg PUBLIC "-//W3C//DTD SVG 1.1//EN"
 "http://www.w3.org/Graphics/SVG/1.1/DTD/svg11.dtd">
<!-- Generated by graphviz version 2.38.0 (20140413.2041)
 -->
<!-- Title: Source/Runtime/Renderer/Public Pages: 1 -->
<svg width="170pt" height="183pt"
 viewBox="0.00 0.00 170.00 183.00" xmlns="http://www.w3.org/2000/svg" xmlns:xlink="http://www.w3.org/1999/xlink">
<g id="graph0" class="graph" transform="scale(1 1) rotate(0) translate(4 179)">
<title>Source/Runtime/Renderer/Public</title>
<polygon fill="white" stroke="none" points="-4,4 -4,-179 166,-179 166,4 -4,4"/>
<g id="clust1" class="cluster"><title>clusterdir_e95efa631723cde707baa0220c731e18</title>
<g id="a_clust1"><a xlink:href="dir_e95efa631723cde707baa0220c731e18.html" target="_top" xlink:title="Renderer">
<polygon fill="#ddddee" stroke="black" points="8,-8 8,-167 100,-167 100,-8 8,-8"/>
<text text-anchor="middle" x="54" y="-155" font-family="Helvetica,sans-Serif" font-size="10.00">Renderer</text>
</a>
</g>
</g>
<g id="clust2" class="cluster"><title>clusterdir_66d0fce27eec5ed1ad883580e48797e0</title>
<g id="a_clust2"><a xlink:href="dir_66d0fce27eec5ed1ad883580e48797e0.html" target="_top">
<polygon fill="#eeeeff" stroke="black" points="16,-16 16,-140 92,-140 92,-16 16,-16"/>
</a>
</g>
</g>
<!-- dir_66d0fce27eec5ed1ad883580e48797e0 -->
<g id="node1" class="node"><title>dir_66d0fce27eec5ed1ad883580e48797e0</title>
<text text-anchor="middle" x="55" y="-111.5" font-family="Helvetica,sans-Serif" font-size="10.00">Public</text>
</g>
<!-- dir_25adc572c9dd00dc10864ac016f72ce3 -->
<g id="node2" class="node"><title>dir_25adc572c9dd00dc10864ac016f72ce3</title>
<g id="a_node2"><a xlink:href="dir_25adc572c9dd00dc10864ac016f72ce3.html" target="_top" xlink:title="Interfaces">
<polygon fill="white" stroke="black" points="83.5,-60 24.5,-60 24.5,-24 83.5,-24 83.5,-60"/>
<text text-anchor="middle" x="54" y="-39.5" font-family="Helvetica,sans-Serif" font-size="10.00">Interfaces</text>
</a>
</g>
</g>
<!-- dir_66d0fce27eec5ed1ad883580e48797e0&#45;&gt;dir_25adc572c9dd00dc10864ac016f72ce3 -->
<g id="edge1" class="edge"><title>dir_66d0fce27eec5ed1ad883580e48797e0&#45;&gt;dir_25adc572c9dd00dc10864ac016f72ce3</title>
<path fill="none" stroke="black" d="M54.7528,-95.6966C54.6426,-87.9827 54.5102,-78.7125 54.3873,-70.1124"/>
<polygon fill="black" stroke="black" points="57.8869,-70.0533 54.2443,-60.1043 50.8876,-70.1533 57.8869,-70.0533"/>
<g id="a_edge1&#45;headlabel"><a xlink:href="dir_000015_000017.html" target="_top" xlink:title="1">
<text text-anchor="middle" x="60.7772" y="-71.107" font-family="Helvetica,sans-Serif" font-size="10.00">1</text>
</a>
</g>
</g>
<!-- dir_0e6cddcc9caa1238c7f3774224afaa45 -->
<g id="node3" class="node"><title>dir_0e6cddcc9caa1238c7f3774224afaa45</title>
<g id="a_node3"><a xlink:href="dir_0e6cddcc9caa1238c7f3774224afaa45.html" target="_top" xlink:title="Core">
<polygon fill="white" stroke="red" points="162,-60 108,-60 108,-24 162,-24 162,-60"/>
<text text-anchor="middle" x="135" y="-39.5" font-family="Helvetica,sans-Serif" font-size="10.00">Core</text>
</a>
</g>
</g>
<!-- dir_66d0fce27eec5ed1ad883580e48797e0&#45;&gt;dir_0e6cddcc9caa1238c7f3774224afaa45 -->
<g id="edge2" class="edge"><title>dir_66d0fce27eec5ed1ad883580e48797e0&#45;&gt;dir_0e6cddcc9caa1238c7f3774224afaa45</title>
<path fill="none" stroke="black" d="M74.7753,-95.6966C84.7537,-86.9655 97.0109,-76.2405 107.857,-66.7503"/>
<polygon fill="black" stroke="black" points="110.231,-69.3234 115.452,-60.1043 105.622,-64.0554 110.231,-69.3234"/>
<g id="a_edge2&#45;headlabel"><a xlink:href="dir_000015_000002.html" target="_top" xlink:title="5">
<text text-anchor="middle" x="109.396" y="-71.3272" font-family="Helvetica,sans-Serif" font-size="10.00">5</text>
</a>
</g>
</g>
</g>
</svg>
