<?xml version="1.0" encoding="UTF-8" standalone="no"?>
<!DOCTYPE svg PUBLIC "-//W3C//DTD SVG 1.1//EN"
 "http://www.w3.org/Graphics/SVG/1.1/DTD/svg11.dtd">
<!-- Generated by graphviz version 2.38.0 (20140413.2041)
 -->
<!-- Title: Source/Engine/Public Pages: 1 -->
<svg width="254pt" height="303pt"
 viewBox="0.00 0.00 254.00 303.00" xmlns="http://www.w3.org/2000/svg" xmlns:xlink="http://www.w3.org/1999/xlink">
<g id="graph0" class="graph" transform="scale(1 1) rotate(0) translate(4 299)">
<title>Source/Engine/Public</title>
<polygon fill="white" stroke="none" points="-4,4 -4,-299 250,-299 250,4 -4,4"/>
<g id="clust1" class="cluster"><title>clusterdir_5405398c23c020946029b9f4e6e04094</title>
<g id="a_clust1"><a xlink:href="dir_5405398c23c020946029b9f4e6e04094.html" target="_top" xlink:title="Engine">
<polygon fill="#ddddee" stroke="black" points="8,-128 8,-287 238,-287 238,-128 8,-128"/>
<text text-anchor="middle" x="123" y="-275" font-family="Helvetica,sans-Serif" font-size="10.00">Engine</text>
</a>
</g>
</g>
<g id="clust2" class="cluster"><title>clusterdir_3de029f943ea1b298b2a6155cdd0fce4</title>
<g id="a_clust2"><a xlink:href="dir_3de029f943ea1b298b2a6155cdd0fce4.html" target="_top">
<polygon fill="#eeeeff" stroke="black" points="16,-136 16,-260 230,-260 230,-136 16,-136"/>
</a>
</g>
</g>
<!-- dir_3de029f943ea1b298b2a6155cdd0fce4 -->
<g id="node1" class="node"><title>dir_3de029f943ea1b298b2a6155cdd0fce4</title>
<text text-anchor="middle" x="195" y="-231.5" font-family="Helvetica,sans-Serif" font-size="10.00">Public</text>
</g>
<!-- dir_524e6168c4ba0175890f5f6171fa902f -->
<g id="node2" class="node"><title>dir_524e6168c4ba0175890f5f6171fa902f</title>
<g id="a_node2"><a xlink:href="dir_524e6168c4ba0175890f5f6171fa902f.html" target="_top" xlink:title="Actors">
<polygon fill="white" stroke="black" points="78,-180 24,-180 24,-144 78,-144 78,-180"/>
<text text-anchor="middle" x="51" y="-159.5" font-family="Helvetica,sans-Serif" font-size="10.00">Actors</text>
</a>
</g>
</g>
<!-- dir_1ad6433457b0067ef8f54a4fa85f5c9a -->
<g id="node6" class="node"><title>dir_1ad6433457b0067ef8f54a4fa85f5c9a</title>
<g id="a_node6"><a xlink:href="dir_1ad6433457b0067ef8f54a4fa85f5c9a.html" target="_top" xlink:title="Core">
<polygon fill="white" stroke="red" points="169,-36 115,-36 115,-0 169,-0 169,-36"/>
<text text-anchor="middle" x="142" y="-15.5" font-family="Helvetica,sans-Serif" font-size="10.00">Core</text>
</a>
</g>
</g>
<!-- dir_524e6168c4ba0175890f5f6171fa902f&#45;&gt;dir_1ad6433457b0067ef8f54a4fa85f5c9a -->
<g id="edge7" class="edge"><title>dir_524e6168c4ba0175890f5f6171fa902f&#45;&gt;dir_1ad6433457b0067ef8f54a4fa85f5c9a</title>
<path fill="none" stroke="black" d="M61.9767,-143.871C77.7593,-119.244 106.986,-73.6377 125.412,-44.8845"/>
<polygon fill="black" stroke="black" points="128.536,-46.4972 130.984,-36.1893 122.642,-42.7203 128.536,-46.4972"/>
<g id="a_edge7&#45;headlabel"><a xlink:href="dir_000006_000001.html" target="_top" xlink:title="4">
<text text-anchor="middle" x="128.987" y="-48.5556" font-family="Helvetica,sans-Serif" font-size="10.00">4</text>
</a>
</g>
</g>
<!-- dir_4efb1cddb47a1770ad011373796c1afc -->
<g id="node7" class="node"><title>dir_4efb1cddb47a1770ad011373796c1afc</title>
<g id="a_node7"><a xlink:href="dir_4efb1cddb47a1770ad011373796c1afc.html" target="_top" xlink:title="Renderer">
<polygon fill="white" stroke="red" points="198,-108 142,-108 142,-72 198,-72 198,-108"/>
<text text-anchor="middle" x="170" y="-87.5" font-family="Helvetica,sans-Serif" font-size="10.00">Renderer</text>
</a>
</g>
</g>
<!-- dir_524e6168c4ba0175890f5f6171fa902f&#45;&gt;dir_4efb1cddb47a1770ad011373796c1afc -->
<g id="edge8" class="edge"><title>dir_524e6168c4ba0175890f5f6171fa902f&#45;&gt;dir_4efb1cddb47a1770ad011373796c1afc</title>
<path fill="none" stroke="black" d="M67.6343,-143.674C73.4307,-138.222 80.1946,-132.465 87,-128 101.067,-118.771 117.817,-110.81 132.574,-104.663"/>
<polygon fill="black" stroke="black" points="133.968,-107.874 141.935,-100.89 131.352,-101.382 133.968,-107.874"/>
<g id="a_edge8&#45;headlabel"><a xlink:href="dir_000006_000010.html" target="_top" xlink:title="1">
<text text-anchor="middle" x="131.696" y="-109.352" font-family="Helvetica,sans-Serif" font-size="10.00">1</text>
</a>
</g>
</g>
<!-- dir_e238f2a8f92a34fa26a84c35aac511b0 -->
<g id="node3" class="node"><title>dir_e238f2a8f92a34fa26a84c35aac511b0</title>
<g id="a_node3"><a xlink:href="dir_e238f2a8f92a34fa26a84c35aac511b0.html" target="_top" xlink:title="AI">
<polygon fill="white" stroke="black" points="150,-252 96,-252 96,-216 150,-216 150,-252"/>
<text text-anchor="middle" x="123" y="-231.5" font-family="Helvetica,sans-Serif" font-size="10.00">AI</text>
</a>
</g>
</g>
<!-- dir_47f61e9d19e7fe76e4335dbf861c17ec -->
<g id="node5" class="node"><title>dir_47f61e9d19e7fe76e4335dbf861c17ec</title>
<g id="a_node5"><a xlink:href="dir_47f61e9d19e7fe76e4335dbf861c17ec.html" target="_top" xlink:title="Components">
<polygon fill="white" stroke="black" points="167.5,-180 96.5,-180 96.5,-144 167.5,-144 167.5,-180"/>
<text text-anchor="middle" x="132" y="-159.5" font-family="Helvetica,sans-Serif" font-size="10.00">Components</text>
</a>
</g>
</g>
<!-- dir_e238f2a8f92a34fa26a84c35aac511b0&#45;&gt;dir_47f61e9d19e7fe76e4335dbf861c17ec -->
<g id="edge5" class="edge"><title>dir_e238f2a8f92a34fa26a84c35aac511b0&#45;&gt;dir_47f61e9d19e7fe76e4335dbf861c17ec</title>
<path fill="none" stroke="black" d="M125.225,-215.697C126.217,-207.983 127.408,-198.712 128.514,-190.112"/>
<polygon fill="black" stroke="black" points="131.997,-190.469 129.801,-180.104 125.054,-189.576 131.997,-190.469"/>
<g id="a_edge5&#45;headlabel"><a xlink:href="dir_000007_000009.html" target="_top" xlink:title="1">
<text text-anchor="middle" x="134.355" y="-191.896" font-family="Helvetica,sans-Serif" font-size="10.00">1</text>
</a>
</g>
</g>
<!-- dir_e238f2a8f92a34fa26a84c35aac511b0&#45;&gt;dir_1ad6433457b0067ef8f54a4fa85f5c9a -->
<g id="edge4" class="edge"><title>dir_e238f2a8f92a34fa26a84c35aac511b0&#45;&gt;dir_1ad6433457b0067ef8f54a4fa85f5c9a</title>
<path fill="none" stroke="black" d="M150.124,-219.825C165.756,-210.799 184.36,-197.327 195,-180 211.976,-152.355 204.324,-140.331 207,-108 208.32,-92.0545 213.864,-86.453 207,-72 200.667,-58.6644 189.154,-47.5784 177.558,-39.052"/>
<polygon fill="black" stroke="black" points="179.399,-36.0705 169.173,-33.3003 175.44,-41.843 179.399,-36.0705"/>
<g id="a_edge4&#45;headlabel"><a xlink:href="dir_000007_000001.html" target="_top" xlink:title="3">
<text text-anchor="middle" x="183.97" y="-33.2623" font-family="Helvetica,sans-Serif" font-size="10.00">3</text>
</a>
</g>
</g>
<!-- dir_e2a84b0ab1904b901fa724df94304996 -->
<g id="node4" class="node"><title>dir_e2a84b0ab1904b901fa724df94304996</title>
<g id="a_node4"><a xlink:href="dir_e2a84b0ab1904b901fa724df94304996.html" target="_top" xlink:title="Camera">
<polygon fill="white" stroke="black" points="78,-252 24,-252 24,-216 78,-216 78,-252"/>
<text text-anchor="middle" x="51" y="-231.5" font-family="Helvetica,sans-Serif" font-size="10.00">Camera</text>
</a>
</g>
</g>
<!-- dir_e2a84b0ab1904b901fa724df94304996&#45;&gt;dir_524e6168c4ba0175890f5f6171fa902f -->
<g id="edge2" class="edge"><title>dir_e2a84b0ab1904b901fa724df94304996&#45;&gt;dir_524e6168c4ba0175890f5f6171fa902f</title>
<path fill="none" stroke="black" d="M51,-215.697C51,-207.983 51,-198.712 51,-190.112"/>
<polygon fill="black" stroke="black" points="54.5001,-190.104 51,-180.104 47.5001,-190.104 54.5001,-190.104"/>
<g id="a_edge2&#45;headlabel"><a xlink:href="dir_000008_000006.html" target="_top" xlink:title="1">
<text text-anchor="middle" x="57.3393" y="-191.199" font-family="Helvetica,sans-Serif" font-size="10.00">1</text>
</a>
</g>
</g>
<!-- dir_e2a84b0ab1904b901fa724df94304996&#45;&gt;dir_47f61e9d19e7fe76e4335dbf861c17ec -->
<g id="edge3" class="edge"><title>dir_e2a84b0ab1904b901fa724df94304996&#45;&gt;dir_47f61e9d19e7fe76e4335dbf861c17ec</title>
<path fill="none" stroke="black" d="M71.0225,-215.697C81.1256,-206.965 93.536,-196.24 104.518,-186.75"/>
<polygon fill="black" stroke="black" points="106.93,-189.291 112.208,-180.104 102.353,-183.995 106.93,-189.291"/>
<g id="a_edge3&#45;headlabel"><a xlink:href="dir_000008_000009.html" target="_top" xlink:title="1">
<text text-anchor="middle" x="106.067" y="-191.29" font-family="Helvetica,sans-Serif" font-size="10.00">1</text>
</a>
</g>
</g>
<!-- dir_e2a84b0ab1904b901fa724df94304996&#45;&gt;dir_4efb1cddb47a1770ad011373796c1afc -->
<g id="edge1" class="edge"><title>dir_e2a84b0ab1904b901fa724df94304996&#45;&gt;dir_4efb1cddb47a1770ad011373796c1afc</title>
<path fill="none" stroke="black" d="M78.0513,-220.024C81.0595,-218.641 84.0876,-217.275 87,-216 126.085,-198.883 152.147,-215.379 176,-180 188.199,-161.907 185.151,-136.768 179.945,-117.821"/>
<polygon fill="black" stroke="black" points="183.211,-116.536 176.914,-108.016 176.523,-118.604 183.211,-116.536"/>
<g id="a_edge1&#45;headlabel"><a xlink:href="dir_000008_000010.html" target="_top" xlink:title="1">
<text text-anchor="middle" x="186.985" y="-116.632" font-family="Helvetica,sans-Serif" font-size="10.00">1</text>
</a>
</g>
</g>
<!-- dir_47f61e9d19e7fe76e4335dbf861c17ec&#45;&gt;dir_1ad6433457b0067ef8f54a4fa85f5c9a -->
<g id="edge9" class="edge"><title>dir_47f61e9d19e7fe76e4335dbf861c17ec&#45;&gt;dir_1ad6433457b0067ef8f54a4fa85f5c9a</title>
<path fill="none" stroke="black" d="M131.398,-143.898C130.952,-125.95 130.757,-96.9321 133,-72 133.764,-63.5033 135.13,-54.3172 136.571,-46.0174"/>
<polygon fill="black" stroke="black" points="140.029,-46.565 138.396,-36.0968 133.144,-45.2986 140.029,-46.565"/>
<g id="a_edge9&#45;headlabel"><a xlink:href="dir_000009_000001.html" target="_top" xlink:title="9">
<text text-anchor="middle" x="142.171" y="-48.1139" font-family="Helvetica,sans-Serif" font-size="10.00">9</text>
</a>
</g>
</g>
<!-- dir_47f61e9d19e7fe76e4335dbf861c17ec&#45;&gt;dir_4efb1cddb47a1770ad011373796c1afc -->
<g id="edge10" class="edge"><title>dir_47f61e9d19e7fe76e4335dbf861c17ec&#45;&gt;dir_4efb1cddb47a1770ad011373796c1afc</title>
<path fill="none" stroke="black" d="M141.393,-143.697C145.765,-135.644 151.057,-125.894 155.895,-116.982"/>
<polygon fill="black" stroke="black" points="159.02,-118.563 160.715,-108.104 152.868,-115.223 159.02,-118.563"/>
<g id="a_edge10&#45;headlabel"><a xlink:href="dir_000009_000010.html" target="_top" xlink:title="7">
<text text-anchor="middle" x="159.8" y="-120.576" font-family="Helvetica,sans-Serif" font-size="10.00">7</text>
</a>
</g>
</g>
<!-- dir_4efb1cddb47a1770ad011373796c1afc&#45;&gt;dir_1ad6433457b0067ef8f54a4fa85f5c9a -->
<g id="edge6" class="edge"><title>dir_4efb1cddb47a1770ad011373796c1afc&#45;&gt;dir_1ad6433457b0067ef8f54a4fa85f5c9a</title>
<path fill="none" stroke="black" d="M163.079,-71.6966C159.925,-63.8132 156.122,-54.3042 152.619,-45.5464"/>
<polygon fill="black" stroke="black" points="155.805,-44.0892 148.842,-36.1043 149.306,-46.689 155.805,-44.0892"/>
<g id="a_edge6&#45;headlabel"><a xlink:href="dir_000010_000001.html" target="_top" xlink:title="22">
<text text-anchor="middle" x="159.777" y="-43.8723" font-family="Helvetica,sans-Serif" font-size="10.00">22</text>
</a>
</g>
</g>
</g>
</svg>
