<?xml version="1.0" encoding="UTF-8" standalone="no"?>
<!DOCTYPE svg PUBLIC "-//W3C//DTD SVG 1.1//EN"
 "http://www.w3.org/Graphics/SVG/1.1/DTD/svg11.dtd">
<!-- Generated by graphviz version 2.38.0 (20140413.2041)
 -->
<!-- Title: Source/Runtime Pages: 1 -->
<svg width="182pt" height="255pt"
 viewBox="0.00 0.00 182.00 255.00" xmlns="http://www.w3.org/2000/svg" xmlns:xlink="http://www.w3.org/1999/xlink">
<g id="graph0" class="graph" transform="scale(1 1) rotate(0) translate(4 251)">
<title>Source/Runtime</title>
<polygon fill="white" stroke="none" points="-4,4 -4,-251 178,-251 178,4 -4,4"/>
<g id="clust1" class="cluster"><title>clusterdir_74389ed8173ad57b461b9d623a1f3867</title>
<g id="a_clust1"><a xlink:href="dir_74389ed8173ad57b461b9d623a1f3867.html" target="_top" xlink:title="Source">
<polygon fill="#ddddee" stroke="black" points="8,-8 8,-239 166,-239 166,-8 8,-8"/>
<text text-anchor="middle" x="87" y="-227" font-family="Helvetica,sans-Serif" font-size="10.00">Source</text>
</a>
</g>
</g>
<g id="clust2" class="cluster"><title>clusterdir_7536b172fbd480bfd146a1b1acd6856b</title>
<g id="a_clust2"><a xlink:href="dir_7536b172fbd480bfd146a1b1acd6856b.html" target="_top">
<polygon fill="#eeeeff" stroke="black" points="16,-16 16,-212 158,-212 158,-16 16,-16"/>
</a>
</g>
</g>
<!-- dir_7536b172fbd480bfd146a1b1acd6856b -->
<g id="node1" class="node"><title>dir_7536b172fbd480bfd146a1b1acd6856b</title>
<text text-anchor="middle" x="123" y="-183.5" font-family="Helvetica,sans-Serif" font-size="10.00">Runtime</text>
</g>
<!-- dir_0e6cddcc9caa1238c7f3774224afaa45 -->
<g id="node2" class="node"><title>dir_0e6cddcc9caa1238c7f3774224afaa45</title>
<g id="a_node2"><a xlink:href="dir_0e6cddcc9caa1238c7f3774224afaa45.html" target="_top" xlink:title="Core">
<polygon fill="white" stroke="red" points="95,-60 41,-60 41,-24 95,-24 95,-60"/>
<text text-anchor="middle" x="68" y="-39.5" font-family="Helvetica,sans-Serif" font-size="10.00">Core</text>
</a>
</g>
</g>
<!-- dir_fdf6aa5c3cf3805bb958134448d60562 -->
<g id="node3" class="node"><title>dir_fdf6aa5c3cf3805bb958134448d60562</title>
<g id="a_node3"><a xlink:href="dir_fdf6aa5c3cf3805bb958134448d60562.html" target="_top" xlink:title="Engine">
<polygon fill="white" stroke="red" points="78,-204 24,-204 24,-168 78,-168 78,-204"/>
<text text-anchor="middle" x="51" y="-183.5" font-family="Helvetica,sans-Serif" font-size="10.00">Engine</text>
</a>
</g>
</g>
<!-- dir_fdf6aa5c3cf3805bb958134448d60562&#45;&gt;dir_0e6cddcc9caa1238c7f3774224afaa45 -->
<g id="edge2" class="edge"><title>dir_fdf6aa5c3cf3805bb958134448d60562&#45;&gt;dir_0e6cddcc9caa1238c7f3774224afaa45</title>
<path fill="none" stroke="black" d="M48.2658,-167.779C45.9009,-149.734 43.5058,-120.639 48,-96 49.6059,-87.1957 52.5973,-77.9537 55.7862,-69.6977"/>
<polygon fill="black" stroke="black" points="59.1211,-70.7912 59.6942,-60.2119 52.6488,-68.1248 59.1211,-70.7912"/>
<g id="a_edge2&#45;headlabel"><a xlink:href="dir_000005_000002.html" target="_top" xlink:title="31">
<text text-anchor="middle" x="60.3771" y="-72.6964" font-family="Helvetica,sans-Serif" font-size="10.00">31</text>
</a>
</g>
</g>
<!-- dir_e95efa631723cde707baa0220c731e18 -->
<g id="node4" class="node"><title>dir_e95efa631723cde707baa0220c731e18</title>
<g id="a_node4"><a xlink:href="dir_e95efa631723cde707baa0220c731e18.html" target="_top" xlink:title="Renderer">
<polygon fill="white" stroke="red" points="113,-132 57,-132 57,-96 113,-96 113,-132"/>
<text text-anchor="middle" x="85" y="-111.5" font-family="Helvetica,sans-Serif" font-size="10.00">Renderer</text>
</a>
</g>
</g>
<!-- dir_fdf6aa5c3cf3805bb958134448d60562&#45;&gt;dir_e95efa631723cde707baa0220c731e18 -->
<g id="edge3" class="edge"><title>dir_fdf6aa5c3cf3805bb958134448d60562&#45;&gt;dir_e95efa631723cde707baa0220c731e18</title>
<path fill="none" stroke="black" d="M59.4045,-167.697C63.2748,-159.728 67.9517,-150.1 72.2431,-141.264"/>
<polygon fill="black" stroke="black" points="75.4714,-142.629 76.6922,-132.104 69.1748,-139.57 75.4714,-142.629"/>
<g id="a_edge3&#45;headlabel"><a xlink:href="dir_000005_000011.html" target="_top" xlink:title="10">
<text text-anchor="middle" x="76.4549" y="-144.602" font-family="Helvetica,sans-Serif" font-size="10.00">10</text>
</a>
</g>
</g>
<!-- dir_e95efa631723cde707baa0220c731e18&#45;&gt;dir_0e6cddcc9caa1238c7f3774224afaa45 -->
<g id="edge1" class="edge"><title>dir_e95efa631723cde707baa0220c731e18&#45;&gt;dir_0e6cddcc9caa1238c7f3774224afaa45</title>
<path fill="none" stroke="black" d="M80.7978,-95.6966C78.9038,-87.8979 76.6235,-78.5085 74.5157,-69.8292"/>
<polygon fill="black" stroke="black" points="77.9151,-68.9959 72.1539,-60.1043 71.1128,-70.6479 77.9151,-68.9959"/>
<g id="a_edge1&#45;headlabel"><a xlink:href="dir_000011_000002.html" target="_top" xlink:title="22">
<text text-anchor="middle" x="81.5224" y="-69.3189" font-family="Helvetica,sans-Serif" font-size="10.00">22</text>
</a>
</g>
</g>
</g>
</svg>
