<?xml version="1.0" encoding="UTF-8" standalone="no"?>
<!DOCTYPE svg PUBLIC "-//W3C//DTD SVG 1.1//EN"
 "http://www.w3.org/Graphics/SVG/1.1/DTD/svg11.dtd">
<!-- Generated by graphviz version 2.38.0 (20140413.2041)
 -->
<!-- Title: Source/Runtime/Core Pages: 1 -->
<svg width="182pt" height="159pt"
 viewBox="0.00 0.00 182.00 159.00" xmlns="http://www.w3.org/2000/svg" xmlns:xlink="http://www.w3.org/1999/xlink">
<g id="graph0" class="graph" transform="scale(1 1) rotate(0) translate(4 155)">
<title>Source/Runtime/Core</title>
<polygon fill="white" stroke="none" points="-4,4 -4,-155 178,-155 178,4 -4,4"/>
<g id="clust1" class="cluster"><title>clusterdir_7536b172fbd480bfd146a1b1acd6856b</title>
<g id="a_clust1"><a xlink:href="dir_7536b172fbd480bfd146a1b1acd6856b.html" target="_top" xlink:title="Runtime">
<polygon fill="#ddddee" stroke="black" points="8,-56 8,-143 166,-143 166,-56 8,-56"/>
<text text-anchor="middle" x="87" y="-131" font-family="Helvetica,sans-Serif" font-size="10.00">Runtime</text>
</a>
</g>
</g>
<g id="clust2" class="cluster"><title>clusterdir_0e6cddcc9caa1238c7f3774224afaa45</title>
<g id="a_clust2"><a xlink:href="dir_0e6cddcc9caa1238c7f3774224afaa45.html" target="_top">
<polygon fill="#eeeeff" stroke="black" points="16,-64 16,-116 158,-116 158,-64 16,-64"/>
</a>
</g>
</g>
<!-- dir_0e6cddcc9caa1238c7f3774224afaa45 -->
<g id="node1" class="node"><title>dir_0e6cddcc9caa1238c7f3774224afaa45</title>
<text text-anchor="middle" x="123" y="-87.5" font-family="Helvetica,sans-Serif" font-size="10.00">Core</text>
</g>
<!-- dir_ba49309ee78fabe0452662bc1a7ef37d -->
<g id="node2" class="node"><title>dir_ba49309ee78fabe0452662bc1a7ef37d</title>
<g id="a_node2"><a xlink:href="dir_ba49309ee78fabe0452662bc1a7ef37d.html" target="_top" xlink:title="Public">
<polygon fill="white" stroke="red" points="78,-108 24,-108 24,-72 78,-72 78,-108"/>
<text text-anchor="middle" x="51" y="-87.5" font-family="Helvetica,sans-Serif" font-size="10.00">Public</text>
</a>
</g>
</g>
<!-- dir_fd2244d5b8a70de183e6299f6cb7004e -->
<g id="node3" class="node"><title>dir_fd2244d5b8a70de183e6299f6cb7004e</title>
<g id="a_node3"><a xlink:href="dir_fd2244d5b8a70de183e6299f6cb7004e.html" target="_top" xlink:title="ThirdParty">
<polygon fill="white" stroke="red" points="81.5,-36 20.5,-36 20.5,-0 81.5,-0 81.5,-36"/>
<text text-anchor="middle" x="51" y="-15.5" font-family="Helvetica,sans-Serif" font-size="10.00">ThirdParty</text>
</a>
</g>
</g>
<!-- dir_ba49309ee78fabe0452662bc1a7ef37d&#45;&gt;dir_fd2244d5b8a70de183e6299f6cb7004e -->
<g id="edge1" class="edge"><title>dir_ba49309ee78fabe0452662bc1a7ef37d&#45;&gt;dir_fd2244d5b8a70de183e6299f6cb7004e</title>
<path fill="none" stroke="black" d="M51,-71.6966C51,-63.9827 51,-54.7125 51,-46.1124"/>
<polygon fill="black" stroke="black" points="54.5001,-46.1043 51,-36.1043 47.5001,-46.1044 54.5001,-46.1043"/>
<g id="a_edge1&#45;headlabel"><a xlink:href="dir_000003_000016.html" target="_top" xlink:title="2">
<text text-anchor="middle" x="57.3393" y="-47.199" font-family="Helvetica,sans-Serif" font-size="10.00">2</text>
</a>
</g>
</g>
</g>
</svg>
