<?xml version="1.0" encoding="UTF-8" standalone="no"?>
<!DOCTYPE svg PUBLIC "-//W3C//DTD SVG 1.1//EN"
 "http://www.w3.org/Graphics/SVG/1.1/DTD/svg11.dtd">
<!-- Generated by graphviz version 2.38.0 (20140413.2041)
 -->
<!-- Title: Graphical Class Hierarchy Pages: 1 -->
<svg width="197pt" height="61pt"
 viewBox="0.00 0.00 197.00 61.00" xmlns="http://www.w3.org/2000/svg" xmlns:xlink="http://www.w3.org/1999/xlink">
<g id="graph0" class="graph" transform="scale(1 1) rotate(0) translate(4 57)">
<title>Graphical Class Hierarchy</title>
<polygon fill="white" stroke="none" points="-4,4 -4,-57 193,-57 193,4 -4,4"/>
<!-- Node27 -->
<g id="node1" class="node"><title>Node27</title>
<g id="a_node1"><a xlink:title=" ">
<polygon fill="white" stroke="#bfbfbf" points="0,-17 0,-36 35,-36 35,-17 0,-17"/>
<text text-anchor="middle" x="17.5" y="-24" font-family="Helvetica,sans-Serif" font-size="10.00">type</text>
</a>
</g>
</g>
<!-- Node0 -->
<g id="node2" class="node"><title>Node0</title>
<g id="a_node2"><a xlink:href="structoeng_1_1core_1_1detail_1_1_can_enable_shared_3_01_t_00_01std_1_1void__t_3_01typename_01_t_1_1_esft_type_01_4_01_4.html" target="_top" xlink:title=" ">
<polygon fill="white" stroke="black" points="71,-0.5 71,-52.5 189,-52.5 189,-0.5 71,-0.5"/>
<text text-anchor="start" x="79" y="-40.5" font-family="Helvetica,sans-Serif" font-size="10.00">oeng::core::detail</text>
<text text-anchor="start" x="79" y="-29.5" font-family="Helvetica,sans-Serif" font-size="10.00">::CanEnableShared&lt; T,</text>
<text text-anchor="start" x="79" y="-18.5" font-family="Helvetica,sans-Serif" font-size="10.00"> std::void_t&lt; typename</text>
<text text-anchor="middle" x="130" y="-7.5" font-family="Helvetica,sans-Serif" font-size="10.00"> T::EsftType &gt; &gt;</text>
</a>
</g>
</g>
<!-- Node27&#45;&gt;Node0 -->
<g id="edge1" class="edge"><title>Node27&#45;&gt;Node0</title>
<path fill="none" stroke="midnightblue" d="M45.4289,-26.5C53.1494,-26.5 61.881,-26.5 70.7164,-26.5"/>
<polygon fill="midnightblue" stroke="midnightblue" points="45.2826,-23.0001 35.2826,-26.5 45.2825,-30.0001 45.2826,-23.0001"/>
</g>
</g>
</svg>
