<?xml version="1.0" encoding="UTF-8" standalone="no"?>
<!DOCTYPE svg PUBLIC "-//W3C//DTD SVG 1.1//EN"
 "http://www.w3.org/Graphics/SVG/1.1/DTD/svg11.dtd">
<!-- Generated by graphviz version 2.38.0 (20140413.2041)
 -->
<!-- Title: Graphical Class Hierarchy Pages: 1 -->
<svg width="333pt" height="50pt"
 viewBox="0.00 0.00 333.00 50.00" xmlns="http://www.w3.org/2000/svg" xmlns:xlink="http://www.w3.org/1999/xlink">
<g id="graph0" class="graph" transform="scale(1 1) rotate(0) translate(4 46)">
<title>Graphical Class Hierarchy</title>
<polygon fill="white" stroke="none" points="-4,4 -4,-46 329,-46 329,4 -4,4"/>
<!-- Node86 -->
<g id="node1" class="node"><title>Node86</title>
<g id="a_node1"><a xlink:title=" ">
<polygon fill="white" stroke="#bfbfbf" points="0,-11.5 0,-30.5 96,-30.5 96,-11.5 0,-11.5"/>
<text text-anchor="middle" x="48" y="-18.5" font-family="Helvetica,sans-Serif" font-size="10.00">kNameThreadSafe</text>
</a>
</g>
</g>
<!-- Node0 -->
<g id="node2" class="node"><title>Node0</title>
<g id="a_node2"><a xlink:href="classoeng_1_1core_1_1_comp_pair.html" target="_top" xlink:title=" ">
<polygon fill="white" stroke="black" points="132,-0.5 132,-41.5 325,-41.5 325,-0.5 132,-0.5"/>
<text text-anchor="start" x="140" y="-29.5" font-family="Helvetica,sans-Serif" font-size="10.00">oeng::core::CompPair</text>
<text text-anchor="start" x="140" y="-18.5" font-family="Helvetica,sans-Serif" font-size="10.00">&lt; kNameThreadSafe, HashSet</text>
<text text-anchor="middle" x="228.5" y="-7.5" font-family="Helvetica,sans-Serif" font-size="10.00">&lt; String8, NameHasher, NameEqual &gt; &gt;</text>
</a>
</g>
</g>
<!-- Node86&#45;&gt;Node0 -->
<g id="edge1" class="edge"><title>Node86&#45;&gt;Node0</title>
<path fill="none" stroke="#8b1a1a" d="M106.477,-21C114.651,-21 123.235,-21 131.899,-21"/>
<polygon fill="#8b1a1a" stroke="#8b1a1a" points="106.366,-17.5001 96.3661,-21 106.366,-24.5001 106.366,-17.5001"/>
</g>
</g>
</svg>
