<?xml version="1.0" encoding="UTF-8" standalone="no"?>
<!DOCTYPE svg PUBLIC "-//W3C//DTD SVG 1.1//EN"
 "http://www.w3.org/Graphics/SVG/1.1/DTD/svg11.dtd">
<!-- Generated by graphviz version 2.38.0 (20140413.2041)
 -->
<!-- Title: Graphical Class Hierarchy Pages: 1 -->
<svg width="273pt" height="66pt"
 viewBox="0.00 0.00 273.00 66.00" xmlns="http://www.w3.org/2000/svg" xmlns:xlink="http://www.w3.org/1999/xlink">
<g id="graph0" class="graph" transform="scale(1 1) rotate(0) translate(4 62)">
<title>Graphical Class Hierarchy</title>
<polygon fill="white" stroke="none" points="-4,4 -4,-62 269,-62 269,4 -4,4"/>
<!-- Node121 -->
<g id="node1" class="node"><title>Node121</title>
<g id="a_node1"><a xlink:title=" ">
<polygon fill="white" stroke="#bfbfbf" points="26,-38.5 26,-57.5 95,-57.5 95,-38.5 26,-38.5"/>
<text text-anchor="middle" x="60.5" y="-45.5" font-family="Helvetica,sans-Serif" font-size="10.00">EngineBase</text>
</a>
</g>
</g>
<!-- Node1 -->
<g id="node2" class="node"><title>Node1</title>
<g id="a_node2"><a xlink:href="classoeng_1_1engine_1_1_engine.html" target="_top" xlink:title=" ">
<polygon fill="white" stroke="black" points="157,-19.5 157,-38.5 265,-38.5 265,-19.5 157,-19.5"/>
<text text-anchor="middle" x="211" y="-26.5" font-family="Helvetica,sans-Serif" font-size="10.00">oeng::engine::Engine</text>
</a>
</g>
</g>
<!-- Node121&#45;&gt;Node1 -->
<g id="edge1" class="edge"><title>Node121&#45;&gt;Node1</title>
<path fill="none" stroke="midnightblue" d="M105.437,-42.3784C121.588,-40.3119 140.05,-37.9498 156.92,-35.7913"/>
<polygon fill="midnightblue" stroke="midnightblue" points="104.672,-38.9477 95.1969,-43.6886 105.56,-45.8911 104.672,-38.9477"/>
</g>
<!-- Node0 -->
<g id="node3" class="node"><title>Node0</title>
<g id="a_node3"><a xlink:href="classoeng_1_1engine_1_1_init_engine.html" target="_top" xlink:title=" ">
<polygon fill="white" stroke="black" points="0,-0.5 0,-19.5 121,-19.5 121,-0.5 0,-0.5"/>
<text text-anchor="middle" x="60.5" y="-7.5" font-family="Helvetica,sans-Serif" font-size="10.00">oeng::engine::InitEngine</text>
</a>
</g>
</g>
<!-- Node0&#45;&gt;Node1 -->
<g id="edge2" class="edge"><title>Node0&#45;&gt;Node1</title>
<path fill="none" stroke="#8b1a1a" d="M131.079,-18.9024C139.684,-20.0033 148.372,-21.115 156.68,-22.1779"/>
<polygon fill="#8b1a1a" stroke="#8b1a1a" points="131.408,-15.4161 121.045,-17.6185 130.52,-22.3595 131.408,-15.4161"/>
</g>
</g>
</svg>
