<?xml version="1.0" encoding="UTF-8" standalone="no"?>
<!DOCTYPE svg PUBLIC "-//W3C//DTD SVG 1.1//EN"
 "http://www.w3.org/Graphics/SVG/1.1/DTD/svg11.dtd">
<!-- Generated by graphviz version 2.38.0 (20140413.2041)
 -->
<!-- Title: Graphical Class Hierarchy Pages: 1 -->
<svg width="217pt" height="100pt"
 viewBox="0.00 0.00 217.00 99.50" xmlns="http://www.w3.org/2000/svg" xmlns:xlink="http://www.w3.org/1999/xlink">
<g id="graph0" class="graph" transform="scale(1 1) rotate(0) translate(4 95.5)">
<title>Graphical Class Hierarchy</title>
<polygon fill="white" stroke="none" points="-4,4 -4,-95.5 213,-95.5 213,4 -4,4"/>
<!-- Node175 -->
<g id="node1" class="node"><title>Node175</title>
<g id="a_node1"><a xlink:title=" ">
<polygon fill="white" stroke="#bfbfbf" points="0,-33 0,-52 38,-52 38,-33 0,-33"/>
<text text-anchor="middle" x="19" y="-40" font-family="Helvetica,sans-Serif" font-size="10.00">Alloc</text>
</a>
</g>
</g>
<!-- Node0 -->
<g id="node2" class="node"><title>Node0</title>
<g id="a_node2"><a xlink:href="classoeng_1_1core_1_1_comp_pair.html" target="_top" xlink:title=" ">
<polygon fill="white" stroke="black" points="74,-50 74,-91 209,-91 209,-50 74,-50"/>
<text text-anchor="start" x="82" y="-79" font-family="Helvetica,sans-Serif" font-size="10.00">oeng::core::CompPair</text>
<text text-anchor="start" x="82" y="-68" font-family="Helvetica,sans-Serif" font-size="10.00">&lt; Alloc, oeng::core::</text>
<text text-anchor="middle" x="141.5" y="-57" font-family="Helvetica,sans-Serif" font-size="10.00">CompPair&lt; Deleter, T * &gt; &gt;</text>
</a>
</g>
</g>
<!-- Node175&#45;&gt;Node0 -->
<g id="edge1" class="edge"><title>Node175&#45;&gt;Node0</title>
<path fill="none" stroke="#8b1a1a" d="M48.0071,-49.0079C55.8424,-50.8285 64.7091,-52.8888 73.7736,-54.9951"/>
<polygon fill="#8b1a1a" stroke="#8b1a1a" points="48.5728,-45.5461 38.0401,-46.6919 46.9884,-52.3645 48.5728,-45.5461"/>
</g>
<!-- Node177 -->
<g id="node3" class="node"><title>Node177</title>
<g id="a_node3"><a xlink:href="classoeng_1_1core_1_1_comp_pair.html" target="_top" xlink:title=" ">
<polygon fill="white" stroke="black" points="86,-0.5 86,-30.5 197,-30.5 197,-0.5 86,-0.5"/>
<text text-anchor="start" x="94" y="-18.5" font-family="Helvetica,sans-Serif" font-size="10.00">oeng::core::CompPair</text>
<text text-anchor="middle" x="141.5" y="-7.5" font-family="Helvetica,sans-Serif" font-size="10.00">&lt; Alloc, T &gt;</text>
</a>
</g>
</g>
<!-- Node175&#45;&gt;Node177 -->
<g id="edge2" class="edge"><title>Node175&#45;&gt;Node177</title>
<path fill="none" stroke="#8b1a1a" d="M48.1039,-36.2029C59.3612,-33.6805 72.7356,-30.6837 85.7633,-27.7646"/>
<polygon fill="#8b1a1a" stroke="#8b1a1a" points="47.0328,-32.856 38.0401,-38.4578 48.5634,-39.6866 47.0328,-32.856"/>
</g>
</g>
</svg>
