<?xml version="1.0" encoding="UTF-8" standalone="no"?>
<!DOCTYPE svg PUBLIC "-//W3C//DTD SVG 1.1//EN"
 "http://www.w3.org/Graphics/SVG/1.1/DTD/svg11.dtd">
<!-- Generated by graphviz version 2.38.0 (20140413.2041)
 -->
<!-- Title: Graphical Class Hierarchy Pages: 1 -->
<svg width="466pt" height="85pt"
 viewBox="0.00 0.00 466.00 85.00" xmlns="http://www.w3.org/2000/svg" xmlns:xlink="http://www.w3.org/1999/xlink">
<g id="graph0" class="graph" transform="scale(1 1) rotate(0) translate(4 81)">
<title>Graphical Class Hierarchy</title>
<polygon fill="white" stroke="none" points="-4,4 -4,-81 462,-81 462,4 -4,4"/>
<!-- Node128 -->
<g id="node1" class="node"><title>Node128</title>
<g id="a_node1"><a xlink:href="classoeng_1_1core_1_1_core_system.html" target="_top" xlink:title=" ">
<polygon fill="white" stroke="black" points="17.5,-57.5 17.5,-76.5 139.5,-76.5 139.5,-57.5 17.5,-57.5"/>
<text text-anchor="middle" x="78.5" y="-64.5" font-family="Helvetica,sans-Serif" font-size="10.00">oeng::core::CoreSystem</text>
</a>
</g>
</g>
<!-- Node1 -->
<g id="node2" class="node"><title>Node1</title>
<g id="a_node2"><a xlink:href="classoeng_1_1core_1_1_engine_base.html" target="_top" xlink:title=" ">
<polygon fill="white" stroke="black" points="193,-38.5 193,-57.5 314,-57.5 314,-38.5 193,-38.5"/>
<text text-anchor="middle" x="253.5" y="-45.5" font-family="Helvetica,sans-Serif" font-size="10.00">oeng::core::EngineBase</text>
</a>
</g>
</g>
<!-- Node128&#45;&gt;Node1 -->
<g id="edge1" class="edge"><title>Node128&#45;&gt;Node1</title>
<path fill="none" stroke="midnightblue" d="M149.798,-59.2794C164.091,-57.7096 178.997,-56.0726 192.877,-54.5482"/>
<polygon fill="midnightblue" stroke="midnightblue" points="149.08,-55.8372 139.521,-60.408 149.844,-62.7953 149.08,-55.8372"/>
</g>
<!-- Node2 -->
<g id="node3" class="node"><title>Node2</title>
<g id="a_node3"><a xlink:href="classoeng_1_1engine_1_1_engine.html" target="_top" xlink:title=" ">
<polygon fill="white" stroke="black" points="350,-19.5 350,-38.5 458,-38.5 458,-19.5 350,-19.5"/>
<text text-anchor="middle" x="404" y="-26.5" font-family="Helvetica,sans-Serif" font-size="10.00">oeng::engine::Engine</text>
</a>
</g>
</g>
<!-- Node1&#45;&gt;Node2 -->
<g id="edge2" class="edge"><title>Node1&#45;&gt;Node2</title>
<path fill="none" stroke="midnightblue" d="M324.079,-39.0976C332.684,-37.9967 341.372,-36.885 349.68,-35.8221"/>
<polygon fill="midnightblue" stroke="midnightblue" points="323.52,-35.6405 314.045,-40.3815 324.408,-42.5839 323.52,-35.6405"/>
</g>
<!-- Node95 -->
<g id="node4" class="node"><title>Node95</title>
<g id="a_node4"><a xlink:href="classoeng_1_1engine_1_1_init_engine.html" target="_top" xlink:title=" ">
<polygon fill="white" stroke="black" points="193,-0.5 193,-19.5 314,-19.5 314,-0.5 193,-0.5"/>
<text text-anchor="middle" x="253.5" y="-7.5" font-family="Helvetica,sans-Serif" font-size="10.00">oeng::engine::InitEngine</text>
</a>
</g>
</g>
<!-- Node95&#45;&gt;Node2 -->
<g id="edge3" class="edge"><title>Node95&#45;&gt;Node2</title>
<path fill="none" stroke="#8b1a1a" d="M324.079,-18.9024C332.684,-20.0033 341.372,-21.115 349.68,-22.1779"/>
<polygon fill="#8b1a1a" stroke="#8b1a1a" points="324.408,-15.4161 314.045,-17.6185 323.52,-22.3595 324.408,-15.4161"/>
</g>
<!-- Node0 -->
<g id="node5" class="node"><title>Node0</title>
<g id="a_node5"><a xlink:href="classoeng_1_1core_1_1_register_engine_base.html" target="_top" xlink:title=" ">
<polygon fill="white" stroke="black" points="0,-19.5 0,-38.5 157,-38.5 157,-19.5 0,-19.5"/>
<text text-anchor="middle" x="78.5" y="-26.5" font-family="Helvetica,sans-Serif" font-size="10.00">oeng::core::RegisterEngineBase</text>
</a>
</g>
</g>
<!-- Node0&#45;&gt;Node1 -->
<g id="edge4" class="edge"><title>Node0&#45;&gt;Node1</title>
<path fill="none" stroke="#8b1a1a" d="M167.258,-38.6381C175.884,-39.5855 184.494,-40.5311 192.743,-41.4371"/>
<polygon fill="#8b1a1a" stroke="#8b1a1a" points="167.467,-35.1401 157.144,-37.5274 166.702,-42.0983 167.467,-35.1401"/>
</g>
</g>
</svg>
