<?xml version="1.0" encoding="UTF-8" standalone="no"?>
<!DOCTYPE svg PUBLIC "-//W3C//DTD SVG 1.1//EN"
 "http://www.w3.org/Graphics/SVG/1.1/DTD/svg11.dtd">
<!-- Generated by graphviz version 2.38.0 (20140413.2041)
 -->
<!-- Title: Graphical Class Hierarchy Pages: 1 -->
<svg width="322pt" height="66pt"
 viewBox="0.00 0.00 322.00 66.00" xmlns="http://www.w3.org/2000/svg" xmlns:xlink="http://www.w3.org/1999/xlink">
<g id="graph0" class="graph" transform="scale(1 1) rotate(0) translate(4 62)">
<title>Graphical Class Hierarchy</title>
<polygon fill="white" stroke="none" points="-4,4 -4,-62 318,-62 318,4 -4,4"/>
<!-- Node145 -->
<g id="node1" class="node"><title>Node145</title>
<g id="a_node1"><a xlink:href="classoeng_1_1core_1_1_core_system.html" target="_top" xlink:title=" ">
<polygon fill="white" stroke="black" points="17.5,-38.5 17.5,-57.5 139.5,-57.5 139.5,-38.5 17.5,-38.5"/>
<text text-anchor="middle" x="78.5" y="-45.5" font-family="Helvetica,sans-Serif" font-size="10.00">oeng::core::CoreSystem</text>
</a>
</g>
</g>
<!-- Node1 -->
<g id="node2" class="node"><title>Node1</title>
<g id="a_node2"><a xlink:href="classoeng_1_1core_1_1_engine_base.html" target="_top" xlink:title=" ">
<polygon fill="white" stroke="black" points="193,-19.5 193,-38.5 314,-38.5 314,-19.5 193,-19.5"/>
<text text-anchor="middle" x="253.5" y="-26.5" font-family="Helvetica,sans-Serif" font-size="10.00">oeng::core::EngineBase</text>
</a>
</g>
</g>
<!-- Node145&#45;&gt;Node1 -->
<g id="edge1" class="edge"><title>Node145&#45;&gt;Node1</title>
<path fill="none" stroke="midnightblue" d="M149.798,-40.2794C164.091,-38.7096 178.997,-37.0726 192.877,-35.5482"/>
<polygon fill="midnightblue" stroke="midnightblue" points="149.08,-36.8372 139.521,-41.408 149.844,-43.7953 149.08,-36.8372"/>
</g>
<!-- Node0 -->
<g id="node3" class="node"><title>Node0</title>
<g id="a_node3"><a xlink:href="classoeng_1_1core_1_1_register_engine_base.html" target="_top" xlink:title=" ">
<polygon fill="white" stroke="black" points="0,-0.5 0,-19.5 157,-19.5 157,-0.5 0,-0.5"/>
<text text-anchor="middle" x="78.5" y="-7.5" font-family="Helvetica,sans-Serif" font-size="10.00">oeng::core::RegisterEngineBase</text>
</a>
</g>
</g>
<!-- Node0&#45;&gt;Node1 -->
<g id="edge2" class="edge"><title>Node0&#45;&gt;Node1</title>
<path fill="none" stroke="#8b1a1a" d="M167.258,-19.6381C175.884,-20.5855 184.494,-21.5311 192.743,-22.4371"/>
<polygon fill="#8b1a1a" stroke="#8b1a1a" points="167.467,-16.1401 157.144,-18.5274 166.702,-23.0983 167.467,-16.1401"/>
</g>
</g>
</svg>
