<?xml version="1.0" encoding="UTF-8" standalone="no"?>
<!DOCTYPE svg PUBLIC "-//W3C//DTD SVG 1.1//EN"
 "http://www.w3.org/Graphics/SVG/1.1/DTD/svg11.dtd">
<!-- Generated by graphviz version 2.38.0 (20140413.2041)
 -->
<!-- Title: Graphical Class Hierarchy Pages: 1 -->
<svg width="726pt" height="610pt"
 viewBox="0.00 0.00 726.00 610.00" xmlns="http://www.w3.org/2000/svg" xmlns:xlink="http://www.w3.org/1999/xlink">
<g id="graph0" class="graph" transform="scale(1 1) rotate(0) translate(4 606)">
<title>Graphical Class Hierarchy</title>
<polygon fill="white" stroke="none" points="-4,4 -4,-606 722,-606 722,4 -4,4"/>
<!-- Node123 -->
<g id="node1" class="node"><title>Node123</title>
<g id="a_node1"><a xlink:title=" ">
<polygon fill="white" stroke="#bfbfbf" points="0,-420.5 0,-439.5 118,-439.5 118,-420.5 0,-420.5"/>
<text text-anchor="middle" x="59" y="-427.5" font-family="Helvetica,sans-Serif" font-size="10.00">EnableSharedFromThis</text>
</a>
</g>
</g>
<!-- Node124 -->
<g id="node2" class="node"><title>Node124</title>
<g id="a_node2"><a xlink:href="classoeng_1_1engine_1_1_a_actor.html" target="_top" xlink:title=" ">
<polygon fill="white" stroke="black" points="175.5,-487.5 175.5,-506.5 283.5,-506.5 283.5,-487.5 175.5,-487.5"/>
<text text-anchor="middle" x="229.5" y="-494.5" font-family="Helvetica,sans-Serif" font-size="10.00">oeng::engine::AActor</text>
</a>
</g>
</g>
<!-- Node123&#45;&gt;Node124 -->
<g id="edge1" class="edge"><title>Node123&#45;&gt;Node124</title>
<path fill="none" stroke="midnightblue" d="M93.7488,-443.419C126.502,-456.443 175.394,-475.884 204.403,-487.418"/>
<polygon fill="midnightblue" stroke="midnightblue" points="94.7275,-440.042 84.1419,-439.599 92.1411,-446.547 94.7275,-440.042"/>
</g>
<!-- Node130 -->
<g id="node8" class="node"><title>Node130</title>
<g id="a_node8"><a xlink:href="classoeng_1_1engine_1_1_actor_component.html" target="_top" xlink:title=" ">
<polygon fill="white" stroke="black" points="154,-354.5 154,-373.5 305,-373.5 305,-354.5 154,-354.5"/>
<text text-anchor="middle" x="229.5" y="-361.5" font-family="Helvetica,sans-Serif" font-size="10.00">oeng::engine::ActorComponent</text>
</a>
</g>
</g>
<!-- Node123&#45;&gt;Node130 -->
<g id="edge7" class="edge"><title>Node123&#45;&gt;Node130</title>
<path fill="none" stroke="midnightblue" d="M94.0989,-416.644C126.789,-403.839 175.318,-384.831 204.242,-373.501"/>
<polygon fill="midnightblue" stroke="midnightblue" points="92.536,-413.497 84.5013,-420.403 95.0891,-420.015 92.536,-413.497"/>
</g>
<!-- Node125 -->
<g id="node3" class="node"><title>Node125</title>
<g id="a_node3"><a xlink:href="classoeng_1_1engine_1_1_a_camera_actor.html" target="_top" xlink:title=" ">
<polygon fill="white" stroke="black" points="356,-468.5 356,-487.5 498,-487.5 498,-468.5 356,-468.5"/>
<text text-anchor="middle" x="427" y="-475.5" font-family="Helvetica,sans-Serif" font-size="10.00">oeng::engine::ACameraActor</text>
</a>
</g>
</g>
<!-- Node124&#45;&gt;Node125 -->
<g id="edge2" class="edge"><title>Node124&#45;&gt;Node125</title>
<path fill="none" stroke="midnightblue" d="M293.821,-490.846C313.665,-488.917 335.678,-486.778 355.958,-484.807"/>
<polygon fill="midnightblue" stroke="midnightblue" points="293.278,-487.382 283.663,-491.833 293.955,-494.349 293.278,-487.382"/>
</g>
<!-- Node126 -->
<g id="node4" class="node"><title>Node126</title>
<g id="a_node4"><a xlink:href="classoeng_1_1engine_1_1_a_dir_light.html" target="_top" xlink:title=" ">
<polygon fill="white" stroke="black" points="368,-430.5 368,-449.5 486,-449.5 486,-430.5 368,-430.5"/>
<text text-anchor="middle" x="427" y="-437.5" font-family="Helvetica,sans-Serif" font-size="10.00">oeng::engine::ADirLight</text>
</a>
</g>
</g>
<!-- Node124&#45;&gt;Node126 -->
<g id="edge3" class="edge"><title>Node124&#45;&gt;Node126</title>
<path fill="none" stroke="midnightblue" d="M265.116,-483.985C286.74,-476.134 315.268,-466.276 341,-459 353.223,-455.544 366.576,-452.31 379.001,-449.525"/>
<polygon fill="midnightblue" stroke="midnightblue" points="263.887,-480.708 255.702,-487.435 266.295,-487.281 263.887,-480.708"/>
</g>
<!-- Node127 -->
<g id="node5" class="node"><title>Node127</title>
<g id="a_node5"><a xlink:href="classoeng_1_1engine_1_1_a_mesh_actor.html" target="_top" xlink:title=" ">
<polygon fill="white" stroke="black" points="361,-582.5 361,-601.5 493,-601.5 493,-582.5 361,-582.5"/>
<text text-anchor="middle" x="427" y="-589.5" font-family="Helvetica,sans-Serif" font-size="10.00">oeng::engine::AMeshActor</text>
</a>
</g>
</g>
<!-- Node124&#45;&gt;Node127 -->
<g id="edge4" class="edge"><title>Node124&#45;&gt;Node127</title>
<path fill="none" stroke="midnightblue" d="M249.023,-513.087C269.959,-530.434 305.735,-557.622 341,-573 349.871,-576.868 359.619,-579.99 369.251,-582.496"/>
<polygon fill="midnightblue" stroke="midnightblue" points="251.155,-510.307 241.255,-506.535 246.642,-515.658 251.155,-510.307"/>
</g>
<!-- Node128 -->
<g id="node6" class="node"><title>Node128</title>
<g id="a_node6"><a xlink:href="classoeng_1_1engine_1_1_a_point_light.html" target="_top" xlink:title=" ">
<polygon fill="white" stroke="black" points="363,-544.5 363,-563.5 491,-563.5 491,-544.5 363,-544.5"/>
<text text-anchor="middle" x="427" y="-551.5" font-family="Helvetica,sans-Serif" font-size="10.00">oeng::engine::APointLight</text>
</a>
</g>
</g>
<!-- Node124&#45;&gt;Node128 -->
<g id="edge5" class="edge"><title>Node124&#45;&gt;Node128</title>
<path fill="none" stroke="midnightblue" d="M265.116,-510.015C286.74,-517.866 315.268,-527.724 341,-535 353.223,-538.456 366.576,-541.69 379.001,-544.475"/>
<polygon fill="midnightblue" stroke="midnightblue" points="266.295,-506.719 255.702,-506.565 263.887,-513.292 266.295,-506.719"/>
</g>
<!-- Node129 -->
<g id="node7" class="node"><title>Node129</title>
<g id="a_node7"><a xlink:href="classoeng_1_1engine_1_1_a_sky_light.html" target="_top" xlink:title=" ">
<polygon fill="white" stroke="black" points="365.5,-506.5 365.5,-525.5 488.5,-525.5 488.5,-506.5 365.5,-506.5"/>
<text text-anchor="middle" x="427" y="-513.5" font-family="Helvetica,sans-Serif" font-size="10.00">oeng::engine::ASkyLight</text>
</a>
</g>
</g>
<!-- Node124&#45;&gt;Node129 -->
<g id="edge6" class="edge"><title>Node124&#45;&gt;Node129</title>
<path fill="none" stroke="midnightblue" d="M293.645,-503.137C316.608,-505.369 342.496,-507.885 365.247,-510.096"/>
<polygon fill="midnightblue" stroke="midnightblue" points="293.955,-499.651 283.663,-502.167 293.278,-506.618 293.955,-499.651"/>
</g>
<!-- Node131 -->
<g id="node9" class="node"><title>Node131</title>
<g id="a_node9"><a xlink:href="classoeng_1_1engine_1_1_a_i_component.html" target="_top" xlink:title=" ">
<polygon fill="white" stroke="black" points="358.5,-392.5 358.5,-411.5 495.5,-411.5 495.5,-392.5 358.5,-392.5"/>
<text text-anchor="middle" x="427" y="-399.5" font-family="Helvetica,sans-Serif" font-size="10.00">oeng::engine::AIComponent</text>
</a>
</g>
</g>
<!-- Node130&#45;&gt;Node131 -->
<g id="edge8" class="edge"><title>Node130&#45;&gt;Node131</title>
<path fill="none" stroke="midnightblue" d="M289.61,-375.489C317.504,-380.911 350.402,-387.306 376.899,-392.456"/>
<polygon fill="midnightblue" stroke="midnightblue" points="290.065,-372.012 279.581,-373.54 288.729,-378.884 290.065,-372.012"/>
</g>
<!-- Node132 -->
<g id="node10" class="node"><title>Node132</title>
<g id="a_node10"><a xlink:href="classoeng_1_1engine_1_1_input_component.html" target="_top" xlink:title=" ">
<polygon fill="white" stroke="black" points="352.5,-354.5 352.5,-373.5 501.5,-373.5 501.5,-354.5 352.5,-354.5"/>
<text text-anchor="middle" x="427" y="-361.5" font-family="Helvetica,sans-Serif" font-size="10.00">oeng::engine::InputComponent</text>
</a>
</g>
</g>
<!-- Node130&#45;&gt;Node132 -->
<g id="edge9" class="edge"><title>Node130&#45;&gt;Node132</title>
<path fill="none" stroke="midnightblue" d="M315.462,-364C327.719,-364 340.249,-364 352.263,-364"/>
<polygon fill="midnightblue" stroke="midnightblue" points="315.247,-360.5 305.247,-364 315.247,-367.5 315.247,-360.5"/>
</g>
<!-- Node133 -->
<g id="node11" class="node"><title>Node133</title>
<g id="a_node11"><a xlink:href="classoeng_1_1engine_1_1_movement_component.html" target="_top" xlink:title=" ">
<polygon fill="white" stroke="black" points="341,-316.5 341,-335.5 513,-335.5 513,-316.5 341,-316.5"/>
<text text-anchor="middle" x="427" y="-323.5" font-family="Helvetica,sans-Serif" font-size="10.00">oeng::engine::MovementComponent</text>
</a>
</g>
</g>
<!-- Node130&#45;&gt;Node133 -->
<g id="edge10" class="edge"><title>Node130&#45;&gt;Node133</title>
<path fill="none" stroke="midnightblue" d="M289.61,-352.511C317.504,-347.089 350.402,-340.694 376.899,-335.544"/>
<polygon fill="midnightblue" stroke="midnightblue" points="288.729,-349.116 279.581,-354.46 290.065,-355.988 288.729,-349.116"/>
</g>
<!-- Node134 -->
<g id="node12" class="node"><title>Node134</title>
<g id="a_node12"><a xlink:href="classoeng_1_1engine_1_1_scene_component.html" target="_top" xlink:title=" ">
<polygon fill="white" stroke="black" points="349.5,-164.5 349.5,-183.5 504.5,-183.5 504.5,-164.5 349.5,-164.5"/>
<text text-anchor="middle" x="427" y="-171.5" font-family="Helvetica,sans-Serif" font-size="10.00">oeng::engine::SceneComponent</text>
</a>
</g>
</g>
<!-- Node130&#45;&gt;Node134 -->
<g id="edge11" class="edge"><title>Node130&#45;&gt;Node134</title>
<path fill="none" stroke="midnightblue" d="M237.298,-344.625C250.957,-308.685 285.28,-231.82 341,-193 346.583,-189.11 352.83,-186.001 359.334,-183.518"/>
<polygon fill="midnightblue" stroke="midnightblue" points="233.879,-343.784 233.722,-354.378 240.451,-346.195 233.879,-343.784"/>
</g>
<!-- Node117 -->
<g id="node13" class="node"><title>Node117</title>
<g id="a_node13"><a xlink:href="classoeng_1_1engine_1_1_camera_component.html" target="_top" xlink:title=" ">
<polygon fill="white" stroke="black" points="553,-278.5 553,-297.5 714,-297.5 714,-278.5 553,-278.5"/>
<text text-anchor="middle" x="633.5" y="-285.5" font-family="Helvetica,sans-Serif" font-size="10.00">oeng::engine::CameraComponent</text>
</a>
</g>
</g>
<!-- Node134&#45;&gt;Node117 -->
<g id="edge12" class="edge"><title>Node134&#45;&gt;Node117</title>
<path fill="none" stroke="midnightblue" d="M506.059,-188.189C508.482,-189.647 510.805,-191.246 513,-193 542.199,-216.332 519.846,-245.613 549,-269 553.755,-272.814 559.128,-275.894 564.8,-278.377"/>
<polygon fill="midnightblue" stroke="midnightblue" points="507.405,-184.947 496.909,-183.505 504.215,-191.177 507.405,-184.947"/>
</g>
<!-- Node113 -->
<g id="node14" class="node"><title>Node113</title>
<g id="a_node14"><a xlink:href="classoeng_1_1engine_1_1_dir_light_component.html" target="_top" xlink:title=" ">
<polygon fill="white" stroke="black" points="553,-240.5 553,-259.5 714,-259.5 714,-240.5 553,-240.5"/>
<text text-anchor="middle" x="633.5" y="-247.5" font-family="Helvetica,sans-Serif" font-size="10.00">oeng::engine::DirLightComponent</text>
</a>
</g>
</g>
<!-- Node134&#45;&gt;Node113 -->
<g id="edge13" class="edge"><title>Node134&#45;&gt;Node113</title>
<path fill="none" stroke="midnightblue" d="M500.52,-187.033C504.849,-188.778 509.046,-190.756 513,-193 533.234,-204.482 528.788,-219.479 549,-231 555.846,-234.902 563.436,-238.003 571.168,-240.467"/>
<polygon fill="midnightblue" stroke="midnightblue" points="501.47,-183.655 490.876,-183.574 499.107,-190.244 501.47,-183.655"/>
</g>
<!-- Node109 -->
<g id="node15" class="node"><title>Node109</title>
<g id="a_node15"><a xlink:href="classoeng_1_1engine_1_1_mesh_component.html" target="_top" xlink:title=" ">
<polygon fill="white" stroke="black" points="557.5,-202.5 557.5,-221.5 709.5,-221.5 709.5,-202.5 557.5,-202.5"/>
<text text-anchor="middle" x="633.5" y="-209.5" font-family="Helvetica,sans-Serif" font-size="10.00">oeng::engine::MeshComponent</text>
</a>
</g>
</g>
<!-- Node134&#45;&gt;Node109 -->
<g id="edge14" class="edge"><title>Node134&#45;&gt;Node109</title>
<path fill="none" stroke="midnightblue" d="M489.448,-185.418C518.708,-190.855 553.301,-197.283 581.139,-202.456"/>
<polygon fill="midnightblue" stroke="midnightblue" points="489.811,-181.926 479.34,-183.54 488.532,-188.808 489.811,-181.926"/>
</g>
<!-- Node102 -->
<g id="node16" class="node"><title>Node102</title>
<g id="a_node16"><a xlink:href="classoeng_1_1engine_1_1_point_light_component.html" target="_top" xlink:title=" ">
<polygon fill="white" stroke="black" points="572.5,-115 572.5,-145 694.5,-145 694.5,-115 572.5,-115"/>
<text text-anchor="start" x="580.5" y="-133" font-family="Helvetica,sans-Serif" font-size="10.00">oeng::engine::PointLight</text>
<text text-anchor="middle" x="633.5" y="-122" font-family="Helvetica,sans-Serif" font-size="10.00">Component</text>
</a>
</g>
</g>
<!-- Node134&#45;&gt;Node102 -->
<g id="edge15" class="edge"><title>Node134&#45;&gt;Node102</title>
<path fill="none" stroke="midnightblue" d="M482.288,-162.319C510.004,-156.356 543.797,-149.085 572.308,-142.951"/>
<polygon fill="midnightblue" stroke="midnightblue" points="481.413,-158.927 472.373,-164.453 482.886,-165.771 481.413,-158.927"/>
</g>
<!-- Node99 -->
<g id="node17" class="node"><title>Node99</title>
<g id="a_node17"><a xlink:href="classoeng_1_1engine_1_1_sky_light_component.html" target="_top" xlink:title=" ">
<polygon fill="white" stroke="black" points="550.5,-76.5 550.5,-95.5 716.5,-95.5 716.5,-76.5 550.5,-76.5"/>
<text text-anchor="middle" x="633.5" y="-83.5" font-family="Helvetica,sans-Serif" font-size="10.00">oeng::engine::SkyLightComponent</text>
</a>
</g>
</g>
<!-- Node134&#45;&gt;Node99 -->
<g id="edge16" class="edge"><title>Node134&#45;&gt;Node99</title>
<path fill="none" stroke="midnightblue" d="M488.489,-161.138C497.099,-157.927 505.549,-153.941 513,-149 534.058,-135.036 527.518,-118.301 549,-105 555.32,-101.087 562.357,-97.9773 569.589,-95.507"/>
<polygon fill="midnightblue" stroke="midnightblue" points="487.09,-157.916 478.744,-164.442 489.338,-164.545 487.09,-157.916"/>
</g>
<!-- Node135 -->
<g id="node18" class="node"><title>Node135</title>
<g id="a_node18"><a xlink:href="classoeng_1_1engine_1_1_sphere_component.html" target="_top" xlink:title="Simple sphere collision component.">
<polygon fill="white" stroke="black" points="554.5,-164.5 554.5,-183.5 712.5,-183.5 712.5,-164.5 554.5,-164.5"/>
<text text-anchor="middle" x="633.5" y="-171.5" font-family="Helvetica,sans-Serif" font-size="10.00">oeng::engine::SphereComponent</text>
</a>
</g>
</g>
<!-- Node134&#45;&gt;Node135 -->
<g id="edge17" class="edge"><title>Node134&#45;&gt;Node135</title>
<path fill="none" stroke="midnightblue" d="M515.091,-174C528.122,-174 541.488,-174 554.318,-174"/>
<polygon fill="midnightblue" stroke="midnightblue" points="514.73,-170.5 504.73,-174 514.73,-177.5 514.73,-170.5"/>
</g>
<!-- Node95 -->
<g id="node19" class="node"><title>Node95</title>
<g id="a_node19"><a xlink:href="classoeng_1_1engine_1_1_spot_light_component.html" target="_top" xlink:title=" ">
<polygon fill="white" stroke="black" points="549,-38.5 549,-57.5 718,-57.5 718,-38.5 549,-38.5"/>
<text text-anchor="middle" x="633.5" y="-45.5" font-family="Helvetica,sans-Serif" font-size="10.00">oeng::engine::SpotLightComponent</text>
</a>
</g>
</g>
<!-- Node134&#45;&gt;Node95 -->
<g id="edge18" class="edge"><title>Node134&#45;&gt;Node95</title>
<path fill="none" stroke="midnightblue" d="M495.447,-160.368C501.803,-157.312 507.801,-153.574 513,-149 542.882,-122.708 518.314,-92.3484 549,-67 553.585,-63.2127 558.776,-60.145 564.271,-57.6646"/>
<polygon fill="midnightblue" stroke="midnightblue" points="493.789,-157.268 485.929,-164.373 496.504,-163.72 493.789,-157.268"/>
</g>
<!-- Node0 -->
<g id="node20" class="node"><title>Node0</title>
<g id="a_node20"><a xlink:href="classoeng_1_1engine_1_1_sprite_component.html" target="_top" xlink:title=" ">
<polygon fill="white" stroke="black" points="557,-0.5 557,-19.5 710,-19.5 710,-0.5 557,-0.5"/>
<text text-anchor="middle" x="633.5" y="-7.5" font-family="Helvetica,sans-Serif" font-size="10.00">oeng::engine::SpriteComponent</text>
</a>
</g>
</g>
<!-- Node134&#45;&gt;Node0 -->
<g id="edge19" class="edge"><title>Node134&#45;&gt;Node0</title>
<path fill="none" stroke="midnightblue" d="M497.555,-160.205C503.221,-157.173 508.491,-153.485 513,-149 552.479,-109.734 508.317,-67.0174 549,-29 553.019,-25.2442 557.621,-22.1772 562.552,-19.6783"/>
<polygon fill="midnightblue" stroke="midnightblue" points="495.983,-157.076 488.375,-164.449 498.92,-163.429 495.983,-157.076"/>
</g>
<!-- Node116 -->
<g id="node21" class="node"><title>Node116</title>
<g id="a_node21"><a xlink:title=" ">
<polygon fill="white" stroke="#bfbfbf" points="400.5,-278.5 400.5,-297.5 453.5,-297.5 453.5,-278.5 400.5,-278.5"/>
<text text-anchor="middle" x="427" y="-285.5" font-family="Helvetica,sans-Serif" font-size="10.00">ICamera</text>
</a>
</g>
</g>
<!-- Node116&#45;&gt;Node117 -->
<g id="edge20" class="edge"><title>Node116&#45;&gt;Node117</title>
<path fill="none" stroke="midnightblue" d="M464.159,-288C488.664,-288 522.03,-288 552.595,-288"/>
<polygon fill="midnightblue" stroke="midnightblue" points="463.9,-284.5 453.9,-288 463.9,-291.5 463.9,-284.5"/>
</g>
<!-- Node112 -->
<g id="node22" class="node"><title>Node112</title>
<g id="a_node22"><a xlink:title=" ">
<polygon fill="white" stroke="#bfbfbf" points="401,-240.5 401,-259.5 453,-259.5 453,-240.5 401,-240.5"/>
<text text-anchor="middle" x="427" y="-247.5" font-family="Helvetica,sans-Serif" font-size="10.00">IDirLight</text>
</a>
</g>
</g>
<!-- Node112&#45;&gt;Node113 -->
<g id="edge21" class="edge"><title>Node112&#45;&gt;Node113</title>
<path fill="none" stroke="midnightblue" d="M463.371,-250C488.018,-250 521.9,-250 552.868,-250"/>
<polygon fill="midnightblue" stroke="midnightblue" points="463.076,-246.5 453.076,-250 463.076,-253.5 463.076,-246.5"/>
</g>
<!-- Node108 -->
<g id="node23" class="node"><title>Node108</title>
<g id="a_node23"><a xlink:title=" ">
<polygon fill="white" stroke="#bfbfbf" points="381,-202.5 381,-221.5 473,-221.5 473,-202.5 381,-202.5"/>
<text text-anchor="middle" x="427" y="-209.5" font-family="Helvetica,sans-Serif" font-size="10.00">IMeshComponent</text>
</a>
</g>
</g>
<!-- Node108&#45;&gt;Node109 -->
<g id="edge22" class="edge"><title>Node108&#45;&gt;Node109</title>
<path fill="none" stroke="midnightblue" d="M483.297,-212C506.08,-212 532.836,-212 557.351,-212"/>
<polygon fill="midnightblue" stroke="midnightblue" points="483.132,-208.5 473.132,-212 483.132,-215.5 483.132,-208.5"/>
</g>
<!-- Node101 -->
<g id="node24" class="node"><title>Node101</title>
<g id="a_node24"><a xlink:title=" ">
<polygon fill="white" stroke="#bfbfbf" points="396,-120.5 396,-139.5 458,-139.5 458,-120.5 396,-120.5"/>
<text text-anchor="middle" x="427" y="-127.5" font-family="Helvetica,sans-Serif" font-size="10.00">IPointLight</text>
</a>
</g>
</g>
<!-- Node101&#45;&gt;Node102 -->
<g id="edge23" class="edge"><title>Node101&#45;&gt;Node102</title>
<path fill="none" stroke="midnightblue" d="M468.547,-130C498.147,-130 538.766,-130 572.167,-130"/>
<polygon fill="midnightblue" stroke="midnightblue" points="468.175,-126.5 458.175,-130 468.175,-133.5 468.175,-126.5"/>
</g>
<!-- Node98 -->
<g id="node25" class="node"><title>Node98</title>
<g id="a_node25"><a xlink:title=" ">
<polygon fill="white" stroke="#bfbfbf" points="398.5,-76.5 398.5,-95.5 455.5,-95.5 455.5,-76.5 398.5,-76.5"/>
<text text-anchor="middle" x="427" y="-83.5" font-family="Helvetica,sans-Serif" font-size="10.00">ISkyLight</text>
</a>
</g>
</g>
<!-- Node98&#45;&gt;Node99 -->
<g id="edge24" class="edge"><title>Node98&#45;&gt;Node99</title>
<path fill="none" stroke="midnightblue" d="M465.886,-86C489.586,-86 521.061,-86 550.268,-86"/>
<polygon fill="midnightblue" stroke="midnightblue" points="465.58,-82.5001 455.58,-86 465.58,-89.5001 465.58,-82.5001"/>
</g>
<!-- Node94 -->
<g id="node26" class="node"><title>Node94</title>
<g id="a_node26"><a xlink:title=" ">
<polygon fill="white" stroke="#bfbfbf" points="397,-38.5 397,-57.5 457,-57.5 457,-38.5 397,-38.5"/>
<text text-anchor="middle" x="427" y="-45.5" font-family="Helvetica,sans-Serif" font-size="10.00">ISpotLight</text>
</a>
</g>
</g>
<!-- Node94&#45;&gt;Node95 -->
<g id="edge25" class="edge"><title>Node94&#45;&gt;Node95</title>
<path fill="none" stroke="midnightblue" d="M467.407,-48C490.549,-48 520.707,-48 548.905,-48"/>
<polygon fill="midnightblue" stroke="midnightblue" points="467.3,-44.5001 457.3,-48 467.3,-51.5001 467.3,-44.5001"/>
</g>
<!-- Node92 -->
<g id="node27" class="node"><title>Node92</title>
<g id="a_node27"><a xlink:title=" ">
<polygon fill="white" stroke="#bfbfbf" points="380,-0.5 380,-19.5 474,-19.5 474,-0.5 380,-0.5"/>
<text text-anchor="middle" x="427" y="-7.5" font-family="Helvetica,sans-Serif" font-size="10.00">ISpriteComponent</text>
</a>
</g>
</g>
<!-- Node92&#45;&gt;Node0 -->
<g id="edge26" class="edge"><title>Node92&#45;&gt;Node0</title>
<path fill="none" stroke="midnightblue" d="M484.17,-10C506.6,-10 532.77,-10 556.83,-10"/>
<polygon fill="midnightblue" stroke="midnightblue" points="484.149,-6.5001 474.149,-10 484.149,-13.5001 484.149,-6.5001"/>
</g>
</g>
</svg>
