<?xml version="1.0" encoding="UTF-8" standalone="no"?>
<!DOCTYPE svg PUBLIC "-//W3C//DTD SVG 1.1//EN"
 "http://www.w3.org/Graphics/SVG/1.1/DTD/svg11.dtd">
<!-- Generated by graphviz version 2.38.0 (20140413.2041)
 -->
<!-- Title: Graphical Class Hierarchy Pages: 1 -->
<svg width="337pt" height="110pt"
 viewBox="0.00 0.00 337.00 110.00" xmlns="http://www.w3.org/2000/svg" xmlns:xlink="http://www.w3.org/1999/xlink">
<g id="graph0" class="graph" transform="scale(1 1) rotate(0) translate(4 106)">
<title>Graphical Class Hierarchy</title>
<polygon fill="white" stroke="none" points="-4,4 -4,-106 333,-106 333,4 -4,4"/>
<!-- Node0 -->
<g id="node1" class="node"><title>Node0</title>
<g id="a_node1"><a xlink:href="d8/d74/structoeng_1_1core_1_1detail_1_1_shared_obj_base.html" target="_top" xlink:title=" ">
<polygon fill="white" stroke="black" points="0,-36 0,-66 158,-66 158,-36 0,-36"/>
<text text-anchor="start" x="8" y="-54" font-family="Helvetica,sans-Serif" font-size="10.00">oeng::core::detail</text>
<text text-anchor="middle" x="79" y="-43" font-family="Helvetica,sans-Serif" font-size="10.00">::SharedObjBase&lt; ThreadSafe &gt;</text>
</a>
</g>
</g>
<!-- Node1 -->
<g id="node2" class="node"><title>Node1</title>
<g id="a_node2"><a xlink:href="d9/dc2/structoeng_1_1core_1_1detail_1_1_shared_obj_inline.html" target="_top" xlink:title=" ">
<polygon fill="white" stroke="black" points="207.5,-60.5 207.5,-101.5 315.5,-101.5 315.5,-60.5 207.5,-60.5"/>
<text text-anchor="start" x="215.5" y="-89.5" font-family="Helvetica,sans-Serif" font-size="10.00">oeng::core::detail</text>
<text text-anchor="start" x="215.5" y="-78.5" font-family="Helvetica,sans-Serif" font-size="10.00">::SharedObjInline&lt; T,</text>
<text text-anchor="middle" x="261.5" y="-67.5" font-family="Helvetica,sans-Serif" font-size="10.00"> Alloc, ThreadSafe &gt;</text>
</a>
</g>
</g>
<!-- Node0&#45;&gt;Node1 -->
<g id="edge1" class="edge"><title>Node0&#45;&gt;Node1</title>
<path fill="none" stroke="midnightblue" d="M168.331,-65.681C181.723,-67.9069 195.172,-70.1421 207.496,-72.1905"/>
<polygon fill="midnightblue" stroke="midnightblue" points="168.559,-62.171 158.12,-63.984 167.411,-69.0762 168.559,-62.171"/>
</g>
<!-- Node2 -->
<g id="node3" class="node"><title>Node2</title>
<g id="a_node3"><a xlink:href="dc/d58/structoeng_1_1core_1_1detail_1_1_shared_obj_ptr.html" target="_top" xlink:title=" ">
<polygon fill="white" stroke="black" points="194,-0.5 194,-41.5 329,-41.5 329,-0.5 194,-0.5"/>
<text text-anchor="start" x="202" y="-29.5" font-family="Helvetica,sans-Serif" font-size="10.00">oeng::core::detail</text>
<text text-anchor="start" x="202" y="-18.5" font-family="Helvetica,sans-Serif" font-size="10.00">::SharedObjPtr&lt; T, Deleter,</text>
<text text-anchor="middle" x="261.5" y="-7.5" font-family="Helvetica,sans-Serif" font-size="10.00"> Alloc, ThreadSafe &gt;</text>
</a>
</g>
</g>
<!-- Node0&#45;&gt;Node2 -->
<g id="edge2" class="edge"><title>Node0&#45;&gt;Node2</title>
<path fill="none" stroke="midnightblue" d="M168.218,-36.3377C176.846,-34.9037 185.499,-33.4656 193.86,-32.0758"/>
<polygon fill="midnightblue" stroke="midnightblue" points="167.411,-32.9238 158.12,-38.016 168.559,-39.829 167.411,-32.9238"/>
</g>
</g>
</svg>
