<?xml version="1.0" encoding="UTF-8" standalone="no"?>
<!DOCTYPE svg PUBLIC "-//W3C//DTD SVG 1.1//EN"
 "http://www.w3.org/Graphics/SVG/1.1/DTD/svg11.dtd">
<!-- Generated by graphviz version 2.38.0 (20140413.2041)
 -->
<!-- Title: Graphical Class Hierarchy Pages: 1 -->
<svg width="279pt" height="66pt"
 viewBox="0.00 0.00 279.00 66.00" xmlns="http://www.w3.org/2000/svg" xmlns:xlink="http://www.w3.org/1999/xlink">
<g id="graph0" class="graph" transform="scale(1 1) rotate(0) translate(4 62)">
<title>Graphical Class Hierarchy</title>
<polygon fill="white" stroke="none" points="-4,4 -4,-62 275,-62 275,4 -4,4"/>
<!-- Node92 -->
<g id="node1" class="node"><title>Node92</title>
<g id="a_node1"><a xlink:href="classoeng_1_1engine_1_1_player.html" target="_top" xlink:title=" ">
<polygon fill="white" stroke="black" points="0,-38.5 0,-57.5 106,-57.5 106,-38.5 0,-38.5"/>
<text text-anchor="middle" x="53" y="-45.5" font-family="Helvetica,sans-Serif" font-size="10.00">oeng::engine::Player</text>
</a>
</g>
</g>
<!-- Node1 -->
<g id="node2" class="node"><title>Node1</title>
<g id="a_node2"><a xlink:href="classoeng_1_1engine_1_1_local_player.html" target="_top" xlink:title=" ">
<polygon fill="white" stroke="black" points="142,-19.5 142,-38.5 271,-38.5 271,-19.5 142,-19.5"/>
<text text-anchor="middle" x="206.5" y="-26.5" font-family="Helvetica,sans-Serif" font-size="10.00">oeng::engine::LocalPlayer</text>
</a>
</g>
</g>
<!-- Node92&#45;&gt;Node1 -->
<g id="edge1" class="edge"><title>Node92&#45;&gt;Node1</title>
<path fill="none" stroke="midnightblue" d="M116.256,-40.1923C124.668,-39.1373 133.31,-38.0536 141.748,-36.9953"/>
<polygon fill="midnightblue" stroke="midnightblue" points="115.624,-36.744 106.138,-41.4613 116.496,-43.6896 115.624,-36.744"/>
</g>
<!-- Node0 -->
<g id="node3" class="node"><title>Node0</title>
<g id="a_node3"><a xlink:href="classoeng_1_1engine_1_1_player.html" target="_top" xlink:title=" ">
<polygon fill="white" stroke="black" points="0,-0.5 0,-19.5 106,-19.5 106,-0.5 0,-0.5"/>
<text text-anchor="middle" x="53" y="-7.5" font-family="Helvetica,sans-Serif" font-size="10.00">oeng::engine::Player</text>
</a>
</g>
</g>
<!-- Node0&#45;&gt;Node1 -->
<g id="edge2" class="edge"><title>Node0&#45;&gt;Node1</title>
<path fill="none" stroke="midnightblue" d="M116.256,-17.8077C124.668,-18.8627 133.31,-19.9464 141.748,-21.0047"/>
<polygon fill="midnightblue" stroke="midnightblue" points="116.496,-14.3104 106.138,-16.5387 115.624,-21.256 116.496,-14.3104"/>
</g>
</g>
</svg>
