<?xml version="1.0" encoding="UTF-8" standalone="no"?>
<!DOCTYPE svg PUBLIC "-//W3C//DTD SVG 1.1//EN"
 "http://www.w3.org/Graphics/SVG/1.1/DTD/svg11.dtd">
<!-- Generated by graphviz version 2.38.0 (20140413.2041)
 -->
<!-- Title: Graphical Class Hierarchy Pages: 1 -->
<svg width="277pt" height="66pt"
 viewBox="0.00 0.00 277.00 66.00" xmlns="http://www.w3.org/2000/svg" xmlns:xlink="http://www.w3.org/1999/xlink">
<g id="graph0" class="graph" transform="scale(1 1) rotate(0) translate(4 62)">
<title>Graphical Class Hierarchy</title>
<polygon fill="white" stroke="none" points="-4,4 -4,-62 273,-62 273,4 -4,4"/>
<!-- Node0 -->
<g id="node1" class="node"><title>Node0</title>
<g id="a_node1"><a xlink:href="d7/d12/structotm_1_1detail_1_1_matrix_base.html" target="_top" xlink:title=" ">
<polygon fill="white" stroke="black" points="0,-14 0,-44 118,-44 118,-14 0,-14"/>
<text text-anchor="start" x="8" y="-32" font-family="Helvetica,sans-Serif" font-size="10.00">otm::detail::MatrixBase</text>
<text text-anchor="middle" x="59" y="-21" font-family="Helvetica,sans-Serif" font-size="10.00">&lt; T, R, C &gt;</text>
</a>
</g>
</g>
<!-- Node1 -->
<g id="node2" class="node"><title>Node1</title>
<g id="a_node2"><a xlink:href="d5/d15/structotm_1_1_matrix.html" target="_top" xlink:title=" ">
<polygon fill="white" stroke="black" points="155.5,-38.5 155.5,-57.5 267.5,-57.5 267.5,-38.5 155.5,-38.5"/>
<text text-anchor="middle" x="211.5" y="-45.5" font-family="Helvetica,sans-Serif" font-size="10.00">otm::Matrix&lt; T, L, L &gt;</text>
</a>
</g>
</g>
<!-- Node0&#45;&gt;Node1 -->
<g id="edge1" class="edge"><title>Node0&#45;&gt;Node1</title>
<path fill="none" stroke="midnightblue" d="M128.344,-37.6281C137.415,-38.7734 146.622,-39.9357 155.431,-41.0477"/>
<polygon fill="midnightblue" stroke="midnightblue" points="128.547,-34.1261 118.187,-36.3459 127.67,-41.0709 128.547,-34.1261"/>
</g>
<!-- Node2 -->
<g id="node3" class="node"><title>Node2</title>
<g id="a_node3"><a xlink:href="d5/d15/structotm_1_1_matrix.html" target="_top" xlink:title=" ">
<polygon fill="white" stroke="black" points="154,-0.5 154,-19.5 269,-19.5 269,-0.5 154,-0.5"/>
<text text-anchor="middle" x="211.5" y="-7.5" font-family="Helvetica,sans-Serif" font-size="10.00">otm::Matrix&lt; T, R, C &gt;</text>
</a>
</g>
</g>
<!-- Node0&#45;&gt;Node2 -->
<g id="edge2" class="edge"><title>Node0&#45;&gt;Node2</title>
<path fill="none" stroke="midnightblue" d="M128.209,-20.3889C136.818,-19.302 145.551,-18.1995 153.952,-17.1389"/>
<polygon fill="midnightblue" stroke="midnightblue" points="127.67,-16.9291 118.187,-21.6541 128.547,-23.8739 127.67,-16.9291"/>
</g>
</g>
</svg>
