<?xml version="1.0" encoding="UTF-8" standalone="no"?>
<!DOCTYPE svg PUBLIC "-//W3C//DTD SVG 1.1//EN"
 "http://www.w3.org/Graphics/SVG/1.1/DTD/svg11.dtd">
<!-- Generated by graphviz version 2.38.0 (20140413.2041)
 -->
<!-- Title: Graphical Class Hierarchy Pages: 1 -->
<svg width="205pt" height="142pt"
 viewBox="0.00 0.00 205.00 142.00" xmlns="http://www.w3.org/2000/svg" xmlns:xlink="http://www.w3.org/1999/xlink">
<g id="graph0" class="graph" transform="scale(1 1) rotate(0) translate(4 138)">
<title>Graphical Class Hierarchy</title>
<polygon fill="white" stroke="none" points="-4,4 -4,-138 201,-138 201,4 -4,4"/>
<!-- Node159 -->
<g id="node1" class="node"><title>Node159</title>
<g id="a_node1"><a xlink:title=" ">
<polygon fill="white" stroke="#bfbfbf" points="0,-57.5 0,-76.5 42,-76.5 42,-57.5 0,-57.5"/>
<text text-anchor="middle" x="21" y="-64.5" font-family="Helvetica,sans-Serif" font-size="10.00">Asset</text>
</a>
</g>
</g>
<!-- Node0 -->
<g id="node2" class="node"><title>Node0</title>
<g id="a_node2"><a xlink:href="classoeng_1_1renderer_1_1_material.html" target="_top" xlink:title=" ">
<polygon fill="white" stroke="black" points="78,-114.5 78,-133.5 197,-133.5 197,-114.5 78,-114.5"/>
<text text-anchor="middle" x="137.5" y="-121.5" font-family="Helvetica,sans-Serif" font-size="10.00">oeng::renderer::Material</text>
</a>
</g>
</g>
<!-- Node159&#45;&gt;Node0 -->
<g id="edge1" class="edge"><title>Node159&#45;&gt;Node0</title>
<path fill="none" stroke="midnightblue" d="M42.13,-82.6996C52.4343,-90.1951 65.4301,-98.8485 78,-105 85.3855,-108.614 93.6206,-111.773 101.526,-114.424"/>
<polygon fill="midnightblue" stroke="midnightblue" points="43.9499,-79.6901 33.8459,-76.5026 39.7569,-85.2953 43.9499,-79.6901"/>
</g>
<!-- Node161 -->
<g id="node3" class="node"><title>Node161</title>
<g id="a_node3"><a xlink:href="classoeng_1_1renderer_1_1_mesh.html" target="_top" xlink:title=" ">
<polygon fill="white" stroke="black" points="83,-76.5 83,-95.5 192,-95.5 192,-76.5 83,-76.5"/>
<text text-anchor="middle" x="137.5" y="-83.5" font-family="Helvetica,sans-Serif" font-size="10.00">oeng::renderer::Mesh</text>
</a>
</g>
</g>
<!-- Node159&#45;&gt;Node161 -->
<g id="edge2" class="edge"><title>Node159&#45;&gt;Node161</title>
<path fill="none" stroke="midnightblue" d="M52.1577,-72.0043C61.5094,-73.5561 72.1145,-75.3159 82.5714,-77.0511"/>
<polygon fill="midnightblue" stroke="midnightblue" points="52.6448,-68.5374 42.2067,-70.3531 51.4989,-75.443 52.6448,-68.5374"/>
</g>
<!-- Node162 -->
<g id="node4" class="node"><title>Node162</title>
<g id="a_node4"><a xlink:href="classoeng_1_1renderer_1_1_shader.html" target="_top" xlink:title=" ">
<polygon fill="white" stroke="black" points="79.5,-38.5 79.5,-57.5 195.5,-57.5 195.5,-38.5 79.5,-38.5"/>
<text text-anchor="middle" x="137.5" y="-45.5" font-family="Helvetica,sans-Serif" font-size="10.00">oeng::renderer::Shader</text>
</a>
</g>
</g>
<!-- Node159&#45;&gt;Node162 -->
<g id="edge3" class="edge"><title>Node159&#45;&gt;Node162</title>
<path fill="none" stroke="midnightblue" d="M52.1509,-61.9968C60.4804,-60.6146 69.8048,-59.0673 79.1334,-57.5194"/>
<polygon fill="midnightblue" stroke="midnightblue" points="51.4989,-58.557 42.2067,-63.6469 52.6448,-65.4626 51.4989,-58.557"/>
</g>
<!-- Node163 -->
<g id="node5" class="node"><title>Node163</title>
<g id="a_node5"><a xlink:href="classoeng_1_1renderer_1_1_texture.html" target="_top" xlink:title=" ">
<polygon fill="white" stroke="black" points="79,-0.5 79,-19.5 196,-19.5 196,-0.5 79,-0.5"/>
<text text-anchor="middle" x="137.5" y="-7.5" font-family="Helvetica,sans-Serif" font-size="10.00">oeng::renderer::Texture</text>
</a>
</g>
</g>
<!-- Node159&#45;&gt;Node163 -->
<g id="edge4" class="edge"><title>Node159&#45;&gt;Node163</title>
<path fill="none" stroke="midnightblue" d="M42.13,-51.3004C52.4343,-43.8049 65.4301,-35.1515 78,-29 85.3855,-25.3857 93.6206,-22.2267 101.526,-19.5761"/>
<polygon fill="midnightblue" stroke="midnightblue" points="39.7569,-48.7047 33.8459,-57.4974 43.9499,-54.3099 39.7569,-48.7047"/>
</g>
</g>
</svg>
