<?xml version="1.0" encoding="UTF-8" standalone="no"?>
<!DOCTYPE svg PUBLIC "-//W3C//DTD SVG 1.1//EN"
 "http://www.w3.org/Graphics/SVG/1.1/DTD/svg11.dtd">
<!-- Generated by graphviz version 2.38.0 (20140413.2041)
 -->
<!-- Title: Graphical Class Hierarchy Pages: 1 -->
<svg width="217pt" height="122pt"
 viewBox="0.00 0.00 217.00 121.50" xmlns="http://www.w3.org/2000/svg" xmlns:xlink="http://www.w3.org/1999/xlink">
<g id="graph0" class="graph" transform="scale(1 1) rotate(0) translate(4 117.5)">
<title>Graphical Class Hierarchy</title>
<polygon fill="white" stroke="none" points="-4,4 -4,-117.5 213,-117.5 213,4 -4,4"/>
<!-- Node167 -->
<g id="node1" class="node"><title>Node167</title>
<g id="a_node1"><a xlink:title=" ">
<polygon fill="white" stroke="#bfbfbf" points="0,-50 0,-69 38,-69 38,-50 0,-50"/>
<text text-anchor="middle" x="19" y="-57" font-family="Helvetica,sans-Serif" font-size="10.00">Alloc</text>
</a>
</g>
</g>
<!-- Node0 -->
<g id="node2" class="node"><title>Node0</title>
<g id="a_node2"><a xlink:href="classoeng_1_1core_1_1_comp_pair.html" target="_top" xlink:title=" ">
<polygon fill="white" stroke="black" points="74,-72 74,-113 209,-113 209,-72 74,-72"/>
<text text-anchor="start" x="82" y="-101" font-family="Helvetica,sans-Serif" font-size="10.00">oeng::core::CompPair</text>
<text text-anchor="start" x="82" y="-90" font-family="Helvetica,sans-Serif" font-size="10.00">&lt; Alloc, oeng::core::</text>
<text text-anchor="middle" x="141.5" y="-79" font-family="Helvetica,sans-Serif" font-size="10.00">CompPair&lt; Deleter, T * &gt; &gt;</text>
</a>
</g>
</g>
<!-- Node167&#45;&gt;Node0 -->
<g id="edge1" class="edge"><title>Node167&#45;&gt;Node0</title>
<path fill="none" stroke="#8b1a1a" d="M47.7404,-67.0969C55.6409,-69.2606 64.6061,-71.7158 73.7736,-74.2264"/>
<polygon fill="#8b1a1a" stroke="#8b1a1a" points="48.6094,-63.7061 38.0401,-64.4404 46.7604,-70.4575 48.6094,-63.7061"/>
</g>
<!-- Node169 -->
<g id="node3" class="node"><title>Node169</title>
<g id="a_node3"><a xlink:href="classoeng_1_1core_1_1_comp_pair.html" target="_top" xlink:title=" ">
<polygon fill="white" stroke="black" points="84.5,-0.5 84.5,-52.5 198.5,-52.5 198.5,-0.5 84.5,-0.5"/>
<text text-anchor="start" x="92.5" y="-40.5" font-family="Helvetica,sans-Serif" font-size="10.00">oeng::core::CompPair</text>
<text text-anchor="start" x="92.5" y="-29.5" font-family="Helvetica,sans-Serif" font-size="10.00">&lt; Alloc, oeng::core::</text>
<text text-anchor="start" x="92.5" y="-18.5" font-family="Helvetica,sans-Serif" font-size="10.00">detail::SharedObjInline</text>
<text text-anchor="middle" x="141.5" y="-7.5" font-family="Helvetica,sans-Serif" font-size="10.00">::Obj &gt;</text>
</a>
</g>
</g>
<!-- Node167&#45;&gt;Node169 -->
<g id="edge2" class="edge"><title>Node167&#45;&gt;Node169</title>
<path fill="none" stroke="#8b1a1a" d="M47.8262,-51.8795C58.7592,-48.8855 71.7209,-45.3358 84.433,-41.8544"/>
<polygon fill="#8b1a1a" stroke="#8b1a1a" points="46.7604,-48.5425 38.0401,-54.5596 48.6094,-55.2939 46.7604,-48.5425"/>
</g>
</g>
</svg>
