<?xml version="1.0" encoding="UTF-8" standalone="no"?>
<!DOCTYPE svg PUBLIC "-//W3C//DTD SVG 1.1//EN"
 "http://www.w3.org/Graphics/SVG/1.1/DTD/svg11.dtd">
<!-- Generated by graphviz version 2.38.0 (20140413.2041)
 -->
<!-- Title: Graphical Class Hierarchy Pages: 1 -->
<svg width="257pt" height="142pt"
 viewBox="0.00 0.00 257.00 142.00" xmlns="http://www.w3.org/2000/svg" xmlns:xlink="http://www.w3.org/1999/xlink">
<g id="graph0" class="graph" transform="scale(1 1) rotate(0) translate(4 138)">
<title>Graphical Class Hierarchy</title>
<polygon fill="white" stroke="none" points="-4,4 -4,-138 253,-138 253,4 -4,4"/>
<!-- Node0 -->
<g id="node1" class="node"><title>Node0</title>
<g id="a_node1"><a xlink:href="d6/d96/classoeng_1_1core_1_1_asset.html" target="_top" xlink:title=" ">
<polygon fill="white" stroke="black" points="0,-57.5 0,-76.5 94,-76.5 94,-57.5 0,-57.5"/>
<text text-anchor="middle" x="47" y="-64.5" font-family="Helvetica,sans-Serif" font-size="10.00">oeng::core::Asset</text>
</a>
</g>
</g>
<!-- Node1 -->
<g id="node2" class="node"><title>Node1</title>
<g id="a_node2"><a xlink:href="d7/df2/classoeng_1_1renderer_1_1_material.html" target="_top" xlink:title=" ">
<polygon fill="white" stroke="black" points="130,-114.5 130,-133.5 249,-133.5 249,-114.5 130,-114.5"/>
<text text-anchor="middle" x="189.5" y="-121.5" font-family="Helvetica,sans-Serif" font-size="10.00">oeng::renderer::Material</text>
</a>
</g>
</g>
<!-- Node0&#45;&gt;Node1 -->
<g id="edge1" class="edge"><title>Node0&#45;&gt;Node1</title>
<path fill="none" stroke="midnightblue" d="M76.0812,-81.0304C91.7495,-88.5998 111.736,-97.8319 130,-105 138.549,-108.355 147.956,-111.6 156.68,-114.431"/>
<polygon fill="midnightblue" stroke="midnightblue" points="77.4591,-77.8083 66.9374,-76.5656 74.3876,-84.0985 77.4591,-77.8083"/>
</g>
<!-- Node2 -->
<g id="node3" class="node"><title>Node2</title>
<g id="a_node3"><a xlink:href="df/d01/classoeng_1_1renderer_1_1_mesh.html" target="_top" xlink:title=" ">
<polygon fill="white" stroke="black" points="135,-76.5 135,-95.5 244,-95.5 244,-76.5 135,-76.5"/>
<text text-anchor="middle" x="189.5" y="-83.5" font-family="Helvetica,sans-Serif" font-size="10.00">oeng::renderer::Mesh</text>
</a>
</g>
</g>
<!-- Node0&#45;&gt;Node2 -->
<g id="edge2" class="edge"><title>Node0&#45;&gt;Node2</title>
<path fill="none" stroke="midnightblue" d="M103.931,-74.5637C114.028,-75.9291 124.537,-77.3502 134.575,-78.7076"/>
<polygon fill="midnightblue" stroke="midnightblue" points="104.384,-71.0931 94.005,-73.2213 103.446,-78.0299 104.384,-71.0931"/>
</g>
<!-- Node3 -->
<g id="node4" class="node"><title>Node3</title>
<g id="a_node4"><a xlink:href="da/d51/classoeng_1_1renderer_1_1_shader.html" target="_top" xlink:title=" ">
<polygon fill="white" stroke="black" points="131.5,-38.5 131.5,-57.5 247.5,-57.5 247.5,-38.5 131.5,-38.5"/>
<text text-anchor="middle" x="189.5" y="-45.5" font-family="Helvetica,sans-Serif" font-size="10.00">oeng::renderer::Shader</text>
</a>
</g>
</g>
<!-- Node0&#45;&gt;Node3 -->
<g id="edge3" class="edge"><title>Node0&#45;&gt;Node3</title>
<path fill="none" stroke="midnightblue" d="M103.992,-59.4282C112.989,-58.2114 122.313,-56.9506 131.337,-55.7302"/>
<polygon fill="midnightblue" stroke="midnightblue" points="103.446,-55.9701 94.005,-60.7787 104.384,-62.9069 103.446,-55.9701"/>
</g>
<!-- Node4 -->
<g id="node5" class="node"><title>Node4</title>
<g id="a_node5"><a xlink:href="d0/d18/classoeng_1_1renderer_1_1_texture.html" target="_top" xlink:title=" ">
<polygon fill="white" stroke="black" points="131,-0.5 131,-19.5 248,-19.5 248,-0.5 131,-0.5"/>
<text text-anchor="middle" x="189.5" y="-7.5" font-family="Helvetica,sans-Serif" font-size="10.00">oeng::renderer::Texture</text>
</a>
</g>
</g>
<!-- Node0&#45;&gt;Node4 -->
<g id="edge4" class="edge"><title>Node0&#45;&gt;Node4</title>
<path fill="none" stroke="midnightblue" d="M76.0812,-52.9696C91.7495,-45.4002 111.736,-36.1681 130,-29 138.549,-25.6449 147.956,-22.3998 156.68,-19.5694"/>
<polygon fill="midnightblue" stroke="midnightblue" points="74.3876,-49.9015 66.9374,-57.4344 77.4591,-56.1917 74.3876,-49.9015"/>
</g>
</g>
</svg>
