<?xml version="1.0" encoding="UTF-8" standalone="no"?>
<!DOCTYPE svg PUBLIC "-//W3C//DTD SVG 1.1//EN"
 "http://www.w3.org/Graphics/SVG/1.1/DTD/svg11.dtd">
<!-- Generated by graphviz version 2.38.0 (20140413.2041)
 -->
<!-- Title: Graphical Class Hierarchy Pages: 1 -->
<svg width="270pt" height="61pt"
 viewBox="0.00 0.00 270.00 61.00" xmlns="http://www.w3.org/2000/svg" xmlns:xlink="http://www.w3.org/1999/xlink">
<g id="graph0" class="graph" transform="scale(1 1) rotate(0) translate(4 57)">
<title>Graphical Class Hierarchy</title>
<polygon fill="white" stroke="none" points="-4,4 -4,-57 266,-57 266,4 -4,4"/>
<!-- Node88 -->
<g id="node1" class="node"><title>Node88</title>
<g id="a_node1"><a xlink:title=" ">
<polygon fill="white" stroke="#bfbfbf" points="0,-17 0,-36 86,-36 86,-17 0,-17"/>
<text text-anchor="middle" x="43" y="-24" font-family="Helvetica,sans-Serif" font-size="10.00">kLogThreadSafe</text>
</a>
</g>
</g>
<!-- Node0 -->
<g id="node2" class="node"><title>Node0</title>
<g id="a_node2"><a xlink:href="classoeng_1_1core_1_1_comp_pair.html" target="_top" xlink:title=" ">
<polygon fill="white" stroke="black" points="122,-0.5 122,-52.5 262,-52.5 262,-0.5 122,-0.5"/>
<text text-anchor="start" x="130" y="-40.5" font-family="Helvetica,sans-Serif" font-size="10.00">oeng::core::CompPair</text>
<text text-anchor="start" x="130" y="-29.5" font-family="Helvetica,sans-Serif" font-size="10.00">&lt; kLogThreadSafe, std</text>
<text text-anchor="start" x="130" y="-18.5" font-family="Helvetica,sans-Serif" font-size="10.00">::unordered_map&lt; unsigned,</text>
<text text-anchor="middle" x="192" y="-7.5" font-family="Helvetica,sans-Serif" font-size="10.00"> TimePoint &gt; &gt;</text>
</a>
</g>
</g>
<!-- Node88&#45;&gt;Node0 -->
<g id="edge1" class="edge"><title>Node88&#45;&gt;Node0</title>
<path fill="none" stroke="#8b1a1a" d="M96.379,-26.5C104.668,-26.5 113.349,-26.5 121.949,-26.5"/>
<polygon fill="#8b1a1a" stroke="#8b1a1a" points="96.1243,-23.0001 86.1243,-26.5 96.1243,-30.0001 96.1243,-23.0001"/>
</g>
</g>
</svg>
