<?xml version="1.0" encoding="UTF-8" standalone="no"?>
<!DOCTYPE svg PUBLIC "-//W3C//DTD SVG 1.1//EN"
 "http://www.w3.org/Graphics/SVG/1.1/DTD/svg11.dtd">
<!-- Generated by graphviz version 2.38.0 (20140413.2041)
 -->
<!-- Title: Graphical Class Hierarchy Pages: 1 -->
<svg width="290pt" height="66pt"
 viewBox="0.00 0.00 290.00 66.00" xmlns="http://www.w3.org/2000/svg" xmlns:xlink="http://www.w3.org/1999/xlink">
<g id="graph0" class="graph" transform="scale(1 1) rotate(0) translate(4 62)">
<title>Graphical Class Hierarchy</title>
<polygon fill="white" stroke="none" points="-4,4 -4,-62 286,-62 286,4 -4,4"/>
<!-- Node172 -->
<g id="node1" class="node"><title>Node172</title>
<g id="a_node1"><a xlink:href="classoeng_1_1core_1_1_archive.html" target="_top" xlink:title=" ">
<polygon fill="white" stroke="black" points="0,-38.5 0,-57.5 100,-57.5 100,-38.5 0,-38.5"/>
<text text-anchor="middle" x="50" y="-45.5" font-family="Helvetica,sans-Serif" font-size="10.00">oeng::core::Archive</text>
</a>
</g>
</g>
<!-- Node1 -->
<g id="node2" class="node"><title>Node1</title>
<g id="a_node2"><a xlink:href="classoeng_1_1core_1_1_archive_file_reader.html" target="_top" xlink:title=" ">
<polygon fill="white" stroke="black" points="136,-38.5 136,-57.5 282,-57.5 282,-38.5 136,-38.5"/>
<text text-anchor="middle" x="209" y="-45.5" font-family="Helvetica,sans-Serif" font-size="10.00">oeng::core::ArchiveFileReader</text>
</a>
</g>
</g>
<!-- Node172&#45;&gt;Node1 -->
<g id="edge1" class="edge"><title>Node172&#45;&gt;Node1</title>
<path fill="none" stroke="midnightblue" d="M110.281,-48C118.658,-48 127.346,-48 135.931,-48"/>
<polygon fill="midnightblue" stroke="midnightblue" points="110.245,-44.5001 100.245,-48 110.245,-51.5001 110.245,-44.5001"/>
</g>
<!-- Node2 -->
<g id="node3" class="node"><title>Node2</title>
<g id="a_node3"><a xlink:href="classoeng_1_1core_1_1_archive_file_writer.html" target="_top" xlink:title=" ">
<polygon fill="white" stroke="black" points="138,-0.5 138,-19.5 280,-19.5 280,-0.5 138,-0.5"/>
<text text-anchor="middle" x="209" y="-7.5" font-family="Helvetica,sans-Serif" font-size="10.00">oeng::core::ArchiveFileWriter</text>
</a>
</g>
</g>
<!-- Node172&#45;&gt;Node2 -->
<g id="edge2" class="edge"><title>Node172&#45;&gt;Node2</title>
<path fill="none" stroke="midnightblue" d="M100.447,-36.032C122.448,-30.7069 147.994,-24.5238 168.667,-19.5201"/>
<polygon fill="midnightblue" stroke="midnightblue" points="99.5137,-32.6567 90.6177,-38.411 101.16,-39.4602 99.5137,-32.6567"/>
</g>
<!-- Node0 -->
<g id="node4" class="node"><title>Node0</title>
<g id="a_node4"><a xlink:href="classoeng_1_1core_1_1_archive.html" target="_top" xlink:title=" ">
<polygon fill="white" stroke="black" points="0,-0.5 0,-19.5 100,-19.5 100,-0.5 0,-0.5"/>
<text text-anchor="middle" x="50" y="-7.5" font-family="Helvetica,sans-Serif" font-size="10.00">oeng::core::Archive</text>
</a>
</g>
</g>
<!-- Node0&#45;&gt;Node1 -->
<g id="edge3" class="edge"><title>Node0&#45;&gt;Node1</title>
<path fill="none" stroke="midnightblue" d="M100.447,-21.968C122.448,-27.2931 147.994,-33.4762 168.667,-38.4799"/>
<polygon fill="midnightblue" stroke="midnightblue" points="101.16,-18.5398 90.6177,-19.589 99.5137,-25.3433 101.16,-18.5398"/>
</g>
<!-- Node0&#45;&gt;Node2 -->
<g id="edge4" class="edge"><title>Node0&#45;&gt;Node2</title>
<path fill="none" stroke="midnightblue" d="M110.266,-10C119.302,-10 128.701,-10 137.942,-10"/>
<polygon fill="midnightblue" stroke="midnightblue" points="110.245,-6.5001 100.245,-10 110.245,-13.5001 110.245,-6.5001"/>
</g>
</g>
</svg>
