<?xml version="1.0" encoding="UTF-8" standalone="no"?>
<!DOCTYPE svg PUBLIC "-//W3C//DTD SVG 1.1//EN"
 "http://www.w3.org/Graphics/SVG/1.1/DTD/svg11.dtd">
<!-- Generated by graphviz version 2.38.0 (20140413.2041)
 -->
<!-- Title: Graphical Class Hierarchy Pages: 1 -->
<svg width="319pt" height="50pt"
 viewBox="0.00 0.00 319.00 50.00" xmlns="http://www.w3.org/2000/svg" xmlns:xlink="http://www.w3.org/1999/xlink">
<g id="graph0" class="graph" transform="scale(1 1) rotate(0) translate(4 46)">
<title>Graphical Class Hierarchy</title>
<polygon fill="white" stroke="none" points="-4,4 -4,-46 315,-46 315,4 -4,4"/>
<!-- Node84 -->
<g id="node1" class="node"><title>Node84</title>
<g id="a_node1"><a xlink:title=" ">
<polygon fill="white" stroke="#bfbfbf" points="0,-11.5 0,-30.5 91,-30.5 91,-11.5 0,-11.5"/>
<text text-anchor="middle" x="45.5" y="-18.5" font-family="Helvetica,sans-Serif" font-size="10.00">kPathThreadSafe</text>
</a>
</g>
</g>
<!-- Node0 -->
<g id="node2" class="node"><title>Node0</title>
<g id="a_node2"><a xlink:href="classoeng_1_1core_1_1_comp_pair.html" target="_top" xlink:title=" ">
<polygon fill="white" stroke="black" points="127,-0.5 127,-41.5 311,-41.5 311,-0.5 127,-0.5"/>
<text text-anchor="start" x="135" y="-29.5" font-family="Helvetica,sans-Serif" font-size="10.00">oeng::core::CompPair</text>
<text text-anchor="start" x="135" y="-18.5" font-family="Helvetica,sans-Serif" font-size="10.00">&lt; kPathThreadSafe, HashSet</text>
<text text-anchor="middle" x="219" y="-7.5" font-family="Helvetica,sans-Serif" font-size="10.00">&lt; fs::path, PathHasher, PathEqual &gt; &gt;</text>
</a>
</g>
</g>
<!-- Node84&#45;&gt;Node0 -->
<g id="edge1" class="edge"><title>Node84&#45;&gt;Node0</title>
<path fill="none" stroke="#8b1a1a" d="M101.21,-21C109.388,-21 118.001,-21 126.69,-21"/>
<polygon fill="#8b1a1a" stroke="#8b1a1a" points="101.112,-17.5001 91.1119,-21 101.112,-24.5001 101.112,-17.5001"/>
</g>
</g>
</svg>
