<?xml version="1.0" encoding="UTF-8" standalone="no"?>
<!DOCTYPE svg PUBLIC "-//W3C//DTD SVG 1.1//EN"
 "http://www.w3.org/Graphics/SVG/1.1/DTD/svg11.dtd">
<!-- Generated by graphviz version 2.38.0 (20140413.2041)
 -->
<!-- Title: Graphical Class Hierarchy Pages: 1 -->
<svg width="756pt" height="427pt"
 viewBox="0.00 0.00 756.00 427.00" xmlns="http://www.w3.org/2000/svg" xmlns:xlink="http://www.w3.org/1999/xlink">
<g id="graph0" class="graph" transform="scale(1 1) rotate(0) translate(4 423)">
<title>Graphical Class Hierarchy</title>
<polygon fill="white" stroke="none" points="-4,4 -4,-423 752,-423 752,4 -4,4"/>
<!-- Node123 -->
<g id="node1" class="node"><title>Node123</title>
<g id="a_node1"><a xlink:href="classoeng_1_1core_1_1_enable_shared_from_this.html" target="_top" xlink:title=" ">
<polygon fill="white" stroke="black" points="0,-204 0,-234 148,-234 148,-204 0,-204"/>
<text text-anchor="start" x="8" y="-222" font-family="Helvetica,sans-Serif" font-size="10.00">oeng::core::EnableShared</text>
<text text-anchor="middle" x="74" y="-211" font-family="Helvetica,sans-Serif" font-size="10.00">FromThis&lt; ActorComponent &gt;</text>
</a>
</g>
</g>
<!-- Node124 -->
<g id="node2" class="node"><title>Node124</title>
<g id="a_node2"><a xlink:href="classoeng_1_1engine_1_1_actor_component.html" target="_top" xlink:title=" ">
<polygon fill="white" stroke="black" points="184,-209.5 184,-228.5 335,-228.5 335,-209.5 184,-209.5"/>
<text text-anchor="middle" x="259.5" y="-216.5" font-family="Helvetica,sans-Serif" font-size="10.00">oeng::engine::ActorComponent</text>
</a>
</g>
</g>
<!-- Node123&#45;&gt;Node124 -->
<g id="edge1" class="edge"><title>Node123&#45;&gt;Node124</title>
<path fill="none" stroke="midnightblue" d="M158.086,-219C166.69,-219 175.396,-219 183.899,-219"/>
<polygon fill="midnightblue" stroke="midnightblue" points="158.051,-215.5 148.051,-219 158.051,-222.5 158.051,-215.5"/>
</g>
<!-- Node125 -->
<g id="node3" class="node"><title>Node125</title>
<g id="a_node3"><a xlink:href="classoeng_1_1engine_1_1_a_i_component.html" target="_top" xlink:title=" ">
<polygon fill="white" stroke="black" points="388.5,-228.5 388.5,-247.5 525.5,-247.5 525.5,-228.5 388.5,-228.5"/>
<text text-anchor="middle" x="457" y="-235.5" font-family="Helvetica,sans-Serif" font-size="10.00">oeng::engine::AIComponent</text>
</a>
</g>
</g>
<!-- Node124&#45;&gt;Node125 -->
<g id="edge2" class="edge"><title>Node124&#45;&gt;Node125</title>
<path fill="none" stroke="midnightblue" d="M345.58,-227.269C359.884,-228.659 374.557,-230.085 388.345,-231.425"/>
<polygon fill="midnightblue" stroke="midnightblue" points="345.539,-223.748 335.247,-226.264 344.862,-230.715 345.539,-223.748"/>
</g>
<!-- Node126 -->
<g id="node4" class="node"><title>Node126</title>
<g id="a_node4"><a xlink:href="classoeng_1_1engine_1_1_input_component.html" target="_top" xlink:title=" ">
<polygon fill="white" stroke="black" points="382.5,-190.5 382.5,-209.5 531.5,-209.5 531.5,-190.5 382.5,-190.5"/>
<text text-anchor="middle" x="457" y="-197.5" font-family="Helvetica,sans-Serif" font-size="10.00">oeng::engine::InputComponent</text>
</a>
</g>
</g>
<!-- Node124&#45;&gt;Node126 -->
<g id="edge3" class="edge"><title>Node124&#45;&gt;Node126</title>
<path fill="none" stroke="midnightblue" d="M345.462,-210.743C357.719,-209.552 370.249,-208.334 382.263,-207.166"/>
<polygon fill="midnightblue" stroke="midnightblue" points="344.862,-207.285 335.247,-211.736 345.539,-214.252 344.862,-207.285"/>
</g>
<!-- Node127 -->
<g id="node5" class="node"><title>Node127</title>
<g id="a_node5"><a xlink:href="classoeng_1_1engine_1_1_movement_component.html" target="_top" xlink:title=" ">
<polygon fill="white" stroke="black" points="371,-152.5 371,-171.5 543,-171.5 543,-152.5 371,-152.5"/>
<text text-anchor="middle" x="457" y="-159.5" font-family="Helvetica,sans-Serif" font-size="10.00">oeng::engine::MovementComponent</text>
</a>
</g>
</g>
<!-- Node124&#45;&gt;Node127 -->
<g id="edge4" class="edge"><title>Node124&#45;&gt;Node127</title>
<path fill="none" stroke="midnightblue" d="M295.116,-205.985C316.74,-198.134 345.268,-188.276 371,-181 383.223,-177.544 396.576,-174.31 409.001,-171.525"/>
<polygon fill="midnightblue" stroke="midnightblue" points="293.887,-202.708 285.702,-209.435 296.295,-209.281 293.887,-202.708"/>
</g>
<!-- Node128 -->
<g id="node6" class="node"><title>Node128</title>
<g id="a_node6"><a xlink:href="classoeng_1_1engine_1_1_scene_component.html" target="_top" xlink:title=" ">
<polygon fill="white" stroke="black" points="379.5,-266.5 379.5,-285.5 534.5,-285.5 534.5,-266.5 379.5,-266.5"/>
<text text-anchor="middle" x="457" y="-273.5" font-family="Helvetica,sans-Serif" font-size="10.00">oeng::engine::SceneComponent</text>
</a>
</g>
</g>
<!-- Node124&#45;&gt;Node128 -->
<g id="edge5" class="edge"><title>Node124&#45;&gt;Node128</title>
<path fill="none" stroke="midnightblue" d="M295.116,-232.015C316.74,-239.866 345.268,-249.724 371,-257 383.223,-260.456 396.576,-263.69 409.001,-266.475"/>
<polygon fill="midnightblue" stroke="midnightblue" points="296.295,-228.719 285.702,-228.565 293.887,-235.292 296.295,-228.719"/>
</g>
<!-- Node117 -->
<g id="node7" class="node"><title>Node117</title>
<g id="a_node7"><a xlink:href="classoeng_1_1engine_1_1_camera_component.html" target="_top" xlink:title=" ">
<polygon fill="white" stroke="black" points="583,-361.5 583,-380.5 744,-380.5 744,-361.5 583,-361.5"/>
<text text-anchor="middle" x="663.5" y="-368.5" font-family="Helvetica,sans-Serif" font-size="10.00">oeng::engine::CameraComponent</text>
</a>
</g>
</g>
<!-- Node128&#45;&gt;Node117 -->
<g id="edge6" class="edge"><title>Node128&#45;&gt;Node117</title>
<path fill="none" stroke="midnightblue" d="M534.408,-289.801C537.4,-291.357 540.28,-293.084 543,-295 567.495,-312.255 554.538,-334.698 579,-352 584.462,-355.863 590.584,-358.955 596.965,-361.428"/>
<polygon fill="midnightblue" stroke="midnightblue" points="535.695,-286.542 525.14,-285.626 532.82,-292.925 535.695,-286.542"/>
</g>
<!-- Node115 -->
<g id="node8" class="node"><title>Node115</title>
<g id="a_node8"><a xlink:href="classoeng_1_1engine_1_1_dir_light_component.html" target="_top" xlink:title=" ">
<polygon fill="white" stroke="black" points="583,-323.5 583,-342.5 744,-342.5 744,-323.5 583,-323.5"/>
<text text-anchor="middle" x="663.5" y="-330.5" font-family="Helvetica,sans-Serif" font-size="10.00">oeng::engine::DirLightComponent</text>
</a>
</g>
</g>
<!-- Node128&#45;&gt;Node115 -->
<g id="edge7" class="edge"><title>Node128&#45;&gt;Node115</title>
<path fill="none" stroke="midnightblue" d="M520.472,-287.958C528.15,-290.013 535.816,-292.355 543,-295 559.978,-301.251 562.034,-307.717 579,-314 589.038,-317.717 600.035,-320.847 610.657,-323.425"/>
<polygon fill="midnightblue" stroke="midnightblue" points="521.33,-284.565 510.777,-285.507 519.614,-291.351 521.33,-284.565"/>
</g>
<!-- Node113 -->
<g id="node9" class="node"><title>Node113</title>
<g id="a_node9"><a xlink:href="classoeng_1_1engine_1_1_mesh_component.html" target="_top" xlink:title=" ">
<polygon fill="white" stroke="black" points="587.5,-285.5 587.5,-304.5 739.5,-304.5 739.5,-285.5 587.5,-285.5"/>
<text text-anchor="middle" x="663.5" y="-292.5" font-family="Helvetica,sans-Serif" font-size="10.00">oeng::engine::MeshComponent</text>
</a>
</g>
</g>
<!-- Node128&#45;&gt;Node113 -->
<g id="edge8" class="edge"><title>Node128&#45;&gt;Node113</title>
<path fill="none" stroke="midnightblue" d="M544.926,-284.076C559.048,-285.388 573.568,-286.737 587.377,-288.02"/>
<polygon fill="midnightblue" stroke="midnightblue" points="545.011,-280.569 534.73,-283.129 544.363,-287.539 545.011,-280.569"/>
</g>
<!-- Node107 -->
<g id="node10" class="node"><title>Node107</title>
<g id="a_node10"><a xlink:href="classoeng_1_1engine_1_1_point_light_component.html" target="_top" xlink:title=" ">
<polygon fill="white" stroke="black" points="602.5,-166 602.5,-196 724.5,-196 724.5,-166 602.5,-166"/>
<text text-anchor="start" x="610.5" y="-184" font-family="Helvetica,sans-Serif" font-size="10.00">oeng::engine::PointLight</text>
<text text-anchor="middle" x="663.5" y="-173" font-family="Helvetica,sans-Serif" font-size="10.00">Component</text>
</a>
</g>
</g>
<!-- Node128&#45;&gt;Node107 -->
<g id="edge9" class="edge"><title>Node128&#45;&gt;Node107</title>
<path fill="none" stroke="midnightblue" d="M523.531,-263.781C530.208,-261.818 536.806,-259.569 543,-257 562.985,-248.71 611.973,-215.897 640.639,-196.198"/>
<polygon fill="midnightblue" stroke="midnightblue" points="522.456,-260.446 513.73,-266.456 524.299,-267.199 522.456,-260.446"/>
</g>
<!-- Node105 -->
<g id="node11" class="node"><title>Node105</title>
<g id="a_node11"><a xlink:href="classoeng_1_1engine_1_1_sky_light_component.html" target="_top" xlink:title=" ">
<polygon fill="white" stroke="black" points="580.5,-114.5 580.5,-133.5 746.5,-133.5 746.5,-114.5 580.5,-114.5"/>
<text text-anchor="middle" x="663.5" y="-121.5" font-family="Helvetica,sans-Serif" font-size="10.00">oeng::engine::SkyLightComponent</text>
</a>
</g>
</g>
<!-- Node128&#45;&gt;Node105 -->
<g id="edge10" class="edge"><title>Node128&#45;&gt;Node105</title>
<path fill="none" stroke="midnightblue" d="M537.478,-261.296C539.405,-259.976 541.251,-258.546 543,-257 578.696,-225.428 545.702,-190.092 579,-156 589.305,-145.449 603.461,-138.322 617.19,-133.531"/>
<polygon fill="midnightblue" stroke="midnightblue" points="535.5,-258.396 528.574,-266.413 538.988,-264.465 535.5,-258.396"/>
</g>
<!-- Node129 -->
<g id="node12" class="node"><title>Node129</title>
<g id="a_node12"><a xlink:href="classoeng_1_1engine_1_1_sphere_component.html" target="_top" xlink:title="Simple sphere collision component.">
<polygon fill="white" stroke="black" points="584.5,-247.5 584.5,-266.5 742.5,-266.5 742.5,-247.5 584.5,-247.5"/>
<text text-anchor="middle" x="663.5" y="-254.5" font-family="Helvetica,sans-Serif" font-size="10.00">oeng::engine::SphereComponent</text>
</a>
</g>
</g>
<!-- Node128&#45;&gt;Node129 -->
<g id="edge11" class="edge"><title>Node128&#45;&gt;Node129</title>
<path fill="none" stroke="midnightblue" d="M544.704,-267.944C557.857,-266.722 571.361,-265.468 584.318,-264.264"/>
<polygon fill="midnightblue" stroke="midnightblue" points="544.363,-264.461 534.73,-268.871 545.011,-271.431 544.363,-264.461"/>
</g>
<!-- Node103 -->
<g id="node13" class="node"><title>Node103</title>
<g id="a_node13"><a xlink:href="classoeng_1_1engine_1_1_spot_light_component.html" target="_top" xlink:title=" ">
<polygon fill="white" stroke="black" points="579,-51.5 579,-70.5 748,-70.5 748,-51.5 579,-51.5"/>
<text text-anchor="middle" x="663.5" y="-58.5" font-family="Helvetica,sans-Serif" font-size="10.00">oeng::engine::SpotLightComponent</text>
</a>
</g>
</g>
<!-- Node128&#45;&gt;Node103 -->
<g id="edge12" class="edge"><title>Node128&#45;&gt;Node103</title>
<path fill="none" stroke="midnightblue" d="M538.406,-261.014C540.012,-259.77 541.547,-258.434 543,-257 592.4,-208.221 536.479,-159.879 579,-105 591.846,-88.4202 612.721,-77.4202 630.385,-70.5652"/>
<polygon fill="midnightblue" stroke="midnightblue" points="536.381,-258.154 529.848,-266.496 540.157,-264.049 536.381,-258.154"/>
</g>
<!-- Node1 -->
<g id="node14" class="node"><title>Node1</title>
<g id="a_node14"><a xlink:href="classoeng_1_1engine_1_1_sprite_component.html" target="_top" xlink:title=" ">
<polygon fill="white" stroke="black" points="587,-13.5 587,-32.5 740,-32.5 740,-13.5 587,-13.5"/>
<text text-anchor="middle" x="663.5" y="-20.5" font-family="Helvetica,sans-Serif" font-size="10.00">oeng::engine::SpriteComponent</text>
</a>
</g>
</g>
<!-- Node128&#45;&gt;Node1 -->
<g id="edge13" class="edge"><title>Node128&#45;&gt;Node1</title>
<path fill="none" stroke="midnightblue" d="M539.164,-260.621C540.503,-259.488 541.785,-258.283 543,-257 609.634,-186.666 512.501,-112.461 579,-42 582.571,-38.2157 586.727,-35.1111 591.241,-32.571"/>
<polygon fill="midnightblue" stroke="midnightblue" points="537.145,-257.761 530.923,-266.336 541.135,-263.513 537.145,-257.761"/>
</g>
<!-- Node116 -->
<g id="node15" class="node"><title>Node116</title>
<g id="a_node15"><a xlink:href="classoeng_1_1renderer_1_1_i_camera.html" target="_top" xlink:title=" ">
<polygon fill="white" stroke="black" points="396.5,-399.5 396.5,-418.5 517.5,-418.5 517.5,-399.5 396.5,-399.5"/>
<text text-anchor="middle" x="457" y="-406.5" font-family="Helvetica,sans-Serif" font-size="10.00">oeng::renderer::ICamera</text>
</a>
</g>
</g>
<!-- Node116&#45;&gt;Node117 -->
<g id="edge14" class="edge"><title>Node116&#45;&gt;Node117</title>
<path fill="none" stroke="midnightblue" d="M519.448,-397.582C548.708,-392.145 583.301,-385.717 611.139,-380.544"/>
<polygon fill="midnightblue" stroke="midnightblue" points="518.532,-394.192 509.34,-399.46 519.811,-401.074 518.532,-394.192"/>
</g>
<!-- Node118 -->
<g id="node16" class="node"><title>Node118</title>
<g id="a_node16"><a xlink:href="classoeng_1_1renderer_1_1_default_camera.html" target="_top" xlink:title=" ">
<polygon fill="white" stroke="black" points="589,-399.5 589,-418.5 738,-418.5 738,-399.5 589,-399.5"/>
<text text-anchor="middle" x="663.5" y="-406.5" font-family="Helvetica,sans-Serif" font-size="10.00">oeng::renderer::DefaultCamera</text>
</a>
</g>
</g>
<!-- Node116&#45;&gt;Node118 -->
<g id="edge15" class="edge"><title>Node116&#45;&gt;Node118</title>
<path fill="none" stroke="midnightblue" d="M527.821,-409C547.522,-409 569.015,-409 588.929,-409"/>
<polygon fill="midnightblue" stroke="midnightblue" points="527.7,-405.5 517.7,-409 527.7,-412.5 527.7,-405.5"/>
</g>
<!-- Node114 -->
<g id="node17" class="node"><title>Node114</title>
<g id="a_node17"><a xlink:href="classoeng_1_1renderer_1_1_i_dir_light.html" target="_top" xlink:title=" ">
<polygon fill="white" stroke="black" points="397,-342.5 397,-361.5 517,-361.5 517,-342.5 397,-342.5"/>
<text text-anchor="middle" x="457" y="-349.5" font-family="Helvetica,sans-Serif" font-size="10.00">oeng::renderer::IDirLight</text>
</a>
</g>
</g>
<!-- Node114&#45;&gt;Node115 -->
<g id="edge16" class="edge"><title>Node114&#45;&gt;Node115</title>
<path fill="none" stroke="midnightblue" d="M527.212,-345.57C545.121,-343.906 564.544,-342.101 582.936,-340.392"/>
<polygon fill="midnightblue" stroke="midnightblue" points="526.783,-342.094 517.15,-346.504 527.431,-349.064 526.783,-342.094"/>
</g>
<!-- Node112 -->
<g id="node18" class="node"><title>Node112</title>
<g id="a_node18"><a xlink:href="classoeng_1_1renderer_1_1_i_mesh_component.html" target="_top" xlink:title=" ">
<polygon fill="white" stroke="black" points="376.5,-304.5 376.5,-323.5 537.5,-323.5 537.5,-304.5 376.5,-304.5"/>
<text text-anchor="middle" x="457" y="-311.5" font-family="Helvetica,sans-Serif" font-size="10.00">oeng::renderer::IMeshComponent</text>
</a>
</g>
</g>
<!-- Node112&#45;&gt;Node113 -->
<g id="edge17" class="edge"><title>Node112&#45;&gt;Node113</title>
<path fill="none" stroke="midnightblue" d="M547.714,-305.665C560.966,-304.433 574.504,-303.176 587.418,-301.976"/>
<polygon fill="midnightblue" stroke="midnightblue" points="547.284,-302.19 537.651,-306.6 547.932,-309.159 547.284,-302.19"/>
</g>
<!-- Node106 -->
<g id="node19" class="node"><title>Node106</title>
<g id="a_node19"><a xlink:href="classoeng_1_1renderer_1_1_i_point_light.html" target="_top" xlink:title=" ">
<polygon fill="white" stroke="black" points="391.5,-114.5 391.5,-133.5 522.5,-133.5 522.5,-114.5 391.5,-114.5"/>
<text text-anchor="middle" x="457" y="-121.5" font-family="Helvetica,sans-Serif" font-size="10.00">oeng::renderer::IPointLight</text>
</a>
</g>
</g>
<!-- Node106&#45;&gt;Node107 -->
<g id="edge18" class="edge"><title>Node106&#45;&gt;Node107</title>
<path fill="none" stroke="midnightblue" d="M514.032,-135.79C523.727,-138.039 533.683,-140.482 543,-143 568.22,-149.814 596.053,-158.59 618.509,-165.991"/>
<polygon fill="midnightblue" stroke="midnightblue" points="514.586,-132.326 504.059,-133.52 513.033,-139.152 514.586,-132.326"/>
</g>
<!-- Node104 -->
<g id="node20" class="node"><title>Node104</title>
<g id="a_node20"><a xlink:href="classoeng_1_1renderer_1_1_i_sky_light.html" target="_top" xlink:title=" ">
<polygon fill="white" stroke="black" points="394.5,-76.5 394.5,-95.5 519.5,-95.5 519.5,-76.5 394.5,-76.5"/>
<text text-anchor="middle" x="457" y="-83.5" font-family="Helvetica,sans-Serif" font-size="10.00">oeng::renderer::ISkyLight</text>
</a>
</g>
</g>
<!-- Node104&#45;&gt;Node105 -->
<g id="edge19" class="edge"><title>Node104&#45;&gt;Node105</title>
<path fill="none" stroke="midnightblue" d="M519.448,-97.4181C548.708,-102.855 583.301,-109.283 611.139,-114.456"/>
<polygon fill="midnightblue" stroke="midnightblue" points="519.811,-93.9259 509.34,-95.54 518.532,-100.808 519.811,-93.9259"/>
</g>
<!-- Node102 -->
<g id="node21" class="node"><title>Node102</title>
<g id="a_node21"><a xlink:href="classoeng_1_1renderer_1_1_i_spot_light.html" target="_top" xlink:title=" ">
<polygon fill="white" stroke="black" points="393,-38.5 393,-57.5 521,-57.5 521,-38.5 393,-38.5"/>
<text text-anchor="middle" x="457" y="-45.5" font-family="Helvetica,sans-Serif" font-size="10.00">oeng::renderer::ISpotLight</text>
</a>
</g>
</g>
<!-- Node102&#45;&gt;Node103 -->
<g id="edge20" class="edge"><title>Node102&#45;&gt;Node103</title>
<path fill="none" stroke="midnightblue" d="M531.069,-52.645C546.593,-53.6318 563.097,-54.681 578.976,-55.6904"/>
<polygon fill="midnightblue" stroke="midnightblue" points="531.227,-49.1481 521.025,-52.0065 530.783,-56.134 531.227,-49.1481"/>
</g>
<!-- Node0 -->
<g id="node22" class="node"><title>Node0</title>
<g id="a_node22"><a xlink:href="classoeng_1_1renderer_1_1_i_sprite_component.html" target="_top" xlink:title=" ">
<polygon fill="white" stroke="black" points="376,-0.5 376,-19.5 538,-19.5 538,-0.5 376,-0.5"/>
<text text-anchor="middle" x="457" y="-7.5" font-family="Helvetica,sans-Serif" font-size="10.00">oeng::renderer::ISpriteComponent</text>
</a>
</g>
</g>
<!-- Node0&#45;&gt;Node1 -->
<g id="edge21" class="edge"><title>Node0&#45;&gt;Node1</title>
<path fill="none" stroke="midnightblue" d="M548.448,-15.7497C561.267,-16.5646 574.336,-17.3955 586.836,-18.1901"/>
<polygon fill="midnightblue" stroke="midnightblue" points="548.439,-12.2422 538.237,-15.1006 547.995,-19.2281 548.439,-12.2422"/>
</g>
</g>
</svg>
