<?xml version="1.0" encoding="UTF-8" standalone="no"?>
<!DOCTYPE svg PUBLIC "-//W3C//DTD SVG 1.1//EN"
 "http://www.w3.org/Graphics/SVG/1.1/DTD/svg11.dtd">
<!-- Generated by graphviz version 2.38.0 (20140413.2041)
 -->
<!-- Title: oeng::core::detail::CanEnableShared&lt; T, std::void_t&lt; typename T::EsftType &gt; &gt; Pages: 1 -->
<svg width="126pt" height="150pt"
 viewBox="0.00 0.00 126.00 150.00" xmlns="http://www.w3.org/2000/svg" xmlns:xlink="http://www.w3.org/1999/xlink">
<g id="graph0" class="graph" transform="scale(1 1) rotate(0) translate(4 146)">
<title>oeng::core::detail::CanEnableShared&lt; T, std::void_t&lt; typename T::EsftType &gt; &gt;</title>
<polygon fill="white" stroke="none" points="-4,4 -4,-146 122,-146 122,4 -4,4"/>
<!-- Node1 -->
<g id="node1" class="node"><title>Node1</title>
<g id="a_node1"><a xlink:title=" ">
<polygon fill="#bfbfbf" stroke="black" points="0,-0.5 0,-52.5 118,-52.5 118,-0.5 0,-0.5"/>
<text text-anchor="start" x="8" y="-40.5" font-family="Helvetica,sans-Serif" font-size="10.00">oeng::core::detail</text>
<text text-anchor="start" x="8" y="-29.5" font-family="Helvetica,sans-Serif" font-size="10.00">::CanEnableShared&lt; T,</text>
<text text-anchor="start" x="8" y="-18.5" font-family="Helvetica,sans-Serif" font-size="10.00"> std::void_t&lt; typename</text>
<text text-anchor="middle" x="59" y="-7.5" font-family="Helvetica,sans-Serif" font-size="10.00"> T::EsftType &gt; &gt;</text>
</a>
</g>
</g>
<!-- Node2 -->
<g id="node2" class="node"><title>Node2</title>
<g id="a_node2"><a xlink:title=" ">
<polygon fill="white" stroke="#bfbfbf" points="7,-89.5 7,-141.5 111,-141.5 111,-89.5 7,-89.5"/>
<text text-anchor="start" x="15" y="-129.5" font-family="Helvetica,sans-Serif" font-size="10.00">std::is_convertible</text>
<text text-anchor="start" x="15" y="-118.5" font-family="Helvetica,sans-Serif" font-size="10.00">&lt; std::remove_cv_t&lt;</text>
<text text-anchor="start" x="15" y="-107.5" font-family="Helvetica,sans-Serif" font-size="10.00"> T &gt; *, T::EsftType *</text>
<text text-anchor="middle" x="59" y="-96.5" font-family="Helvetica,sans-Serif" font-size="10.00"> &gt;::type</text>
</a>
</g>
</g>
<!-- Node2&#45;&gt;Node1 -->
<g id="edge1" class="edge"><title>Node2&#45;&gt;Node1</title>
<path fill="none" stroke="midnightblue" d="M59,-79.1908C59,-70.2824 59,-60.8986 59,-52.6075"/>
<polygon fill="midnightblue" stroke="midnightblue" points="55.5001,-79.336 59,-89.336 62.5001,-79.336 55.5001,-79.336"/>
</g>
</g>
</svg>
